<?xml version="1.0" encoding="UTF-8"?>
<svg  xmlns="http://www.w3.org/2000/svg">
    <defs>

        <symbol id="icon__cyprus" viewBox="0 0 576 358">
            <g clip-path="url(#clip0_904_12029)">
                <path d="M21.654 239.055L21.2259 239.939C21.0415 240.319 20.9824 240.748 21.0571 241.164L21.2837 242.428C21.3835 242.984 21.1479 243.546 20.6817 243.866C20.2857 244.137 20.0514 244.588 20.0573 245.068L20.0698 246.079C20.0744 246.453 20.1843 246.819 20.3869 247.135L22.3528 250.195C22.4346 250.323 22.5306 250.44 22.6389 250.546L23.4285 251.316L24.3987 252.263C24.6971 252.554 24.9 252.93 24.9574 253.343C25.0967 254.345 25.1989 255.695 24.8982 256.004C24.4335 256.48 24.4452 257.421 24.451 257.891C24.4568 258.362 22.5865 259.326 22.116 259.332C21.8311 259.336 21.8965 260.054 22.0166 260.674C22.0855 261.03 22.2763 261.348 22.5358 261.601L24.0445 263.073L26.4202 264.926L28.6908 266.399C29.0639 266.641 29.3487 267 29.4784 267.425C29.6194 267.887 29.7572 268.405 29.7602 268.649C29.7642 268.971 30.4693 270.227 30.9735 271.07C31.1255 271.324 31.3355 271.538 31.5839 271.699L31.9887 271.962C32.4015 272.23 32.8986 272.336 33.3848 272.26L34.9292 272.02C35.5513 271.923 36.1825 272.125 36.6331 272.565L38.005 273.903C38.1989 274.092 38.4292 274.24 38.6819 274.338L40.0834 274.878C40.4609 275.024 40.7904 275.278 40.9889 275.63C41.2941 276.172 41.6264 276.902 41.6331 277.443L41.6738 280.735C41.6776 281.045 41.7537 281.35 41.896 281.626L42.9773 283.724C43.0758 283.915 43.2045 284.089 43.3583 284.239L43.4856 284.363C43.8653 284.733 44.0823 285.239 44.0889 285.77L44.1019 286.823L44.1368 289.646C44.14 289.901 44.5776 290.31 45.007 290.642C45.3586 290.915 45.6449 291.268 45.7908 291.689L46.3787 293.382C46.4857 293.69 46.5157 294.02 46.4661 294.343L46.1061 296.68L45.8966 297.8C45.7549 298.557 46.0605 299.328 46.6823 299.782L47.0259 300.033C47.3752 300.289 47.7977 300.424 48.2305 300.419L50.3871 300.392C50.6225 300.389 50.9945 300.507 51.3173 300.633C51.6414 300.76 51.9078 300.996 52.1044 301.283L53.5277 303.362C53.6558 303.549 53.8148 303.713 53.9978 303.847L55.0824 304.639C55.4318 304.895 55.8546 305.03 56.2873 305.025L57.7269 305.007C57.8904 305.005 58.0536 305.023 58.2127 305.06L59.2256 305.3C59.6384 305.398 60.0094 305.625 60.285 305.947L62.0598 308.024C62.1848 308.171 62.3302 308.298 62.4916 308.403L65.0945 310.092L68.2339 312.716C68.3594 312.821 68.4972 312.91 68.6444 312.981L69.2041 313.253C69.8858 313.583 70.6957 313.5 71.296 313.038L71.8214 312.634C72.0581 312.452 72.3326 312.325 72.6247 312.263L73.8564 312C74.2914 311.908 74.7449 311.963 75.1451 312.157L76.4212 312.775L78.4259 313.548C78.6633 313.64 78.916 313.685 79.1704 313.682L80.8915 313.661C81.0551 313.659 81.2182 313.677 81.3773 313.715L86.5522 314.941C86.7175 314.98 86.877 315.04 87.0271 315.119L92.0114 317.758L96.2807 320.529L98.8498 322.196C99.0333 322.315 99.2351 322.404 99.4472 322.457L113.288 325.965L115.176 326.413L118.011 327.319L120.673 328.17C120.788 328.206 120.905 328.233 121.024 328.248L123.581 328.581C123.948 328.629 124.321 328.564 124.65 328.394C124.932 328.249 125.17 328.033 125.343 327.767L125.552 327.444C125.841 326.999 126.295 326.687 126.813 326.577L128.015 326.321C128.236 326.274 128.465 326.265 128.69 326.294L130.891 326.581C131.379 326.644 131.874 326.526 132.28 326.248L132.885 325.833C132.994 325.759 133.095 325.674 133.187 325.579L134.681 324.048C134.831 323.894 135.005 323.766 135.196 323.667L137.475 322.492C137.633 322.411 137.801 322.351 137.975 322.314L140.06 321.87L146.796 321.337C147.005 321.32 147.21 321.271 147.404 321.191L149.304 320.403C149.403 320.362 149.498 320.314 149.588 320.258L151.082 319.336C151.533 319.058 152.079 318.965 152.586 319.119C153.204 319.307 153.896 319.564 154.151 319.813C154.532 320.185 155.251 319.957 155.563 319.796L157.013 319.048C157.289 318.906 157.595 318.83 157.905 318.826L159.931 318.801C160.146 318.798 160.36 318.83 160.565 318.895L164.508 320.156L166.489 320.92C166.742 321.017 166.972 321.165 167.166 321.354L168.675 322.827C168.743 322.893 168.815 322.954 168.892 323.01L170.295 324.036C170.546 324.219 170.751 324.458 170.893 324.734L171.528 325.966C171.603 326.111 171.695 326.247 171.803 326.37L176.971 332.25C177.23 332.545 177.397 332.909 177.45 333.298L177.808 335.901C177.859 336.266 178.009 336.611 178.243 336.897L179.796 338.789L181.055 340.829C181.175 341.024 181.261 341.239 181.309 341.463L181.564 342.661C181.674 343.179 181.574 343.721 181.285 344.166L180.813 344.894L180.1 345.993C179.97 346.193 179.957 346.448 180.066 346.66C180.235 346.987 180.636 347.116 180.963 346.947L181.128 346.862C181.245 346.802 181.375 346.769 181.508 346.768L186.48 346.706C186.791 346.702 187.096 346.626 187.372 346.484L189.758 345.254L191.209 344.506C191.485 344.364 191.79 344.288 192.1 344.284L192.374 344.28C192.8 344.275 193.211 344.439 193.516 344.737C193.821 345.034 194.232 345.198 194.658 345.193L195.676 345.181C195.808 345.179 195.94 345.19 196.069 345.215L198.233 345.62L201.538 346.52C202.167 346.669 203.613 346.871 204.361 346.485C204.688 346.316 204.907 346.082 205.049 345.846C205.322 345.392 205.071 344.854 204.691 344.483L203.379 343.203L201.468 340.874L198.965 338.026C198.729 337.757 198.569 337.43 198.503 337.078C197.977 334.277 197.091 329.399 197.082 328.694C197.071 327.753 197.065 327.282 197.524 326.335L198.441 324.442C198.9 323.495 198.894 323.024 199.353 322.078C199.812 321.131 204.465 316.838 204.929 316.362L209.111 312.075C209.483 311.694 215.191 309.02 217.998 307.73L222.68 305.79L231.242 303.423C231.472 303.359 231.712 303.338 231.95 303.358L241.012 304.151L250.291 305.426C250.389 305.44 250.489 305.446 250.588 305.445L256.615 305.37C256.886 305.367 257.153 305.308 257.401 305.199L259.544 304.249C260.029 304.034 260.409 303.635 260.6 303.14L260.94 302.258C261.116 301.801 261.454 301.425 261.889 301.2L262.919 300.67C263.029 300.613 263.144 300.567 263.262 300.531L265.934 299.732C266.218 299.647 266.518 299.625 266.81 299.675C267.852 299.852 269.488 300.18 270.141 300.497C271.088 300.956 272.476 299.057 273.417 299.045C274.066 299.037 275.687 298.551 276.723 298.209C277.018 298.111 277.282 297.942 277.499 297.72L278.45 296.745C278.82 296.366 279.326 296.149 279.857 296.142L281.997 296.116C282.212 296.113 282.425 296.076 282.628 296.005L284.687 295.29C284.98 295.189 285.246 295.02 285.463 294.798L287.963 292.235C288.239 291.952 288.592 291.758 288.978 291.675L292.756 290.871C292.97 290.826 293.175 290.745 293.363 290.633L301.388 285.853C301.753 285.636 302.026 285.293 302.155 284.889C302.315 284.389 302.691 283.988 303.18 283.798L305.951 282.72C306.086 282.667 306.226 282.63 306.369 282.608L309.441 282.13L313.2 281.613L314.233 281.6C315.033 281.59 315.75 281.104 316.056 280.365L316.418 279.491C316.724 278.752 317.447 278.262 318.221 278.058C318.712 277.929 319.293 277.73 319.914 277.435C320.108 277.343 320.282 277.214 320.43 277.058C320.808 276.659 321.133 276.262 321.128 275.868C321.126 275.721 321.27 275.663 321.473 275.656C322.151 275.633 322.859 275.594 323.366 275.143C324.094 274.495 324.866 273.735 324.863 273.469C324.858 273.092 326.096 271.728 326.716 271.093L327.531 270.257C327.902 269.878 328.408 269.661 328.938 269.654L333.285 269.6L339.402 269.525L341.01 269.505C341.735 269.496 342.373 269.024 342.594 268.333C342.649 268.16 342.676 267.98 342.674 267.799L342.648 265.72C342.639 264.967 343.558 263.199 344.019 262.409L347.13 258.306C347.217 258.192 347.315 258.087 347.424 257.994L349.182 256.491C349.722 256.03 349.977 255.317 349.852 254.618L349.578 253.092C349.558 252.984 349.548 252.874 349.547 252.764L349.487 247.919C349.485 247.809 349.474 247.701 349.459 247.592C349.301 246.473 349.185 243.235 349.833 237.868C350.5 232.344 354.535 228.126 356.606 226.594C356.703 226.522 356.792 226.446 356.88 226.364C357.192 226.076 357.989 225.378 359.545 224.101C361.381 222.595 379.244 223.206 388.323 223.718C388.586 223.733 388.837 223.8 389.074 223.914L392.21 225.434C392.404 225.528 392.581 225.653 392.734 225.803L393.455 226.505C394.405 227.278 396.401 228.822 396.777 228.817C397.154 228.812 398.518 230.05 399.153 230.67C399.471 230.98 400.576 231.593 402.458 231.57C404.811 231.541 404.334 231.076 405.269 230.594C406.205 230.112 406.669 229.636 407.604 229.154C408.099 228.899 408.76 228.765 409.287 228.702C409.716 228.651 410.138 228.514 410.469 228.234C411.132 227.673 411.991 226.857 412.274 226.273C412.733 225.326 413.186 223.908 413.651 223.432C414.116 222.956 415.98 221.521 416.91 220.568C417.597 219.864 419.69 220.161 420.873 220.447C421.054 220.49 421.237 220.515 421.423 220.513L425.378 220.464C426.319 220.452 426.767 218.564 427.702 218.082L427.72 218.073C428.316 217.77 428.974 218.3 429.564 218.614C429.953 218.821 430.338 218.991 430.536 218.988C430.72 218.986 431.061 219.056 431.417 219.147C432.053 219.308 432.731 219.192 433.27 218.817C433.865 218.403 434.515 217.998 434.759 217.995C434.961 217.992 435.265 218.169 435.552 218.382C435.978 218.697 436.48 218.915 437.011 218.908L437.123 218.907C437.437 218.903 438.25 218.705 438.993 217.943C439.583 217.338 440.221 217.483 440.618 217.723C440.802 217.834 440.974 217.967 441.168 218.061L442.607 218.758C442.715 218.811 442.818 218.873 442.915 218.943L444.13 219.832C444.48 220.087 444.902 220.222 445.335 220.217L445.945 220.209C446.34 220.204 446.725 220.321 447.073 220.507C447.623 220.801 448.37 221.12 448.915 221.114C449.856 221.102 449.397 222.049 449.879 222.984C450.361 223.919 450.355 223.449 450.831 223.913C451.155 224.23 452.18 224.333 452.865 224.352C453.08 224.358 453.293 224.32 453.495 224.246C454.045 224.044 454.915 223.702 455.531 223.385C455.932 223.178 456.175 223.325 456.315 223.578C456.541 223.987 456.748 224.443 457.168 224.646C457.34 224.73 457.53 224.772 457.721 224.769L458.551 224.759C459.017 224.753 459.44 224.484 459.644 224.065C459.727 223.892 459.772 223.703 459.758 223.513C459.719 222.993 459.592 222.234 459.277 221.927C459.083 221.737 458.72 221.705 458.348 221.74C457.734 221.798 457.092 221.753 456.575 221.418L456.349 221.271C456.101 221.11 455.891 220.896 455.736 220.644L455.157 219.706C454.772 219.082 454.762 218.296 455.132 217.662C455.591 216.874 455.456 215.875 454.803 215.238L454.123 214.575C454.047 214.5 453.977 214.42 453.913 214.334L447.787 206.07C446.988 204.825 445.198 202.149 444.436 201.406C443.483 200.476 440.631 198.159 439.684 197.7C438.737 197.241 432.098 193.088 431.622 192.623C431.146 192.159 427.8 187.965 427.318 187.03C427.004 186.421 426.442 184.317 426.066 182.797C425.921 182.212 425.527 181.72 424.988 181.452C423.654 180.788 421.886 179.872 421.579 179.572C421.198 179.2 417.598 174.759 415.845 172.584L414.405 170.249L413.883 169.487C413.602 169.077 413.179 168.784 412.692 168.679C412.064 168.544 411.346 168.405 411.088 168.408C410.969 168.409 410.846 168.379 410.729 168.333C410.309 168.166 410.138 167.695 410.133 167.243C410.127 166.792 410.302 166.357 410.611 166.027C411.412 165.173 412.445 163.993 412.441 163.686C412.436 163.215 410.525 160.886 410.048 160.421C409.572 159.957 409.061 156.669 409.055 156.198L408.997 151.494C408.991 151.023 409.891 147.718 409.885 147.248C409.879 146.777 412.156 140.632 412.15 140.161C412.145 139.691 413.533 137.791 413.992 136.844L416.286 132.11L417.576 129.448C417.634 129.33 417.703 129.217 417.782 129.112L420.576 125.427C420.791 125.144 421.076 124.923 421.404 124.787L425.435 123.117C425.535 123.075 425.638 123.042 425.743 123.017L428.977 122.257C429.508 122.132 430.067 122.229 430.524 122.526L430.823 122.72C431.091 122.894 431.397 123.001 431.715 123.033L435.471 123.403L439.46 123.354C439.623 123.352 439.786 123.329 439.944 123.288L441.344 122.919C441.502 122.878 441.665 122.856 441.828 122.854L444.403 122.822C444.714 122.818 445.019 122.742 445.295 122.6L447.747 121.336C448.295 121.053 448.682 120.533 448.796 119.926L449.057 118.529L449.493 115.7L449.899 112.58C449.915 112.461 449.941 112.344 449.978 112.229L451.152 108.556C451.238 108.288 451.379 108.041 451.566 107.831L456.292 102.546C456.355 102.475 456.424 102.409 456.497 102.347L471.757 89.5441L478.085 84.4435C478.214 84.3398 478.355 84.2524 478.506 84.1833L486.702 80.4186L494.659 77.0262L499.659 74.6785C499.757 74.6328 499.85 74.5792 499.939 74.5184L503.786 71.8844C503.931 71.7849 504.063 71.6665 504.177 71.5325L507.159 68.039C507.221 67.9663 507.288 67.8981 507.36 67.835L510.51 65.0661L514.993 60.4711C515.102 60.3595 515.224 60.2609 515.356 60.1775L521.227 56.4634L527.285 51.6829L529.367 49.904C529.818 49.5184 530.075 48.9523 530.067 48.3588L530.049 46.8953C530.043 46.402 530.438 45.9972 530.931 45.9911C531.252 45.9871 531.546 45.8117 531.701 45.5314L533.291 42.6679L534.679 40.7685L538.072 36.8549C538.282 36.6135 538.546 36.4257 538.842 36.3073L544.084 34.2166C544.344 34.1129 544.579 33.9559 544.774 33.7556L546.532 31.9535C546.71 31.7714 546.921 31.6248 547.154 31.5217L550.077 30.2256L552.039 29.4127C552.289 29.309 552.516 29.1556 552.705 28.9617L553.234 28.4196C553.604 28.0399 554.11 27.8229 554.641 27.8164L557.218 27.7845C557.749 27.7779 558.246 27.5445 558.69 27.2549C559.051 27.0202 559.492 26.8152 559.917 26.81C560.239 26.806 560.34 26.5749 560.325 26.263C560.294 25.6153 560.657 24.9186 561.305 24.9106L563.273 24.8862C563.527 24.8831 563.778 24.8314 564.013 24.734L565.754 24.0126C565.916 23.9454 566.069 23.8571 566.208 23.7501L567.07 23.0865C567.569 22.7026 567.858 22.1062 567.851 21.4767L567.811 18.2422L567.793 16.7846C567.789 16.5048 567.844 16.2274 567.955 15.9703L569.617 12.1025C570.364 10.8738 569.144 9.75559 567.706 9.77337C567.235 9.77919 564.418 10.2846 563.483 10.7667C562.822 11.1075 561.136 11.7304 560.106 12.0952C559.862 12.1816 559.637 12.3126 559.442 12.4834L557.034 14.6C556.675 14.9152 556.214 15.0827 555.742 15.1543C554.258 15.3793 551.799 16.2294 549.932 18.4633C549.71 18.8054 549.596 19.1546 549.553 19.4885C549.451 20.2866 548.889 21.2996 548.085 21.3096L547.084 21.3219C546.813 21.3253 546.546 21.3836 546.298 21.4934L543.397 22.7792L541.568 23.7225C540.96 24.0359 540.234 24.017 539.644 23.6724L538.701 23.1224C538.387 22.9397 538.031 22.8456 537.668 22.8501L535.953 22.8713C535.591 22.8758 535.236 22.9787 534.928 23.169L533.274 24.1895C533.134 24.2753 533.007 24.3778 532.891 24.4928C532.324 25.0541 531.141 26.155 529.806 27.1824C527.941 28.6172 527.935 28.1467 527.012 29.5698C526.088 30.9929 523.248 29.6163 522.307 29.628L521.619 29.6365C521.151 29.6423 520.701 29.8119 520.345 30.1158L518.652 31.5624C518.296 31.8663 517.845 32.036 517.377 32.0418L515.94 32.0595C515.238 32.0682 514.591 32.4448 514.238 33.0517L513.426 34.4434L512.282 37.205C512.134 37.5635 511.884 37.871 511.564 38.0902L509.706 39.3623C509.412 39.5637 509.065 39.6736 508.709 39.678L507.856 39.6885C507.33 39.695 506.908 40.1271 506.915 40.6536C506.918 40.9432 506.79 41.2187 506.566 41.4024L504.591 43.0229C503.036 44.1401 499.833 46.3757 499.456 46.3804C498.986 46.3862 498.51 45.9215 497.574 46.4036C496.639 46.8858 495.704 47.3679 495.239 47.8442C494.775 48.3205 494.775 48.3205 493.363 48.338L491.207 48.3646C490.774 48.37 490.353 48.5128 490.023 48.7925C489.36 49.3544 488.5 50.17 488.217 50.7544C487.758 51.7012 487.288 51.7071 486.352 52.1892C485.604 52.5749 484.476 52.683 484.006 52.6888L482.124 52.7121L480.714 52.7295C480.404 52.7333 480.099 52.8105 479.82 52.9471C479.143 53.2785 478.206 53.7016 477.901 53.7054C477.431 53.7112 476.954 53.2466 476.008 52.7877C475.061 52.3288 473.643 51.8758 473.173 51.8816C472.585 51.8889 472.032 52.1856 471.75 52.7012C471.517 53.1267 471.312 53.5687 471.314 53.7869C471.319 54.1633 470.704 55.2061 470.397 55.6805C470.091 56.3117 469.386 57.6693 469.014 58.0504C468.681 58.3922 467.073 59.7848 466.073 60.6424C465.864 60.822 465.693 61.0417 465.575 61.291C465.092 62.3103 464.381 63.8933 464.385 64.225C464.39 64.6014 462.838 65.9695 462.062 66.6065L455.105 71.5168C454.775 71.7501 454.381 71.8777 453.977 71.8827L451.271 71.9162C450.694 71.9233 450.148 72.1784 449.778 72.6205C448.618 74.0042 446.967 76.0405 446.658 76.6789C446.29 77.4363 444.638 78.2724 443.858 78.5958L437.435 80.9795C437.345 81.0129 437.26 81.0517 437.175 81.0976C434.483 82.5627 429.154 85.3655 428.413 85.3747C427.699 85.3835 424.698 87.3948 423.063 88.5557C422.893 88.6764 422.707 88.7704 422.508 88.8342L416.715 90.6955L404.064 95.0871L401.893 95.9869C401.78 96.0336 401.664 96.07 401.544 96.0947C400.699 96.2694 399.135 96.5597 398.436 96.5684C397.495 96.58 396.101 98.009 395.636 98.4853C395.171 98.9616 391.872 98.5318 391.407 99.0081C391.083 99.3406 389.3 99.4762 388.121 99.5144C387.811 99.5244 387.504 99.4547 387.224 99.3193L386.18 98.8134C385.901 98.678 385.594 98.6095 385.283 98.6133L380.275 98.6753C380.165 98.6766 380.055 98.6871 379.947 98.7065L374.771 99.635C374.575 99.6702 374.385 99.7346 374.208 99.8259L367.929 103.063L360.913 106.444L358.721 107.796C358.626 107.855 358.535 107.922 358.451 107.996L355.319 110.748L351.847 113.42C351.677 113.551 351.487 113.653 351.283 113.724L345.967 115.569L340.09 117.002C339.943 117.038 339.792 117.057 339.641 117.059L336.105 117.103L334.095 117.128C333.868 117.131 333.643 117.172 333.431 117.25L325.953 119.994C325.844 120.034 325.731 120.064 325.617 120.085L322.972 120.559L320.317 121.036C320.209 121.055 320.1 121.065 319.989 121.067L317.802 121.094C317.332 121.1 315.455 121.593 314.985 121.599C314.715 121.603 314.272 121.931 313.928 122.233C313.695 122.439 313.432 122.611 313.139 122.713L312.179 123.046L311.08 123.427C310.877 123.498 310.664 123.535 310.449 123.538L308.275 123.565C308.06 123.567 307.847 123.604 307.644 123.675L306.732 123.992C306.608 124.035 306.48 124.065 306.35 124.083C305.041 124.262 302.674 124.575 302.317 124.579C301.969 124.584 300.527 124.869 299.693 125.044C299.564 125.071 299.433 125.086 299.301 125.087L296.677 125.12L292.913 125.166C291.658 125.182 289.056 125.308 288.684 125.689C288.219 126.165 283.979 125.747 283.509 125.753L281.792 125.774C281.682 125.776 281.572 125.768 281.463 125.751L279.441 125.44C279.023 125.375 278.595 125.445 278.22 125.639L277.347 126.089C277.071 126.231 276.766 126.307 276.455 126.311L274.821 126.331C274.658 126.333 274.495 126.315 274.335 126.277L272.901 125.938C272.759 125.904 272.621 125.855 272.49 125.791L271.74 125.428L270.272 124.716C269.992 124.581 269.685 124.512 269.375 124.516L266.817 124.548L262.791 124.598C262.481 124.601 262.175 124.528 261.882 124.426C261.488 124.289 260.944 124.15 260.431 124.156C259.49 124.168 258.067 123.244 256.656 123.262C256.491 123.264 256.351 123.272 256.233 123.286C255.794 123.335 255.314 123.953 254.921 124.156C254.832 124.202 254.733 124.227 254.632 124.228L253.509 124.242C253.114 124.247 252.728 124.132 252.387 123.933C251.888 123.641 251.279 123.328 251.01 123.332C250.703 123.335 249.959 123.554 249.441 123.722C249.237 123.789 249.023 123.822 248.811 123.853C248.461 123.904 248.001 124.034 247.728 124.313C247.263 124.79 246.787 124.325 246.316 124.331C246.119 124.333 245.91 124.163 245.733 123.955C245.453 123.625 245.156 123.291 244.75 123.142C244.461 123.035 244.152 122.946 243.947 122.948C243.763 122.951 243.424 123.03 243.07 123.128C242.438 123.305 241.754 123.211 241.224 122.824L240.171 122.054L239.49 121.612C239.017 121.305 238.438 121.215 237.89 121.345C237.293 121.488 236.645 121.627 236.401 121.63C236.025 121.635 234.68 121.965 234.055 122.13L231.748 122.983C231.533 123.063 231.307 123.105 231.078 123.108L228.42 123.141L226.392 123.166C226.177 123.168 225.964 123.136 225.759 123.071L223.233 122.264L220.399 121.357L218.236 120.523C218.102 120.472 217.963 120.435 217.821 120.413L215.617 120.073C215.346 120.032 215.069 120.046 214.804 120.116L213.665 120.416C213.443 120.474 213.233 120.57 213.044 120.699L211.93 121.462C211.152 121.942 209.501 122.904 209.124 122.909C208.799 122.913 207.515 123.399 206.669 123.739C206.433 123.834 206.182 123.886 205.928 123.889L203.02 123.925C202.392 123.933 201.137 123.854 201.132 123.478C201.126 123.008 200.191 123.49 199.244 123.031C198.705 122.77 198.137 122.652 197.74 122.607C197.488 122.578 197.234 122.537 196.997 122.445L195.246 121.769C195.077 121.705 194.901 121.663 194.722 121.645L190.752 121.254L188.254 121.284C188.039 121.287 187.825 121.255 187.62 121.19L185.434 120.491C185.209 120.419 184.999 120.308 184.813 120.163L182.851 118.633C182.763 118.564 182.669 118.503 182.571 118.45L178.455 116.229L175.138 114.388L171.822 112.547L168.659 111.238C168.56 111.197 168.459 111.164 168.355 111.139L167.006 110.82C166.759 110.761 166.499 110.793 166.273 110.91C165.914 111.094 165.691 111.466 165.696 111.869L165.705 112.623L165.71 112.958C165.714 113.353 165.836 113.738 166.059 114.063L166.333 114.464C166.556 114.79 166.678 115.174 166.683 115.569L166.71 117.786L166.751 121.08L166.776 123.074C166.782 123.605 166.999 124.111 167.379 124.481L168.515 125.59C168.632 125.704 168.735 125.832 168.821 125.971L169.993 127.872C170.085 128.021 170.157 128.181 170.207 128.349L171.114 131.378L172.095 136.85C172.115 136.958 172.125 137.068 172.126 137.178L172.198 142.949C172.199 143.069 172.19 143.188 172.17 143.307L171.353 148.138C171.333 148.256 171.324 148.376 171.325 148.496L171.349 150.401C171.351 150.578 171.33 150.756 171.285 150.928L170.005 155.861C169.561 158.063 168.676 162.56 168.681 162.936C168.686 163.407 167.321 167.188 167.327 167.658C167.332 168.02 166.492 170.452 166.023 171.759C165.986 171.86 165.958 171.964 165.938 172.069L165.654 173.59C165.571 174.03 165.345 174.429 165.009 174.724C163.843 175.753 162.123 177.281 161.804 177.609L159.945 179.514C159.48 179.99 156.669 180.966 156.21 181.913C155.751 182.86 154.34 182.877 153.875 183.353C153.41 183.83 152.005 184.318 151.07 184.8C150.134 185.282 149.658 184.817 149.193 185.294C148.729 185.77 147.788 185.782 146.376 185.799L143.553 185.834C142.612 185.846 143.077 185.369 142.601 184.905C142.22 184.533 141.497 184.448 141.183 184.452L139.687 184.47C139.432 184.473 139.179 184.428 138.942 184.336L137.32 183.711C137.068 183.613 136.837 183.465 136.644 183.276L135.508 182.169L134.894 181.569C134.672 181.352 134.402 181.19 134.106 181.096L133.288 180.834C133.188 180.803 133.087 180.779 132.983 180.763L130.523 180.384C130.381 180.362 130.242 180.325 130.108 180.273L127.946 179.439L125.952 178.473C125.433 178.221 125.101 177.698 125.094 177.122C125.089 176.745 124.46 176.659 124.147 176.663L122.265 176.686C122.184 176.687 122.102 176.674 122.022 176.651C121.512 176.505 121.02 176.231 120.49 176.237L119.907 176.245C119.436 176.25 119.43 175.78 118.96 175.786C118.489 175.792 118.483 175.321 118.013 175.327C117.542 175.333 117.542 175.333 117.066 174.868C116.59 174.403 115.655 174.886 115.184 174.891C114.935 174.894 114.537 175.037 114.206 175.179C113.921 175.302 113.617 175.381 113.306 175.385L112.221 175.399C112.006 175.401 111.791 175.372 111.591 175.294C111.103 175.104 110.477 174.785 110.473 174.479C110.468 174.009 109.056 174.026 108.586 174.032C108.317 174.035 107.707 173.722 107.208 173.431C106.867 173.232 106.481 173.117 106.087 173.122L103.399 173.155L101.763 173.175C101.599 173.177 101.437 173.199 101.279 173.241L100.176 173.531C99.8257 173.623 99.5068 173.809 99.2537 174.068L98.6261 174.712C98.3831 174.961 98.051 175.103 97.7029 175.108C97.4438 175.111 97.1895 175.037 96.9722 174.896L96.6246 174.671C96.1519 174.364 95.5717 174.271 95.0268 174.414L94.8958 174.449C94.3312 174.597 93.8597 174.985 93.6051 175.51L93.5474 175.629L92.5378 177.36C92.2973 177.773 91.9171 178.085 91.4661 178.242L91.3096 178.296C90.9502 178.421 90.5628 178.441 90.1927 178.353L89.4383 178.174C89.0682 178.087 88.6807 178.106 88.3214 178.231L87.719 178.44C87.551 178.499 87.3916 178.579 87.245 178.679L86.0661 179.487L84.2026 180.636C83.8941 180.827 83.5397 180.929 83.1772 180.934L82.3212 180.945C82.0108 180.948 81.7037 180.88 81.4243 180.744L80.9024 180.492L79.7015 179.712C79.554 179.617 79.3944 179.541 79.2268 179.487L78.8209 179.358C78.3558 179.209 77.8465 179.336 77.5055 179.685C77.2667 179.93 77.135 180.26 77.1392 180.602L77.1501 181.479L77.1647 182.66C77.1703 183.114 77.0212 183.556 76.7419 183.914L75.3205 185.737L72.9971 188.118L70.4025 191.222C70.2781 191.371 70.176 191.537 70.0994 191.715L68.3853 195.704L66.1688 201.687C66.1287 201.795 66.0792 201.9 66.021 202L63.4816 206.353C63.3901 206.51 63.2777 206.654 63.1474 206.78L54.696 214.988C54.572 215.108 54.4328 215.212 54.282 215.297L49.3687 218.056L46.468 219.342C46.2204 219.452 45.953 219.51 45.6822 219.513L40.9173 219.572L37.9484 219.609C37.7334 219.612 37.5195 219.58 37.3147 219.514L34.7893 218.707L31.7854 217.889C31.5858 217.834 31.3959 217.749 31.2223 217.637L28.638 215.96L23.416 212.26L21.6314 210.955C21.5549 210.9 21.4826 210.838 21.4149 210.772L19.6114 209.013L15.8067 205.766L13.3107 204.146C13.0823 203.998 12.8152 203.921 12.5429 203.924C11.9494 203.931 11.4271 204.318 11.2463 204.883L11.1792 205.093C11.1241 205.266 11.0971 205.446 11.0993 205.627L11.11 206.485C11.1123 206.671 11.0886 206.856 11.0398 207.035L10.2132 210.07L9.81359 213.138C9.79354 213.292 9.79148 213.447 9.80744 213.602L10.2791 218.164C10.3048 218.412 10.3766 218.653 10.4908 218.874L11.1646 220.181C11.2427 220.333 11.3398 220.474 11.4535 220.6L14.5149 224.013C14.5863 224.093 14.6512 224.178 14.709 224.268L17.0212 227.867L19.9198 233.949L21.5733 236.761C21.7497 237.061 21.8447 237.402 21.849 237.75L21.8541 238.158C21.8579 238.469 21.7894 238.776 21.654 239.055Z" fill="#555553"/>

                <path d="M117.645 183.602L117.573 177.788C117.557 176.487 118.767 175.517 120.033 175.817L121.089 176.067C121.248 176.105 121.411 176.123 121.574 176.12L122.915 176.104C123.115 176.101 123.314 176.129 123.505 176.185L124.383 176.444C124.838 176.578 125.231 176.869 125.491 177.266L126.115 178.217C126.397 178.648 126.835 178.953 127.337 179.069L128.887 179.427L133.032 180.113C133.435 180.18 133.809 180.369 134.101 180.654L134.607 181.147L136.99 183.004L137.91 183.601C138.241 183.815 138.628 183.927 139.023 183.922L140.006 183.91C140.204 183.908 140.402 183.935 140.593 183.991L141.705 184.317C141.981 184.398 142.237 184.538 142.455 184.727L143.057 185.252C143.428 185.574 143.904 185.749 144.395 185.742L146.656 185.714C146.842 185.712 147.026 185.684 147.204 185.631L149.929 184.816C150.127 184.757 150.315 184.668 150.486 184.551L153.036 182.806L156.777 179.93L160.82 177.62C160.937 177.553 161.046 177.475 161.147 177.386L164.042 174.844C164.189 174.715 164.317 174.565 164.42 174.398L165.756 172.251C165.896 172.026 165.99 171.776 166.032 171.515L166.985 165.655L168.319 159.035L170.108 150.995L171.365 146.61C171.431 146.38 171.456 146.142 171.437 145.903C171.243 143.442 170.903 138.97 170.894 138.252L170.812 131.65C170.801 130.707 169.828 128.361 169.35 127.895C168.872 127.429 168.127 125.878 167.427 125.089C166.84 124.427 166.64 122.848 166.481 121.994C166.457 121.864 166.442 121.733 166.44 121.602L166.406 118.824C166.403 118.608 166.366 118.395 166.295 118.192L165.423 115.681L164.927 113.801L164.542 112.336C164.47 112.064 164.478 111.778 164.563 111.511C164.756 110.907 165.314 110.495 165.949 110.487L166.042 110.486C166.215 110.483 166.386 110.509 166.55 110.561L170.417 111.797C170.517 111.828 170.615 111.868 170.708 111.915L175.609 114.382L185.297 119.68L187.309 120.455C187.547 120.547 187.799 120.592 188.053 120.589L190.972 120.553L193.301 120.524C193.631 120.52 193.957 120.598 194.249 120.75L196.636 121.992C196.798 122.076 196.971 122.138 197.149 122.175L201.126 123.008L204.255 123.601C204.548 123.656 204.849 123.645 205.136 123.57L208.251 122.751C208.392 122.714 208.529 122.661 208.658 122.594L211.151 121.31C211.235 121.267 211.322 121.23 211.412 121.199L213.861 120.349C214.018 120.295 214.168 120.221 214.307 120.129L214.479 120.016C214.939 119.712 215.504 119.612 216.041 119.739L217.088 119.987L220.716 121.128L225.599 122.834C225.819 122.911 226.05 122.949 226.283 122.946L230.179 122.898C230.539 122.893 232.45 122.358 233.444 122.162C233.538 122.144 233.63 122.12 233.72 122.09L236.94 121.022C237.135 120.957 237.339 120.923 237.545 120.92L238.525 120.908C239.193 120.9 239.821 121.226 240.199 121.777L240.271 121.882C240.458 122.155 240.712 122.374 241.009 122.518C241.333 122.674 241.695 122.736 242.053 122.695L243.363 122.544C243.741 122.501 244.122 122.566 244.464 122.731L245.317 123.145C245.655 123.309 246.032 123.374 246.406 123.334L248.119 123.148L250.479 123.118C250.789 123.115 251.096 123.183 251.375 123.318L252.324 123.778C252.667 123.944 253.051 124.009 253.43 123.964L254.739 123.81C255.061 123.772 255.348 123.587 255.516 123.309C255.617 123.143 255.761 123.007 255.934 122.918L256.051 122.858C256.408 122.674 256.822 122.64 257.205 122.762L257.841 122.965C257.966 123.005 258.086 123.058 258.205 123.115C259.408 123.688 261.954 124.137 262.313 124.133L263.583 124.117C263.677 124.116 263.771 124.107 263.865 124.097C264.98 123.976 266.762 124.332 267.486 124.323C268.175 124.314 269.173 123.96 269.702 124.013C269.796 124.022 269.884 124.061 269.969 124.101C270.642 124.421 271.86 124.956 272.214 124.952C272.686 124.946 274.113 125.871 274.585 125.866C274.906 125.862 275.934 126.147 276.62 126.132C276.84 126.127 277.041 126.031 277.224 125.909L278.144 125.3C278.561 125.024 279.066 124.913 279.56 124.991L283.078 125.545L285.861 125.724L289.213 125.469L292.983 124.951L293.67 124.942C293.84 124.94 294.01 124.916 294.174 124.871L295.32 124.557C295.588 124.483 295.869 124.467 296.144 124.508L298.24 124.82C298.508 124.86 298.781 124.845 299.044 124.776L300.29 124.448C300.448 124.407 300.611 124.385 300.774 124.383L302.416 124.363L304.058 124.342C304.221 124.34 304.384 124.318 304.542 124.277L306.186 123.844L307.289 123.462C307.492 123.391 307.705 123.354 307.92 123.351L310.103 123.324C310.318 123.322 310.531 123.284 310.734 123.214L311.617 122.908C311.764 122.857 311.903 122.789 312.034 122.706L314.205 121.328C314.406 121.2 314.627 121.108 314.862 121.068C316.478 120.794 319.013 120.735 319.359 120.38C319.674 120.057 321.364 120.144 322.547 120.265C322.931 120.305 323.321 120.244 323.669 120.077L326.98 118.493C327.113 118.429 327.253 118.38 327.396 118.347L330.465 117.643L333.949 116.898L338.916 116.127L343.881 115.614C344.017 115.6 344.151 115.572 344.281 115.53L349.488 113.876L353.507 112.032C353.643 111.969 353.773 111.891 353.892 111.8L355.17 110.817C355.44 110.609 355.653 110.335 355.788 110.021L356.476 108.418C356.62 108.084 356.852 107.795 357.147 107.583L361.223 104.654C361.314 104.589 361.411 104.531 361.511 104.482L370.043 100.311C370.179 100.244 370.321 100.194 370.468 100.16L375.736 98.9309L382.623 97.7525C382.82 97.7186 383.022 97.7147 383.221 97.7409L390.389 98.6849C390.685 98.7239 390.986 98.6961 391.27 98.6036L398.361 96.293L409.169 92.3862L414.195 90.4893C414.29 90.4537 414.387 90.4253 414.485 90.4043L419.045 89.4343L423.516 87.8629C423.663 87.8114 423.803 87.7429 423.934 87.6588L427.268 85.5176C427.404 85.4304 427.549 85.3599 427.702 85.3078L431.094 84.149C431.199 84.1133 431.3 84.0691 431.397 84.0167L441.098 78.7857L442.974 77.8192L445.107 76.5045C445.246 76.4187 445.374 76.3162 445.488 76.1992L447.181 74.4658L449.978 72.01C450.285 71.7402 450.667 71.5711 451.074 71.5254L454.621 71.1266C454.976 71.0867 455.314 70.9524 455.599 70.7377L462.178 65.7909L463.967 64.3245C464.321 64.034 464.565 63.6307 464.658 63.182L464.782 62.5811C464.815 62.4191 464.869 62.2619 464.941 62.1131L465.671 60.6062C465.723 60.498 465.785 60.3942 465.864 60.3035C466.533 59.5337 468.803 57.5728 469.152 57.2153C469.619 56.7379 469.46 56.1637 469.926 55.6863C470.096 55.5123 470.334 55.0709 470.527 54.6123C470.843 53.8624 471.184 52.918 471.714 52.3L471.98 51.9898C472.244 51.6811 472.597 51.4604 472.99 51.357L473.174 51.3087C473.853 51.1301 474.576 51.3207 475.078 51.8107L475.586 52.3058C475.966 52.6759 476.477 52.8801 477.007 52.8735L477.869 52.8629C478.001 52.8612 478.132 52.8466 478.261 52.8192L479.929 52.4643C480.252 52.3956 480.587 52.4079 480.904 52.4999L481.19 52.5833C481.495 52.6718 481.816 52.6866 482.127 52.6266L483.549 52.3526C483.666 52.3301 483.784 52.3181 483.903 52.3166L485.434 52.2977C486.131 52.289 486.773 51.9184 487.129 51.3193L487.741 50.2898L488.447 49.2022C488.59 48.9807 488.776 48.7899 488.994 48.6407L489.564 48.2503C489.89 48.0273 490.274 47.9056 490.669 47.9007L493.828 47.8617C494.276 47.8561 494.715 47.8261 495.03 47.7364C495.365 47.641 495.616 47.3539 495.903 47.1574L496.747 46.5799C496.828 46.5245 496.913 46.4751 497.002 46.4322L497.637 46.1232C497.902 45.9942 498.192 45.9254 498.487 45.9218L499.316 45.9115C499.71 45.9067 500.095 45.785 500.421 45.5619L501.321 44.9456L502.721 43.9872L504.121 43.0287L505.357 42.1822C505.466 42.1078 505.567 42.0228 505.659 41.9285L506.223 41.35C506.373 41.1961 506.498 41.0191 506.591 40.8256L506.804 40.3867C506.874 40.2433 506.96 40.1088 507.061 39.9859L507.177 39.8454C507.474 39.4858 507.887 39.2412 508.345 39.1538L509.736 38.8883C510.318 38.7771 510.822 38.4131 511.109 37.8945L512.496 35.3961L513.611 33.1873C513.939 32.5375 514.594 32.1172 515.322 32.0899L516.047 32.0626C516.162 32.0583 516.276 32.0441 516.388 32.0202L517.974 31.6826C518.36 31.6004 518.713 31.4057 518.989 31.1231L519.496 30.6039L520.095 29.9893C520.312 29.767 520.578 29.5983 520.871 29.4965L521.233 29.3708C521.622 29.2358 522.043 29.2241 522.439 29.3372L522.958 29.4857C523.354 29.5987 523.775 29.5871 524.163 29.4522L526.386 28.6813L527.954 28.2618C528.251 28.1823 528.526 28.0352 528.757 27.8321L531.664 25.2772L532.94 24.3203L533.896 23.3662C534.184 23.0779 534.554 22.8847 534.956 22.8127L536.525 22.5314C536.941 22.4569 537.37 22.5159 537.75 22.7L538.64 23.1309C538.919 23.2661 539.226 23.3345 539.536 23.3307L540.952 23.3132C541.263 23.3093 541.566 23.2297 541.851 23.1072C542.184 22.9643 542.584 22.8214 542.834 22.8183C543.212 22.8136 544.12 22.4879 544.528 22.3257L546.427 21.4342C546.537 21.3828 546.651 21.3414 546.768 21.3106L548.062 20.9703C548.333 20.8992 548.581 20.762 548.785 20.571C548.937 20.4296 549.072 20.2666 549.155 20.077C549.245 19.8736 549.267 19.6736 549.003 19.416C548.664 19.0858 549.649 18.1003 550.203 17.6576C550.325 17.5598 550.444 17.458 550.549 17.3419L551 16.8441C551.167 16.6595 551.368 16.5078 551.591 16.3968L552.963 15.7129C553.114 15.6377 553.274 15.582 553.439 15.5469L555.275 15.1559C555.449 15.1189 555.617 15.0589 555.775 14.9774L556.939 14.3776C557.243 14.2207 557.488 13.9693 557.638 13.6612C557.786 13.3546 558.03 13.1042 558.332 12.9471L560.505 11.8178C560.591 11.7731 560.68 11.7347 560.772 11.7029L563.454 10.7725L565.603 9.88283C565.735 9.82789 565.873 9.78739 566.015 9.76205L568.474 9.32126C568.576 9.30284 568.678 9.27641 568.776 9.24221L571.364 8.34464C571.42 8.32531 571.478 8.31508 571.537 8.31435C572.026 8.3083 572.263 8.89207 571.835 9.12965C571.694 9.20759 571.564 9.25728 571.46 9.25857C570.988 9.26441 571.011 11.1506 571.017 11.6222C571.023 12.0938 570.096 13.5201 569.624 13.5259C569.276 13.5303 568.917 14.875 568.748 15.7014C568.721 15.8305 568.71 15.9618 568.712 16.0936L568.768 20.6101C568.772 20.9208 568.703 21.2281 568.568 21.5077L568.455 21.7394C568.361 21.9329 568.237 22.1099 568.087 22.2638L567.609 22.7531C567.458 22.9076 567.341 23.0914 567.208 23.2617C566.635 23.9978 565.401 24.3894 565.063 24.3936C564.757 24.3974 564.335 24.92 563.935 25.2033C563.767 25.3224 563.559 25.3547 563.353 25.36L561.553 25.4065C561.141 25.4171 560.817 25.7631 560.833 26.1753C560.847 26.5352 560.601 26.8573 560.261 26.9773C559.43 27.271 558.344 27.7706 558.047 27.7743L556.166 27.7976C555.855 27.8014 555.552 27.8798 555.27 28.0106C554.564 28.339 554.074 28.4931 553.76 28.8143L553.715 28.8609C553.325 29.2607 552.562 30.0439 551.959 30.2024L548.457 31.1534C548.241 31.2121 548.036 31.3067 547.851 31.4333L545.571 32.995C545.462 33.0693 545.361 33.1543 545.269 33.2485L544.388 34.1522C544.142 34.4035 543.836 34.5858 543.498 34.6809L542.042 35.0904L539.938 35.9616C539.776 36.0287 539.623 36.1169 539.484 36.2239L538.025 37.346C537.891 37.4488 537.771 37.568 537.667 37.7009L534.237 42.096C534.15 42.207 534.075 42.327 534.014 42.4538L533.32 43.8847C533.231 44.0678 533.115 44.2363 532.975 44.3843L532.016 45.4009C531.948 45.4724 531.886 45.5489 531.83 45.6295L531.228 46.4929C530.989 46.8353 530.864 47.244 530.869 47.6614L530.872 47.9441C530.88 48.5519 530.611 49.1301 530.141 49.5155L523.875 54.652L520.601 57.0506L515.634 60.2957C515.512 60.3755 515.399 60.4684 515.297 60.5728L512.187 63.7575L508.919 66.6277L505.307 70.7902C505.233 70.8755 505.152 70.9545 505.064 71.0261L502.859 72.8339L499.528 75.4158C499.408 75.5094 499.277 75.5888 499.138 75.6526L495.293 77.4185C495.188 77.4667 495.079 77.5058 494.968 77.5352L491.551 78.4343C491.44 78.4637 491.331 78.5028 491.225 78.551L482.961 82.3472L478.664 84.3581C478.527 84.4224 478.398 84.502 478.278 84.5955L470.661 90.5659C470.561 90.6446 470.468 90.7328 470.385 90.8292L469.544 91.7978C469.47 91.883 469.389 91.9617 469.302 92.0332L464.775 95.7479L459.187 100.523L456.201 102.986C456.088 103.079 455.987 103.184 455.897 103.298L454.364 105.262C454.238 105.424 454.084 105.563 453.936 105.707C453.504 106.126 452.995 106.87 452.682 107.191C452.309 107.573 451.538 108.684 451.388 109.314L450.939 111.206L450.531 114.831C450.52 114.933 450.501 115.035 450.474 115.134L449.611 118.297L449.277 119.942C449.157 120.536 448.773 121.043 448.234 121.321L447.216 121.846L445.761 122.692C445.536 122.823 445.287 122.907 445.03 122.951C443.611 123.193 440.996 123.805 440.653 123.809L436.237 123.864C436.045 123.866 435.854 123.841 435.669 123.789L433.902 123.29C433.717 123.238 433.526 123.213 433.334 123.215L432.714 123.223C432.582 123.224 432.45 123.213 432.321 123.189L431.495 123.034C431.32 123.001 431.15 122.946 430.99 122.868L430.847 122.798C430.48 122.621 430.069 122.559 429.667 122.622L426.997 123.037L424.912 123.481C424.738 123.518 424.57 123.578 424.412 123.66L422.095 124.854C421.93 124.939 421.748 124.984 421.563 124.987C421.153 124.992 420.774 125.207 420.559 125.557L418.125 129.534L415.818 133.807L414.897 135.705L412.213 140.77C412.157 140.875 412.111 140.984 412.075 141.097L411.221 143.769L410.312 146.61L409.863 148.502L409.457 150.67C409.432 150.8 409.421 150.932 409.423 151.063L409.444 152.751L409.467 154.638L409.494 156.83C409.495 156.94 409.506 157.05 409.525 157.159L409.89 159.188C409.963 159.598 410.164 159.976 410.462 160.267L410.857 160.651C410.925 160.717 410.988 160.788 411.045 160.863L412.311 162.507C412.369 162.582 412.419 162.661 412.463 162.745C412.722 163.247 412.692 163.849 412.384 164.322L412.173 164.647C412.029 164.869 411.843 165.06 411.625 165.209L410.989 165.644C410.702 165.84 410.471 166.108 410.319 166.421L410.186 166.695C410.123 166.825 410.091 166.967 410.093 167.111C410.098 167.537 410.393 167.904 410.807 168.002L411.996 168.284L413.282 168.695C413.372 168.723 413.46 168.758 413.545 168.8L413.767 168.907C414.157 169.096 414.474 169.406 414.673 169.79L415.334 171.072L416.184 172.719C416.262 172.87 416.359 173.011 416.473 173.138L419.652 176.678L420.981 178.404C421.054 178.499 421.119 178.601 421.174 178.707L421.331 179.012C421.491 179.322 421.728 179.584 422.02 179.773L423.002 180.41L423.824 180.808C423.909 180.849 423.997 180.884 424.087 180.913L425.27 181.291C425.339 181.313 425.406 181.34 425.471 181.371L425.899 181.578C426.159 181.704 426.326 181.966 426.329 182.255L426.335 182.726C426.339 183.037 426.415 183.342 426.557 183.618L426.759 184.009C426.803 184.093 426.84 184.181 426.871 184.27L427.207 185.238C427.278 185.441 427.315 185.654 427.318 185.869L427.324 186.353C427.329 186.748 427.451 187.133 427.674 187.459L428.293 188.362L429.142 189.602C429.217 189.711 429.302 189.812 429.396 189.904L430.21 190.697L431.505 191.96C431.597 192.049 431.673 192.152 431.731 192.265C432.135 193.047 431.574 193.981 430.693 193.992L429.979 194.001C429.846 194.003 429.713 193.988 429.584 193.957L428.124 193.612C427.965 193.574 427.802 193.556 427.639 193.558L425.723 193.582C425.592 193.584 425.46 193.598 425.332 193.626L423.433 194.029C423.259 194.066 423.092 194.127 422.933 194.207C422.221 194.569 422.102 194.57 420.817 194.586C419.402 194.603 417.992 195.092 417.053 195.576C416.337 195.945 414.405 195.498 413.407 195.193C413.317 195.165 413.229 195.13 413.144 195.089L412.606 194.828C412.418 194.737 412.246 194.617 412.097 194.471C411.404 193.796 411.329 192.722 411.829 191.894C412.084 191.472 412.278 191.091 412.276 190.919C412.27 190.447 413.208 189.964 413.196 189.021C413.185 188.077 412.229 187.146 412.223 186.674C412.217 186.203 411.25 184.328 410.767 183.391C410.497 182.869 410.063 182.623 409.718 182.523C409.474 182.453 409.217 182.419 408.98 182.327L408.232 182.039C407.468 181.744 406.961 181.015 406.951 180.197L406.944 179.665C406.933 178.722 404.579 179.223 403.635 179.235C403.496 179.236 403.366 179.249 403.245 179.268C402.552 179.382 402.334 180.14 402.513 180.82L402.72 181.604L403.177 184.921C403.218 185.217 403.191 185.518 403.1 185.803L402.988 186.156C402.856 186.568 402.861 187.012 403.003 187.421L403.167 187.893C403.238 188.096 403.275 188.31 403.278 188.525L403.286 189.178C403.293 189.755 403.051 190.307 402.621 190.692L399.562 193.434L398.611 194.408C398.32 194.706 397.943 194.906 397.533 194.979L396.116 195.233C395.616 195.323 395.101 195.219 394.675 194.943L392.991 193.851C392.66 193.636 392.273 193.524 391.878 193.529L389.126 193.563C388.559 193.57 388.022 193.817 387.648 194.242C386.155 195.939 383.906 198.485 383.58 198.82C383.114 199.297 383.12 199.768 382.654 200.246C382.188 200.723 381.25 201.206 380.784 201.684C380.317 202.161 378.913 203.122 378.447 203.599C377.981 204.077 376.565 204.094 376.093 204.1C375.621 204.106 374.672 203.646 374.2 203.652C373.728 203.658 371.834 203.209 371.356 202.744C371.072 202.467 370.428 202.524 369.922 202.639C369.62 202.708 369.356 202.883 369.139 203.105L368.536 203.722C368.07 204.199 367.138 205.154 366.2 205.637C365.802 205.842 365.385 205.88 365.033 205.847C364.577 205.804 364.293 205.189 363.834 205.195C363.362 205.201 363.333 202.843 362.855 202.377C362.378 201.912 363.31 200.957 363.304 200.485C363.298 200.014 364.219 198.116 364.201 196.701C364.187 195.569 363.554 195.294 363.24 195.298L363.014 195.301C362.85 195.303 362.688 195.325 362.53 195.366L361.633 195.602C361.152 195.729 360.738 196.031 360.455 196.441C360.129 196.915 359.738 197.452 359.493 197.703C359.315 197.886 359.057 198.077 358.802 198.244C358.359 198.535 357.806 198.573 357.301 198.412L357.057 198.333C356.804 198.253 356.532 198.256 356.281 198.343C355.697 198.546 355.355 199.152 355.475 199.76C355.62 200.494 355.761 201.277 355.764 201.522L355.811 205.294C355.818 205.876 355.449 206.314 355.136 206.557C354.979 206.679 354.785 206.738 354.589 206.774L352.059 207.227L348.901 207.718C348.808 207.732 348.714 207.74 348.619 207.741L344.838 207.788C344.623 207.791 344.409 207.76 344.207 207.687C343.683 207.498 342.927 207.177 342.614 206.872C342.232 206.5 341.185 205.79 340.709 205.481L339.279 204.648C338.689 204.304 337.961 204.281 337.368 204.619C336.803 204.942 336.216 205.307 335.989 205.539C335.523 206.017 334.131 207.92 333.665 208.398C333.198 208.875 332.249 208.415 331.299 207.955C330.349 207.496 328.922 206.57 328.444 206.104C327.966 205.639 327.955 204.695 327.471 203.758C326.987 202.821 325.554 201.424 324.599 200.492L324.598 200.492C323.643 199.561 320.316 197.715 319.838 197.25C319.36 196.784 318.422 197.267 318.428 197.739C318.434 198.21 314.67 199.2 313.726 199.212L309.951 199.259C309.697 199.262 309.15 199.694 308.678 200.122C308.284 200.479 308.084 200.995 308.091 201.525L308.121 203.997C308.142 205.727 308.092 209.28 307.719 209.662C307.253 210.139 305.866 212.515 305.878 213.458L305.885 214.044C305.892 214.574 306.109 215.081 306.489 215.451L306.995 215.944C307.499 216.435 307.703 217.153 307.562 217.842C307.454 218.368 307.361 218.887 307.364 219.099C307.37 219.571 305.01 219.6 304.066 219.611C303.122 219.623 300.739 217.766 300.267 217.772C299.89 217.777 301.026 215.562 301.642 214.453L305.051 208.763C305.241 208.445 305.339 208.08 305.335 207.71L305.289 204.033L305.26 201.675L305.24 200.056C305.238 199.878 305.212 199.702 305.163 199.531L303.838 194.902C303.784 194.714 303.703 194.535 303.598 194.371L301.535 191.162C301.413 190.973 301.26 190.805 301.082 190.666L299.168 189.175C299.035 189.071 298.915 188.951 298.813 188.817L297.726 187.407C297.595 187.237 297.493 187.046 297.419 186.844C297.217 186.293 296.874 185.421 296.555 184.804C296.072 183.866 295.11 182.463 295.104 181.992C295.099 181.52 294.149 181.06 293.671 180.595C293.193 180.129 292.71 179.192 292.232 178.726C292.04 178.539 291.838 178.186 291.664 177.821C291.381 177.228 291.496 176.535 291.884 176.005L292.518 175.138C292.608 175.015 292.656 174.865 292.654 174.712C292.649 174.321 292.329 174.009 291.938 174.013L290.953 174.026C290.526 174.031 290.114 173.866 289.808 173.568C289.502 173.27 289.327 172.862 289.322 172.435L289.301 170.745L289.285 169.464C289.28 169.069 289.158 168.684 288.935 168.358L287.467 166.216C287.392 166.107 287.307 166.006 287.213 165.914L286.154 164.882C286 164.732 285.823 164.607 285.63 164.514L284.447 163.941C284.167 163.806 283.861 163.737 283.551 163.741L281.19 163.77C280.849 163.775 280.232 164.296 279.887 164.631C279.819 164.697 279.758 164.769 279.702 164.846L278.394 166.635L276.657 169.49C276.298 170.079 275.662 170.442 274.973 170.45L274.911 170.451C274.747 170.453 274.584 170.435 274.425 170.397L272.985 170.056C272.843 170.023 272.705 169.974 272.574 169.909C271.89 169.569 270.74 168.958 270.394 168.62C269.916 168.155 267.785 167.709 267.556 168.184C267.374 168.563 266.548 169.297 266.158 169.616L264.294 171.525C263.828 172.003 262.901 173.429 262.435 173.907C261.969 174.384 260.559 174.873 260.087 174.879L257.255 174.914C256.919 174.918 255.799 174.183 255.11 173.695C254.955 173.585 254.82 173.452 254.702 173.304C254.176 172.648 253.303 171.661 252.967 171.666C252.183 171.675 251.239 171.492 251.126 172.268C251.103 172.424 251.09 172.551 251.091 172.632C251.097 173.104 250.63 173.581 250.159 173.587L248.743 173.604C248.425 173.608 247.857 173.17 247.495 172.846C247.373 172.737 247.244 172.637 247.103 172.555L245.237 171.468C245.039 171.352 244.823 171.272 244.598 171.23L240.802 170.52C240.414 170.447 240.056 170.262 239.773 169.986L238.411 168.658C238.031 168.288 237.52 168.084 236.99 168.09L232.155 168.15L228.741 168.192C228.501 168.195 228.265 168.241 228.041 168.328L224.918 169.543C224.721 169.619 224.538 169.726 224.375 169.861C223.521 170.568 222.027 171.837 221.352 172.528C220.42 173.483 219.494 174.909 219.033 175.858C218.573 176.807 217.647 178.234 215.299 179.206C214.026 179.733 213.393 179.415 213.115 178.96C212.877 178.572 212.771 178.1 212.479 177.752C211.751 176.882 210.673 175.628 210.055 175.026C209.511 174.496 208.657 174.463 208.036 174.9C207.239 175.461 206.315 176.016 205.819 176.022C205.204 176.029 204.136 176.459 203.422 176.793C203.141 176.924 202.837 177.002 202.527 177.006L198.192 177.059C197.938 177.062 197.687 177.114 197.452 177.212C196.581 177.578 195.173 178.184 194.521 178.52C193.867 178.857 192.697 180.181 191.998 181.041C191.816 181.265 191.591 181.453 191.334 181.585L186.914 183.862C186.395 184.13 186.019 184.61 185.884 185.178L184.75 189.96C184.302 191.852 181.948 192.352 181.482 192.83C181.016 193.307 178.213 195.7 177.281 196.655C176.349 197.61 171.145 196.731 170.202 196.742L164.538 196.812L158.119 196.892C157.417 196.901 156.77 197.277 156.416 197.883L155.6 199.281C155.14 200.23 154.034 202.413 153.293 203.554C152.367 204.981 148.096 203.147 147.612 202.21C147.413 201.824 147.62 201.25 147.952 200.697C148.456 199.859 148.574 198.779 147.941 198.034C147.117 197.065 146.153 196.097 145.649 196.103L143.37 196.131C143.008 196.135 142.652 196.041 142.339 195.859L140.44 194.752L134.84 190.664C134.763 190.607 134.681 190.556 134.596 190.511L129.754 187.949C129.584 187.859 129.402 187.794 129.213 187.756L122.873 186.48L119.143 185.513C118.27 185.287 117.656 184.504 117.645 183.602Z" fill="#1B73B9"/>

                <path d="M330.5 87.5833C323.575 87.5833 317.958 93.2002 317.958 100.125C317.958 109.531 330.5 123.417 330.5 123.417C330.5 123.417 343.042 109.531 343.042 100.125C343.042 93.2002 337.425 87.5833 330.5 87.5833ZM330.5 104.604C328.028 104.604 326.021 102.597 326.021 100.125C326.021 97.6525 328.028 95.6458 330.5 95.6458C332.973 95.6458 334.979 97.6525 334.979 100.125C334.979 102.597 332.973 104.604 330.5 104.604Z" fill="white"/>
            </g>

            <defs>
                <clipPath id="clip0_904_12029">
                    <rect width="576" height="358" fill="white"/>
                </clipPath>
            </defs>
        </symbol>

    </defs>
</svg>
