<?xml version="1.0" encoding="UTF-8"?>
<svg xmlns="http://www.w3.org/2000/svg">
    <defs>
        <symbol id="icon__start-video" viewBox="0 0 81 81">
            <g fill-rule="evenodd">
                <path d="M33.75 55.6875L54 40.5L33.75 25.3125V55.6875ZM40.5 6.75C21.8531 6.75 6.75 21.8531 6.75 40.5C6.75 59.1469 21.8531 74.25 40.5 74.25C59.1469 74.25 74.25 59.1469 74.25 40.5C74.25 21.8531 59.1469 6.75 40.5 6.75ZM40.5 67.5C25.6163 67.5 13.5 55.3837 13.5 40.5C13.5 25.6163 25.6163 13.5 40.5 13.5C55.3837 13.5 67.5 25.6163 67.5 40.5C67.5 55.3837 55.3837 67.5 40.5 67.5Z"/>
            </g>
        </symbol>
        <symbol id="icon__download" viewBox="0 0 20 18">
            <g fill-rule="evenodd">
                <path d="M0.625 11.375C0.79076 11.375 0.949732 11.4408 1.06694 11.5581C1.18415 11.6753 1.25 11.8342 1.25 12V15.125C1.25 15.4565 1.3817 15.7745 1.61612 16.0089C1.85054 16.2433 2.16848 16.375 2.5 16.375H17.5C17.8315 16.375 18.1495 16.2433 18.3839 16.0089C18.6183 15.7745 18.75 15.4565 18.75 15.125V12C18.75 11.8342 18.8158 11.6753 18.9331 11.5581C19.0503 11.4408 19.2092 11.375 19.375 11.375C19.5408 11.375 19.6997 11.4408 19.8169 11.5581C19.9342 11.6753 20 11.8342 20 12V15.125C20 15.788 19.7366 16.4239 19.2678 16.8928C18.7989 17.3616 18.163 17.625 17.5 17.625H2.5C1.83696 17.625 1.20107 17.3616 0.732233 16.8928C0.263392 16.4239 0 15.788 0 15.125V12C0 11.8342 0.065848 11.6753 0.183058 11.5581C0.300269 11.4408 0.45924 11.375 0.625 11.375Z"/>
                <path d="M9.55829 13.8175C9.61635 13.8757 9.68532 13.9219 9.76125 13.9534C9.83718 13.9849 9.91858 14.0011 10.0008 14.0011C10.083 14.0011 10.1644 13.9849 10.2403 13.9534C10.3163 13.9219 10.3852 13.8757 10.4433 13.8175L14.1933 10.0675C14.3106 9.95014 14.3766 9.79097 14.3766 9.625C14.3766 9.45903 14.3106 9.29986 14.1933 9.1825C14.0759 9.06514 13.9168 8.99921 13.7508 8.99921C13.5848 8.99921 13.4256 9.06514 13.3083 9.1825L10.6258 11.8663V0.875C10.6258 0.70924 10.5599 0.550268 10.4427 0.433058C10.3255 0.315848 10.1666 0.25 10.0008 0.25C9.83503 0.25 9.67606 0.315848 9.55885 0.433058C9.44164 0.550268 9.37579 0.70924 9.37579 0.875V11.8663L6.69329 9.1825C6.57593 9.06514 6.41676 8.99921 6.25079 8.99921C6.08482 8.99921 5.92565 9.06514 5.80829 9.1825C5.69093 9.29986 5.625 9.45903 5.625 9.625C5.625 9.79097 5.69093 9.95014 5.80829 10.0675L9.55829 13.8175Z"/>
            </g>
        </symbol>
        <symbol id="icon__info" viewBox="0 0 25 25">
            <g fill-rule="evenodd">
                <path d="M12.5 25C15.8152 25 18.9946 23.683 21.3388 21.3388C23.683 18.9946 25 15.8152 25 12.5C25 9.18479 23.683 6.00537 21.3388 3.66117C18.9946 1.31696 15.8152 0 12.5 0C9.18479 0 6.00537 1.31696 3.66117 3.66117C1.31696 6.00537 0 9.18479 0 12.5C0 15.8152 1.31696 18.9946 3.66117 21.3388C6.00537 23.683 9.18479 25 12.5 25ZM13.9531 10.2937L12.3906 17.6453C12.2812 18.1766 12.4359 18.4781 12.8656 18.4781C13.1688 18.4781 13.6266 18.3687 13.9375 18.0938L13.8 18.7437C13.3516 19.2844 12.3625 19.6781 11.5109 19.6781C10.4125 19.6781 9.94531 19.0187 10.2484 17.6172L11.4016 12.1984C11.5016 11.7406 11.4109 11.575 10.9531 11.4641L10.2484 11.3375L10.3766 10.7422L13.9547 10.2937H13.9531ZM12.5 8.59375C12.0856 8.59375 11.6882 8.42913 11.3951 8.1361C11.1021 7.84308 10.9375 7.44565 10.9375 7.03125C10.9375 6.61685 11.1021 6.21942 11.3951 5.9264C11.6882 5.63337 12.0856 5.46875 12.5 5.46875C12.9144 5.46875 13.3118 5.63337 13.6049 5.9264C13.8979 6.21942 14.0625 6.61685 14.0625 7.03125C14.0625 7.44565 13.8979 7.84308 13.6049 8.1361C13.3118 8.42913 12.9144 8.59375 12.5 8.59375Z"/>
            </g>
        </symbol>
        <symbol id="icon__check" viewBox="0 0 52 52">
            <g fill-rule="evenodd">
                <path d="M35.4961 17.9258H33.1145C32.5965 17.9258 32.1039 18.1746 31.7993 18.6012L23.8164 29.6715L20.2008 24.6543C19.8961 24.2328 19.4086 23.9789 18.8856 23.9789H16.5039C16.1739 23.9789 15.9809 24.3547 16.1739 24.6238L22.5012 33.3988C22.6507 33.6075 22.8477 33.7774 23.076 33.8947C23.3043 34.012 23.5573 34.0732 23.8139 34.0732C24.0705 34.0732 24.3235 34.012 24.5518 33.8947C24.7801 33.7774 24.9771 33.6075 25.1266 33.3988L35.8211 18.5707C36.0192 18.3016 35.8262 17.9258 35.4961 17.9258Z"/>
                <path d="M26 3.25C13.4367 3.25 3.25 13.4367 3.25 26C3.25 38.5633 13.4367 48.75 26 48.75C38.5633 48.75 48.75 38.5633 48.75 26C48.75 13.4367 38.5633 3.25 26 3.25ZM26 44.8906C15.5695 44.8906 7.10938 36.4305 7.10938 26C7.10938 15.5695 15.5695 7.10938 26 7.10938C36.4305 7.10938 44.8906 15.5695 44.8906 26C44.8906 36.4305 36.4305 44.8906 26 44.8906Z"/>
            </g>
        </symbol>
        <symbol id="icon__arrow-back" viewBox="0 0 24 24">
            <g fill-rule="evenodd">
                <path d="M10.641 18.77C10.7422 18.686 10.8259 18.5829 10.8873 18.4666C10.9486 18.3503 10.9864 18.2229 10.9985 18.092C11.0106 17.961 10.9967 17.8289 10.9576 17.7033C10.9186 17.5777 10.8552 17.461 10.771 17.36L7.14095 13H19.001C19.2662 13 19.5205 12.8946 19.7081 12.7071C19.8956 12.5196 20.001 12.2652 20.001 12C20.001 11.7348 19.8956 11.4804 19.7081 11.2929C19.5205 11.1054 19.2662 11 19.001 11L7.14095 11L10.771 6.63999C10.855 6.53888 10.9183 6.4222 10.9573 6.29661C10.9962 6.17103 11.01 6.039 10.998 5.90807C10.9859 5.77714 10.9482 5.64987 10.8869 5.53352C10.8256 5.41718 10.7421 5.31404 10.641 5.22999C10.5398 5.14595 10.4232 5.08264 10.2976 5.04369C10.172 5.00474 10.04 4.9909 9.90903 5.00297C9.7781 5.01505 9.65083 5.05279 9.53448 5.11404C9.41814 5.1753 9.315 5.25888 9.23095 5.35999L4.23095 11.36L4.14095 11.51L4.07095 11.64C3.98156 11.8717 3.98156 12.1283 4.07095 12.36L4.14095 12.49L4.23095 12.64L9.23095 18.64C9.3149 18.7413 9.418 18.825 9.53435 18.8863C9.6507 18.9477 9.77801 18.9855 9.90898 18.9975C10.04 19.0096 10.172 18.9957 10.2976 18.9567C10.4232 18.9176 10.5399 18.8542 10.641 18.77Z"/>
            </g>
        </symbol>
        <symbol id="icon__slider-arrow-prev" viewBox="0 0 32 32">
            <g fill-rule="evenodd">
                <path d="M14.1867 25.0267C14.3217 24.9147 14.4333 24.7773 14.5151 24.6222C14.5969 24.467 14.6473 24.2973 14.6634 24.1226C14.6795 23.948 14.661 23.7719 14.6089 23.6044C14.5569 23.437 14.4723 23.2814 14.36 23.1467L9.52 17.3333H25.3333C25.687 17.3333 26.0261 17.1929 26.2761 16.9428C26.5262 16.6928 26.6667 16.3536 26.6667 16C26.6667 15.6464 26.5262 15.3073 26.2761 15.0572C26.0261 14.8072 25.687 14.6667 25.3333 14.6667L9.52 14.6667L14.36 8.85335C14.4721 8.71852 14.5565 8.56295 14.6084 8.3955C14.6603 8.22806 14.6788 8.05202 14.6627 7.87745C14.6466 7.70287 14.5963 7.53318 14.5146 7.37805C14.4329 7.22293 14.3215 7.08541 14.1867 6.97335C14.0518 6.86128 13.8963 6.77688 13.7288 6.72494C13.5614 6.673 13.3853 6.65456 13.2108 6.67065C13.0362 6.68675 12.8665 6.73707 12.7114 6.81875C12.5562 6.90042 12.4187 7.01186 12.3067 7.14668L5.64 15.1467L5.52 15.3467L5.42667 15.52C5.30747 15.8289 5.30747 16.1711 5.42667 16.48L5.52 16.6533L5.64 16.8533L12.3067 24.8533C12.4186 24.9884 12.5561 25.1 12.7112 25.1818C12.8663 25.2636 13.0361 25.314 13.2107 25.3301C13.3853 25.3462 13.5614 25.3277 13.7289 25.2756C13.8964 25.2235 14.0519 25.1389 14.1867 25.0267Z"/>
            </g>
        </symbol>
        <symbol id="icon__slider-arrow-next" viewBox="0 0 32 32">
            <g fill-rule="evenodd">
                <path d="M17.8133 25.0267C17.6783 24.9147 17.5667 24.7773 17.4849 24.6222C17.4031 24.467 17.3527 24.2973 17.3366 24.1226C17.3205 23.948 17.339 23.7719 17.3911 23.6044C17.4432 23.437 17.5277 23.2814 17.64 23.1467L22.48 17.3333H6.66667C6.31305 17.3333 5.97391 17.1929 5.72386 16.9428C5.47381 16.6928 5.33334 16.3536 5.33334 16C5.33334 15.6464 5.47381 15.3073 5.72386 15.0572C5.97391 14.8072 6.31305 14.6667 6.66667 14.6667L22.48 14.6667L17.64 8.85335C17.5279 8.71852 17.4435 8.56295 17.3916 8.3955C17.3397 8.22806 17.3212 8.05202 17.3373 7.87745C17.3534 7.70287 17.4037 7.53318 17.4854 7.37805C17.5671 7.22293 17.6785 7.08541 17.8133 6.97335C17.9482 6.86128 18.1037 6.77688 18.2712 6.72494C18.4386 6.673 18.6147 6.65456 18.7892 6.67065C18.9638 6.68675 19.1335 6.73707 19.2886 6.81875C19.4438 6.90042 19.5813 7.01186 19.6933 7.14668L26.36 15.1467L26.48 15.3467L26.5733 15.52C26.6925 15.8289 26.6925 16.1711 26.5733 16.48L26.48 16.6533L26.36 16.8533L19.6933 24.8533C19.5814 24.9884 19.4439 25.1 19.2888 25.1818C19.1337 25.2636 18.9639 25.314 18.7893 25.3301C18.6147 25.3462 18.4386 25.3277 18.2711 25.2756C18.1036 25.2235 17.9481 25.1389 17.8133 25.0267Z"/>
            </g>
        </symbol>
        <symbol id="icon__closer" viewBox="0 0 22 22">
            <g fill-rule="evenodd">
                <path d="M3.872 1.86255L11 8.99055L18.0987 1.89189C18.2231 1.75947 18.3729 1.65354 18.5393 1.58046C18.7056 1.50737 18.885 1.46863 19.0667 1.46655C19.4557 1.46655 19.8287 1.62108 20.1038 1.89613C20.3788 2.17118 20.5333 2.54424 20.5333 2.93322C20.5368 3.11304 20.5034 3.29165 20.4353 3.45811C20.3672 3.62457 20.2658 3.77536 20.1373 3.90122L12.9653 10.9999L20.1373 18.1719C20.3791 18.4084 20.5208 18.7286 20.5333 19.0666C20.5333 19.4555 20.3788 19.8286 20.1038 20.1036C19.8287 20.3787 19.4557 20.5332 19.0667 20.5332C18.8797 20.541 18.6933 20.5098 18.519 20.4416C18.3448 20.3734 18.1867 20.2698 18.0547 20.1372L11 13.0092L3.88667 20.1226C3.76274 20.2506 3.6147 20.3527 3.45107 20.4232C3.28745 20.4937 3.11148 20.5311 2.93334 20.5332C2.54435 20.5332 2.1713 20.3787 1.89625 20.1036C1.62119 19.8286 1.46667 19.4555 1.46667 19.0666C1.46325 18.8867 1.49661 18.7081 1.56471 18.5417C1.63281 18.3752 1.7342 18.2244 1.86267 18.0986L9.03467 10.9999L1.86267 3.82789C1.62094 3.5914 1.47919 3.27116 1.46667 2.93322C1.46667 2.54424 1.62119 2.17118 1.89625 1.89613C2.1713 1.62108 2.54435 1.46655 2.93334 1.46655C3.28534 1.47095 3.62267 1.61322 3.872 1.86255Z"/>
            </g>
        </symbol>
        <symbol id="icon__arrow-down" viewBox="0 0 24 24">
            <g fill-rule="evenodd">
                <path d="M18.77 13.36C18.6861 13.2588 18.583 13.1751 18.4666 13.1137C18.3503 13.0524 18.2229 13.0146 18.092 13.0025C17.961 12.9904 17.8289 13.0043 17.7033 13.0433C17.5777 13.0824 17.461 13.1458 17.36 13.23L13 16.86L13 5.00002C13 4.73481 12.8946 4.48045 12.7071 4.29292C12.5196 4.10538 12.2652 4.00002 12 4.00002C11.7348 4.00002 11.4804 4.10538 11.2929 4.29292C11.1054 4.48045 11 4.73481 11 5.00002L11 16.86L6.64 13.23C6.53888 13.146 6.4222 13.0827 6.29662 13.0437C6.17103 13.0048 6.03901 12.9909 5.90808 13.003C5.77714 13.0151 5.64987 13.0528 5.53353 13.1141C5.41718 13.1753 5.31405 13.2589 5.23 13.36C5.14595 13.4611 5.08265 13.5778 5.0437 13.7034C5.00474 13.829 4.99091 13.961 5.00298 14.0919C5.01505 14.2229 5.05279 14.3501 5.11405 14.4665C5.17531 14.5828 5.25888 14.686 5.36 14.77L11.36 19.77L11.51 19.86L11.64 19.93C11.8717 20.0194 12.1283 20.0194 12.36 19.93L12.49 19.86L12.64 19.77L18.64 14.77C18.7413 14.6861 18.825 14.583 18.8863 14.4666C18.9477 14.3503 18.9855 14.223 18.9975 14.092C19.0096 13.961 18.9957 13.8289 18.9567 13.7033C18.9176 13.5777 18.8542 13.4611 18.77 13.36V13.36Z"/>
            </g>
        </symbol>
        <symbol id="icon__arrow-left" viewBox="0 0 16 16">
            <g fill-rule="evenodd">
                <path d="M13.36 5.23005C13.2587 5.314 13.175 5.4171 13.1137 5.53345C13.0523 5.6498 13.0145 5.7771 13.0025 5.90808C12.9904 6.03906 13.0043 6.17113 13.0433 6.29673C13.0824 6.42234 13.1458 6.539 13.23 6.64005L16.86 11.0001L5 11.0001C4.73478 11.0001 4.48043 11.1054 4.29289 11.2929C4.10536 11.4805 4 11.7348 4 12.0001C4 12.2653 4.10536 12.5196 4.29289 12.7072C4.48043 12.8947 4.73478 13.0001 5 13.0001L16.86 13.0001L13.23 17.3601C13.146 17.4612 13.0826 17.5779 13.0437 17.7034C13.0047 17.829 12.9909 17.961 13.003 18.092C13.0151 18.2229 13.0528 18.3502 13.1141 18.4665C13.1753 18.5829 13.2589 18.686 13.36 18.7701C13.4611 18.8541 13.5778 18.9174 13.7034 18.9564C13.829 18.9953 13.961 19.0091 14.0919 18.9971C14.2229 18.985 14.3501 18.9473 14.4665 18.886C14.5828 18.8247 14.686 18.7412 14.77 18.6401L19.77 12.6401L19.86 12.4901L19.93 12.3601C20.0194 12.1284 20.0194 11.8717 19.93 11.6401L19.86 11.5101L19.77 11.3601L14.77 5.36005C14.6861 5.25879 14.583 5.17509 14.4666 5.11374C14.3503 5.05239 14.2229 5.01459 14.092 5.00251C13.961 4.99044 13.8289 5.00432 13.7033 5.04337C13.5777 5.08241 13.461 5.14585 13.36 5.23005Z"/>
            </g>
        </symbol>
        <symbol id="icon__arrow-right" viewBox="0 0 24 24">
            <g fill-rule="evenodd">
                <path d="M13.36 5.23005C13.2587 5.314 13.175 5.4171 13.1137 5.53345C13.0523 5.6498 13.0145 5.7771 13.0025 5.90808C12.9904 6.03906 13.0043 6.17113 13.0433 6.29673C13.0824 6.42234 13.1458 6.539 13.23 6.64005L16.86 11.0001L5 11.0001C4.73478 11.0001 4.48043 11.1054 4.29289 11.2929C4.10536 11.4805 4 11.7348 4 12.0001C4 12.2653 4.10536 12.5196 4.29289 12.7072C4.48043 12.8947 4.73478 13.0001 5 13.0001L16.86 13.0001L13.23 17.3601C13.146 17.4612 13.0826 17.5779 13.0437 17.7034C13.0047 17.829 12.9909 17.961 13.003 18.092C13.0151 18.2229 13.0528 18.3502 13.1141 18.4665C13.1753 18.5829 13.2589 18.686 13.36 18.7701C13.4611 18.8541 13.5778 18.9174 13.7034 18.9564C13.829 18.9953 13.961 19.0091 14.0919 18.9971C14.2229 18.985 14.3501 18.9473 14.4665 18.886C14.5828 18.8247 14.686 18.7412 14.77 18.6401L19.77 12.6401L19.86 12.4901L19.93 12.3601C20.0194 12.1284 20.0194 11.8717 19.93 11.6401L19.86 11.5101L19.77 11.3601L14.77 5.36005C14.6861 5.25879 14.583 5.17509 14.4666 5.11374C14.3503 5.05239 14.2229 5.01459 14.092 5.00251C13.961 4.99044 13.8289 5.00432 13.7033 5.04337C13.5777 5.08241 13.461 5.14585 13.36 5.23005Z"/>
            </g>
        </symbol>
        <symbol id="icon__tab_arrow-up" viewBox="0 0 10 10">
            <g fill-rule="evenodd">
                <path d="M1.0225 6.69196C1.1397 6.80913 1.29865 6.87495 1.46437 6.87495C1.6301 6.87495 1.78904 6.80913 1.90625 6.69196L5 3.59821L8.09374 6.69196C8.21162 6.80581 8.3695 6.86881 8.53337 6.86738C8.69724 6.86596 8.854 6.80023 8.96988 6.68435C9.08576 6.56847 9.15149 6.41171 9.15292 6.24784C9.15434 6.08396 9.09134 5.92609 8.97749 5.80821L5.44187 2.27259C5.32467 2.15542 5.16572 2.0896 5 2.0896C4.83427 2.0896 4.67533 2.15542 4.55812 2.27259L1.0225 5.80821C0.90533 5.92542 0.839508 6.08436 0.839508 6.25009C0.839508 6.41581 0.90533 6.57476 1.0225 6.69196Z" />
            </g>
        </symbol>
        <symbol id="icon__tab_arrow-down" viewBox="0 0 10 10">
            <g fill-rule="evenodd">
                <path d="M8.9775 3.30804C8.8603 3.19087 8.70135 3.12505 8.53563 3.12505C8.3699 3.12505 8.21096 3.19087 8.09375 3.30804L5 6.40179L1.90625 3.30804C1.78838 3.19419 1.6305 3.13119 1.46663 3.13262C1.30275 3.13404 1.146 3.19977 1.03012 3.31565C0.914237 3.43153 0.848507 3.58829 0.847083 3.75216C0.845659 3.91603 0.908656 4.07391 1.0225 4.19179L4.55813 7.72741C4.67533 7.84458 4.83427 7.9104 5 7.9104C5.16573 7.9104 5.32467 7.84458 5.44188 7.72741L8.9775 4.19179C9.09467 4.07458 9.16049 3.91564 9.16049 3.74991C9.16049 3.58418 9.09467 3.42524 8.9775 3.30804Z"/>
            </g>
        </symbol>
        <symbol id="icon__tab_arrow-prev" viewBox="0 0 25 25">
            <g fill-rule="evenodd">
                <path d="M16.7297 22.4437C17.0226 22.1507 17.1871 21.7534 17.1871 21.339C17.1871 20.9247 17.0226 20.5274 16.7297 20.2344L8.99529 12.5L16.7297 4.76562C17.0143 4.47093 17.1718 4.07624 17.1682 3.66656C17.1647 3.25688 17.0003 2.86498 16.7106 2.57528C16.4209 2.28558 16.029 2.12126 15.6194 2.1177C15.2097 2.11414 14.815 2.27163 14.5203 2.55625L5.68123 11.3953C5.38831 11.6883 5.22375 12.0857 5.22375 12.5C5.22375 12.9143 5.38831 13.3117 5.68123 13.6047L14.5203 22.4437C14.8133 22.7367 15.2107 22.9012 15.625 22.9012C16.0393 22.9012 16.4367 22.7367 16.7297 22.4437V22.4437Z"/>
            </g>
        </symbol>
        <symbol id="icon__tab_arrow-next" viewBox="0 0 25 25">
            <g fill-rule="evenodd">
                <path d="M8.27034 22.4437C7.97741 22.1507 7.81286 21.7534 7.81286 21.339C7.81286 20.9247 7.97741 20.5274 8.27034 20.2344L16.0047 12.5L8.27034 4.76562C7.98571 4.47093 7.82822 4.07624 7.83178 3.66656C7.83534 3.25688 7.99967 2.86498 8.28937 2.57528C8.57907 2.28558 8.97097 2.12126 9.38065 2.1177C9.79033 2.11414 10.185 2.27163 10.4797 2.55625L19.3188 11.3953C19.6117 11.6883 19.7762 12.0857 19.7762 12.5C19.7762 12.9143 19.6117 13.3117 19.3188 13.6047L10.4797 22.4437C10.1867 22.7367 9.78934 22.9012 9.37502 22.9012C8.9607 22.9012 8.56335 22.7367 8.27034 22.4437Z"/>
            </g>
        </symbol>
        <symbol id="icon__email-transparent" viewBox="0 0 16 17">
            <g fill-rule="evenodd">
                <path d="M13.3333 3.02539H2.66668C1.93001 3.02539 1.34001 3.62206 1.34001 4.35872L1.33334 12.3587C1.33334 13.0954 1.93001 13.6921 2.66668 13.6921H13.3333C14.07 13.6921 14.6667 13.0954 14.6667 12.3587V4.35872C14.6667 3.62206 14.07 3.02539 13.3333 3.02539ZM13.3333 12.3587H2.66668V5.69206L8.00001 9.02539L13.3333 5.69206V12.3587ZM8.00001 7.69206L2.66668 4.35872H13.3333L8.00001 7.69206Z"/>
            </g>
        </symbol>
        <symbol id="icon__phone" viewBox="0 0 16 17">
            <g fill-rule="evenodd">
                <path d="M13.3333 10.692C12.5033 10.692 11.7033 10.5586 10.9533 10.312C10.7233 10.2386 10.46 10.292 10.2767 10.4753L8.81 11.9453C6.92 10.9853 5.38 9.44198 4.41667 7.55531L5.88333 6.08531C6.06667 5.90198 6.12 5.63864 6.04667 5.40864C5.8 4.65864 5.66667 3.85531 5.66667 3.02531C5.66667 2.65531 5.37 2.35864 5 2.35864H2.66667C2.29667 2.35864 2 2.65531 2 3.02531C2 9.28531 7.07333 14.3586 13.3333 14.3586C13.7033 14.3586 14 14.062 14 13.692V11.3586C14 10.9886 13.7033 10.692 13.3333 10.692ZM12.6667 8.35864H14C14 5.04531 11.3133 2.35864 8 2.35864V3.69198C10.5767 3.69198 12.6667 5.78198 12.6667 8.35864ZM10 8.35864H11.3333C11.3333 6.51864 9.84 5.02531 8 5.02531V6.35864C9.10333 6.35864 10 7.25531 10 8.35864Z"/>
            </g>
        </symbol>
        <symbol id="icon__email-color" viewBox="0 0 19 19">
            <g fill-rule="evenodd">
                <path d="M15.8577 3.52612H3.85773C3.02898 3.52612 2.36523 4.19737 2.36523 5.02612L2.35773 14.0261C2.35773 14.8549 3.02898 15.5261 3.85773 15.5261H15.8577C16.6865 15.5261 17.3577 14.8549 17.3577 14.0261V5.02612C17.3577 4.19737 16.6865 3.52612 15.8577 3.52612ZM15.8577 6.52612L9.85773 10.2761L3.85773 6.52612V5.02612L9.85773 8.77612L15.8577 5.02612V6.52612Z"/>
            </g>
        </symbol>
        <symbol id="icon__marker" viewBox="0 0 19 19">
            <g fill-rule="evenodd">
                <path d="M9.85773 2.02612C6.95898 2.02612 4.60773 4.37737 4.60773 7.27612C4.60773 11.2136 9.85773 17.0261 9.85773 17.0261C9.85773 17.0261 15.1077 11.2136 15.1077 7.27612C15.1077 4.37737 12.7565 2.02612 9.85773 2.02612ZM9.85773 9.15112C8.82273 9.15112 7.98273 8.31112 7.98273 7.27612C7.98273 6.24112 8.82273 5.40112 9.85773 5.40112C10.8927 5.40112 11.7327 6.24112 11.7327 7.27612C11.7327 8.31112 10.8927 9.15112 9.85773 9.15112Z"/>
            </g>
        </symbol>
        <symbol id="icon__instagram" viewBox="0 0 32 32">
            <g fill-rule="evenodd">
                <path d="M16 0C7.16344 0 0 7.16344 0 16C0 24.8366 7.16344 32 16 32C24.8366 32 32 24.8366 32 16C32 7.16344 24.8366 0 16 0ZM12.4822 7.51816C13.3924 7.47673 13.6833 7.4666 16.0008 7.4666H15.9981C18.3164 7.4666 18.6062 7.47673 19.5164 7.51816C20.4248 7.55976 21.0453 7.70358 21.5893 7.91461C22.1511 8.13239 22.6258 8.42394 23.1004 8.89862C23.5751 9.37293 23.8667 9.84903 24.0853 10.4103C24.2951 10.9529 24.4391 11.573 24.4818 12.4814C24.5227 13.3916 24.5333 13.6825 24.5333 16C24.5333 18.3176 24.5227 18.6077 24.4818 19.5179C24.4391 20.426 24.2951 21.0463 24.0853 21.5891C23.8667 22.1501 23.5751 22.6262 23.1004 23.1005C22.6263 23.5752 22.1509 23.8675 21.5898 24.0854C21.0469 24.2965 20.4261 24.4403 19.5176 24.4819C18.6074 24.5233 18.3174 24.5334 15.9997 24.5334C13.6824 24.5334 13.3917 24.5233 12.4815 24.4819C11.5732 24.4403 10.9529 24.2965 10.41 24.0854C9.84909 23.8675 9.373 23.5752 8.89886 23.1005C8.42436 22.6262 8.13281 22.1501 7.91467 21.5889C7.70382 21.0463 7.56 20.4262 7.51822 19.5177C7.47698 18.6075 7.46667 18.3176 7.46667 16C7.46667 13.6825 7.47733 13.3915 7.51804 12.4812C7.55893 11.5731 7.70293 10.9529 7.91449 10.4101C8.13316 9.84903 8.42472 9.37293 8.89939 8.89862C9.37371 8.42412 9.8498 8.13256 10.4111 7.91461C10.9536 7.70358 11.5737 7.55976 12.4822 7.51816Z"/>
                <path d="M15.2353 9.00457C15.3839 9.00434 15.5438 9.00441 15.7164 9.00449L16.0008 9.00457C18.2792 9.00457 18.5493 9.01275 19.449 9.05364C20.281 9.09169 20.7326 9.23071 21.0334 9.34751C21.4316 9.50218 21.7155 9.68707 22.014 9.98574C22.3127 10.2844 22.4976 10.5689 22.6526 10.9671C22.7694 11.2675 22.9086 11.7191 22.9465 12.5511C22.9874 13.4507 22.9962 13.7209 22.9962 15.9982C22.9962 18.2756 22.9874 18.5458 22.9465 19.4454C22.9084 20.2774 22.7694 20.729 22.6526 21.0294C22.4979 21.4276 22.3127 21.7112 22.014 22.0097C21.7153 22.3084 21.4318 22.4932 21.0334 22.6479C20.7329 22.7653 20.281 22.9039 19.449 22.942C18.5494 22.9829 18.2792 22.9917 16.0008 22.9917C13.7222 22.9917 13.4522 22.9829 12.5526 22.942C11.7206 22.9036 11.269 22.7645 10.968 22.6477C10.5698 22.4931 10.2854 22.3082 9.98669 22.0095C9.68802 21.7108 9.50313 21.4271 9.34811 21.0287C9.23131 20.7283 9.09211 20.2767 9.05424 19.4447C9.01335 18.5451 9.00517 18.2749 9.00517 15.9961C9.00517 13.7173 9.01335 13.4485 9.05424 12.549C9.09228 11.717 9.23131 11.2654 9.34811 10.9646C9.50278 10.5664 9.68802 10.2819 9.98669 9.98325C10.2854 9.68458 10.5698 9.49969 10.968 9.34467C11.2688 9.22733 11.7206 9.08866 12.5526 9.05044C13.3398 9.01489 13.6449 9.00422 15.2353 9.00244V9.00457ZM20.5559 10.4215C19.9905 10.4215 19.5319 10.8796 19.5319 11.4452C19.5319 12.0105 19.9905 12.4692 20.5559 12.4692C21.1212 12.4692 21.5799 12.0105 21.5799 11.4452C21.5799 10.8798 21.1212 10.4212 20.5559 10.4212V10.4215ZM11.6185 16.0001C11.6185 13.58 13.5806 11.6179 16.0006 11.6178C18.4207 11.6178 20.3824 13.58 20.3824 16.0001C20.3824 18.4202 18.4209 20.3815 16.0008 20.3815C13.5807 20.3815 11.6185 18.4202 11.6185 16.0001Z"/>
                <path d="M16.0008 13.1555C17.5717 13.1555 18.8453 14.429 18.8453 16C18.8453 17.5709 17.5717 18.8445 16.0008 18.8445C14.4298 18.8445 13.1563 17.5709 13.1563 16C13.1563 14.429 14.4298 13.1555 16.0008 13.1555Z"/>
            </g>
        </symbol>
        <symbol id="icon__facebook" viewBox="0 0 32 32">
            <g fill-rule="evenodd">
                <path d="M16 0C7.16344 0 0 7.16344 0 16C0 24.8366 7.16344 32 16 32C24.8366 32 32 24.8366 32 16C32 7.16344 24.8366 0 16 0ZM17.6677 16.7028V25.4077H14.066V16.7031H12.2667V13.7034H14.066V11.9024C14.066 9.4552 15.0821 8 17.9688 8H20.372V11.0001H18.8698C17.7461 11.0001 17.6718 11.4193 17.6718 12.2017L17.6677 13.7031H20.3891L20.0706 16.7028H17.6677Z"/>
            </g>
        </symbol>
        <symbol id="icon__twitter" viewBox="0 0 32 32">
            <g fill-rule="evenodd">
                <path d="M16 0C7.16344 0 0 7.16344 0 16C0 24.8366 7.16344 32 16 32C24.8366 32 32 24.8366 32 16C32 7.16344 24.8366 0 16 0ZM15.5544 13.5588L15.5208 13.0051C15.4201 11.5702 16.3042 10.2595 17.7032 9.75109C18.218 9.57031 19.0909 9.54771 19.6617 9.7059C19.8856 9.77369 20.3108 9.99966 20.613 10.203L21.1614 10.5759L21.7658 10.3838C22.1015 10.2821 22.5492 10.1126 22.7506 9.99966C22.9409 9.89797 23.1088 9.84148 23.1088 9.87538C23.1088 10.0675 22.6947 10.7228 22.3477 11.0843C21.8777 11.5928 22.012 11.638 22.9633 11.299C23.534 11.1069 23.5452 11.1069 23.4333 11.3216C23.3662 11.4346 23.0192 11.83 22.6499 12.1916C22.0232 12.813 21.9896 12.8808 21.9896 13.4006C21.9896 14.2028 21.6091 15.875 21.2285 16.7902C20.5235 18.5076 19.0126 20.2815 17.5017 21.1741C15.3753 22.4282 12.5438 22.7446 10.16 22.0102C9.36538 21.7616 8 21.1289 8 21.0159C8 20.982 8.41409 20.9368 8.91772 20.9255C9.96973 20.9029 11.0218 20.6091 11.9171 20.0894L12.5214 19.7278L11.8276 19.4906C10.8427 19.1516 9.95854 18.372 9.73471 17.6376C9.66756 17.4003 9.68994 17.389 10.3167 17.389L10.9658 17.3777L10.4174 17.1178C9.76828 16.7902 9.17513 16.2365 8.88414 15.6716C8.6715 15.2649 8.4029 14.2367 8.48124 14.1576C8.50362 14.1237 8.73865 14.1915 9.00725 14.2819C9.77948 14.5643 9.8802 14.4965 9.43253 14.022C8.59316 13.1633 8.33575 11.8865 8.73865 10.6776L8.92891 10.1352L9.66756 10.8697C11.1784 12.3498 12.9579 13.2311 14.9948 13.491L15.5544 13.5588Z"/>
            </g>
        </symbol>
        <symbol id="icon__youtube" viewBox="0 0 32 32">
            <g fill-rule="evenodd">
                <path d="M16 0C7.16344 0 0 7.16344 0 16C0 24.8366 7.16344 32 16 32C24.8366 32 32 24.8366 32 16C32 7.16344 24.8366 0 16 0ZM22.6677 10.4995C23.4021 10.701 23.9804 11.2947 24.1767 12.0487C24.5333 13.4153 24.5333 16.2666 24.5333 16.2666C24.5333 16.2666 24.5333 19.1178 24.1767 20.4845C23.9804 21.2385 23.4021 21.8322 22.6677 22.0338C21.3369 22.3999 16 22.3999 16 22.3999C16 22.3999 10.6631 22.3999 9.33217 22.0338C8.59782 21.8322 8.01949 21.2385 7.82322 20.4845C7.46667 19.1178 7.46667 16.2666 7.46667 16.2666C7.46667 16.2666 7.46667 13.4153 7.82322 12.0487C8.01949 11.2947 8.59782 10.701 9.33217 10.4995C10.6631 10.1333 16 10.1333 16 10.1333C16 10.1333 21.3369 10.1333 22.6677 10.4995Z"/>
                <path d="M14.4 19.2V13.8667L18.6667 16.5335L14.4 19.2Z"/>
            </g>
        </symbol>
    </defs>
</svg>
