<svg width="157" height="54" viewBox="0 0 157 54" fill="none" xmlns="http://www.w3.org/2000/svg">
    <g opacity="0.949997">
        <path opacity="0.949997" d="M67.6599 27.771H70.3769V12.1231H67.6599V27.771ZM130.786 14.3548C129.206 12.6213 127.183 11.7403 124.777 11.7403C122.365 11.7403 120.337 12.6254 118.759 14.3712C117.323 15.9485 116.601 17.8382 116.601 19.9864C116.601 22.1581 117.367 24.0792 118.879 25.6987C120.403 27.3287 122.385 28.1525 124.777 28.1525C127.162 28.1525 129.144 27.3287 130.666 25.6987C132.183 24.0792 132.947 22.1568 132.947 19.9864C132.947 17.8323 132.22 15.9376 130.786 14.3548ZM124.771 14.4061C126.258 14.4061 127.512 14.9434 128.591 16.0456C129.68 17.1542 130.203 18.4563 130.203 20.03C130.203 21.0277 129.96 21.9724 129.473 22.838C128.988 23.6973 128.323 24.3708 127.507 24.8386C126.681 25.305 125.762 25.5439 124.771 25.5439C123.783 25.5439 122.866 25.305 122.038 24.8386C121.221 24.3708 120.556 23.6973 120.071 22.838C119.587 21.9724 119.338 21.0277 119.338 20.03C119.338 18.4563 119.865 17.1542 120.947 16.0456C122.023 14.9434 123.276 14.4061 124.771 14.4061ZM112.353 12.1227V8.8877C112.353 6.78678 109.634 6.6083 109.634 6.6083V12.1227H106.734V14.5705H109.634V27.771H112.353V14.5705H115.392V12.1227H112.353ZM104.167 25.0311C104.167 25.0311 104.163 16.8931 104.163 14.824C104.163 12.2961 101.453 12.1227 101.453 12.1227V14.0846C100.735 13.3707 99.9914 12.832 99.2295 12.4714C98.2132 11.9864 97.1039 11.7403 95.938 11.7403C94.5278 11.7403 93.1686 12.1086 91.9043 12.832C90.6368 13.5546 89.6273 14.5528 88.9115 15.7963C88.1943 17.0416 87.8286 18.3995 87.8286 19.8397C87.8286 21.2748 88.1797 22.615 88.87 23.8176C89.5603 25.0211 90.5538 25.9917 91.8168 26.7042C93.0806 27.4118 94.4489 27.771 95.8783 27.771C97.1039 27.771 98.2793 27.5099 99.3704 27.0017C100.143 26.6406 100.842 26.1638 101.453 25.5784V31.11C101.453 32.675 101.275 33.8104 100.919 34.4835C100.571 35.1456 99.9859 35.7069 99.1561 36.152C98.3176 36.6012 97.2658 36.8278 96.0311 36.8278C94.7749 36.8278 93.7158 36.6062 92.8837 36.1652C92.2148 35.8114 91.6367 35.2955 91.1611 34.6242H88.1127C88.6566 35.7742 89.2621 36.667 89.915 37.2829C90.5903 37.9269 91.4757 38.445 92.5394 38.8215C93.6032 39.194 94.8032 39.3838 96.1186 39.3838C97.9328 39.3838 99.5072 38.9964 100.808 38.2248C101.971 37.5336 102.822 36.5076 103.583 34.8972C104.147 33.6959 104.18 28.4173 104.167 25.0311ZM101.546 19.8247C101.546 21.4515 101.061 22.7199 100.052 23.705C99.0544 24.695 97.7491 25.1746 96.0794 25.1746C94.4275 25.1746 93.1221 24.6869 92.0963 23.69C91.074 22.6945 90.5739 21.4651 90.5739 19.9341C90.5739 18.9359 90.8223 17.9935 91.3166 17.1338C91.8031 16.2768 92.4934 15.5974 93.3569 15.1124C94.2237 14.625 95.173 14.3775 96.1893 14.3775C97.1582 14.3775 98.0732 14.6187 98.9117 15.0901C99.747 15.562 100.403 16.2114 100.857 17.0216C101.318 17.8359 101.546 18.7792 101.546 19.8247ZM148.503 15.1065C148.062 14.0864 147.368 13.2589 146.443 12.654C145.516 12.0464 144.444 11.7403 143.256 11.7403C142.1 11.7403 141.014 12.0114 140.025 12.5477C139.329 12.9247 138.671 13.4397 138.064 14.0891V12.1227C138.064 12.1227 135.347 12.0777 135.347 14.5592V27.771H138.064V21.9279C138.064 20.0109 138.15 18.6834 138.325 17.9853C138.596 16.9449 139.162 16.0575 140.012 15.3508C140.861 14.6441 141.8 14.2958 142.874 14.2958C143.792 14.2958 144.539 14.5197 145.093 14.9543C145.649 15.3898 146.034 16.0629 146.233 16.9567C146.369 17.4962 146.436 18.618 146.436 20.2879V27.771H149.152V19.7288C149.152 17.6347 148.938 16.1224 148.503 15.1065ZM85.2744 15.1065C84.834 14.0864 84.1409 13.2589 83.2145 12.654C82.288 12.0464 81.2165 11.7403 80.0297 11.7403C78.872 11.7403 77.7864 12.0114 76.7952 12.5477C76.1008 12.9247 75.4456 13.4397 74.8356 14.0891V12.1227C74.8356 12.1227 72.119 12.0777 72.119 14.5592V27.771H74.8356V21.9279C74.8356 20.0109 74.9236 18.6834 75.0986 17.9853C75.3695 16.9449 75.9353 16.0575 76.7843 15.3508C77.6346 14.6441 78.572 14.2958 79.6449 14.2958C80.5645 14.2958 81.3118 14.5197 81.8653 14.9543C82.4216 15.3898 82.8073 16.0629 83.0056 16.9567C83.1411 17.4962 83.2094 18.618 83.2094 20.2879V27.771H85.9237V19.7288C85.9237 17.6347 85.7108 16.1224 85.2744 15.1065ZM65.7869 12.2961C65.1244 11.9278 64.4897 11.7403 63.8915 11.7403C63.1132 11.7403 62.3568 11.9773 61.6483 12.4419C61.2197 12.7167 60.808 13.0791 60.4131 13.5264V12.1227C60.4131 12.1227 57.656 12.1935 57.656 14.5592V27.771H60.4131V22.3493C60.4131 19.8233 60.5262 18.1302 60.7528 17.3259C61.0446 16.3013 61.4586 15.5474 61.9925 15.0778C62.5132 14.6173 63.0325 14.3952 63.5778 14.3952C63.7949 14.3952 64.0821 14.4688 64.4368 14.6187L64.751 14.7549L66.1494 12.4982L65.7869 12.2961ZM55.5746 12.2961C54.9158 11.9278 54.2766 11.7403 53.6829 11.7403C52.9001 11.7403 52.1446 11.9773 51.4315 12.4419C51.0102 12.7167 50.598 13.0791 50.1981 13.5264V12.1227C50.1981 12.1227 47.4438 12.1935 47.4438 14.5592V27.771H50.1981V22.3493C50.1981 19.8233 50.3139 18.1302 50.5428 17.3259C50.8296 16.3013 51.2477 15.5474 51.7784 15.0778C52.3019 14.6173 52.8166 14.3952 53.3665 14.3952C53.5849 14.3952 53.8726 14.4688 54.2228 14.6187L54.5374 14.7549L55.9399 12.4982L55.5746 12.2961ZM42.764 12.1227V14.1359C42.1525 13.4765 41.4745 12.9515 40.7396 12.565C39.695 12.0173 38.5118 11.7403 37.2306 11.7403C35.0097 11.7403 33.0829 12.5477 31.5044 14.1414C29.9268 15.7291 29.1303 17.6693 29.1303 19.9051C29.1303 22.1858 29.9218 24.1541 31.4821 25.7464C33.0469 27.3455 34.9646 28.1525 37.1759 28.1525C38.4188 28.1525 39.5833 27.8914 40.6338 27.3741C41.3998 26.9999 42.1065 26.488 42.764 25.8441V27.771H45.4518V14.5592C45.4518 12.2521 42.764 12.1227 42.764 12.1227ZM42.8857 20.0227C42.8857 21.075 42.6532 22.0323 42.1804 22.8702C41.7094 23.7013 41.035 24.3708 40.1637 24.8585C39.2846 25.3499 38.35 25.6002 37.3724 25.6002C36.4076 25.6002 35.4957 25.3486 34.6545 24.8544C33.811 24.3603 33.1294 23.6609 32.6292 22.774C32.1281 21.8838 31.8719 20.9392 31.8719 19.9673C31.8719 18.9872 32.1263 18.0439 32.6224 17.1633C33.1157 16.2845 33.7946 15.5938 34.6358 15.1065C35.467 14.6232 36.3994 14.3775 37.3866 14.3775C38.9491 14.3775 40.2321 14.9062 41.2972 15.9911C42.3687 17.0793 42.8857 18.3964 42.8857 20.0227ZM25.6273 22.1359L25.3824 22.4174C23.5691 24.5188 21.2894 25.5843 18.5984 25.5843C16.1518 25.5843 14.0992 24.795 12.4979 23.2395C10.9003 21.6872 10.0891 19.7202 10.0891 17.3949C10.0891 15.8549 10.4553 14.447 11.1697 13.2172C11.8815 11.9891 12.9023 10.9968 14.2036 10.2674C15.508 9.53487 16.947 9.16519 18.4781 9.16519C19.8796 9.16519 21.1882 9.44949 22.3572 10.0036C23.5194 10.5617 24.5344 11.3942 25.3674 12.4755L25.6068 12.7907L27.8272 11.0994L27.5997 10.787C26.5984 9.4009 25.289 8.31002 23.7223 7.54431C22.1548 6.7786 20.3825 6.3903 18.4475 6.3903C15.2413 6.3903 12.5312 7.44167 10.3928 9.51217C8.25123 11.589 7.17064 14.1804 7.17064 17.2151C7.17064 20.0972 8.06338 22.59 9.8288 24.6305C11.9366 27.0507 14.8437 28.2756 18.4781 28.2756C20.3798 28.2756 22.132 27.9109 23.6799 27.1938C25.2352 26.4744 26.5451 25.4417 27.5883 24.1242L27.8359 23.8085L25.6273 22.1359ZM70.4152 6.58922C70.0285 6.20637 69.5576 6.00836 69.0141 6.00836C68.4788 6.00836 68.0114 6.20637 67.6253 6.59058C67.2432 6.97525 67.0499 7.44667 67.0499 7.9862C67.0499 8.52256 67.2432 8.98807 67.6253 9.37546C68.0078 9.75923 68.4788 9.95542 69.0141 9.95542C69.5576 9.95542 70.0285 9.75923 70.4152 9.37546C70.7986 8.98807 70.992 8.52256 70.992 7.9862C70.992 7.44667 70.7986 6.97525 70.4152 6.58922ZM146.113 32.9961C146.113 33.4621 145.974 33.8118 145.698 34.0443C145.421 34.2777 145.062 34.394 144.621 34.394H142.822V31.6082H144.621C145.062 31.6082 145.421 31.7231 145.698 31.9529C145.974 32.1827 146.113 32.5301 146.113 32.9961ZM146.864 32.9961C146.864 32.6809 146.811 32.3971 146.706 32.1445C146.6 31.892 146.452 31.675 146.261 31.4947C146.07 31.3144 145.841 31.1767 145.574 31.0814C145.307 30.9865 145.013 30.9388 144.69 30.9388H142.071V37.9473H142.822V35.063H144.69C145.013 35.063 145.307 35.0139 145.574 34.9154C145.841 34.8168 146.07 34.6792 146.261 34.5021C146.452 34.325 146.6 34.1083 146.706 33.8522C146.811 33.5965 146.864 33.3108 146.864 32.9961ZM138.107 35.6338V30.9388H137.357V35.5748C137.357 35.8441 137.315 36.0871 137.233 36.3037C137.15 36.5199 137.036 36.7043 136.887 36.8546C136.739 37.0058 136.559 37.1244 136.348 37.2093C136.137 37.2947 135.903 37.3369 135.647 37.3369C135.39 37.3369 135.156 37.2947 134.945 37.2093C134.734 37.1244 134.555 37.0058 134.407 36.8546C134.258 36.7043 134.144 36.5199 134.066 36.3037C133.986 36.0871 133.947 35.8441 133.947 35.5748V30.9388H133.196V35.6338C133.196 35.9817 133.257 36.3019 133.378 36.5944C133.501 36.8859 133.67 37.1371 133.888 37.3474C134.105 37.5572 134.364 37.7193 134.664 37.8342C134.963 37.9491 135.291 38.0063 135.647 38.0063C136.002 38.0063 136.33 37.9491 136.63 37.8342C136.93 37.7193 137.19 37.5572 137.411 37.3474C137.631 37.1371 137.803 36.8859 137.925 36.5944C138.047 36.3019 138.107 35.9817 138.107 35.6338ZM128.748 34.443C128.748 34.8104 128.743 35.1202 128.733 35.3736C128.723 35.6261 128.702 35.8405 128.669 36.018C128.636 36.1956 128.587 36.3482 128.521 36.4758C128.455 36.6034 128.366 36.7238 128.254 36.8351C128.103 36.9922 127.92 37.1157 127.706 37.2043C127.491 37.2929 127.269 37.3369 127.039 37.3369C126.808 37.3369 126.586 37.2929 126.371 37.2043C126.157 37.1157 125.975 36.9922 125.823 36.8351C125.711 36.7238 125.622 36.6034 125.556 36.4758C125.491 36.3482 125.441 36.1956 125.408 36.018C125.375 35.8405 125.354 35.6261 125.344 35.3736C125.334 35.1202 125.329 34.8104 125.329 34.443C125.329 34.0756 125.334 33.7654 125.344 33.5129C125.354 33.2604 125.375 33.0451 125.408 32.868C125.441 32.6909 125.491 32.5383 125.556 32.4102C125.622 32.2822 125.711 32.1627 125.823 32.051C125.975 31.8934 126.157 31.7703 126.371 31.6818C126.586 31.5932 126.808 31.5487 127.039 31.5487C127.269 31.5487 127.491 31.5932 127.706 31.6818C127.92 31.7703 128.103 31.8934 128.254 32.051C128.366 32.1627 128.455 32.2822 128.521 32.4102C128.587 32.5383 128.636 32.6909 128.669 32.868C128.702 33.0451 128.723 33.2604 128.733 33.5129C128.743 33.7654 128.748 34.0756 128.748 34.443ZM129.5 34.443C129.5 34.0693 129.496 33.7423 129.489 33.4639C129.483 33.185 129.458 32.9352 129.415 32.7154C129.372 32.4956 129.307 32.2971 129.217 32.12C129.129 31.9429 129.002 31.7721 128.837 31.6082C128.349 31.1227 127.75 30.8797 127.039 30.8797C126.327 30.8797 125.727 31.1227 125.24 31.6082C125.075 31.7721 124.948 31.9429 124.86 32.12C124.771 32.2971 124.705 32.4956 124.662 32.7154C124.619 32.9352 124.595 33.185 124.588 33.4639C124.581 33.7423 124.578 34.0693 124.578 34.443C124.578 34.8168 124.581 35.1438 124.588 35.4222C124.595 35.7015 124.619 35.9508 124.662 36.1706C124.705 36.3905 124.771 36.5889 124.86 36.766C124.948 36.9436 125.075 37.1139 125.24 37.2779C125.727 37.7638 126.327 38.0063 127.039 38.0063C127.394 38.0063 127.724 37.9441 128.027 37.8197C128.33 37.6948 128.6 37.5145 128.837 37.2779C129.002 37.1139 129.129 36.9436 129.217 36.766C129.307 36.5889 129.372 36.3905 129.415 36.1706C129.458 35.9508 129.483 35.7015 129.489 35.4222C129.496 35.1438 129.5 34.8168 129.5 34.443ZM120.367 32.8975C120.367 33.3308 120.237 33.6523 119.977 33.8622C119.717 34.0724 119.379 34.1769 118.964 34.1769H117.086V31.6082H118.964C119.379 31.6082 119.717 31.7145 119.977 31.9279C120.237 32.1414 120.367 32.4647 120.367 32.8975ZM121.256 37.9473L119.587 34.7678C120.041 34.676 120.41 34.4676 120.694 34.1428C120.977 33.8181 121.119 33.3994 121.119 32.8875C121.119 32.586 121.067 32.3135 120.965 32.071C120.863 31.8275 120.72 31.6227 120.535 31.4556C120.351 31.288 120.13 31.1604 119.873 31.0714C119.617 30.9828 119.337 30.9388 119.033 30.9388H116.335V37.9473H117.086V34.8368H118.776L120.377 37.9473H121.256ZM112.56 35.3881V34.2759H110.079V34.9353H111.809V35.4667C111.809 35.7428 111.779 35.9803 111.719 36.1802C111.66 36.3809 111.558 36.5662 111.413 36.7365C111.248 36.9336 111.049 37.083 110.815 37.1843C110.581 37.286 110.336 37.3369 110.079 37.3369C109.848 37.3369 109.626 37.2947 109.412 37.2093C109.198 37.1244 109.015 37.0027 108.864 36.8451C108.751 36.7333 108.663 36.6134 108.597 36.4858C108.531 36.3578 108.482 36.2033 108.449 36.023C108.415 35.8423 108.394 35.6261 108.384 35.3736C108.374 35.1202 108.37 34.8104 108.37 34.443C108.37 34.0756 108.374 33.7654 108.384 33.5129C108.394 33.2604 108.415 33.0451 108.449 32.868C108.482 32.6909 108.531 32.5383 108.597 32.4102C108.663 32.2822 108.751 32.1627 108.864 32.051C109.015 31.8934 109.198 31.7703 109.412 31.6818C109.626 31.5932 109.848 31.5487 110.079 31.5487C110.521 31.5487 110.891 31.675 111.191 31.9279C111.491 32.1809 111.69 32.5301 111.789 32.9766H112.54C112.487 32.6682 112.393 32.3857 112.258 32.1296C112.123 31.8739 111.95 31.6527 111.739 31.4656C111.529 31.278 111.283 31.1341 111.003 31.0323C110.723 30.9306 110.415 30.8797 110.079 30.8797C109.367 30.8797 108.768 31.1227 108.28 31.6082C108.116 31.7721 107.989 31.9429 107.9 32.12C107.811 32.2971 107.745 32.4956 107.702 32.7154C107.659 32.9352 107.635 33.185 107.628 33.4639C107.622 33.7423 107.618 34.0693 107.618 34.443C107.618 34.8168 107.622 35.1438 107.628 35.4222C107.635 35.7015 107.659 35.9508 107.702 36.1706C107.745 36.3905 107.811 36.5889 107.9 36.766C107.989 36.9436 108.116 37.1139 108.28 37.2779C108.518 37.5145 108.79 37.6948 109.096 37.8197C109.402 37.9441 109.73 38.0063 110.079 38.0063C110.442 38.0063 110.783 37.9391 111.102 37.8051C111.421 37.6703 111.706 37.4682 111.957 37.1993C112.174 36.97 112.329 36.712 112.421 36.4263C112.513 36.1411 112.56 35.7951 112.56 35.3881Z" fill="#002047"/>
    </g>
    <g opacity="0.949997">
        <g opacity="0.949997">
            <path opacity="0.949997" d="M44.4865 -0.000141144L41.91 2.56629H154.423V31.8325H149.281V34.3994H157V-0.000141144H44.4865Z" fill="#002047"/>
        </g>
    </g>
    <g opacity="0.949997">
        <g opacity="0.949997">
            <path opacity="0.949997" d="M10.6524 34.3993V31.9142H11.2274V33.9642H12.3276V34.3993H10.6524ZM15.6901 31.9142V33.5219C15.6901 33.7063 15.6455 33.8666 15.5561 34.0056C15.4663 34.1436 15.3363 34.2499 15.1672 34.323C14.998 34.3966 14.7979 34.4338 14.5658 34.4338C14.2174 34.4338 13.9466 34.3516 13.7537 34.1877C13.5609 34.0246 13.4642 33.8007 13.4642 33.516V31.9142H14.0378V33.4356C14.0378 33.6277 14.0797 33.7671 14.1636 33.858C14.2475 33.9474 14.3871 33.9915 14.5813 33.9915C14.7691 33.9915 14.905 33.9461 14.9898 33.8571C15.0746 33.7662 15.117 33.6245 15.117 33.4324V31.9142H15.6901ZM19.231 34.3993H18.5745L17.9434 33.4597L17.3129 34.3993H16.6973L17.5969 33.1181L16.7548 31.9142H17.389L17.9735 32.808L18.5462 31.9142H19.1663L18.315 33.1468L19.231 34.3993ZM22.4637 31.9142V33.5219C22.4637 33.7063 22.419 33.8666 22.3292 34.0056C22.2398 34.1436 22.1098 34.2499 21.9407 34.323C21.7715 34.3966 21.5709 34.4338 21.3393 34.4338C20.991 34.4338 20.7201 34.3516 20.5273 34.1877C20.3344 34.0246 20.2377 33.8007 20.2377 33.516V31.9142H20.8113V33.4356C20.8113 33.6277 20.8533 33.7671 20.9372 33.858C21.0211 33.9474 21.1601 33.9915 21.3548 33.9915C21.5422 33.9915 21.6785 33.9461 21.7633 33.8571C21.8481 33.7662 21.8905 33.6245 21.8905 33.4324V31.9142H22.4637ZM24.3868 33.4456V34.3993H23.8114V31.9142H24.602C24.9704 31.9142 25.2431 31.9759 25.4205 32.0986C25.5969 32.2212 25.6854 32.4079 25.6854 32.6585C25.6854 32.8052 25.6416 32.9347 25.5536 33.0482C25.4656 33.1631 25.3416 33.253 25.1811 33.3171C25.5887 33.8761 25.855 34.2367 25.9785 34.3993H25.3407L24.6928 33.4456H24.3868ZM24.3868 33.0173H24.5724C24.7543 33.0173 24.8884 32.9901 24.9746 32.9338C25.0616 32.8784 25.1049 32.7912 25.1049 32.6726C25.1049 32.5545 25.0607 32.4705 24.9723 32.4215C24.8838 32.3706 24.7466 32.3461 24.5615 32.3461H24.3868V33.0173ZM27.8475 32.9379L28.4133 31.9142H29.0329L28.1329 33.4324V34.3993H27.5616V33.4497L26.6625 31.9142H27.2853L27.8475 32.9379ZM33.2759 31.9142H33.8573L32.9349 34.3993H32.308L31.3879 31.9142H31.9687L32.4789 33.3934C32.5072 33.481 32.5364 33.5823 32.5665 33.6981C32.597 33.8148 32.6162 33.8952 32.6235 33.9402C32.6367 33.8366 32.6832 33.6536 32.7625 33.3934L33.2759 31.9142ZM34.8818 34.3993V31.9142H35.4572V34.3993H34.8818ZM36.8236 34.3993V31.9142H37.3986V33.9642H38.4992V34.3993H36.8236ZM39.6532 34.3993V31.9142H40.2286V33.9642H41.3288V34.3993H39.6532ZM44.1447 34.3993L43.9473 33.8085H42.9593L42.7623 34.3993H42.1427L43.0997 31.9037H43.8028L44.7639 34.3993H44.1447ZM43.8105 33.3661C43.6286 32.8302 43.5265 32.5268 43.5037 32.4564C43.4804 32.3861 43.464 32.3306 43.454 32.2893C43.4134 32.4356 43.2967 32.7943 43.1034 33.3661H43.8105ZM47.3902 33.7086C47.3902 33.9343 47.3017 34.1109 47.1257 34.2395C46.9497 34.3698 46.7044 34.4338 46.3907 34.4338C46.1012 34.4338 45.845 34.3834 45.6225 34.284V33.7944C45.8053 33.8689 45.9599 33.922 46.0866 33.9524C46.2138 33.9833 46.3296 33.9988 46.435 33.9988C46.5608 33.9988 46.6579 33.976 46.7249 33.932C46.7929 33.8879 46.8262 33.8225 46.8262 33.7349C46.8262 33.6858 46.8111 33.6427 46.7815 33.6046C46.7518 33.5673 46.7085 33.5301 46.6511 33.4946C46.5932 33.4597 46.4764 33.4043 46.2991 33.3271C46.1336 33.2553 46.0096 33.1872 45.9261 33.1209C45.8436 33.0555 45.7775 32.9792 45.7282 32.892C45.6785 32.8039 45.6539 32.7031 45.6539 32.5863C45.6539 32.3656 45.7351 32.193 45.8974 32.0672C46.0606 31.9419 46.285 31.8783 46.5722 31.8783C46.7126 31.8783 46.8476 31.8933 46.9757 31.9246C47.1034 31.9546 47.237 31.9977 47.3769 32.0532L47.1918 32.4633C47.0473 32.4092 46.9274 32.3706 46.8325 32.3497C46.7382 32.3275 46.6447 32.3166 46.5535 32.3166C46.4445 32.3166 46.3611 32.3406 46.3032 32.387C46.2448 32.4333 46.2161 32.4937 46.2161 32.5691C46.2161 32.6149 46.2275 32.6554 46.2512 32.6903C46.2745 32.7249 46.3123 32.7585 46.3634 32.7902C46.4149 32.8234 46.5366 32.8806 46.7281 32.9651C46.9816 33.0759 47.1549 33.1872 47.2493 33.2989C47.3432 33.4106 47.3902 33.5473 47.3902 33.7086ZM52.7448 34.3993H52.0449L51.832 34.2077C51.5953 34.3584 51.3282 34.4338 51.0304 34.4338C50.7286 34.4338 50.4897 34.3707 50.3123 34.2426C50.1359 34.1159 50.047 33.9443 50.047 33.7281C50.047 33.5737 50.0848 33.4411 50.1596 33.3307C50.2343 33.2217 50.362 33.12 50.5444 33.0246C50.4518 32.927 50.3839 32.8334 50.3419 32.7448C50.3005 32.6554 50.279 32.5591 50.279 32.4533C50.279 32.2807 50.3511 32.1417 50.4951 32.0364C50.6392 31.9314 50.8321 31.8783 51.0728 31.8783C51.3031 31.8783 51.4873 31.9278 51.625 32.025C51.7627 32.1235 51.832 32.2539 51.832 32.4197C51.832 32.5541 51.7887 32.6776 51.7034 32.7893C51.6186 32.9006 51.4804 33.0064 51.2903 33.1077L51.8169 33.5782C51.9049 33.4456 51.9806 33.2753 52.0449 33.0664H52.6349C52.5907 33.219 52.5291 33.3688 52.4512 33.5151C52.3732 33.6609 52.2847 33.7894 52.1862 33.9016L52.7448 34.3993ZM50.6429 33.6786C50.6429 33.7762 50.683 33.8539 50.7623 33.9125C50.8421 33.9697 50.9447 33.9988 51.0692 33.9988C51.2251 33.9988 51.3655 33.9642 51.4905 33.8952L50.8745 33.3339C50.8029 33.3834 50.7464 33.4356 50.7049 33.4896C50.6634 33.5441 50.6429 33.6073 50.6429 33.6786ZM51.3086 32.4732C51.3086 32.4133 51.2862 32.3656 51.242 32.3316C51.1973 32.2966 51.1399 32.2793 51.0692 32.2793C50.9862 32.2793 50.9215 32.2975 50.8736 32.3338C50.8262 32.3697 50.8025 32.4219 50.8025 32.4887C50.8025 32.5882 50.8608 32.699 50.9784 32.8184C51.0851 32.7639 51.1658 32.7108 51.2233 32.6572C51.2803 32.6054 51.3086 32.5441 51.3086 32.4732ZM57.1009 34.3993L56.9039 33.8085H55.9154L55.7189 34.3993H55.0988L56.0563 31.9037H56.7594L57.7205 34.3993H57.1009ZM56.7671 33.3661C56.5852 32.8302 56.4831 32.5268 56.4603 32.4564C56.437 32.3861 56.4206 32.3306 56.4106 32.2893C56.37 32.4356 56.2533 32.7943 56.06 33.3661H56.7671ZM60.6189 32.6894C60.6189 32.9569 60.5282 33.1608 60.3458 33.303C60.1635 33.4447 59.904 33.516 59.5675 33.516H59.3209V34.3993H58.7455V31.9142H59.6118C59.941 31.9142 60.1913 31.9787 60.3622 32.1086C60.5337 32.238 60.6189 32.4324 60.6189 32.6894ZM59.3209 33.0841H59.5101C59.687 33.0841 59.8192 33.0514 59.9072 32.9883C59.9952 32.9238 60.039 32.8302 60.039 32.7076C60.039 32.585 60.002 32.4937 59.9282 32.4342C59.8548 32.3761 59.7394 32.3461 59.5821 32.3461H59.3209V33.0841ZM63.4754 34.3993L63.2785 33.8085H62.2895L62.093 34.3993H61.4734L62.4309 31.9037H63.1335L64.0946 34.3993H63.4754ZM63.1412 33.3661C62.9598 32.8302 62.8572 32.5268 62.8344 32.4564C62.8111 32.3861 62.7947 32.3306 62.7847 32.2893C62.7441 32.4356 62.6274 32.7943 62.4341 33.3661H63.1412ZM65.695 33.4456V34.3993H65.1196V31.9142H65.9102C66.2786 31.9142 66.5512 31.9759 66.7286 32.0986C66.9051 32.2212 66.9931 32.4079 66.9931 32.6585C66.9931 32.8052 66.9497 32.9347 66.8617 33.0482C66.7737 33.1631 66.6497 33.253 66.4892 33.3171C66.8968 33.8761 67.1631 34.2367 67.2867 34.3993H66.6484L66.0014 33.4456H65.695ZM65.695 33.0173H65.8805C66.062 33.0173 66.1965 32.9901 66.2827 32.9338C66.3698 32.8784 66.4131 32.7912 66.4131 32.6726C66.4131 32.5545 66.3684 32.4705 66.2804 32.4215C66.1924 32.3706 66.0547 32.3461 65.8696 32.3461H65.695V33.0173ZM69.3585 34.3993H68.7836V32.3529H68.0467V31.9142H70.0948V32.3529H69.3585V34.3993ZM72.3445 34.3993L71.6916 32.4496H71.6747C71.6979 32.8461 71.7103 33.1109 71.7103 33.2435V34.3993H71.196V31.9142H71.9788L72.6208 33.8148H72.6322L73.3124 31.9142H74.0953V34.3993H73.5596V33.2235C73.5596 33.1681 73.5605 33.1036 73.5623 33.031C73.5637 32.9592 73.5723 32.7662 73.5874 32.4533H73.5705L72.8711 34.3993H72.3445ZM77.0238 34.3993H75.4618V31.9142H77.0238V32.3461H76.0372V32.892H76.9555V33.3243H76.0372V33.9642H77.0238V34.3993ZM80.6801 34.3993H79.9487L78.7687 32.5196H78.7523C78.7756 32.8516 78.7874 33.0886 78.7874 33.2308V34.3993H78.2736V31.9142H78.999L80.1767 33.7753H80.1904C80.1717 33.4529 80.1621 33.2244 80.1621 33.0904V31.9142H80.6801V34.3993ZM83.0925 34.3993H82.5171V32.3529H81.7812V31.9142H83.8288V32.3529H83.0925V34.3993ZM86.5307 33.7086C86.5307 33.9343 86.4432 34.1109 86.2668 34.2395C86.0903 34.3698 85.845 34.4338 85.5313 34.4338C85.2418 34.4338 84.986 34.3834 84.7635 34.284V33.7944C84.9459 33.8689 85.1009 33.922 85.2277 33.9524C85.3549 33.9833 85.4702 33.9988 85.5755 33.9988C85.7023 33.9988 85.7985 33.976 85.866 33.932C85.9335 33.8879 85.9667 33.8225 85.9667 33.7349C85.9667 33.6858 85.9521 33.6427 85.9225 33.6046C85.8929 33.5673 85.8496 33.5301 85.7917 33.4946C85.7342 33.4597 85.617 33.4043 85.4397 33.3271C85.2746 33.2553 85.1506 33.1872 85.0672 33.1209C84.9842 33.0555 84.9185 32.9792 84.8688 32.892C84.8191 32.8039 84.7945 32.7031 84.7945 32.5863C84.7945 32.3656 84.8757 32.193 85.0384 32.0672C85.2012 31.9419 85.426 31.8783 85.7128 31.8783C85.8541 31.8783 85.9882 31.8933 86.1163 31.9246C86.2444 31.9546 86.3785 31.9977 86.518 32.0532L86.3324 32.4633C86.1879 32.4092 86.0684 32.3706 85.9736 32.3497C85.8787 32.3275 85.7857 32.3166 85.6945 32.3166C85.5856 32.3166 85.5021 32.3406 85.4442 32.387C85.3859 32.4333 85.3571 32.4937 85.3571 32.5691C85.3571 32.6149 85.3685 32.6554 85.3923 32.6903C85.4155 32.7249 85.4533 32.7585 85.504 32.7902C85.5555 32.8234 85.6772 32.8806 85.8692 32.9651C86.1222 33.0759 86.2955 33.1872 86.3899 33.2989C86.4838 33.4106 86.5307 33.5473 86.5307 33.7086Z" fill="#002047"/>
        </g>
    </g>
    <path d="M0 6.86646e-05V34.3992H7.02884L9.60539 31.8327H2.57654V2.5665H38.9874L41.5639 6.86646e-05H0Z" fill="#7D6240"/>
    <path d="M42.7299 42.4078C42.7956 42.455 42.7906 42.5245 42.7158 42.6176C42.6319 42.7389 42.5266 42.8338 42.4003 42.9042C42.274 42.9737 42.1737 42.9996 42.0989 42.9809C42.0055 42.9528 41.9143 42.9251 41.8258 42.8969C41.7364 42.8692 41.6412 42.8411 41.5386 42.8133C41.3047 42.832 41.0799 42.9042 40.8651 43.0295C40.6499 43.1553 40.4443 43.342 40.2482 43.5881C40.0517 43.8352 39.8648 44.1467 39.6874 44.5237C39.5101 44.9006 39.3368 45.3548 39.1686 45.8853C38.6825 47.4589 38.0023 48.6397 37.1282 49.4259C36.2542 50.2129 35.2055 50.6062 33.9808 50.6062C33.3079 50.6062 32.784 50.4618 32.4106 50.1734C32.0367 49.8845 31.8493 49.5121 31.8493 49.0562C31.8493 48.7301 31.9551 48.4299 32.1653 48.1547C32.3754 47.8808 32.6303 47.6778 32.929 47.5475C32.9664 47.5475 32.9923 47.5661 33.0065 47.6029C33.0206 47.6406 33.0183 47.6733 32.9996 47.701C32.8405 47.8227 32.7279 47.9576 32.6631 48.1061C32.5975 48.255 32.5647 48.4276 32.5647 48.6229C32.5647 49.0975 32.7448 49.4658 33.1045 49.726C33.4642 49.9867 33.9717 50.1175 34.626 50.1175C35.0742 50.1175 35.469 50.0594 35.8105 49.9427C36.1516 49.8264 36.458 49.6239 36.7288 49.335C36.9996 49.0466 37.25 48.6579 37.4793 48.1692C37.7077 47.6796 37.9439 47.0633 38.1874 46.3185C38.5239 45.2667 38.9351 44.4356 39.4212 43.8257C39.9067 43.2157 40.4676 42.8411 41.1036 42.7016C40.4867 42.5431 39.8461 42.4173 39.1822 42.3242C38.5188 42.2311 37.8459 42.1843 37.1638 42.1843C36.6404 42.1843 36.1821 42.2661 35.7896 42.4291C35.397 42.5922 35.0742 42.8111 34.822 43.0854C34.5699 43.3606 34.3875 43.684 34.2754 44.0559C34.1632 44.4283 34.1349 44.8239 34.191 45.2435C34.1441 45.3362 34.093 45.3457 34.0369 45.2712C33.9808 44.8053 34.0182 44.3538 34.1491 43.9165C34.2799 43.4787 34.4997 43.0877 34.8079 42.743C35.1166 42.3987 35.516 42.1244 36.0066 41.9191C36.4976 41.7147 37.084 41.6121 37.7665 41.6121C38.7573 41.6121 39.6637 41.6939 40.4867 41.856C41.3088 42.0195 42.057 42.2034 42.7299 42.4078Z" fill="#7D6240"/>
    <path d="M39.7995 50.4806C40.2203 48.8793 40.7036 47.436 41.2508 46.1511C41.7975 44.8663 42.3742 43.7723 42.982 42.869C43.5898 41.9661 44.2044 41.2699 44.8258 40.7812C45.4478 40.2921 46.0391 40.0482 46.5995 40.0482C46.8329 40.0482 47.018 40.1013 47.1534 40.2085C47.2889 40.3152 47.3823 40.4456 47.4338 40.5991C47.4854 40.7535 47.4922 40.9184 47.4553 41.0955C47.4174 41.2722 47.3472 41.4302 47.2446 41.5705C47.2168 41.5982 47.189 41.6073 47.1607 41.5982C47.1325 41.5892 47.1188 41.5651 47.1188 41.5278C47.1648 41.3421 47.1138 41.165 46.9642 40.9974C46.8147 40.8303 46.5762 40.7458 46.2493 40.7458C45.7446 40.7458 45.2654 40.8811 44.8122 41.1509C44.3585 41.4216 43.9167 41.8703 43.4867 42.4988C43.0568 43.1274 42.6364 43.9612 42.2247 44.9985C41.8134 46.0372 41.393 47.3292 40.9635 48.8743C41.1035 48.6227 41.2645 48.3856 41.4468 48.1626C41.6292 47.9382 41.8276 47.743 42.0428 47.5758C42.258 47.4078 42.4868 47.2752 42.7299 47.1775C42.9729 47.0799 43.225 47.0308 43.4867 47.0308C43.5994 47.0308 43.681 47.059 43.732 47.1144C43.7836 47.1707 43.8095 47.2352 43.8095 47.3102C43.8095 47.4314 43.7676 47.5663 43.6832 47.7153C43.4867 48.0595 43.3276 48.4133 43.2063 48.7766C43.085 49.1395 43.0244 49.4701 43.0244 49.768C43.0244 49.8988 43.0385 50.0056 43.0664 50.0896C43.0946 50.1731 43.1457 50.2149 43.2205 50.2149C43.3139 50.2149 43.417 50.1663 43.5291 50.0682C43.6413 49.9706 43.7348 49.8616 43.8095 49.7403C43.8374 49.7217 43.8652 49.724 43.8934 49.7476C43.9217 49.7708 43.9308 49.7962 43.9217 49.8244C43.8 50.0292 43.6294 50.2104 43.4097 50.3689C43.1904 50.5274 42.9916 50.606 42.8142 50.606C42.6551 50.606 42.5238 50.5624 42.4212 50.4729C42.3181 50.3852 42.2675 50.234 42.2675 50.0192C42.2675 49.8521 42.2835 49.6727 42.3163 49.4819C42.3492 49.2912 42.3911 49.1027 42.4422 48.9165C42.4937 48.7303 42.5543 48.5459 42.6245 48.3647C42.6952 48.1826 42.7718 48.0177 42.8557 47.8688C42.9027 47.757 42.9259 47.678 42.9259 47.6317C42.9259 47.5477 42.879 47.5059 42.7859 47.5059C42.6086 47.5059 42.4166 47.5731 42.2115 47.7084C42.0054 47.8433 41.8043 48.0341 41.6082 48.2807C41.4122 48.5277 41.2225 48.8234 41.0406 49.1676C40.8582 49.5119 40.7014 49.8938 40.5705 50.313C40.5518 50.378 40.477 50.4434 40.3462 50.5088C40.2153 50.5737 40.0703 50.606 39.9117 50.606C39.8182 50.606 39.7804 50.5646 39.7995 50.4806Z" fill="#7D6240"/>
    <path d="M47.3284 47.7289C47.3284 48.2593 46.6226 48.6227 45.2114 48.8184C45.2019 48.9115 45.195 49.0051 45.1905 49.0977C45.1854 49.1908 45.1836 49.2885 45.1836 49.3906C45.1836 49.6332 45.2393 49.8194 45.3514 49.9497C45.4636 50.0805 45.6409 50.145 45.8844 50.145C46.0618 50.145 46.2442 50.0941 46.4311 49.991C46.618 49.8888 46.7676 49.759 46.8797 49.6005C46.9171 49.5823 46.9449 49.5891 46.9641 49.6213C46.9823 49.654 46.9873 49.689 46.9778 49.7258C46.7908 49.9688 46.5547 50.1754 46.2701 50.3475C45.9847 50.5201 45.6788 50.606 45.3514 50.606C45.024 50.606 44.7883 50.5247 44.6433 50.3616C44.4983 50.1986 44.4263 49.9688 44.4263 49.6699C44.4263 49.382 44.4869 49.0818 44.6082 48.7694C44.7295 48.4573 44.8863 48.1717 45.0778 47.9105C45.2693 47.6499 45.4891 47.4378 45.7371 47.2752C45.9847 47.1126 46.235 47.0308 46.4872 47.0308C46.7398 47.0308 46.9431 47.1031 47.0972 47.247C47.2513 47.3919 47.3284 47.5522 47.3284 47.7289ZM46.1087 47.3942C45.8935 47.3942 45.7089 47.4936 45.5548 47.6939C45.4007 47.8942 45.2953 48.2039 45.2393 48.6227C45.6879 48.5763 46.0194 48.49 46.235 48.3642C46.4498 48.2389 46.5574 48.0827 46.5574 47.8969C46.5574 47.757 46.5154 47.6385 46.4311 47.5404C46.3472 47.4428 46.2396 47.3942 46.1087 47.3942Z" fill="#7D6240"/>
    <path d="M58.9098 41.5982C59.1993 41.5982 59.4332 41.6982 59.611 41.898C59.7884 42.0987 59.8773 42.3431 59.8773 42.631C59.8773 42.8176 59.8353 43.0338 59.751 43.2809C59.6671 43.5275 59.5782 43.73 59.4847 43.8885C59.4473 43.9162 59.4077 43.9208 59.3653 43.9022C59.3233 43.8835 59.3069 43.8513 59.3165 43.8041C59.3726 43.6369 59.3954 43.4694 59.3867 43.3018C59.3771 43.1342 59.3306 42.9807 59.2463 42.8408C59.1619 42.7018 59.0333 42.5874 58.861 42.4984C58.6877 42.4107 58.4703 42.3658 58.2085 42.3658C57.8534 42.3658 57.5474 42.4289 57.2903 42.5542C57.0331 42.6805 56.7969 42.8989 56.5826 43.2109C56.367 43.5225 56.1659 43.9394 55.9794 44.4608C55.7925 44.9821 55.601 45.6343 55.4049 46.4159C55.0771 47.6639 54.6239 48.6277 54.0449 49.3075C54.4648 49.4656 54.907 49.6077 55.3694 49.7331C55.8322 49.8589 56.3442 49.9215 56.905 49.9215C57.3719 49.9215 57.7271 49.838 57.9701 49.6699C58.2136 49.5024 58.4142 49.2603 58.5733 48.9442C58.6107 48.916 58.6453 48.9138 58.6786 48.9369C58.711 48.9601 58.7228 48.9996 58.7137 49.0559C58.4894 49.5587 58.1898 49.9424 57.8164 50.2077C57.4421 50.4729 56.9424 50.606 56.3159 50.606C55.7642 50.606 55.2622 50.5247 54.8086 50.3616C54.3554 50.1986 53.9135 50.0242 53.4836 49.838C52.8015 50.3503 51.9648 50.606 50.9741 50.606C50.5997 50.606 50.3193 50.5406 50.1329 50.4102C49.9455 50.2799 49.8524 50.1173 49.8524 49.9215C49.8524 49.8007 49.8967 49.6699 49.9851 49.531C50.074 49.3906 50.1981 49.2603 50.3572 49.139C50.5154 49.0187 50.7051 48.916 50.9248 48.8325C51.1446 48.7485 51.3899 48.7062 51.6612 48.7062C52.0063 48.7062 52.3455 48.7507 52.6775 48.8393C53.0094 48.9279 53.3482 49.0373 53.6942 49.1676C53.8529 48.907 54.007 48.5809 54.1566 48.1903C54.3061 47.7988 54.4557 47.3197 54.6052 46.7515C54.8204 45.9509 55.0771 45.2315 55.3767 44.5938C55.6758 43.9562 56.0095 43.4162 56.3788 42.9734C56.7481 42.5315 57.1453 42.1914 57.5707 41.9538C57.9961 41.7163 58.4424 41.5982 58.9098 41.5982ZM51.6051 50.2426C51.9416 50.2426 52.243 50.2077 52.5092 50.1382C52.7755 50.0678 53.0162 49.9311 53.231 49.7258C52.8854 49.5773 52.5352 49.447 52.1796 49.3348C51.8244 49.2231 51.4455 49.1676 51.0443 49.1676C50.6139 49.1676 50.3991 49.3116 50.3991 49.6005C50.3991 49.7867 50.504 49.9406 50.7142 50.0614C50.9248 50.1827 51.2216 50.2426 51.6051 50.2426Z" fill="#7D6240"/>
    <path d="M59.9332 50.6062C59.5406 50.6062 59.3441 50.3918 59.3441 49.9636C59.3441 49.8151 59.3605 49.6425 59.3934 49.4472C59.4262 49.2519 59.4773 49.0489 59.5475 48.8395C59.6177 48.6297 59.6993 48.4185 59.7928 48.2042C59.8862 47.9898 59.9989 47.785 60.1293 47.5892C60.0267 47.6551 59.9286 47.7219 59.8352 47.7922C59.7417 47.8617 59.6573 47.9339 59.5826 48.0084C59.5543 48.027 59.5288 48.0207 59.5055 47.9875C59.4818 47.9548 59.4795 47.9249 59.4982 47.8972C59.6573 47.7291 59.8844 47.557 60.1785 47.3799C60.473 47.2032 60.7557 47.0633 61.027 46.9611C61.0735 46.9611 61.1086 46.9729 61.1319 46.9961C61.1551 47.0197 61.1579 47.0497 61.1392 47.0869C60.8396 47.4775 60.5989 47.9017 60.417 48.3577C60.2346 48.8141 60.1434 49.256 60.1434 49.6847C60.1434 49.9545 60.2277 50.0894 60.396 50.0894C60.5173 50.0894 60.6668 50.0081 60.8446 49.8446C61.022 49.6824 61.2089 49.4681 61.4054 49.2024C61.602 48.9372 61.8003 48.637 62.0014 48.3018C62.2024 47.9666 62.3871 47.6265 62.5549 47.2827C62.5831 47.2268 62.6648 47.171 62.8006 47.1146C62.9356 47.0588 63.0737 47.0311 63.2142 47.0311C63.3541 47.0311 63.3966 47.0683 63.3405 47.1428C63.2092 47.3844 63.0952 47.6106 62.9967 47.8195C62.8982 48.0293 62.8166 48.2369 62.7514 48.4412C62.6862 48.6465 62.6365 48.8536 62.6041 49.063C62.5713 49.2723 62.5549 49.5026 62.5549 49.7542C62.5549 50.0521 62.6342 50.2011 62.7933 50.2011C62.9525 50.2011 63.1298 50.0617 63.3259 49.7824C63.3541 49.7637 63.382 49.7637 63.4102 49.7824C63.4385 49.801 63.4476 49.8291 63.4385 49.8659C63.2789 50.1084 63.1043 50.2924 62.9123 50.4177C62.7208 50.5431 62.5458 50.6062 62.3871 50.6062C61.9941 50.6062 61.798 50.3782 61.798 49.9218C61.798 49.4472 61.8819 48.9771 62.0506 48.5112C61.695 49.1543 61.3211 49.6638 60.9285 50.0408C60.536 50.4177 60.2045 50.6062 59.9332 50.6062Z" fill="#7D6240"/>
    <path d="M67.294 49.6981C67.3218 49.6799 67.3501 49.6799 67.3779 49.6981C67.4061 49.7167 67.4153 49.7449 67.4061 49.7821C67.2748 49.9869 67.102 50.1754 66.8873 50.3475C66.6721 50.5206 66.4482 50.606 66.2143 50.606C65.9804 50.606 65.7798 50.5015 65.6115 50.2921C65.4433 50.0823 65.2887 49.7494 65.1488 49.293C64.9057 49.7217 64.6604 50.0478 64.4129 50.2708C64.1648 50.4942 63.9195 50.606 63.6765 50.606C63.527 50.606 63.4522 50.5083 63.4522 50.313C63.4522 50.0519 63.5315 49.7776 63.6906 49.4883C63.7093 49.4701 63.7326 49.4701 63.7604 49.4883C63.7887 49.5074 63.7978 49.531 63.7887 49.5587C63.7326 49.6981 63.7258 49.8148 63.7677 49.9079C63.8096 50.001 63.8867 50.0478 63.9989 50.0478C64.3354 50.0478 64.6951 49.7217 65.0785 49.0695C65.0133 48.837 64.9709 48.6208 64.9527 48.4206C64.9336 48.2203 64.9194 48.0454 64.9103 47.8969C64.9007 47.7475 64.8898 47.6335 64.8752 47.554C64.8615 47.475 64.831 47.436 64.784 47.436C64.7092 47.436 64.6345 47.4895 64.5597 47.5963C64.4849 47.703 64.4243 47.8129 64.3778 47.9246C64.3586 47.9523 64.3331 47.9619 64.3007 47.9523C64.2679 47.9437 64.256 47.9246 64.2651 47.8969C64.2838 47.8129 64.3217 47.7216 64.3778 47.6244C64.4338 47.5263 64.5013 47.4337 64.5807 47.3447C64.6604 47.2566 64.7489 47.1821 64.8469 47.1212C64.9454 47.0608 65.0507 47.0308 65.1629 47.0308C65.2655 47.0308 65.3425 47.0726 65.3941 47.1562C65.4456 47.2402 65.4852 47.3474 65.5135 47.4773C65.5413 47.6076 65.5623 47.7616 65.5764 47.9382C65.5906 48.1154 65.6115 48.292 65.6398 48.4692C65.8637 48.0595 66.1181 47.7175 66.4035 47.4428C66.6885 47.1685 66.9621 47.0308 67.2238 47.0308C67.3546 47.0308 67.4622 47.0704 67.5466 47.1494C67.6305 47.2289 67.6724 47.3333 67.6724 47.4637C67.6724 47.5477 67.6419 47.6594 67.5812 47.7988C67.5206 47.9382 67.4572 48.0595 67.392 48.1621C67.3642 48.1808 67.3382 48.1808 67.315 48.1621C67.2917 48.1431 67.2798 48.1199 67.2798 48.0922C67.3733 47.9437 67.3993 47.8129 67.3569 47.7012C67.315 47.589 67.2238 47.5331 67.0838 47.5331C66.8403 47.5331 66.6092 47.6222 66.3898 47.7988C66.1701 47.9759 65.9385 48.2879 65.6954 48.7344C65.8076 49.1813 65.9503 49.5396 66.1236 49.8098C66.2964 50.0805 66.471 50.2149 66.6488 50.2149C66.7706 50.2149 66.885 50.1636 66.9926 50.0614C67.1002 49.9588 67.2005 49.838 67.294 49.6981Z" fill="#7D6240"/>
    <path d="M68.5558 50.6062C68.1633 50.6062 67.9668 50.3918 67.9668 49.9636C67.9668 49.8151 67.9832 49.6425 68.016 49.4472C68.0488 49.2519 68.0999 49.0489 68.1701 48.8395C68.2403 48.6297 68.3219 48.4185 68.4154 48.2042C68.5089 47.9898 68.621 47.785 68.7519 47.5892C68.6493 47.6551 68.5513 47.7219 68.4578 47.7922C68.3643 47.8617 68.28 47.9339 68.2052 48.0084C68.1769 48.027 68.1514 48.0207 68.1286 47.9875C68.1045 47.9548 68.1022 47.9249 68.1209 47.8972C68.28 47.7291 68.5071 47.557 68.8011 47.3799C69.0957 47.2032 69.3784 47.0633 69.6497 46.9611C69.6962 46.9611 69.7313 46.9729 69.7545 46.9961C69.7778 47.0197 69.7805 47.0497 69.7618 47.0869C69.4623 47.4775 69.2215 47.9017 69.0396 48.3577C68.8572 48.8141 68.766 49.256 68.766 49.6847C68.766 49.9545 68.8504 50.0894 69.0186 50.0894C69.1399 50.0894 69.2895 50.0081 69.4673 49.8446C69.6446 49.6824 69.8316 49.4681 70.0281 49.2024C70.2246 48.9372 70.4225 48.637 70.624 48.3018C70.8251 47.9666 71.0097 47.6265 71.1775 47.2827C71.2058 47.2268 71.2874 47.171 71.4233 47.1146C71.5582 47.0588 71.6964 47.0311 71.8368 47.0311C71.9768 47.0311 72.0192 47.0683 71.9631 47.1428C71.8318 47.3844 71.7178 47.6106 71.6193 47.8195C71.5213 48.0293 71.4392 48.2369 71.374 48.4412C71.3088 48.6465 71.2591 48.8536 71.2268 49.063C71.1939 49.2723 71.1775 49.5026 71.1775 49.7542C71.1775 50.0521 71.2569 50.2011 71.416 50.2011C71.5751 50.2011 71.7525 50.0617 71.9485 49.7824C71.9768 49.7637 72.0046 49.7637 72.0329 49.7824C72.0611 49.801 72.0703 49.8291 72.0611 49.8659C71.9016 50.1084 71.7269 50.2924 71.535 50.4177C71.3435 50.5431 71.1679 50.6062 71.0097 50.6062C70.6172 50.6062 70.4207 50.3782 70.4207 49.9218C70.4207 49.4472 70.5045 48.9771 70.6728 48.5112C70.3176 49.1543 69.9437 49.6638 69.5512 50.0408C69.1586 50.4177 68.8271 50.6062 68.5558 50.6062Z" fill="#7D6240"/>
    <path d="M74.0799 47.436C74.0799 47.5758 74.0658 47.7339 74.0375 47.911C74.0097 48.0877 73.9723 48.2693 73.9258 48.4555C74.1123 48.0086 74.3179 47.6594 74.5427 47.4078C74.767 47.1566 75.0101 47.0308 75.2713 47.0308C75.4117 47.0308 75.5189 47.0635 75.5941 47.1289C75.6684 47.1939 75.7063 47.2775 75.7063 47.3801C75.7063 47.4732 75.6712 47.5945 75.601 47.743C75.5312 47.8919 75.4724 47.9941 75.4259 48.0509C75.4072 48.0595 75.3885 48.0572 75.3698 48.0436C75.3511 48.0295 75.342 48.0132 75.342 47.9941C75.342 47.9296 75.316 47.8738 75.2649 47.827C75.2134 47.7807 75.1359 47.757 75.0333 47.757C74.7059 47.757 74.4096 47.9782 74.1429 48.4206C73.8766 48.8634 73.6313 49.4983 73.4065 50.3267C73.3974 50.3734 73.365 50.4134 73.3085 50.4456C73.2524 50.4779 73.1895 50.506 73.1193 50.5297C73.0495 50.5524 72.9765 50.571 72.9018 50.5855C72.827 50.5991 72.7618 50.606 72.7057 50.606C72.6027 50.606 72.5749 50.5506 72.6218 50.4384C72.7057 50.2431 72.7873 50.0315 72.8671 49.803C72.9464 49.575 73.0189 49.3448 73.0841 49.1118C73.1498 48.8793 73.2059 48.6535 73.2524 48.4342C73.2994 48.2157 73.3367 48.0132 73.365 47.827C73.3832 47.6876 73.3905 47.5804 73.386 47.5059C73.381 47.4314 73.3413 47.3942 73.2665 47.3942C73.1731 47.3942 73.0773 47.4337 72.9793 47.5127C72.8812 47.5922 72.7901 47.6916 72.7057 47.8129C72.6683 47.8411 72.6332 47.8433 72.6004 47.8197C72.568 47.7966 72.5607 47.7666 72.5794 47.7293C72.6355 47.6549 72.7034 47.5776 72.7832 47.4991C72.8621 47.4196 72.951 47.3451 73.0495 47.2752C73.1475 47.2057 73.2501 47.1471 73.3582 47.1008C73.4649 47.0545 73.5752 47.0308 73.6874 47.0308C73.8365 47.0308 73.9395 47.0663 73.9956 47.1358C74.0521 47.2057 74.0799 47.3056 74.0799 47.436Z" fill="#7D6240"/>
    <path d="M75.8741 48.0084C75.8463 48.027 75.8231 48.0202 75.8044 47.9875C75.7857 47.9548 75.7806 47.9244 75.7902 47.8972C76.1363 47.6174 76.6178 47.329 77.2347 47.0311C77.309 47.0311 77.3464 47.0724 77.3464 47.1564C77.2251 47.3708 77.1061 47.6029 76.9889 47.8549C76.8722 48.1061 76.7696 48.3554 76.6807 48.6025C76.5918 48.8491 76.5197 49.0861 76.4632 49.3141C76.4071 49.5426 76.3789 49.731 76.3789 49.88C76.3789 50.0662 76.4441 50.1589 76.5754 50.1589C76.678 50.1589 76.7787 50.1153 76.8767 50.0262C76.9752 49.9381 77.0897 49.8241 77.2205 49.6843C77.2392 49.6656 77.2625 49.6679 77.2907 49.6915C77.3186 49.7147 77.3231 49.7497 77.3044 49.7964C77.0988 50.0381 76.8959 50.2338 76.6948 50.3828C76.4937 50.5317 76.3 50.6062 76.1126 50.6062C75.7857 50.6062 75.6224 50.4527 75.6224 50.1452C75.6224 49.9776 75.6475 49.7801 75.6995 49.5512C75.7506 49.3237 75.8203 49.0911 75.9097 48.8532C75.9981 48.6161 76.0962 48.3831 76.2038 48.1547C76.3109 47.9267 76.4213 47.7291 76.5334 47.5615C76.4308 47.6174 76.3159 47.6873 76.1896 47.7714C76.0638 47.8549 75.9585 47.9339 75.8741 48.0084ZM77.3746 46.4302C77.3464 46.4584 77.3163 46.4584 77.2834 46.4302C77.2511 46.4025 77.2251 46.363 77.2059 46.3117C77.1877 46.2604 77.1786 46.2045 77.1786 46.1441C77.1786 46.0837 77.1927 46.0301 77.2205 45.9833C77.3231 45.853 77.4749 45.6877 77.6765 45.4874C77.8771 45.2876 78.085 45.1177 78.3002 44.9778C78.3189 44.9688 78.3422 44.9756 78.3704 44.9983C78.3982 45.0219 78.4074 45.0432 78.3982 45.0619C78.2017 45.2381 78.0148 45.4506 77.8374 45.6968C77.6601 45.9438 77.5055 46.1882 77.3746 46.4302Z" fill="#7D6240"/>
    <path d="M79.9823 47.0308C80.3097 47.0308 80.5527 47.1289 80.7118 47.3242C80.87 47.5195 80.9498 47.7475 80.9498 48.0082C80.9498 48.3711 80.8773 48.7085 80.7328 49.021C80.5874 49.3325 80.4095 49.6077 80.1998 49.8443C79.9896 50.0823 79.7626 50.2685 79.5195 50.4034C79.2765 50.5387 79.0572 50.606 78.8607 50.606C78.5429 50.606 78.3017 50.5106 78.1385 50.3198C77.9748 50.1291 77.8932 49.8843 77.8932 49.5864C77.8932 49.3166 77.9515 49.0328 78.0683 48.7344C78.1854 48.4369 78.3396 48.1621 78.531 47.9105C78.7225 47.6594 78.945 47.4496 79.1972 47.2824C79.4493 47.1144 79.711 47.0308 79.9823 47.0308ZM79.2113 50.1731C79.5008 50.1731 79.7461 50.0219 79.9477 49.719C80.1478 49.417 80.249 48.9996 80.249 48.4692C80.249 48.1903 80.1925 47.9573 80.0808 47.7711C79.9686 47.5849 79.8045 47.4918 79.5898 47.4918C79.2902 47.4918 79.0476 47.6358 78.8607 47.9246C78.6733 48.2135 78.5803 48.6367 78.5803 49.1954C78.5803 49.5214 78.6387 49.7658 78.7558 49.9288C78.8721 50.0914 79.0239 50.1731 79.2113 50.1731Z" fill="#7D6240"/>
    <path d="M82.1271 50.6062C81.735 50.6062 81.5385 50.3918 81.5385 49.9636C81.5385 49.8151 81.5549 49.6425 81.5873 49.4472C81.6201 49.2519 81.6716 49.0489 81.7418 48.8395C81.8121 48.6297 81.8937 48.4185 81.9871 48.2042C82.0802 47.9898 82.1932 47.785 82.3236 47.5892C82.2206 47.6551 82.1226 47.7219 82.0291 47.7922C81.9356 47.8617 81.8517 47.9339 81.7765 48.0084C81.7487 48.027 81.7227 48.0207 81.6999 47.9875C81.6762 47.9548 81.6739 47.9249 81.6931 47.8972C81.8517 47.7291 82.0788 47.557 82.3729 47.3799C82.6674 47.2032 82.9501 47.0633 83.2209 46.9611C83.2679 46.9611 83.3026 46.9729 83.3263 46.9961C83.3495 47.0197 83.3522 47.0497 83.3331 47.0869C83.034 47.4775 82.7937 47.9017 82.6113 48.3577C82.429 48.8141 82.3378 49.256 82.3378 49.6847C82.3378 49.9545 82.4217 50.0894 82.5904 50.0894C82.7112 50.0894 82.8607 50.0081 83.0386 49.8446C83.2164 49.6824 83.4033 49.4681 83.5994 49.2024C83.7959 48.9372 83.9947 48.637 84.1953 48.3018C84.3964 47.9666 84.581 47.6265 84.7493 47.2827C84.7771 47.2268 84.8592 47.171 84.9946 47.1146C85.13 47.0588 85.2686 47.0311 85.4081 47.0311C85.5485 47.0311 85.5905 47.0683 85.5349 47.1428C85.4036 47.3844 85.2891 47.6106 85.1915 47.8195C85.0931 48.0293 85.011 48.2369 84.9458 48.4412C84.8801 48.6465 84.8313 48.8536 84.7981 49.063C84.7652 49.2723 84.7493 49.5026 84.7493 49.7542C84.7493 50.0521 84.8286 50.2011 84.9873 50.2011C85.1464 50.2011 85.3247 50.0617 85.5203 49.7824C85.5485 49.7637 85.5764 49.7637 85.6046 49.7824C85.6324 49.801 85.642 49.8291 85.6324 49.8659C85.4738 50.1084 85.2982 50.2924 85.1067 50.4177C84.9152 50.5431 84.7397 50.6062 84.581 50.6062C84.1885 50.6062 83.9924 50.3782 83.9924 49.9218C83.9924 49.4472 84.0763 48.9771 84.245 48.5112C83.8889 49.1543 83.5155 49.6638 83.1229 50.0408C82.7303 50.4177 82.3984 50.6062 82.1271 50.6062Z" fill="#7D6240"/>
    <path d="M87.9177 47.0308C88.1233 47.0308 88.2893 47.059 88.4156 47.1144C88.5419 47.1707 88.6048 47.2402 88.6048 47.3242C88.6048 47.4269 88.5788 47.5431 88.5277 47.673C88.4767 47.8038 88.427 47.9105 88.3805 47.9941C88.3618 48.0127 88.3385 48.0155 88.3102 48.0014C88.2824 47.9873 88.2688 47.9619 88.2688 47.9246C88.2961 47.8592 88.3102 47.7661 88.3102 47.6453C88.3102 47.5145 88.2751 47.4078 88.2054 47.3242C88.1356 47.2402 88.0394 47.1984 87.9177 47.1984C87.7586 47.1984 87.6304 47.2475 87.5319 47.3447C87.4339 47.4428 87.3851 47.5804 87.3851 47.757C87.3851 47.906 87.4248 48.0477 87.5041 48.1826C87.5839 48.3179 87.6724 48.4533 87.7704 48.5881C87.8689 48.7235 87.9601 48.8675 88.044 49.021C88.1283 49.1745 88.1703 49.3489 88.1703 49.5446C88.1703 49.8798 88.0344 50.1404 87.7636 50.3267C87.4923 50.5129 87.1371 50.606 86.698 50.606C86.3802 50.606 86.1299 50.5551 85.948 50.4525C85.7652 50.3503 85.6744 50.2381 85.6744 50.1173C85.6744 50.0805 85.6886 50.0292 85.7168 49.9633C85.7442 49.8984 85.7816 49.8289 85.8285 49.754C85.8755 49.6799 85.927 49.6055 85.9831 49.531C86.0392 49.4565 86.0998 49.3956 86.165 49.3489C86.1933 49.3302 86.2188 49.3348 86.2421 49.3629C86.2658 49.3906 86.2681 49.4192 86.2494 49.447C86.1933 49.5024 86.1514 49.5609 86.1231 49.6213C86.0953 49.6822 86.0811 49.7635 86.0811 49.8657C86.0811 50.0333 86.1372 50.1709 86.2494 50.2776C86.3615 50.3852 86.5061 50.4384 86.6839 50.4384C86.9269 50.4384 87.1161 50.3712 87.252 50.2363C87.3874 50.1009 87.4549 49.9356 87.4549 49.7403C87.4549 49.5637 87.4152 49.3979 87.3363 49.2444C87.2566 49.0909 87.1699 48.9419 87.0765 48.7975C86.983 48.6531 86.8968 48.5064 86.817 48.3574C86.7377 48.2089 86.698 48.0504 86.698 47.8824C86.698 47.6408 86.8006 47.4378 87.0062 47.2752C87.2123 47.1126 87.5155 47.0308 87.9177 47.0308Z" fill="#7D6240"/>
    <path d="M100.214 41.5982C100.504 41.5982 100.737 41.6982 100.915 41.898C101.093 42.0987 101.181 42.3431 101.181 42.631C101.181 42.8176 101.14 43.0338 101.056 43.2809C100.971 43.5275 100.882 43.73 100.789 43.8885C100.752 43.9162 100.712 43.9208 100.67 43.9022C100.628 43.8835 100.612 43.8513 100.621 43.8041C100.677 43.6369 100.7 43.4694 100.691 43.3018C100.681 43.1342 100.635 42.9807 100.55 42.8408C100.467 42.7018 100.338 42.5874 100.165 42.4984C99.9919 42.4107 99.7744 42.3658 99.5132 42.3658C99.158 42.3658 98.8516 42.4289 98.5949 42.5542C98.3377 42.6805 98.1016 42.8989 97.8868 43.2109C97.6716 43.5225 97.4705 43.9394 97.2836 44.4608C97.0967 44.9821 96.9052 45.6343 96.7091 46.4159C96.3817 47.6639 95.9285 48.6277 95.349 49.3075C95.7694 49.4656 96.2112 49.6077 96.6735 49.7331C97.1363 49.8589 97.6483 49.9215 98.2092 49.9215C98.6765 49.9215 99.0312 49.838 99.2742 49.6699C99.5177 49.5024 99.7188 49.2603 99.8779 48.9442C99.9148 48.916 99.95 48.9138 99.9828 48.9369C100.015 48.9601 100.027 48.9996 100.018 49.0559C99.7936 49.5587 99.494 49.9424 99.1206 50.2077C98.7463 50.4729 98.2465 50.606 97.6205 50.606C97.0688 50.606 96.5664 50.5247 96.1132 50.3616C95.6595 50.1986 95.2177 50.0242 94.7882 49.838C94.1057 50.3503 93.269 50.606 92.2782 50.606C91.9044 50.606 91.6235 50.5406 91.437 50.4102C91.2501 50.2799 91.1566 50.1173 91.1566 49.9215C91.1566 49.8007 91.2008 49.6699 91.2902 49.531C91.3787 49.3906 91.5027 49.2603 91.6613 49.139C91.82 49.0187 92.0097 48.916 92.229 48.8325C92.4488 48.7485 92.6941 48.7062 92.9653 48.7062C93.3109 48.7062 93.6502 48.7507 93.9816 48.8393C94.314 48.9279 94.6528 49.0373 94.9984 49.1676C95.1571 48.907 95.3116 48.5809 95.4612 48.1903C95.6103 47.7988 95.7598 47.3197 95.9098 46.7515C96.1246 45.9509 96.3817 45.2315 96.6808 44.5938C96.9799 43.9562 97.3141 43.4162 97.6835 42.9734C98.0528 42.5315 98.4499 42.1914 98.8748 41.9538C99.3002 41.7163 99.7471 41.5982 100.214 41.5982ZM92.9093 50.2426C93.2462 50.2426 93.5471 50.2077 93.8134 50.1382C94.0801 50.0678 94.3204 49.9311 94.5356 49.7258C94.1896 49.5773 93.8394 49.447 93.4842 49.3348C93.1286 49.2231 92.7501 49.1676 92.3485 49.1676C91.9185 49.1676 91.7033 49.3116 91.7033 49.6005C91.7033 49.7867 91.8082 49.9406 92.0188 50.0614C92.229 50.1827 92.5258 50.2426 92.9093 50.2426Z" fill="#7D6240"/>
    <path d="M100.929 48.0084C100.901 48.027 100.878 48.0202 100.859 47.9875C100.84 47.9548 100.836 47.9244 100.845 47.8972C101.191 47.6174 101.672 47.329 102.289 47.0311C102.363 47.0311 102.401 47.0724 102.401 47.1564C102.28 47.3708 102.161 47.6029 102.043 47.8549C101.927 48.1061 101.824 48.3554 101.736 48.6025C101.646 48.8491 101.574 49.0861 101.518 49.3141C101.462 49.5426 101.434 49.731 101.434 49.88C101.434 50.0662 101.499 50.1589 101.63 50.1589C101.733 50.1589 101.833 50.1153 101.932 50.0262C102.03 49.9381 102.144 49.8241 102.275 49.6843C102.294 49.6656 102.317 49.6679 102.345 49.6915C102.373 49.7147 102.378 49.7497 102.359 49.7964C102.154 50.0381 101.95 50.2338 101.749 50.3828C101.548 50.5317 101.354 50.6062 101.167 50.6062C100.84 50.6062 100.676 50.4527 100.676 50.1452C100.676 49.9776 100.702 49.7801 100.754 49.5512C100.805 49.3237 100.875 49.0911 100.964 48.8532C101.053 48.6161 101.151 48.3831 101.259 48.1547C101.366 47.9267 101.476 47.7291 101.588 47.5615C101.485 47.6174 101.371 47.6873 101.245 47.7714C101.118 47.8549 101.013 47.9339 100.929 48.0084ZM102.43 46.4302C102.401 46.4584 102.371 46.4584 102.338 46.4302C102.306 46.4025 102.28 46.363 102.261 46.3117C102.243 46.2604 102.233 46.2045 102.233 46.1441C102.233 46.0837 102.247 46.0301 102.275 45.9833C102.378 45.853 102.53 45.6877 102.731 45.4874C102.932 45.2876 103.14 45.1177 103.355 44.9778C103.373 44.9688 103.397 44.9756 103.425 44.9983C103.453 45.0219 103.462 45.0432 103.453 45.0619C103.256 45.2381 103.07 45.4506 102.892 45.6968C102.715 45.9438 102.56 46.1882 102.43 46.4302Z" fill="#7D6240"/>
    <path d="M109.271 40.4528C109.449 40.4528 109.601 40.4973 109.727 40.5854C109.853 40.6739 109.949 40.7879 110.015 40.9278C110.079 41.0677 110.11 41.2207 110.105 41.3888C110.1 41.5559 110.061 41.7239 109.986 41.8915C109.911 41.9474 109.865 41.9328 109.846 41.8493C109.828 41.6631 109.725 41.5005 109.538 41.3606C109.351 41.2207 109.052 41.1508 108.64 41.1508C108.388 41.1508 108.154 41.1744 107.939 41.2207C107.724 41.2675 107.521 41.3606 107.33 41.5005C107.138 41.6395 106.948 41.8425 106.762 42.1081C106.574 42.3729 106.378 42.7249 106.172 43.1622C105.967 43.6 105.747 44.1396 105.514 44.7822C105.28 45.4244 105.023 46.1928 104.742 47.0866C104.976 47.0775 105.215 47.0725 105.458 47.0725H106.172C106.219 47.0911 106.238 47.1193 106.228 47.1565C106.219 47.1938 106.177 47.2174 106.103 47.2265C105.887 47.2356 105.658 47.2428 105.415 47.2474C105.172 47.2524 104.93 47.2633 104.686 47.2823C104.667 47.3291 104.651 47.3777 104.638 47.4286C104.623 47.4804 104.607 47.5294 104.588 47.5757C104.224 48.7393 103.831 49.7284 103.411 50.5432C102.99 51.3579 102.553 52.021 102.1 52.5337C101.646 53.0451 101.186 53.418 100.718 53.651C100.251 53.883 99.7887 53.9998 99.3304 53.9998C99.0222 53.9998 98.786 53.9253 98.6223 53.7763C98.4591 53.6273 98.377 53.4366 98.377 53.2041C98.377 52.952 98.466 52.724 98.6433 52.5192C98.6716 52.4915 98.6976 52.487 98.7204 52.5056C98.7441 52.5238 98.7559 52.5474 98.7559 52.5751C98.709 52.6682 98.6903 52.7685 98.6994 52.8757C98.709 52.9824 98.7486 53.0828 98.8184 53.1759C98.8891 53.269 98.9939 53.3458 99.1344 53.4062C99.2743 53.4666 99.4567 53.4975 99.681 53.4975C100.111 53.4975 100.494 53.4343 100.83 53.309C101.167 53.1827 101.492 52.913 101.805 52.4983C102.119 52.0841 102.436 51.4905 102.759 50.718C103.081 49.9451 103.444 48.9069 103.845 47.603L103.929 47.3518C103.752 47.3704 103.583 47.3918 103.425 47.4145C103.266 47.4381 103.111 47.464 102.962 47.4917C102.916 47.4826 102.905 47.459 102.934 47.4222C102.962 47.3845 103.006 47.3477 103.067 47.31C103.128 47.2733 103.2 47.2383 103.284 47.2056C103.369 47.1724 103.448 47.152 103.523 47.1425C103.598 47.1334 103.675 47.1261 103.754 47.1216C103.833 47.117 103.915 47.1098 103.999 47.1007C104.382 45.9462 104.787 44.9498 105.213 44.1123C105.638 43.274 106.074 42.5823 106.523 42.0378C106.972 41.4932 107.428 41.0931 107.89 40.837C108.353 40.5808 108.813 40.4528 109.271 40.4528Z" fill="#7D6240"/>
    <path d="M108.276 47.7289C108.276 48.2593 107.57 48.6227 106.158 48.8184C106.149 48.9115 106.142 49.0051 106.138 49.0977C106.132 49.1908 106.131 49.2885 106.131 49.3906C106.131 49.6332 106.186 49.8194 106.299 49.9497C106.411 50.0805 106.588 50.145 106.831 50.145C107.009 50.145 107.191 50.0941 107.378 49.991C107.565 49.8888 107.715 49.759 107.827 49.6005C107.865 49.5823 107.892 49.5891 107.911 49.6213C107.93 49.654 107.934 49.689 107.925 49.7258C107.738 49.9688 107.502 50.1754 107.217 50.3475C106.932 50.5201 106.626 50.606 106.299 50.606C105.971 50.606 105.736 50.5247 105.591 50.3616C105.446 50.1986 105.374 49.9688 105.374 49.6699C105.374 49.382 105.434 49.0818 105.555 48.7694C105.677 48.4573 105.834 48.1717 106.025 47.9105C106.216 47.6499 106.437 47.4378 106.684 47.2752C106.932 47.1126 107.182 47.0308 107.434 47.0308C107.687 47.0308 107.89 47.1031 108.044 47.247C108.199 47.3919 108.276 47.5522 108.276 47.7289ZM107.056 47.3942C106.841 47.3942 106.656 47.4936 106.502 47.6939C106.348 47.8942 106.243 48.2039 106.186 48.6227C106.635 48.5763 106.967 48.49 107.182 48.3642C107.397 48.2389 107.505 48.0827 107.505 47.8969C107.505 47.757 107.462 47.6385 107.378 47.5404C107.294 47.4428 107.187 47.3942 107.056 47.3942Z" fill="#7D6240"/>
    <path d="M110.449 47.0308C110.654 47.0308 110.82 47.059 110.947 47.1144C111.073 47.1707 111.136 47.2402 111.136 47.3242C111.136 47.4269 111.11 47.5431 111.059 47.673C111.008 47.8038 110.958 47.9105 110.912 47.9941C110.893 48.0127 110.869 48.0155 110.841 48.0014C110.814 47.9873 110.8 47.9619 110.8 47.9246C110.828 47.8592 110.841 47.7661 110.841 47.6453C110.841 47.5145 110.807 47.4078 110.736 47.3242C110.667 47.2402 110.571 47.1984 110.449 47.1984C110.289 47.1984 110.161 47.2475 110.063 47.3447C109.965 47.4428 109.916 47.5804 109.916 47.757C109.916 47.906 109.956 48.0477 110.036 48.1826C110.115 48.3179 110.204 48.4533 110.302 48.5881C110.4 48.7235 110.491 48.8675 110.575 49.021C110.659 49.1745 110.702 49.3489 110.702 49.5446C110.702 49.8798 110.566 50.1404 110.295 50.3267C110.023 50.5129 109.669 50.606 109.229 50.606C108.911 50.606 108.661 50.5551 108.479 50.4525C108.297 50.3503 108.205 50.2381 108.205 50.1173C108.205 50.0805 108.22 50.0292 108.248 49.9633C108.276 49.8984 108.313 49.8289 108.359 49.754C108.407 49.6799 108.458 49.6055 108.514 49.531C108.57 49.4565 108.631 49.3956 108.696 49.3489C108.725 49.3302 108.75 49.3348 108.773 49.3629C108.797 49.3906 108.799 49.4192 108.78 49.447C108.725 49.5024 108.682 49.5609 108.654 49.6213C108.626 49.6822 108.613 49.7635 108.613 49.8657C108.613 50.0333 108.669 50.1709 108.78 50.2776C108.892 50.3852 109.037 50.4384 109.215 50.4384C109.458 50.4384 109.647 50.3712 109.783 50.2363C109.918 50.1009 109.986 49.9356 109.986 49.7403C109.986 49.5637 109.946 49.3979 109.867 49.2444C109.788 49.0909 109.701 48.9419 109.607 48.7975C109.514 48.6531 109.428 48.5064 109.348 48.3574C109.269 48.2089 109.229 48.0504 109.229 47.8824C109.229 47.6408 109.332 47.4378 109.538 47.2752C109.743 47.1126 110.047 47.0308 110.449 47.0308Z" fill="#7D6240"/>
    <path d="M114.277 47.1006C114.324 47.1192 114.342 47.1451 114.333 47.1773C114.324 47.21 114.281 47.2355 114.207 47.2545C114.066 47.2545 113.905 47.2591 113.723 47.2682C113.541 47.2777 113.346 47.2918 113.141 47.3099C112.954 47.7664 112.8 48.211 112.678 48.6438C112.557 49.0766 112.496 49.4286 112.496 49.6983C112.496 50.0149 112.617 50.1734 112.861 50.1734C113.104 50.1734 113.374 49.9636 113.674 49.5448C113.702 49.5262 113.728 49.5262 113.751 49.5448C113.774 49.5639 113.781 49.5957 113.772 49.6425C113.613 49.9032 113.412 50.1293 113.169 50.3201C112.926 50.5108 112.688 50.6062 112.454 50.6062C112.211 50.6062 112.031 50.5481 111.914 50.4314C111.798 50.3151 111.739 50.1548 111.739 49.9495C111.739 49.6802 111.804 49.3073 111.935 48.8323C112.066 48.3577 112.234 47.8735 112.44 47.3799C112.197 47.408 111.972 47.4453 111.767 47.4916C111.72 47.4825 111.708 47.4589 111.732 47.4221C111.755 47.3844 111.798 47.3449 111.858 47.3031C111.919 47.2613 111.991 47.2241 112.075 47.1914C112.159 47.1587 112.239 47.1428 112.314 47.1428H112.425C112.463 47.1428 112.5 47.1378 112.538 47.1287C112.659 46.8585 112.786 46.5983 112.917 46.3462C113.048 46.0951 113.178 45.8666 113.309 45.6623C113.366 45.5969 113.443 45.5392 113.541 45.4874C113.639 45.4365 113.735 45.3966 113.828 45.3689C113.921 45.3407 113.998 45.3248 114.059 45.3203C114.12 45.3153 114.146 45.3312 114.136 45.3689C113.978 45.6109 113.821 45.8807 113.667 46.1791C113.512 46.477 113.366 46.7886 113.225 47.1142C113.403 47.1056 113.583 47.1006 113.765 47.1006H114.277Z" fill="#7D6240"/>
    <path d="M117.389 47.4359C117.427 47.3432 117.53 47.2524 117.698 47.1634C117.866 47.0748 118.015 47.0307 118.146 47.0307C118.231 47.0307 118.263 47.0634 118.245 47.1288C118.039 47.7061 117.836 48.267 117.635 48.811C117.434 49.3565 117.226 49.9169 117.011 50.4941C116.544 51.6954 115.961 52.5801 115.265 53.1478C114.568 53.7155 113.828 53.9998 113.043 53.9998C112.5 53.9998 112.075 53.874 111.767 53.6228C111.458 53.3712 111.304 53.0687 111.304 52.715C111.304 52.5101 111.375 52.3094 111.514 52.1146C111.655 51.9188 111.846 51.7789 112.089 51.6954C112.127 51.6863 112.155 51.6954 112.174 51.7231C112.192 51.7512 112.192 51.7789 112.174 51.8071C112.024 51.9656 111.949 52.1654 111.949 52.4075C111.949 52.7985 112.071 53.1151 112.314 53.3576C112.556 53.5996 112.907 53.7209 113.365 53.7209C113.693 53.7209 113.992 53.6691 114.263 53.5665C114.534 53.4643 114.789 53.2826 115.027 53.0224C115.265 52.7617 115.497 52.412 115.721 51.9747C115.945 51.5369 116.174 50.9873 116.408 50.3265C116.52 50.0191 116.62 49.7448 116.71 49.5027C116.798 49.2606 116.889 48.9954 116.983 48.7066C116.805 48.9859 116.622 49.2425 116.436 49.4746C116.249 49.708 116.059 49.9078 115.868 50.0754C115.676 50.243 115.491 50.3733 115.314 50.4664C115.137 50.5595 114.973 50.6059 114.823 50.6059C114.636 50.6059 114.501 50.5504 114.417 50.4383C114.333 50.3265 114.291 50.173 114.291 49.9778C114.291 49.6517 114.358 49.2775 114.494 48.8533C114.629 48.4295 114.814 48.0226 115.048 47.6316C114.945 47.6965 114.852 47.7569 114.767 47.8128C114.683 47.8687 114.604 47.9341 114.529 48.0085C114.501 48.0272 114.475 48.0204 114.452 47.9877C114.428 47.955 114.426 47.9245 114.445 47.8973C114.511 47.8314 114.599 47.7597 114.711 47.6797C114.823 47.6012 114.945 47.524 115.076 47.4495C115.207 47.375 115.34 47.301 115.476 47.2265C115.611 47.152 115.744 47.0866 115.875 47.0307C115.968 47.0307 116.006 47.0725 115.987 47.1565C115.838 47.3432 115.704 47.5498 115.587 47.7778C115.471 48.0063 115.37 48.2347 115.287 48.4627C115.202 48.6907 115.139 48.9164 115.097 49.1394C115.055 49.3628 115.034 49.564 115.034 49.7402C115.034 50.0009 115.118 50.1313 115.287 50.1313C115.436 50.1313 115.613 50.0377 115.819 49.852C116.025 49.6658 116.228 49.435 116.429 49.1607C116.63 48.886 116.817 48.5926 116.989 48.2806C117.163 47.969 117.296 47.6875 117.389 47.4359Z" fill="#7D6240"/>
    <path d="M124.596 40.2292C124.736 40.2292 124.851 40.2642 124.939 40.3337C125.028 40.404 125.089 40.4972 125.122 40.6139C125.154 40.7301 125.159 40.8627 125.136 41.0113C125.112 41.1602 125.059 41.3096 124.975 41.4586C124.956 41.4772 124.932 41.4772 124.905 41.4586C124.876 41.4395 124.858 41.4164 124.848 41.3887C124.867 41.2769 124.828 41.1838 124.729 41.1089C124.631 41.0344 124.479 40.9972 124.274 40.9972C123.89 40.9972 123.504 41.1398 123.117 41.4232C122.729 41.7075 122.353 42.0822 121.988 42.5472C121.623 43.0136 121.282 43.5486 120.965 44.154C120.646 44.7594 120.371 45.383 120.137 46.0251C119.903 46.6678 119.719 47.3054 119.583 47.9385C119.448 48.572 119.38 49.1488 119.38 49.6702C119.38 49.9495 119.459 50.0894 119.619 50.0894C119.73 50.0894 119.84 50.0421 119.948 49.9495C120.055 49.8568 120.179 49.717 120.32 49.5308C120.347 49.5117 120.373 49.5144 120.397 49.5376C120.42 49.5612 120.427 49.5912 120.418 49.6279C120.231 49.9082 120.011 50.1402 119.759 50.3264C119.506 50.5131 119.277 50.6062 119.072 50.6062C118.894 50.6062 118.77 50.5549 118.7 50.4527C118.63 50.3501 118.595 50.2197 118.595 50.0612C118.595 49.6239 118.688 49.0762 118.875 48.4203C119.062 47.7641 119.312 47.0701 119.626 46.3394C119.938 45.6087 120.3 44.8798 120.712 44.154C121.123 43.4274 121.551 42.7734 121.995 42.1912C122.439 41.6094 122.885 41.1371 123.334 40.7737C123.783 40.4104 124.204 40.2292 124.596 40.2292Z" fill="#7D6240"/>
    <path d="M123.6 47.7289C123.6 48.2593 122.894 48.6227 121.483 48.8184C121.474 48.9115 121.466 49.0051 121.462 49.0977C121.457 49.1908 121.455 49.2885 121.455 49.3906C121.455 49.6332 121.511 49.8194 121.623 49.9497C121.735 50.0805 121.913 50.145 122.156 50.145C122.334 50.145 122.516 50.0941 122.703 49.991C122.889 49.8888 123.039 49.759 123.152 49.6005C123.189 49.5823 123.217 49.5891 123.236 49.6213C123.254 49.654 123.259 49.689 123.25 49.7258C123.063 49.9688 122.827 50.1754 122.542 50.3475C122.257 50.5201 121.951 50.606 121.623 50.606C121.296 50.606 121.06 50.5247 120.915 50.3616C120.77 50.1986 120.698 49.9688 120.698 49.6699C120.698 49.382 120.759 49.0818 120.88 48.7694C121.002 48.4573 121.158 48.1717 121.35 47.9105C121.541 47.6499 121.761 47.4378 122.009 47.2752C122.257 47.1126 122.507 47.0308 122.759 47.0308C123.011 47.0308 123.215 47.1031 123.369 47.247C123.523 47.3919 123.6 47.5522 123.6 47.7289ZM122.38 47.3942C122.165 47.3942 121.981 47.4936 121.827 47.6939C121.672 47.8942 121.567 48.2039 121.511 48.6227C121.96 48.5763 122.291 48.49 122.507 48.3642C122.722 48.2389 122.829 48.0827 122.829 47.8969C122.829 47.757 122.787 47.6385 122.703 47.5404C122.619 47.4428 122.511 47.3942 122.38 47.3942Z" fill="#7D6240"/>
</svg>
