<svg width="24" height="24" viewBox="0 0 24 24" fill="none" xmlns="http://www.w3.org/2000/svg">
<path d="M13.124 14.5549L14.5555 13.1239L21.0055 19.5689L19.5755 21.0009L13.124 14.5549ZM17.42 8.8299L20.285 5.9649C16.335 2.0149 9.93502 2.0099 5.98002 5.9549C9.91502 4.6499 14.29 5.6949 17.42 8.8299ZM5.95502 5.9749C2.01503 9.92989 2.01503 16.3299 5.96503 20.2799L8.83002 17.4149C5.69502 14.2899 4.65003 9.9149 5.95502 5.9749ZM5.97502 5.9599C5.97002 5.9649 5.97003 5.9649 5.96503 5.9649C5.96003 5.9699 5.96002 5.9699 5.96002 5.9749C5.58503 8.98489 7.13003 12.8599 10.265 15.9899L15.995 10.2599C12.855 7.1299 8.98502 5.5799 5.97502 5.9599Z" fill="#E2E2E2"/>
</svg>
