<svg width="223" height="98" viewBox="0 0 223 98" fill="none" xmlns="http://www.w3.org/2000/svg">
<g clip-path="url(#clip0_1099_22351)">
<path d="M201.899 78.4976L201.764 78.6335C201.764 79.6356 201.721 80.6999 201.634 81.8266C201.545 82.9475 201.427 84.0006 201.279 84.9729L201.414 85.2404C202.576 85.8248 203.803 86.2639 205.07 86.5482C206.555 86.9139 208.079 87.0978 209.607 87.096C211.654 87.1363 213.691 86.8055 215.62 86.1194C217.192 85.5638 218.629 84.6796 219.837 83.525C220.871 82.5207 221.688 81.3122 222.236 79.9753C222.736 78.7633 222.998 77.4658 223.008 76.1538C223.008 73.9373 222.347 72.2743 221.026 71.1646C219.705 70.055 217.708 69.3091 215.034 68.9269C213.067 68.6297 211.52 68.3466 210.396 68.0777C209.443 67.8768 208.523 67.5409 207.664 67.0798C207.024 66.7331 206.502 66.2005 206.167 65.5513C205.707 64.4404 205.585 63.2172 205.816 62.0366C206.048 60.8559 206.621 59.7709 207.465 58.9189C208.64 57.8064 210.358 57.2515 212.618 57.2544C213.946 57.2226 215.266 57.4639 216.498 57.9635C217.372 58.2968 218.168 58.8102 218.834 59.4708C218.975 59.705 219.051 59.9736 219.053 60.2479C219.081 60.6187 219.095 61.5132 219.095 62.9314L219.23 63.063L220.638 63.1989L220.769 63.063C220.791 62.0621 220.864 61.0629 220.988 60.0695C221.086 59.0661 221.264 58.0722 221.52 57.0973L221.385 56.7873C220.161 56.1464 218.847 55.6982 217.488 55.4583C216.032 55.1478 214.549 54.9842 213.061 54.97C209.387 54.97 206.508 55.856 204.425 57.628C202.342 59.4001 201.299 61.8062 201.296 64.8464C201.246 66.161 201.528 67.4669 202.114 68.6424C202.615 69.5869 203.361 70.3765 204.273 70.9268C205.143 71.449 206.085 71.8369 207.069 72.0775C208.039 72.3153 209.331 72.5517 210.944 72.7866C212.237 72.9649 213.296 73.1433 214.119 73.3216C214.9 73.4838 215.654 73.7524 216.363 74.1199C217.028 74.4611 217.591 74.974 217.994 75.606C218.431 76.3331 218.645 77.1733 218.61 78.0221C218.61 80.1536 217.907 81.8181 216.502 83.0155C215.096 84.2129 213.151 84.8116 210.666 84.8116C209.633 84.8254 208.603 84.6983 207.605 84.4337C206.832 84.2338 206.09 83.9281 205.399 83.525C204.909 83.2376 204.464 82.8784 204.079 82.4592C203.84 82.2251 203.666 81.9325 203.573 81.61C203.514 81.2589 203.477 80.9044 203.464 80.5485C203.464 80.1918 203.438 79.5549 203.438 78.642L203.308 78.5061L201.899 78.4976ZM184.763 56.9487L184.893 57.0803C185.623 57.0704 186.352 57.123 187.073 57.2374C187.505 57.276 187.921 57.4219 188.284 57.662C188.444 57.8022 188.56 57.9868 188.617 58.1928C188.718 58.6447 188.778 59.1054 188.794 59.5685C188.836 60.2479 188.866 61.3009 188.878 62.7191C188.891 64.1373 188.903 66.1627 188.903 68.7953V73.2749C188.903 75.9075 188.895 77.9555 188.878 79.419C188.861 80.8825 188.833 81.9256 188.794 82.5484C188.774 82.9888 188.714 83.4264 188.617 83.8562C188.564 84.0712 188.448 84.265 188.284 84.4124C187.92 84.6507 187.505 84.7964 187.073 84.8371C186.352 84.942 185.623 84.9875 184.893 84.9729L184.763 85.1088V86.3826L184.893 86.5143C185.315 86.5143 185.893 86.4845 186.656 86.4251C188.829 86.3373 190.385 86.2935 191.324 86.2935C192.263 86.2935 193.82 86.3373 195.996 86.4251C196.759 86.4845 197.345 86.5143 197.759 86.5143L197.889 86.3826V85.1088L197.759 84.9729C197.028 84.9818 196.297 84.9307 195.574 84.8201C195.143 84.7778 194.728 84.6322 194.364 84.3955C194.212 84.2389 194.099 84.0483 194.035 83.8392C193.927 83.3956 193.868 82.9414 193.858 82.4847C193.816 81.8053 193.786 80.7566 193.77 79.3384C193.753 77.9202 193.753 75.8933 193.77 73.2579V68.7825C193.77 66.15 193.784 64.1019 193.812 62.6384C193.84 61.1749 193.869 60.1247 193.9 59.4878C193.904 59.0474 193.956 58.6087 194.056 58.18C194.11 57.9737 194.225 57.7887 194.385 57.6493C194.748 57.4107 195.164 57.265 195.595 57.2246C196.318 57.1103 197.048 57.0577 197.78 57.0675L197.91 56.9359V55.6621L197.78 55.5262C197.358 55.5262 196.78 55.5559 196.017 55.6154C193.841 55.706 192.284 55.7513 191.345 55.7513C190.406 55.7513 188.85 55.706 186.677 55.6154C185.914 55.5559 185.323 55.5262 184.914 55.5262L184.784 55.6621L184.763 56.9487ZM163.131 86.4039L163.262 86.5355C163.683 86.5355 164.261 86.5058 165.024 86.4463C167.2 86.3586 168.757 86.3147 169.696 86.3147C170.633 86.3147 172.193 86.3572 174.364 86.4463C175.128 86.5058 175.714 86.5355 176.127 86.5355L176.258 86.4039V85.13L176.127 84.9942C175.397 85.0031 174.668 84.952 173.947 84.8413C173.514 84.7997 173.098 84.6541 172.732 84.4167C172.583 84.258 172.471 84.068 172.404 83.8605C172.3 83.416 172.24 82.9623 172.226 82.5059C172.184 81.8266 172.155 80.7778 172.138 79.3596C172.121 77.9414 172.121 75.9146 172.138 73.2792C172.138 72.1469 172.167 70.0918 172.226 67.1138C172.316 63.2414 172.375 60.2252 172.404 58.0654C173.604 58.0371 175.116 58.0215 176.941 58.0187C177.771 58.0044 178.601 58.0342 179.429 58.1078C179.785 58.1096 180.126 58.2531 180.377 58.507C180.558 58.7708 180.671 59.0757 180.706 59.3944C180.782 59.8105 180.893 60.8763 181.039 62.5917L181.212 62.7658H182.578L182.713 62.6342C182.713 60.6527 182.727 59.1736 182.756 58.197C182.773 57.3509 182.846 56.5069 182.975 55.6706L182.844 55.5347C180.876 55.5942 178.688 55.6465 176.279 55.6918C173.87 55.7371 171.682 55.7598 169.717 55.7598C167.75 55.7598 165.561 55.7371 163.152 55.6918C160.743 55.6465 158.554 55.5942 156.587 55.5347L156.456 55.6706C156.585 56.5069 156.658 57.3509 156.675 58.197C156.706 59.1736 156.722 60.6527 156.722 62.6342L156.852 62.7658H158.219L158.396 62.5917C158.539 60.8933 158.653 59.8105 158.725 59.3944C158.76 59.0757 158.873 58.7708 159.053 58.507C159.305 58.2531 159.646 58.1096 160.002 58.1078C160.829 58.0343 161.66 58.0045 162.49 58.0187C164.312 58.0187 165.824 58.0342 167.027 58.0654C167.055 60.2224 167.114 63.2385 167.204 67.1138C167.263 70.1031 167.293 72.1582 167.293 73.2792C167.293 75.9117 167.286 77.9598 167.272 79.4233C167.258 80.8868 167.228 81.9299 167.183 82.5526C167.163 82.993 167.104 83.4307 167.006 83.8605C166.956 84.0757 166.842 84.2701 166.677 84.4167C166.312 84.6541 165.896 84.7997 165.463 84.8413C164.742 84.9521 164.012 85.0032 163.283 84.9942L163.152 85.13L163.131 86.4039ZM144.232 56.9487L144.362 57.0803C145.092 57.0702 145.822 57.1228 146.543 57.2374C146.976 57.277 147.393 57.4228 147.757 57.662C147.917 57.8015 148.032 57.9865 148.086 58.1928C148.19 58.6444 148.249 59.1052 148.263 59.5685C148.305 60.2479 148.335 61.3009 148.351 62.7191C148.368 64.1373 148.373 66.1627 148.373 68.7953C148.373 70.689 148.373 72.3323 148.415 73.7208C148.457 75.1092 148.474 76.7525 148.503 78.6462C148.533 79.8564 148.55 80.6419 148.55 80.9943H148.461L143.616 75.0286C141.558 72.5007 139.436 69.861 137.249 67.1096C135.062 64.3581 133.131 61.9039 131.455 59.7468C129.768 57.5856 128.752 56.1844 128.373 55.5305C127.841 55.5899 127.323 55.6451 126.808 55.6876C126.294 55.73 125.716 55.7555 125.067 55.7555C124.246 55.7555 123.027 55.7102 121.411 55.6196C121.12 55.5899 120.707 55.5602 120.18 55.5305L120.045 55.6663V56.9402L120.18 57.0718C120.91 57.0619 121.639 57.1145 122.36 57.2289C122.792 57.2684 123.207 57.4142 123.57 57.6535C123.73 57.793 123.845 57.978 123.899 58.1843C124.005 58.6355 124.064 59.0965 124.076 59.56C124.122 60.2394 124.152 61.2924 124.165 62.7106C124.177 64.1288 124.165 66.1542 124.165 68.7868V73.2664C124.165 75.899 124.165 77.947 124.165 79.4105C124.165 80.874 124.135 81.9171 124.076 82.5399C124.06 82.9807 124.001 83.4187 123.899 83.8477C123.849 84.063 123.734 84.2574 123.57 84.404C123.206 84.6414 122.791 84.7871 122.36 84.8286C121.638 84.9392 120.909 84.9904 120.18 84.9814L120.045 85.1173V86.3911L120.18 86.5228L121.445 86.4336C123.179 86.3458 124.485 86.302 125.362 86.302C126.239 86.302 127.562 86.3458 129.33 86.4336L130.561 86.5228L130.696 86.3911V85.1173L130.561 84.9814C129.832 84.9904 129.103 84.9392 128.381 84.8286C127.95 84.7871 127.535 84.6414 127.171 84.404C127.019 84.2466 126.905 84.0563 126.838 83.8477C126.734 83.4034 126.676 82.9495 126.665 82.4932C126.617 81.8138 126.588 80.765 126.576 79.3468C126.565 77.9286 126.558 75.9018 126.555 73.2664V61.6873H126.64C128.256 63.7849 130.121 66.1655 132.235 68.8293C134.349 71.493 136.28 73.8991 138.029 76.0476C139.78 78.2046 141.477 80.281 143.119 82.2767C144.76 84.2723 145.993 85.7146 146.817 86.6034C147.454 86.6272 148.088 86.701 148.714 86.8242C149.401 86.9314 150.078 87.0948 150.738 87.3125L151.004 87.0917C151.004 86.7648 151.004 86.4124 150.957 86.026C150.814 82.0063 150.741 78.4877 150.738 75.4701C150.738 74.3747 150.745 72.9253 150.759 71.1221C150.773 69.319 150.803 67.4634 150.848 65.5555C150.893 63.6476 150.967 61.9491 151.071 60.4602C151.172 58.9783 151.299 58.1376 151.442 57.9125C151.915 57.3237 153.017 57.0279 154.748 57.0251L154.879 56.8935V55.6196L154.748 55.4837C154.251 55.5135 153.88 55.5432 153.648 55.5729C152.151 55.6621 151.016 55.7088 150.274 55.7088C149.245 55.7088 147.778 55.6635 145.872 55.5729C145.223 55.5135 144.725 55.4837 144.371 55.4837L144.24 55.6196L144.232 56.9487ZM106.303 86.4039L106.433 86.5355H107.698C109.725 86.4166 111.281 86.3572 112.366 86.3572C113.451 86.3572 115.009 86.4166 117.038 86.5355H118.303L118.434 86.4039V85.13L118.303 84.9942C117.64 85.015 116.977 84.9261 116.343 84.7309C115.957 84.537 115.642 84.2268 115.44 83.8435C115.145 83.3085 114.816 82.6673 114.449 81.9115C114.082 81.1557 113.56 79.9838 112.885 78.3872C112.21 76.7907 111.417 74.9267 110.507 72.7951C109.596 70.6636 107.703 66.1712 104.823 59.3095C104.794 59.2246 104.266 57.9677 103.237 55.5389H101.403C100.638 57.3733 99.7794 59.4298 98.8264 61.7085C97.8734 63.9873 96.8895 66.2788 95.8747 68.583C94.8739 70.8872 93.824 73.2678 92.7248 75.7249C91.6257 78.182 90.6741 80.2739 89.8701 82.0007C89.626 82.5847 89.3443 83.152 89.0268 83.6991C88.8498 83.9904 88.6278 84.2513 88.369 84.4719C88.1061 84.6779 87.7929 84.8084 87.4624 84.8498C86.9115 84.9236 86.3567 84.9647 85.801 84.9729L85.6661 85.1088V86.3826L85.801 86.5143H86.813C88.6065 86.3954 89.9573 86.3359 90.8653 86.3359C91.7733 86.3359 93.124 86.3954 94.9175 86.5143H95.9337L96.0644 86.3826V85.1088L95.9337 84.9729H95.7988C94.88 84.9448 93.9655 84.834 93.0664 84.6417C92.8592 84.6028 92.6732 84.4889 92.5435 84.3216C92.4138 84.1542 92.3493 83.9449 92.3622 83.7331C92.3661 83.5318 92.3887 83.3314 92.4296 83.1344C92.5153 82.779 92.6252 82.43 92.7586 82.0898C92.9357 81.6185 93.2224 80.8924 93.6019 79.9201C93.7284 79.6144 93.8591 79.2874 94.0236 78.935V78.884L94.0446 78.8331L94.0699 78.7779L94.091 78.7269L94.1121 78.6717L94.1374 78.6208L94.1585 78.5656V78.5104L94.1838 78.4552L94.2091 78.4L96.9837 71.7845L100.981 62.3497L104.907 71.776V71.8015L105.906 74.1963L106.779 76.3194H106.804L107.066 76.986C107.947 79.1728 108.491 80.5145 108.698 80.9986C108.904 81.4826 109.094 81.9837 109.271 82.4847C109.448 82.9858 109.571 83.3679 109.646 83.6184C109.712 83.8262 109.748 84.0419 109.756 84.2596C109.756 84.5271 109.579 84.7139 109.225 84.8158C108.307 84.9576 107.378 85.0087 106.45 84.9687L106.319 85.1046L106.303 86.4039ZM59.9569 56.9487L60.0876 57.0803C60.8174 57.0702 61.5467 57.1228 62.2676 57.2374C62.7008 57.277 63.1177 57.4228 63.482 57.662C63.6423 57.8015 63.757 57.9865 63.8109 58.1928C63.9148 58.6444 63.9741 59.1052 63.988 59.5685C64.0302 60.2479 64.0597 61.3009 64.0766 62.7191C64.0934 64.1373 64.0766 66.1627 64.0766 68.7953C64.0766 71.9883 64.0766 74.6775 64.0766 76.8629C64.0766 79.0482 64.0541 80.6193 64.0091 81.576C63.9796 82.5696 63.9501 83.2193 63.9206 83.5293C63.9121 83.7487 63.8679 83.9653 63.7898 84.1704C63.6909 84.3611 63.5364 84.5167 63.3471 84.6163C63.1152 84.7649 62.6302 85.0154 61.8965 85.3721L61.7616 85.5037V86.3911L61.8965 86.5228C63.1564 86.3765 64.4234 86.3028 65.6916 86.302C68.8906 86.302 72.0265 86.3161 75.099 86.3444C78.1716 86.3727 81.0572 86.4322 83.7559 86.5228C83.8683 85.3706 84.03 83.5675 84.2408 81.1132C84.297 80.0489 84.3547 79.2492 84.4137 78.7142L84.283 78.5826H82.8493L82.7144 78.7142C82.2449 81.4062 81.8232 82.9744 81.4494 83.4189C81.3018 83.5972 80.7157 83.7416 79.6868 83.8435C78.6579 83.9454 77.4941 84.043 76.1869 84.0897C74.8798 84.1365 73.6316 84.1619 72.4425 84.1789C71.2534 84.1959 70.1149 84.2001 69.027 84.2001C68.9679 81.477 68.9384 77.3512 68.9384 71.8228V68.7613C68.9384 66.1287 68.9539 64.0807 68.9848 62.6172C69.0157 61.1537 69.0452 60.1035 69.0734 59.4666C69.0782 59.0265 69.1291 58.5881 69.2252 58.1588C69.2822 57.9528 69.398 57.7683 69.5583 57.628C69.9206 57.3879 70.3364 57.242 70.7685 57.2034C71.4894 57.089 72.2187 57.0364 72.9485 57.0463L73.0792 56.9147V55.6409L72.9485 55.505C72.5268 55.505 71.9492 55.5347 71.1859 55.5941C69.0129 55.6847 67.457 55.73 66.518 55.73C65.5791 55.73 64.0218 55.6847 61.8459 55.5941C61.0827 55.5347 60.4966 55.505 60.0834 55.505L59.9527 55.6409L59.9569 56.9487ZM38.3252 86.4039L38.4601 86.5355C38.8818 86.5355 39.4553 86.5058 40.2227 86.4463C42.3929 86.3586 43.9489 86.3147 44.8906 86.3147C45.8323 86.3147 47.3883 86.3586 49.5585 86.4463C50.3217 86.5058 50.9121 86.5355 51.3211 86.5355L51.456 86.4039V85.13L51.3211 84.9942C50.5915 85.0031 49.8624 84.952 49.141 84.8413C48.7096 84.7998 48.2945 84.6542 47.9308 84.4167C47.779 84.2593 47.6651 84.0691 47.5977 83.8605C47.4938 83.4162 47.4358 82.9622 47.4248 82.5059C47.377 81.8266 47.3475 80.7778 47.3363 79.3596C47.325 77.9414 47.325 75.9146 47.3363 73.2792C47.3363 72.1469 47.3644 70.0918 47.4206 67.1138C47.5078 63.2414 47.5668 60.2252 47.5977 58.0654C48.8037 58.0371 50.3161 58.0215 52.1349 58.0187C52.9666 58.0044 53.7984 58.0342 54.627 58.1078C54.8027 58.1086 54.9766 58.1442 55.1387 58.2127C55.3008 58.2812 55.4478 58.3812 55.5715 58.507C55.7522 58.7713 55.8665 59.0758 55.9046 59.3944C55.9777 59.8105 56.0873 60.8763 56.2335 62.5917L56.4106 62.7658H57.7768L57.9076 62.6342C57.9076 60.6527 57.9216 59.1736 57.9497 58.197C57.9681 57.3508 58.0428 56.5068 58.1732 55.6706L58.0383 55.5347C56.0705 55.5942 53.8834 55.6465 51.4771 55.6918C49.0651 55.7343 46.8809 55.7598 44.9117 55.7598C42.9425 55.7598 40.754 55.7343 38.3463 55.6918C35.9386 55.6494 33.7501 55.5942 31.7851 55.5347L31.6502 55.6706C31.7806 56.5068 31.8552 57.3508 31.8737 58.197C31.899 59.1736 31.9158 60.6513 31.9158 62.6342L32.0465 62.7658H33.4128L33.5899 62.5917C33.736 60.8763 33.8457 59.8105 33.9188 59.3944C33.9569 59.0758 34.0712 58.7713 34.2519 58.507C34.3752 58.3808 34.5223 58.2805 34.6844 58.212C34.8465 58.1435 35.0206 58.1081 35.1964 58.1078C36.025 58.0342 36.8568 58.0044 37.6885 58.0187C39.5073 58.0187 41.0197 58.0342 42.2257 58.0654C42.2566 60.2224 42.3142 63.2385 42.3985 67.1138C42.4576 70.1031 42.4871 72.1582 42.4871 73.2792C42.4871 75.9117 42.4801 77.9598 42.466 79.4233C42.452 80.8868 42.4224 81.9299 42.3774 82.5526C42.3615 82.9934 42.3022 83.4315 42.2004 83.8605C42.1506 84.0757 42.0357 84.2701 41.8715 84.4167C41.5078 84.6542 41.0927 84.7998 40.6613 84.8413C39.9399 84.952 39.2108 85.0031 38.4812 84.9942L38.3463 85.13L38.3252 86.4039ZM20.6151 86.4039L20.75 86.5355H22.015C24.039 86.4166 25.595 86.3572 26.6829 86.3572C27.7708 86.3572 29.3282 86.4166 31.355 86.5355H32.62L32.7507 86.4039V85.13L32.62 84.9942C31.9565 85.015 31.2941 84.9261 30.6592 84.7309C30.274 84.5354 29.9576 84.2257 29.7527 83.8435C29.4617 83.3085 29.1286 82.6673 28.7617 81.9115C28.3949 81.1557 27.8762 79.9838 27.2016 78.3872C26.5269 76.7907 25.7299 74.9267 24.8191 72.7951C23.9083 70.6636 22.015 66.1712 19.1392 59.3095C19.1111 59.2246 18.5812 57.9677 17.5495 55.5389H15.7026C14.938 57.3733 14.0792 59.4298 13.1262 61.7085C12.1732 63.9873 11.1894 66.2788 10.1745 68.583C9.17377 70.8872 8.12381 73.2678 7.02466 75.7249C5.92551 78.182 4.97816 80.2739 4.18261 82.0007C3.93988 82.5853 3.65812 83.1528 3.33927 83.6991C3.16093 83.9906 2.93743 84.2515 2.67724 84.4719C2.41593 84.6777 2.10407 84.8083 1.77487 84.8498C1.22689 84.9259 0.674977 84.9698 0.121928 84.9814L-0.00878906 85.1173V86.3911L0.121928 86.5228H1.13815C2.92603 86.4039 4.27959 86.3444 5.1904 86.3444C6.10121 86.3444 7.45055 86.4039 9.24265 86.5228H10.2547L10.3896 86.3911V85.1173L10.2547 84.9814H10.1239C9.20514 84.9533 8.29069 84.8425 7.39152 84.6502C7.1843 84.6113 6.99835 84.4974 6.86867 84.3301C6.73898 84.1627 6.67449 83.9534 6.68733 83.7416C6.68914 83.5402 6.71175 83.3395 6.75479 83.1429C6.83845 82.7869 6.94839 82.4378 7.0837 82.0983C7.2608 81.627 7.54754 80.9009 7.92704 79.9286C8.01981 79.6908 8.12522 79.4403 8.23486 79.177V79.1388C8.34449 78.8713 8.46256 78.5953 8.58484 78.2896L11.5365 71.2962L15.2641 62.3454L18.8778 71.0202L20.1892 74.1751L21.0663 76.2981H21.0873L21.353 76.9648C22.2343 79.1515 22.7782 80.4933 22.9849 80.9773C23.1915 81.4614 23.3812 81.9624 23.5541 82.4635C23.727 82.9645 23.8577 83.3467 23.9294 83.5972C23.9966 83.8044 24.0335 84.0204 24.039 84.2383C24.039 84.5059 23.8619 84.6927 23.5119 84.7946C22.5942 84.9361 21.665 84.9873 20.7374 84.9475L20.6024 85.0833L20.6151 86.4039Z" fill="#8C704E"/>
<path fill-rule="evenodd" clip-rule="evenodd" d="M46.3666 95.8175L0.0292969 94.3696L46.3666 92.9259V95.8175ZM176.835 92.9301L222.97 94.3696L176.835 95.809V92.9301Z" fill="#8C704E"/>
<path d="M54.9224 96.378C54.937 96.5245 54.9202 96.6725 54.8731 96.8119C54.826 96.9513 54.7496 97.0789 54.6493 97.186C54.5489 97.2931 54.4268 97.3773 54.2914 97.4327C54.1559 97.4882 54.0101 97.5137 53.864 97.5074C53.6454 97.5173 53.4271 97.4812 53.2231 97.4013C52.9448 97.2866 52.9195 97.1338 52.9195 96.5521V94.463C52.9195 94.4205 52.9195 94.4035 52.9701 94.4035C53.1008 94.4035 53.1893 94.4035 53.3454 94.4035C53.6044 94.3974 53.859 94.4715 54.0749 94.6158C54.3442 94.8191 54.5614 95.0844 54.7081 95.3895C54.8548 95.6946 54.9269 96.0306 54.9182 96.3695L54.9224 96.378ZM52.911 91.7412C52.911 91.6436 52.911 91.6096 52.9869 91.5926C53.0836 91.5808 53.1813 91.5808 53.2779 91.5926C54.0285 91.5926 54.37 92.3697 54.37 92.9599C54.3847 93.1328 54.36 93.3067 54.2979 93.4686C54.2358 93.6305 54.1379 93.776 54.0116 93.894C53.831 94.0285 53.6065 94.0891 53.3833 94.0639C53.2423 94.0687 53.1011 94.0602 52.9616 94.0384C52.9279 94.0384 52.9026 94.0087 52.9026 93.9407L52.911 91.7412ZM51.8569 95.3207C51.8569 96.1317 51.8569 96.8281 51.8147 97.1975C51.781 97.4522 51.7346 97.6476 51.5617 97.6815C51.458 97.7058 51.3519 97.7186 51.2454 97.7197C51.14 97.7197 51.1063 97.7452 51.1063 97.7877C51.1063 97.8301 51.1653 97.8769 51.2792 97.8769C51.4563 97.8769 51.7009 97.8769 51.8864 97.8769C52.0719 97.8769 52.3081 97.8769 52.384 97.8769C52.4599 97.8769 52.7761 97.8769 53.0418 97.9023C53.3074 97.9278 53.5478 97.9278 53.6532 97.9278C55.264 97.9278 55.9892 96.9512 55.9892 96.0086C55.9892 94.9768 55.1164 94.3483 54.3995 94.1021C54.6608 93.9371 54.8784 93.7106 55.0334 93.442C55.1884 93.1735 55.2762 92.8711 55.2893 92.5607C55.2893 92.0937 55.011 91.236 53.4255 91.236C53.1303 91.236 52.7888 91.2657 52.3587 91.2657C52.1816 91.2657 51.6292 91.236 51.1653 91.236C51.0346 91.236 50.9756 91.236 50.9756 91.3166C50.9756 91.3973 51.0262 91.3973 51.1232 91.3973C51.2376 91.3954 51.3519 91.4039 51.4647 91.4228C51.7557 91.4822 51.8231 91.6266 51.84 91.9238C51.8569 92.2211 51.84 92.4546 51.84 93.7921L51.8569 95.3207Z" fill="#8C704E"/>
<path d="M59.4685 95.3207C59.4685 96.1317 59.4685 96.8281 59.4263 97.1975C59.3926 97.4523 59.3462 97.6476 59.1733 97.6816C59.0696 97.7058 58.9636 97.7186 58.8571 97.7198C58.7517 97.7198 58.7179 97.7453 58.7179 97.7877C58.7179 97.8302 58.777 97.8769 58.8908 97.8769C59.0679 97.8769 59.3125 97.8769 59.498 97.8769C59.6836 97.8769 59.8986 97.8769 59.9956 97.8769C60.257 97.8769 60.5311 97.8769 60.9064 97.9024C61.2817 97.9279 61.7497 97.9279 62.4202 97.9279C62.7533 97.9279 62.8419 97.9279 62.8925 97.6986C62.9547 97.3764 62.9928 97.0499 63.0063 96.722C63.0063 96.6328 63.0063 96.5606 62.9388 96.5606C62.8714 96.5606 62.8587 96.5988 62.8419 96.6922C62.7786 97.0574 62.6732 97.24 62.4455 97.3461C62.1805 97.4334 61.9015 97.4695 61.6232 97.4523C60.7293 97.4523 60.5902 97.3207 60.5733 96.7135C60.5733 96.4545 60.5733 95.6434 60.5733 95.3462V94.6499C60.5733 94.5947 60.5733 94.5607 60.6281 94.5607C60.8347 94.5607 61.7034 94.5607 61.8678 94.5862C62.1925 94.6244 62.3148 94.756 62.3612 94.9301C62.3794 95.0354 62.3907 95.1418 62.3949 95.2486C62.3935 95.2595 62.3946 95.2706 62.3982 95.281C62.4017 95.2914 62.4076 95.3009 62.4153 95.3087C62.4231 95.3165 62.4325 95.3223 62.4428 95.3259C62.4531 95.3295 62.4642 95.3306 62.475 95.3292C62.5509 95.3292 62.5509 95.2316 62.5509 95.1594C62.5509 95.0872 62.5804 94.7348 62.5889 94.5692C62.6226 94.1191 62.6563 93.979 62.6563 93.928C62.6563 93.8771 62.631 93.8558 62.5973 93.8558C62.5636 93.8558 62.5172 93.8983 62.4539 93.9705C62.3907 94.0427 62.2473 94.0851 62.0323 94.1021C61.8172 94.1191 60.8221 94.1021 60.6323 94.1021C60.5775 94.1021 60.5691 94.0681 60.5691 94.0044V91.7668C60.5691 91.7073 60.5691 91.6776 60.6323 91.6776C60.8052 91.6776 61.7244 91.6776 61.872 91.7158C62.2937 91.7668 62.3991 91.8729 62.4624 92.03C62.4963 92.1327 62.5134 92.2403 62.513 92.3485C62.513 92.4291 62.513 92.4716 62.5931 92.4716C62.6732 92.4716 62.669 92.4207 62.6774 92.3739C62.6858 92.3272 62.7154 91.8814 62.7238 91.7922C62.7491 91.3889 62.7913 91.2827 62.7913 91.219C62.7913 91.1553 62.7913 91.1426 62.7407 91.1426C62.6934 91.1499 62.6469 91.1613 62.6015 91.1765C62.476 91.2001 62.3493 91.2172 62.222 91.2275C62.0576 91.2275 60.3161 91.2275 60.0336 91.2275C59.9113 91.2275 59.7131 91.2275 59.4854 91.2063H58.7728C58.642 91.2063 58.583 91.2063 58.583 91.2869C58.583 91.3676 58.6336 91.3676 58.7306 91.3676C58.845 91.3657 58.9593 91.3742 59.0721 91.3931C59.3631 91.4525 59.4306 91.5969 59.4474 91.8941C59.4643 92.1914 59.4474 92.4249 59.4474 93.7624L59.4685 95.3207Z" fill="#8C704E"/>
<path d="M67.117 95.1339C67.0833 95.1339 67.0749 95.1084 67.0833 95.0745L67.8887 92.9047C67.8887 92.8707 67.914 92.824 67.9393 92.824C67.9646 92.824 67.973 92.8707 67.9814 92.9047L68.77 95.083C68.77 95.1084 68.77 95.1339 68.7278 95.1339H67.117ZM68.8923 95.5585C68.9123 95.556 68.9325 95.5611 68.9489 95.5729C68.9653 95.5847 68.9767 95.6023 68.9808 95.6222L69.6808 97.4905C69.6905 97.5083 69.6962 97.5281 69.6976 97.5484C69.699 97.5686 69.6959 97.589 69.6887 97.608C69.6815 97.627 69.6702 97.6441 69.6558 97.6583C69.6413 97.6725 69.6239 97.6833 69.6049 97.6901C69.5163 97.6901 69.4784 97.7198 69.4784 97.7707C69.4784 97.8217 69.5838 97.8344 69.744 97.8429C70.444 97.8429 71.0807 97.8429 71.397 97.8429C71.7132 97.8429 71.8186 97.8429 71.8186 97.7538C71.8186 97.6646 71.7723 97.6858 71.7048 97.6858C71.5802 97.6841 71.456 97.6714 71.3337 97.6476C71.1524 97.5966 70.9121 97.4735 70.5663 96.6837C70.0055 95.3462 68.6055 91.7498 68.3947 91.2657C68.3061 91.0619 68.2555 90.9855 68.1754 90.9855C68.0953 90.9855 68.0363 91.0789 67.9308 91.3379L65.7339 96.8578C65.5568 97.2824 65.3924 97.5966 64.9876 97.6476C64.8977 97.6523 64.8076 97.6523 64.7177 97.6476C64.646 97.6476 64.6123 97.6476 64.6123 97.7155C64.6123 97.7835 64.6629 97.8047 64.7768 97.8047C65.2322 97.8047 65.7171 97.7792 65.8098 97.7792C66.0839 97.7792 66.4592 97.8047 66.7375 97.8047C66.8345 97.8047 66.8893 97.8047 66.8893 97.7155C66.8893 97.6264 66.864 97.6476 66.7586 97.6476H66.6237C66.3538 97.6476 66.2737 97.533 66.2737 97.3716C66.2889 97.187 66.3345 97.0062 66.4086 96.8366L66.8809 95.5628C66.8809 95.5076 66.9146 95.4906 66.9568 95.4906L68.8923 95.5585Z" fill="#8C704E"/>
<path d="M77.4438 97.9999C77.9755 98.0157 78.5063 97.9469 79.0166 97.7961C79.0758 97.782 79.1293 97.75 79.1699 97.7045C79.2106 97.659 79.2366 97.6021 79.2443 97.5414C79.3367 97.1559 79.4016 96.7642 79.4383 96.3694C79.4383 96.2973 79.4383 96.2378 79.3582 96.2378C79.2781 96.2378 79.2739 96.2718 79.2443 96.4119C79.1917 96.6261 79.0907 96.8251 78.9492 96.9936C78.5992 97.4182 78.1269 97.4904 77.3468 97.4904C76.1746 97.4904 74.5891 96.4501 74.5891 94.3483C74.5546 93.9324 74.6086 93.5139 74.7475 93.1207C74.8863 92.7275 75.1069 92.3687 75.3945 92.0681C75.8498 91.6749 76.4406 91.4782 77.039 91.5204C77.6788 91.4771 78.3121 91.672 78.8185 92.0681C79.0245 92.289 79.1456 92.5765 79.16 92.8791C79.16 93.0023 79.16 93.0702 79.2443 93.0702C79.3287 93.0702 79.3413 93.0023 79.3498 92.8707C79.3582 92.739 79.3498 92.2083 79.3751 91.9153C79.4004 91.6223 79.4214 91.4907 79.4214 91.4312C79.4214 91.3718 79.3877 91.3336 79.2907 91.3251C79.0251 91.2996 78.7468 91.2189 78.4137 91.1765C77.9946 91.1164 77.5719 91.0866 77.1486 91.0873C75.8457 91.0873 75.0108 91.4397 74.3825 92.0214C74.0525 92.3512 73.7916 92.7444 73.6154 93.1776C73.4391 93.6109 73.3512 94.0753 73.3567 94.5435C73.3622 95.0116 73.4611 95.4739 73.6474 95.9028C73.8338 96.3317 74.1038 96.7185 74.4415 97.0403C75.2906 97.7249 76.3623 98.067 77.448 97.9999" fill="#8C704E"/>
<path d="M84.0477 94.0171C84.0224 94.0171 83.9971 93.9959 83.9971 93.9534V93.7666C83.9971 92.4291 83.9971 92.1828 83.9971 91.8983C83.9971 91.6138 84.0814 91.4397 84.3175 91.3973C84.4025 91.382 84.4885 91.3735 84.5748 91.3718C84.6802 91.3718 84.7308 91.3718 84.7308 91.2911C84.7308 91.2105 84.6717 91.2104 84.5495 91.2104C84.2079 91.2104 83.6555 91.2402 83.4447 91.2402C83.2339 91.2402 82.6562 91.2104 82.1797 91.2104C82.0574 91.2104 81.9941 91.2105 81.9941 91.2911C81.9941 91.3718 82.049 91.3718 82.1459 91.3718C82.2603 91.3698 82.3747 91.3784 82.4875 91.3973C82.7742 91.4567 82.8459 91.6011 82.8628 91.8983C82.8796 92.1955 82.8628 92.4291 82.8628 93.7666V95.3207C82.8628 96.1317 82.8628 96.828 82.8206 97.1975C82.7827 97.4522 82.7405 97.6475 82.5634 97.6815C82.4612 97.7061 82.3565 97.7189 82.2514 97.7197C82.1459 97.7197 82.108 97.7452 82.108 97.7877C82.108 97.8301 82.1712 97.8768 82.2851 97.8768C82.6351 97.8768 83.1875 97.8514 83.3899 97.8514C83.5923 97.8514 84.1868 97.8768 84.7519 97.8768C84.8573 97.8768 84.929 97.8514 84.929 97.7877C84.929 97.724 84.8868 97.7197 84.7898 97.7197C84.6402 97.7158 84.491 97.703 84.3428 97.6815C84.0814 97.6475 84.0266 97.4522 84.0013 97.2059C83.9591 96.828 83.9591 96.1317 83.9591 95.3207V94.5436C83.9585 94.5368 83.9593 94.5299 83.9616 94.5234C83.964 94.5169 83.9677 94.511 83.9725 94.5062C83.9773 94.5013 83.9832 94.4975 83.9896 94.4952C83.996 94.4929 84.0029 94.492 84.0097 94.4927H87.3536C87.3605 94.4921 87.3676 94.493 87.3742 94.4953C87.3809 94.4976 87.3869 94.5012 87.3921 94.506C87.3973 94.5108 87.4014 94.5166 87.4042 94.5231C87.407 94.5296 87.4084 94.5366 87.4084 94.5436V95.3207C87.4084 96.1317 87.4084 96.828 87.362 97.1975C87.3283 97.4522 87.2819 97.6475 87.109 97.6815C87.0053 97.7057 86.8992 97.7185 86.7927 97.7197C86.6873 97.7197 86.6536 97.7452 86.6536 97.7877C86.6536 97.8301 86.7168 97.8768 86.8391 97.8768C87.1807 97.8768 87.7288 97.8514 87.9312 97.8514C88.1336 97.8514 88.7282 97.8768 89.2975 97.8768C89.4029 97.8768 89.4746 97.8514 89.4746 97.7877C89.4746 97.724 89.4282 97.7197 89.3312 97.7197C89.1816 97.7158 89.0323 97.703 88.8842 97.6815C88.6228 97.6475 88.5722 97.4522 88.5427 97.2059C88.5005 96.828 88.5005 96.1317 88.5005 95.3207V93.7666C88.5005 92.4291 88.5005 92.1828 88.5005 91.8983C88.5005 91.6138 88.5891 91.4397 88.8252 91.3973C88.9087 91.3822 88.9933 91.3737 89.0782 91.3718C89.1836 91.3718 89.2384 91.3718 89.2384 91.2911C89.2384 91.2105 89.1752 91.2104 89.0529 91.2104C88.7113 91.2104 88.1589 91.2402 87.9481 91.2402C87.7373 91.2402 87.1638 91.2104 86.6831 91.2104C86.5608 91.2104 86.5018 91.2105 86.5018 91.2911C86.5018 91.3718 86.5524 91.3718 86.6494 91.3718C86.7638 91.3696 86.8781 91.3782 86.9909 91.3973C87.2819 91.4567 87.3493 91.6011 87.3662 91.8983C87.3831 92.1955 87.3662 92.4291 87.3662 93.7666V93.9534C87.3668 93.9612 87.3658 93.9691 87.3634 93.9765C87.3609 93.984 87.357 93.9908 87.3519 93.9967C87.3469 94.0027 87.3406 94.0075 87.3337 94.011C87.3267 94.0145 87.3191 94.0166 87.3114 94.0171H84.0477Z" fill="#8C704E"/>
<path d="M96.1492 95.1339C96.1155 95.1339 96.1071 95.1084 96.1155 95.0745L96.9209 92.9047C96.9209 92.8707 96.9462 92.824 96.9715 92.824C96.9968 92.824 97.0095 92.8707 97.0179 92.9047L97.8064 95.083C97.8064 95.1084 97.8064 95.1339 97.76 95.1339H96.1492ZM97.9287 95.5585C97.948 95.5571 97.9672 95.5627 97.9827 95.5744C97.9982 95.5861 98.009 95.6031 98.013 95.6222L98.713 97.4905C98.7227 97.5083 98.7284 97.5281 98.7298 97.5484C98.7312 97.5686 98.7282 97.589 98.7209 97.608C98.7137 97.627 98.7025 97.6441 98.688 97.6583C98.6735 97.6725 98.6561 97.6833 98.6371 97.6901C98.5485 97.6901 98.5148 97.7198 98.5148 97.7707C98.5148 97.8217 98.6202 97.8344 98.7762 97.8429C99.4762 97.8429 100.117 97.8429 100.429 97.8429C100.741 97.8429 100.851 97.8429 100.851 97.7538C100.851 97.6646 100.809 97.6858 100.737 97.6858C100.614 97.6844 100.491 97.6716 100.37 97.6476C100.185 97.5966 99.9485 97.4735 99.5985 96.6837C99.0377 95.3462 97.6377 91.7498 97.4269 91.2657C97.3384 91.0619 97.2877 90.9855 97.2076 90.9855C97.1275 90.9855 97.0685 91.0789 96.9631 91.3379L94.7662 96.8578C94.5891 97.2824 94.4246 97.5966 94.024 97.6476C93.9523 97.6476 93.8301 97.6476 93.7499 97.6476C93.6698 97.6476 93.6445 97.6476 93.6445 97.7155C93.6445 97.7835 93.6993 97.8047 93.8132 97.8047C94.2686 97.8047 94.7493 97.7792 94.8463 97.7792C95.1162 97.7792 95.4914 97.8047 95.774 97.8047C95.8709 97.8047 95.9215 97.8047 95.9215 97.7155C95.9215 97.6264 95.8962 97.6476 95.7908 97.6476H95.6601C95.386 97.6476 95.3101 97.533 95.3101 97.3716C95.3234 97.1871 95.3676 97.0062 95.4408 96.8366L95.9131 95.5628C95.9131 95.5076 95.9468 95.4906 95.9932 95.4906L97.9287 95.5585Z" fill="#8C704E"/>
<path d="M103.343 95.3207C103.343 96.1317 103.343 96.828 103.297 97.1975C103.263 97.4522 103.221 97.6475 103.044 97.6815C102.94 97.7057 102.834 97.7185 102.728 97.7197C102.622 97.7197 102.588 97.7452 102.588 97.7877C102.588 97.8301 102.652 97.8768 102.766 97.8768C103.116 97.8768 103.664 97.8514 103.866 97.8514C104.069 97.8514 104.646 97.8768 105.224 97.8768C105.321 97.8768 105.388 97.8514 105.388 97.7877C105.388 97.724 105.346 97.7197 105.249 97.7197C105.1 97.7158 104.95 97.703 104.802 97.6815C104.541 97.6475 104.49 97.4522 104.461 97.2059C104.419 96.828 104.419 96.1317 104.419 95.3207V91.7922C104.419 91.6987 104.444 91.6436 104.49 91.6266C104.602 91.5997 104.717 91.5882 104.832 91.5926C105.155 91.593 105.467 91.7158 105.705 91.9365C105.881 92.1059 106.018 92.3117 106.108 92.5396C106.197 92.7675 106.237 93.0123 106.223 93.2571C106.244 93.6041 106.134 93.9462 105.917 94.2158C105.699 94.4855 105.388 94.6631 105.047 94.7135C104.865 94.7135 104.802 94.739 104.802 94.8069C104.802 94.8748 104.865 94.8791 104.908 94.8876C104.969 94.8918 105.031 94.8918 105.093 94.8876C105.376 94.9011 105.658 94.8558 105.923 94.7545C106.187 94.6532 106.428 94.4981 106.63 94.2989C106.832 94.0996 106.991 93.8605 107.098 93.5965C107.204 93.3325 107.255 93.0493 107.248 92.7645C107.245 92.3737 107.094 91.9986 106.826 91.7157C106.687 91.5841 106.291 91.2104 105.199 91.2104C104.777 91.2104 104.288 91.2402 103.934 91.2402C103.685 91.2402 103.137 91.2104 102.669 91.2104C102.534 91.2104 102.475 91.2105 102.475 91.2911C102.475 91.3718 102.525 91.3718 102.622 91.3718C102.737 91.3696 102.851 91.3782 102.964 91.3973C103.255 91.4567 103.322 91.6011 103.339 91.8983C103.356 92.1955 103.36 92.4291 103.36 93.7666L103.343 95.3207Z" fill="#8C704E"/>
<path d="M110.752 95.1339C110.718 95.1339 110.71 95.1084 110.718 95.0745L111.523 92.9047C111.523 92.8707 111.549 92.824 111.574 92.824C111.599 92.824 111.608 92.8707 111.62 92.9047L112.405 95.083C112.405 95.1084 112.405 95.1339 112.363 95.1339H110.752ZM112.527 95.5585C112.547 95.556 112.567 95.5611 112.584 95.5729C112.6 95.5847 112.611 95.6023 112.616 95.6222L113.316 97.4905C113.325 97.5083 113.331 97.5281 113.332 97.5484C113.334 97.5686 113.331 97.589 113.323 97.608C113.316 97.627 113.305 97.6441 113.291 97.6583C113.276 97.6725 113.259 97.6833 113.24 97.6901C113.151 97.6901 113.117 97.7198 113.117 97.7707C113.117 97.8217 113.219 97.8344 113.379 97.8429C114.079 97.8429 114.715 97.8429 115.032 97.8429C115.348 97.8429 115.453 97.8429 115.453 97.7538C115.453 97.6646 115.407 97.6858 115.34 97.6858C115.216 97.6844 115.094 97.6716 114.973 97.6476C114.787 97.5966 114.551 97.4735 114.201 96.6837C113.64 95.3462 112.24 91.7498 112.029 91.2657C111.941 91.0619 111.89 90.9855 111.81 90.9855C111.73 90.9855 111.671 91.0789 111.566 91.3379L109.369 96.8578C109.192 97.2824 109.027 97.5966 108.622 97.6476C108.532 97.6523 108.442 97.6523 108.352 97.6476C108.281 97.6476 108.247 97.6476 108.247 97.7155C108.247 97.7835 108.302 97.8047 108.412 97.8047C108.867 97.8047 109.352 97.7792 109.449 97.7792C109.719 97.7792 110.094 97.8047 110.376 97.8047C110.469 97.8047 110.524 97.8047 110.524 97.7155C110.524 97.6264 110.499 97.6476 110.393 97.6476H110.258C109.984 97.6476 109.908 97.533 109.908 97.3716C109.922 97.1871 109.966 97.0062 110.039 96.8366L110.511 95.5628C110.511 95.5076 110.545 95.4906 110.587 95.4906L112.527 95.5585Z" fill="#8C704E"/>
<path d="M118.974 91.7667C118.974 91.6988 118.995 91.6606 119.054 91.6436C119.207 91.6141 119.363 91.6027 119.518 91.6096C120.037 91.6096 120.859 91.9705 120.859 93.2231C120.885 93.469 120.851 93.7175 120.76 93.9473C120.67 94.1772 120.526 94.3818 120.341 94.5437C120.161 94.672 119.939 94.7266 119.721 94.6965C119.496 94.6984 119.271 94.6684 119.054 94.6074C118.995 94.5819 118.974 94.5437 118.974 94.446V91.7667ZM117.941 95.3037C117.941 96.1147 117.941 96.8111 117.899 97.1805C117.865 97.4353 117.819 97.6306 117.646 97.6646C117.542 97.6888 117.436 97.7016 117.33 97.7028C117.224 97.7028 117.191 97.7283 117.191 97.7707C117.191 97.8132 117.25 97.8599 117.364 97.8599C117.714 97.8599 118.266 97.8344 118.435 97.8344C118.603 97.8344 119.21 97.8599 119.721 97.8599C119.835 97.8599 119.894 97.8344 119.894 97.7707C119.894 97.707 119.86 97.7028 119.792 97.7028C119.651 97.6971 119.511 97.6843 119.371 97.6646C119.105 97.6306 119.054 97.4353 119.029 97.1805C118.983 96.8111 118.983 96.1147 118.983 95.2952V95.1721C118.981 95.1623 118.982 95.1523 118.985 95.1429C118.988 95.1335 118.994 95.1249 119.001 95.1179C119.008 95.1109 119.016 95.1056 119.025 95.1025C119.035 95.0994 119.045 95.0985 119.054 95.0999H119.818C119.847 95.0967 119.876 95.1008 119.904 95.1119C119.931 95.123 119.955 95.1408 119.974 95.1636C120.088 95.2952 120.492 95.8939 120.842 96.378C121.146 96.8904 121.554 97.3319 122.04 97.6731C122.33 97.8163 122.654 97.8751 122.976 97.8429H123.819C123.925 97.8429 123.988 97.8429 123.988 97.7537C123.988 97.6646 123.954 97.6858 123.883 97.6858C123.8 97.6828 123.719 97.6729 123.638 97.6561C123.252 97.5751 122.906 97.3638 122.656 97.0574C122.141 96.5096 121.538 95.7283 120.758 94.739C121.639 94.0172 121.913 93.4185 121.913 92.7646C121.913 92.5311 121.859 92.301 121.755 92.0919C121.652 91.8829 121.503 91.7004 121.319 91.5587C120.832 91.2713 120.271 91.1381 119.708 91.1765C119.434 91.1765 118.768 91.2062 118.473 91.2062C118.287 91.2062 117.735 91.1765 117.271 91.1765C117.14 91.1765 117.081 91.1765 117.081 91.2572C117.081 91.3379 117.132 91.3379 117.229 91.3379C117.343 91.3359 117.457 91.3444 117.57 91.3634C117.861 91.4228 117.929 91.5672 117.945 91.8644C117.962 92.1616 117.945 92.3952 117.945 93.7327L117.941 95.3037Z" fill="#8C704E"/>
<path d="M126.973 95.3208C126.973 96.1318 126.973 96.8281 126.931 97.1976C126.902 97.4523 126.851 97.6476 126.674 97.6816C126.572 97.7062 126.467 97.719 126.362 97.7198C126.256 97.7198 126.218 97.7453 126.218 97.7878C126.218 97.8302 126.282 97.8769 126.396 97.8769C126.746 97.8769 127.298 97.8514 127.496 97.8514C127.694 97.8514 128.293 97.8769 128.871 97.8769C128.968 97.8769 129.039 97.8514 129.039 97.7878C129.039 97.7241 128.993 97.7198 128.9 97.7198C128.751 97.7161 128.601 97.7033 128.453 97.6816C128.188 97.6476 128.137 97.4523 128.112 97.206C128.065 96.8281 128.065 96.1318 128.065 95.3208V91.7073L129.17 91.7328C129.95 91.7328 130.186 91.9961 130.203 92.2254V92.323C130.203 92.4546 130.228 92.4971 130.3 92.4971C130.372 92.4971 130.372 92.4462 130.38 92.357C130.38 92.1277 130.406 91.5078 130.406 91.3337C130.406 91.1596 130.406 91.1511 130.334 91.1511C130.254 91.1609 130.176 91.1751 130.098 91.1936C129.898 91.2236 129.697 91.2393 129.495 91.2403H126.029C125.738 91.2403 125.405 91.219 125.152 91.1936C125.023 91.1714 124.897 91.1358 124.776 91.0874C124.721 91.0874 124.696 91.1426 124.671 91.2572C124.646 91.3719 124.485 92.1277 124.485 92.2678C124.485 92.4079 124.506 92.4122 124.565 92.4122C124.625 92.4122 124.646 92.374 124.662 92.306C124.693 92.1947 124.743 92.0898 124.81 91.9961C124.941 91.8008 125.152 91.7583 125.653 91.7413L126.956 91.7073L126.973 95.3208Z" fill="#8C704E"/>
<path d="M132.94 96.9936C132.894 97.2951 132.826 97.6391 132.582 97.69C132.495 97.7115 132.405 97.7214 132.316 97.7197C132.232 97.7197 132.177 97.7197 132.177 97.7792C132.177 97.8386 132.248 97.8768 132.333 97.8768C132.615 97.8768 133.037 97.8513 133.201 97.8513C133.366 97.8513 133.754 97.8768 134.121 97.8768C134.251 97.8768 134.331 97.8768 134.331 97.7792C134.331 97.6815 134.268 97.7197 134.201 97.7197C134.076 97.7167 133.952 97.7011 133.83 97.673C133.682 97.6391 133.568 97.5584 133.568 97.3928C133.568 97.2509 133.577 97.1091 133.594 96.9682L134.049 93.4609H134.087C134.391 94.1233 134.93 95.2315 134.998 95.4183C135.065 95.6052 135.795 97.0149 136.001 97.4183C136.145 97.6815 136.229 97.8429 136.309 97.8429C136.389 97.8429 136.431 97.7622 136.634 97.3503L138.54 93.3462H138.578L139.101 97.2272C139.139 97.4734 139.101 97.5881 139.058 97.6051C139.016 97.6221 138.961 97.656 138.961 97.7027C138.961 97.7495 139.016 97.7792 139.214 97.7962C139.564 97.8259 140.775 97.8513 140.994 97.8513C141.116 97.8513 141.222 97.8259 141.222 97.7537C141.222 97.6815 141.158 97.6942 141.082 97.6942C140.898 97.692 140.714 97.6619 140.538 97.6051C140.273 97.5244 140.188 97.2696 140.117 96.7134L139.32 91.2657C139.295 91.0788 139.24 90.9939 139.164 90.9939C139.088 90.9939 139.042 91.0618 138.97 91.202L136.587 96.2378L134.201 91.2657C134.087 91.0364 134.032 90.9939 133.965 90.9939C133.897 90.9939 133.838 91.0703 133.813 91.2232L132.94 96.9936Z" fill="#8C704E"/>
<path d="M144.203 95.3207C144.203 96.1317 144.203 96.8281 144.157 97.1975C144.123 97.4523 144.076 97.6476 143.904 97.6816C143.8 97.7058 143.694 97.7186 143.587 97.7198C143.482 97.7198 143.448 97.7453 143.448 97.7877C143.448 97.8302 143.511 97.8769 143.625 97.8769C143.739 97.8769 144.026 97.8769 144.228 97.8769C144.431 97.8769 144.629 97.8769 144.726 97.8769C144.987 97.8769 145.261 97.8769 145.637 97.9024C146.012 97.9279 146.48 97.9279 147.15 97.9279C147.483 97.9279 147.572 97.9279 147.623 97.6986C147.685 97.3764 147.723 97.0499 147.736 96.722C147.736 96.6328 147.736 96.5606 147.669 96.5606C147.602 96.5606 147.589 96.5988 147.572 96.6922C147.509 97.0574 147.403 97.24 147.176 97.3461C146.911 97.4334 146.632 97.4695 146.353 97.4523C145.464 97.4523 145.32 97.3207 145.303 96.7135C145.303 96.4545 145.303 95.6434 145.303 95.3462V94.6499C145.303 94.5947 145.303 94.5607 145.358 94.5607C145.565 94.5607 146.434 94.5607 146.598 94.5862C146.923 94.6244 147.045 94.756 147.091 94.9301C147.11 95.0354 147.121 95.1418 147.125 95.2486C147.124 95.2595 147.125 95.2706 147.128 95.281C147.132 95.2914 147.138 95.3009 147.145 95.3087C147.153 95.3165 147.163 95.3223 147.173 95.3259C147.183 95.3295 147.194 95.3306 147.205 95.3292C147.281 95.3292 147.281 95.2316 147.281 95.1594C147.281 95.0872 147.311 94.7348 147.319 94.5692C147.353 94.1191 147.386 93.979 147.386 93.928C147.386 93.8771 147.361 93.8558 147.327 93.8558C147.294 93.8558 147.247 93.8983 147.188 93.9705C147.129 94.0427 146.977 94.0851 146.767 94.1021C146.556 94.1191 145.556 94.1021 145.367 94.1021C145.312 94.1021 145.303 94.0681 145.303 94.0044V91.7668C145.303 91.7073 145.303 91.6776 145.367 91.6776C145.54 91.6776 146.459 91.6776 146.606 91.7158C147.028 91.7668 147.133 91.8729 147.197 92.03C147.231 92.1327 147.248 92.2403 147.247 92.3485C147.247 92.4291 147.247 92.4716 147.327 92.4716C147.408 92.4716 147.403 92.4207 147.416 92.3739C147.429 92.3272 147.45 91.8814 147.458 91.7922C147.472 91.6 147.495 91.4086 147.53 91.219C147.53 91.1765 147.53 91.1426 147.475 91.1426C147.428 91.1499 147.381 91.1613 147.336 91.1765C147.212 91.1999 147.086 91.2169 146.961 91.2275C146.792 91.2275 145.05 91.2275 144.772 91.2275C144.646 91.2275 144.447 91.2275 144.22 91.2063H143.511C143.376 91.2063 143.317 91.2063 143.317 91.2869C143.317 91.3676 143.368 91.3676 143.465 91.3676C143.579 91.3655 143.694 91.374 143.807 91.3931C144.097 91.4525 144.165 91.5969 144.182 91.8941C144.199 92.1914 144.203 92.4249 144.203 93.7624V95.3207Z" fill="#8C704E"/>
<path d="M151.721 92.9769H151.746C151.902 93.1425 152.876 94.2507 153.829 95.1976C154.782 96.1445 155.857 97.2612 156.41 97.7877C156.502 97.8854 156.608 97.983 156.705 97.983C156.802 97.983 156.819 97.9024 156.819 97.707L156.916 92.1447C156.916 91.6521 156.996 91.4695 157.24 91.3973C157.326 91.377 157.414 91.3685 157.502 91.3719C157.607 91.3719 157.662 91.3421 157.662 91.2912C157.662 91.2402 157.573 91.2105 157.459 91.2105C157.038 91.2105 156.696 91.2402 156.616 91.2402C156.435 91.2402 156.013 91.2105 155.558 91.2105C155.427 91.2105 155.33 91.2105 155.33 91.2912C155.33 91.3719 155.368 91.3719 155.473 91.3719C155.628 91.3638 155.784 91.381 155.933 91.4228C156.144 91.512 156.224 91.6776 156.232 92.2168L156.321 96.1742H156.275C156.127 96.0341 154.946 94.7645 154.352 94.1658C153.087 92.892 151.746 91.4483 151.64 91.3336C151.535 91.219 151.409 91.0619 151.316 91.0619C151.223 91.0619 151.202 91.185 151.202 91.3634L151.122 96.5818C151.122 97.3461 151.075 97.6051 150.848 97.6731C150.719 97.7049 150.588 97.7206 150.456 97.7198C150.367 97.7198 150.316 97.7198 150.316 97.7877C150.316 97.8557 150.397 97.8769 150.51 97.8769C150.962 97.8769 151.375 97.8514 151.455 97.8514C151.624 97.8514 151.974 97.8769 152.543 97.8769C152.665 97.8769 152.741 97.8769 152.741 97.7877C152.741 97.6985 152.69 97.7198 152.593 97.7198C152.439 97.7231 152.285 97.7016 152.138 97.6561C151.961 97.5924 151.851 97.3631 151.83 96.6795L151.721 92.9769Z" fill="#8C704E"/>
<path d="M162.364 95.3208C162.364 96.1318 162.364 96.8281 162.322 97.1976C162.296 97.4523 162.242 97.6476 162.069 97.6816C161.965 97.7058 161.859 97.7186 161.752 97.7198C161.647 97.7198 161.613 97.7453 161.613 97.7878C161.613 97.8302 161.672 97.8769 161.786 97.8769C162.136 97.8769 162.689 97.8514 162.891 97.8514C163.093 97.8514 163.688 97.8769 164.266 97.8769C164.363 97.8769 164.43 97.8514 164.43 97.7878C164.43 97.7241 164.388 97.7198 164.291 97.7198C164.141 97.7159 163.992 97.7031 163.844 97.6816C163.582 97.6476 163.532 97.4523 163.502 97.206C163.46 96.8281 163.46 96.1318 163.46 95.3208V91.7073L164.561 91.7328C165.341 91.7328 165.577 91.9961 165.594 92.2254V92.323C165.594 92.4546 165.619 92.4971 165.687 92.4971C165.754 92.4971 165.758 92.4462 165.767 92.357C165.767 92.1277 165.792 91.5078 165.792 91.3337C165.792 91.1596 165.792 91.1511 165.725 91.1511C165.645 91.1606 165.566 91.1747 165.488 91.1936C165.287 91.2238 165.084 91.2395 164.881 91.2403H161.415C161.128 91.2403 160.795 91.219 160.542 91.1936C160.413 91.1705 160.286 91.1349 160.163 91.0874C160.112 91.0874 160.087 91.1426 160.057 91.2572C160.028 91.3719 159.876 92.1277 159.876 92.2678C159.876 92.4079 159.876 92.4122 159.956 92.4122C160.036 92.4122 160.032 92.374 160.049 92.306C160.083 92.1954 160.134 92.0908 160.201 91.9961C160.331 91.8008 160.542 91.7583 161.044 91.7413L162.347 91.7073L162.364 95.3208Z" fill="#8C704E"/>
<path d="M169.802 98C170.291 98.0176 170.774 97.8923 171.193 97.6391C171.454 97.4789 171.668 97.2534 171.816 96.9848C171.964 96.7161 172.04 96.4134 172.037 96.1062C172.037 95.257 171.661 94.6583 170.603 93.8558L170.358 93.6732C169.629 93.117 169.431 92.824 169.431 92.3994C169.432 92.2682 169.461 92.1387 169.516 92.0196C169.57 91.9005 169.65 91.7945 169.748 91.7085C169.847 91.6226 169.962 91.5588 170.087 91.5212C170.212 91.4836 170.343 91.4733 170.472 91.4907C170.654 91.4775 170.835 91.5093 171.001 91.5833C171.168 91.6573 171.313 91.7714 171.425 91.9153C171.558 92.083 171.638 92.2873 171.653 92.5013C171.653 92.6032 171.678 92.6584 171.741 92.6584C171.805 92.6584 171.834 92.5862 171.834 92.3951C171.834 91.7073 171.872 91.4483 171.872 91.3336C171.872 91.219 171.826 91.2487 171.75 91.2317C171.371 91.1251 170.979 91.0737 170.586 91.0788C169.368 91.0788 168.562 91.7752 168.562 92.7476C168.562 93.4609 168.895 94.0766 169.857 94.8367L170.278 95.1509C171.004 95.7241 171.122 96.1317 171.122 96.5648C171.113 96.7093 171.076 96.8506 171.012 96.9802C170.948 97.1097 170.858 97.2248 170.749 97.3185C170.639 97.4122 170.512 97.4825 170.374 97.5252C170.237 97.5679 170.092 97.5821 169.949 97.5669C169.669 97.591 169.389 97.5154 169.158 97.3533C168.927 97.1912 168.759 96.9528 168.684 96.6795C168.641 96.533 168.614 96.382 168.604 96.2294C168.604 96.1572 168.604 96.0765 168.52 96.0765C168.436 96.0765 168.423 96.1742 168.415 96.3058C168.406 96.4374 168.368 96.9767 168.368 97.4607C168.368 97.6561 168.398 97.6985 168.537 97.7622C168.938 97.9279 169.369 98.0061 169.802 97.9915" fill="#8C704E"/>
<path fill-rule="evenodd" clip-rule="evenodd" d="M134.049 13.3667C135.634 13.3667 137.183 13.8399 138.5 14.7264C139.818 15.6128 140.845 16.8728 141.451 18.347C142.057 19.8211 142.216 21.4433 141.907 23.0082C141.598 24.5732 140.835 26.0107 139.714 27.139C138.594 28.2672 137.166 29.0356 135.612 29.3469C134.058 29.6582 132.447 29.4984 130.983 28.8878C129.519 28.2772 128.268 27.2431 127.388 25.9164C126.507 24.5897 126.037 23.0299 126.037 21.4343C126.037 19.2947 126.881 17.2426 128.384 15.7297C129.886 14.2167 131.924 13.3667 134.049 13.3667ZM111.557 0C126.546 0.00104399 141.118 4.9717 153.022 14.1442C164.926 23.3167 173.499 36.1808 177.418 50.7494H45.6924C49.6127 36.1808 58.1871 23.317 70.0914 14.1447C81.9957 4.9723 96.5677 0.00153842 111.557 0Z" fill="#8C704E"/>
<path fill-rule="evenodd" clip-rule="evenodd" d="M95.8539 8.2757C95.6768 7.64727 95.8539 7.74918 95.3817 7.401C95.0064 9.01027 95.213 13.8763 95.213 15.8423C95.213 16.9293 97.9285 15.6427 98.5653 15.337L95.8539 8.2757Z" fill="white"/>
<path fill-rule="evenodd" clip-rule="evenodd" d="M87.3658 35.7182C87.72 32.16 87.5935 34.1471 88.0827 31.7099C88.6604 28.8225 89.0567 28.2366 89.6007 26.1517L90.9121 22.7548C90.9121 22.3939 90.8488 22.5298 90.7434 22.0797C90.1362 22.5043 90.7097 22.2156 89.9001 23.1073L86.8219 27.778C86.7207 27.9691 86.746 27.9648 86.6616 28.1219L85.4557 30.6229L82.875 40.0195C82.601 40.8687 82.7949 40.4993 82.875 41.3443C88.4369 41.3443 87.0664 40.9876 87.0664 38.9834C87.0664 36.6523 87.2351 37.2128 87.3785 35.7522" fill="white"/>
<path fill-rule="evenodd" clip-rule="evenodd" d="M99.2354 17.6978C98.0242 17.4123 96.7888 17.2431 95.5458 17.1925C94.947 18.4663 95.1242 25.0223 95.3814 26.139C97.047 26.5297 96.9247 26.0371 98.9318 25.4936C100.252 25.137 100.42 25.12 101.415 24.4491C101.251 23.74 100.994 23.5999 100.812 22.6912L99.2354 17.6978Z" fill="white"/>
<path fill-rule="evenodd" clip-rule="evenodd" d="M103.09 33.5654C103.031 33.3064 102.335 27.4892 101.858 27.0391C101.479 26.674 99.3283 26.9882 98.3964 26.9797C98.0717 26.9797 95.5459 26.7759 95.5459 27.9945V34.7458C95.5459 35.595 96.5579 35.3275 97.1103 35.1704C97.7595 34.9293 98.4303 34.7516 99.1132 34.6397C100.855 34.4019 101.922 34.3679 103.09 33.5824" fill="white"/>
<path fill-rule="evenodd" clip-rule="evenodd" d="M103.428 36.6013C103.428 35.595 100.936 35.9262 99.9066 35.9262H95.8839C95.7776 36.1968 95.7205 36.4845 95.7152 36.7754C95.7152 44.3844 95.0532 42.2656 100.438 41.6966C102.871 41.4419 103.428 42.0151 103.428 36.6013Z" fill="white"/>
<path fill-rule="evenodd" clip-rule="evenodd" d="M108.197 47.9852C107.417 47.8026 104.098 47.6327 102.913 47.5308L100.227 47.2379C99.2784 47.1062 99.329 47.31 97.3682 46.9746C96.4779 46.8037 95.5755 46.7043 94.6695 46.6774C93.7578 46.6663 92.849 46.5725 91.954 46.3971C90.7606 46.0617 82.2092 45.8409 80.5141 46.1721C79.8183 46.308 79.9406 46.9619 79.8647 47.7431C79.7972 48.4055 79.7129 49.2505 79.7129 49.8195C80.6785 50.0445 85.4392 49.7643 86.8813 49.6878C88.0577 49.6242 89.4492 49.6878 90.651 49.6878C92.0973 49.6878 93.025 49.4246 94.29 49.4203C99.1814 49.4203 100.704 49.5732 105.114 48.7962L107.455 48.2739C108.015 48.1847 107.842 48.3121 108.209 47.9852" fill="#8C704E"/>
<path fill-rule="evenodd" clip-rule="evenodd" d="M134.049 13.3667C135.633 13.3667 137.182 13.8399 138.5 14.7263C139.817 15.6128 140.844 16.8728 141.451 18.347C142.057 19.8211 142.216 21.4432 141.907 23.0082C141.597 24.5732 140.834 26.0107 139.714 27.1389C138.594 28.2672 137.166 29.0356 135.612 29.3469C134.058 29.6582 132.447 29.4984 130.983 28.8878C129.519 28.2772 128.268 27.2431 127.387 25.9164C126.507 24.5897 126.037 23.0299 126.037 21.4343C126.037 19.2946 126.881 17.2426 128.384 15.7296C129.886 14.2167 131.924 13.3667 134.049 13.3667Z" fill="#FEFEFE"/>
<path d="M129.739 50.7494H113.21C113.409 50.584 113.568 50.3748 113.674 50.138C113.003 49.6836 112.986 49.5987 111.856 49.6115C110.967 49.6115 110.672 49.4798 109.773 49.4841C107.96 49.4841 113.594 48.9873 112.641 47.5478C112.417 46.9576 112.67 47.4884 111.114 46.86C108.922 46.1636 111.009 46.2188 108.74 45.7475L104.671 45.3908C104.022 45.2932 103.326 45.1573 102.736 45.1106C100.286 44.9195 96.0522 45.4503 94.0282 44.9747C93.8426 44.4677 93.8426 43.9107 94.0282 43.4037L100.53 43.531C102.419 43.531 104.528 43.4037 106.012 43.3527C108.964 43.2466 107.248 40.3465 107.374 39.8879C107.501 39.4293 109.385 39.6034 110.022 39.6034H111.494L115.892 40.1427C118.211 40.287 117.119 41.8411 115.382 41.9685C114.538 42.0237 114.074 41.943 113.695 42.185C115.981 43.9059 118.388 45.4583 120.897 46.8303C122.529 47.0553 123.849 46.9619 125.219 47.17C126.712 47.3908 125.974 47.5266 126.758 48.1041C126.559 48.445 126.302 48.7482 125.999 49C125.879 49.0651 125.75 49.1109 125.615 49.1359C126.968 49.7219 128.348 50.2597 129.756 50.7494H129.739ZM176.347 47.1105C176.743 48.3079 177.106 49.5209 177.434 50.7494H168.073C169.414 50.288 170.731 49.7771 172.024 49.2166C170.253 49.0552 167.104 49.4119 165.67 49.1953C163.874 48.9236 160.534 49.0043 159.016 48.2697C159.661 47.3823 162.638 47.395 163.928 47.2549L166.585 46.9449C167.462 46.9449 167.951 47.119 168.55 47.102C169.149 47.085 169.781 46.9407 170.705 46.9407C171.708 46.9407 171.97 47.0893 172.834 47.1148L176.347 47.1105ZM175.351 44.2784C175.633 45.0172 175.898 45.7617 176.148 46.5118C174.704 46.358 173.246 46.3765 171.805 46.567C170.721 46.7199 169.381 46.4269 168.407 46.4566C167.432 46.4863 166.045 46.7156 164.987 46.567C160.956 46.0108 154.209 46.7793 150.127 46.7793C147.268 46.7793 143.92 46.86 141.196 46.4948C140.45 46.3929 139.387 46.3547 138.755 46.2995C137.911 46.2273 137.047 46.2995 136.963 45.2889C137.97 45.204 139.13 44.9492 140.252 44.9535C140.817 44.9647 141.382 44.9178 141.938 44.8134C142.782 44.6563 142.997 44.7582 143.064 43.9642C141.964 43.7094 140.467 43.7985 139.113 43.7985C137.528 43.7985 136.414 43.6245 135.002 43.633C133.588 43.6978 132.172 43.6836 130.76 43.5905C129.347 43.4037 127.977 43.4589 127.429 42.6394C128.272 42.2402 133.754 42.2148 135.508 42.1596C136.351 42.1383 136.14 42.2784 136.482 41.8114C133.568 41.8114 130.338 41.4632 127.429 41.4802C126.269 41.4802 121.361 41.4462 120.648 41.183C120.315 41.0886 120.027 40.8787 119.833 40.5903C119.639 40.3019 119.553 39.9538 119.59 39.6077H164.586C164.114 40.1681 163.439 40.2276 161.318 40.2276L157.877 40.4144C156.296 40.6564 158.076 40.7329 154.559 40.7159L149.79 40.8857C148.748 40.8857 148.318 41.0513 147.487 41.0513V41.7137L161.478 42.2105C162.52 42.2105 162.967 42.3379 163.781 42.3804C165.362 42.461 165.442 42.0576 165.919 42.7115C164.877 42.7965 165.24 43.2168 163.785 43.2126C161.82 43.2126 162.495 43.4504 161.474 43.5353C159.91 43.6669 157.679 43.5353 156.043 43.5353L145.501 43.8665C145.923 44.4482 147.517 44.1977 148.959 44.1977L160.576 44.2911C162.031 44.0703 170.135 44.2911 175.335 44.2784H175.351ZM49.3818 40.4569L52.8058 40.3337C56.3225 40.3337 54.5473 40.2743 56.1285 40.0323L59.5651 39.8454C61.2096 39.8454 61.9855 39.8115 62.4704 39.5312L49.8204 39.4675C49.6643 39.7775 49.5125 40.1087 49.3649 40.4399L49.3818 40.4569ZM48.1632 43.3485L54.2943 43.1574C55.9261 43.1574 58.161 43.2848 59.7212 43.1574C60.7458 43.0725 60.0669 42.8304 62.0319 42.8347C63.4867 42.8347 63.124 42.4101 64.1698 42.3336C63.6933 41.6797 63.6132 42.0831 62.0277 42.0024C61.2181 41.96 60.7627 41.8284 59.7254 41.8326L48.9433 41.4505C48.6565 42.0576 48.3993 42.6946 48.1463 43.3315L48.1632 43.3485ZM47.0373 46.4057H48.3614C52.4389 46.4057 59.1899 45.6371 63.2168 46.1934C64.2794 46.342 65.7046 46.1084 66.6365 46.083C67.5684 46.0575 68.9515 46.3462 70.0394 46.1934C72.4218 45.8664 73.8344 46.1339 75.5928 46.2188C75.2766 46.3929 74.9603 46.567 74.6398 46.7369H71.043C70.1996 46.7114 69.9171 46.5628 68.9136 46.5628C67.9943 46.5628 67.3829 46.7071 66.763 46.7241C66.1432 46.7411 65.6709 46.567 64.7981 46.567L62.1415 46.877C60.8512 47.0171 57.87 47.0044 57.2249 47.8918C58.7429 48.6264 62.0825 48.5457 63.8788 48.8174C65.3167 49.0382 68.4624 48.6773 70.2334 48.8387C68.6957 49.5011 67.1243 50.0983 65.5191 50.6305C64.9035 50.6815 64.2541 50.7282 63.5963 50.7664H77.8066C77.7686 50.0998 78.1228 49.31 78.2282 48.7368L78.6921 46.7114C79.2571 44.703 78.827 45.1233 82.0654 45.1233H89.47C91.0639 45.1233 91.806 45.2082 91.3379 43.5013C91.203 43.013 91.3843 43.1574 90.8952 43.03C89.5205 42.6776 84.5702 42.8389 83.3684 43.1701C81.8546 43.5947 81.26 43.3018 81.0703 42.7455C80.6739 43.0258 80.2818 43.3018 79.8812 43.5693H79.6113C78.999 43.5543 78.3869 43.6056 77.7855 43.7221C75.8331 44.1467 60.8344 43.5947 58.8103 43.9005L47.9566 43.8113C47.6319 44.6605 47.3198 45.5182 47.0078 46.3887L47.0373 46.4057Z" fill="white"/>
</g>
<defs>
<clipPath id="clip0_1099_22351">
<rect width="223" height="98" fill="white"/>
</clipPath>
</defs>
</svg>
