<svg width="245" height="54" viewBox="0 0 245 54" fill="none" xmlns="http://www.w3.org/2000/svg">
<path d="M201.864 43.9387H240.117V4.97492H201.864V43.9387ZM220.227 35.5865H218.263V40.1796H212.889V35.5865H204.749V30.2867L212.127 8.73475H217.301L210.283 30.2867H212.889V26.4881H218.263V30.2867H220.227V35.5865ZM237.232 35.5865H235.267V40.1796H229.893V35.5865H221.753V30.2867L229.132 8.73475H234.304L227.287 30.2867H229.893V26.4881H235.267V30.2867H237.232V35.5865ZM245 0.000793457V48.9128H134.574L134.931 48.1642C134.999 48.0171 135.066 47.814 135.132 47.5626L135.213 47.255H243.372V1.65856H1.6275V47.255H112.534L113.374 48.9128H0V0.000793457H245ZM118.261 47.255H129.962L129.234 47.9681C128.899 48.297 128.489 48.5974 128.017 48.8622L127.925 48.9128H120.256L120.164 48.8606C119.737 48.6195 119.34 48.3191 118.983 47.9665L118.261 47.255ZM69.8344 16.8292L70.3241 17.1075L68.4428 20.2041L68.0206 20.0175C67.551 19.8119 67.1645 19.7107 66.8719 19.7107C66.1331 19.7107 65.4431 20.0159 64.7408 20.6475C64.0283 21.2918 63.4672 22.3267 63.083 23.7315C62.7749 24.8351 62.6204 27.1593 62.6204 30.6258V38.0649H58.9238V19.936C58.9238 16.6893 62.6204 16.592 62.6204 16.592V18.5178C63.1575 17.9043 63.7093 17.4071 64.2751 17.03C65.232 16.3928 66.2464 16.0679 67.2965 16.0679C68.092 16.0679 68.9504 16.3248 69.8344 16.8292ZM146.021 16.592H150.1V19.9519H146.021V38.0649H142.374V19.9519H138.482V16.592H142.374V9.02568C142.374 9.02568 146.021 9.26996 146.021 12.1531V16.592ZM83.5381 16.8292L84.024 17.1075L82.1473 20.2041L81.7259 20.0175C81.2502 19.8119 80.8652 19.7107 80.5734 19.7107C79.8415 19.7107 79.1446 20.0159 78.4461 20.6475C77.729 21.2918 77.1748 22.3267 76.7829 23.7315C76.4786 24.8351 76.3273 27.1593 76.3273 30.6258V38.0649H72.6276V19.936C72.6276 16.6893 76.3273 16.592 76.3273 16.592V18.5178C76.8566 17.9043 77.41 17.4071 77.9843 17.03C78.9358 16.3928 79.9502 16.0679 80.994 16.0679C81.7965 16.0679 82.6487 16.3248 83.5381 16.8292ZM195.4 27.0289V38.0649H191.757V27.7965C191.757 25.5047 191.667 23.9655 191.484 23.2247C191.217 21.9986 190.7 21.0752 189.954 20.4776C189.211 19.8815 188.209 19.574 186.976 19.574C185.536 19.574 184.276 20.0523 183.137 21.0215C181.996 21.9915 181.236 23.2089 180.873 24.6367C180.638 25.594 180.522 27.4162 180.522 30.0464V38.0649H176.876V19.936C176.876 16.5304 180.522 16.592 180.522 16.592V19.2902C181.338 18.3992 182.22 17.6925 183.153 17.1754C184.481 16.4386 185.938 16.0679 187.489 16.0679C189.084 16.0679 190.523 16.4877 191.766 17.3217C193.007 18.151 193.938 19.287 194.53 20.6863C195.113 22.0808 195.4 24.1552 195.4 27.0289ZM29.6497 30.3325L32.6137 32.6275L32.2815 33.0599C30.8814 34.8687 29.1235 36.2854 27.0366 37.2728C24.9597 38.257 22.6081 38.7566 20.057 38.7566C15.1799 38.7566 11.2792 37.0767 8.45028 33.7556C6.0816 30.9555 4.88406 27.5348 4.88406 23.5797C4.88406 19.4151 6.33383 15.86 9.20699 13.0101C12.077 10.1688 15.7139 8.72527 20.0159 8.72527C22.612 8.72527 24.99 9.25888 27.094 10.3087C29.1957 11.3602 30.9528 12.8575 32.2963 14.7595L32.6013 15.188L29.6226 17.509L29.302 17.0766C28.1836 15.592 26.8216 14.4504 25.2616 13.6844C23.6931 12.9231 21.9375 12.5334 20.057 12.5334C18.0019 12.5334 16.0717 13.0409 14.3216 14.0465C12.5753 15.0473 11.2055 16.4086 10.2501 18.0941C9.29159 19.7811 8.80031 21.7132 8.80031 23.8271C8.80031 27.017 9.88841 29.7167 12.0328 31.8472C14.1811 33.9809 16.9355 35.0648 20.2184 35.0648C23.8289 35.0648 26.8875 33.6015 29.3214 30.7191L29.6497 30.3325ZM52.6443 16.592V19.355C51.8239 18.449 50.9144 17.7296 49.9287 17.1992C48.5263 16.4473 46.9391 16.0679 45.22 16.0679C42.2398 16.0679 39.6538 17.1755 37.5358 19.3621C35.4193 21.5401 34.3506 24.2034 34.3506 27.2708C34.3506 30.4005 35.4123 33.101 37.5055 35.2861C39.6057 37.4807 42.1792 38.5882 45.1463 38.5882C46.8142 38.5882 48.3765 38.2301 49.7859 37.5194C50.8142 37.0064 51.7626 36.3036 52.6443 35.4205V38.0649H56.2509V19.936C56.2509 16.7699 52.6443 16.592 52.6443 16.592ZM51.8612 31.3397C51.2295 32.4797 50.3245 33.3991 49.1565 34.0679C47.976 34.743 46.7218 35.0853 45.4094 35.0853C44.1149 35.0853 42.8917 34.7406 41.7632 34.0631C40.6309 33.3848 39.7166 32.4243 39.0453 31.2077C38.3732 29.9863 38.0294 28.6898 38.0294 27.3569C38.0294 26.0122 38.3709 24.7173 39.0368 23.5093C39.698 22.303 40.6092 21.3543 41.7376 20.6863C42.8529 20.023 44.104 19.6862 45.4288 19.6862C47.5259 19.6862 49.2473 20.4112 50.6769 21.8998C52.1142 23.3939 52.8081 25.2011 52.8081 27.4328C52.8081 28.8764 52.4961 30.1895 51.8612 31.3397ZM162.694 16.0679C159.457 16.0679 156.735 17.2822 154.618 19.6775C152.692 21.8421 151.722 24.4351 151.722 27.3822C151.722 30.3634 152.75 32.9991 154.778 35.2213C156.825 37.457 159.484 38.5882 162.694 38.5882C165.893 38.5882 168.552 37.457 170.595 35.2213C172.632 32.9991 173.657 30.361 173.657 27.3822C173.657 24.4272 172.681 21.827 170.757 19.6554C168.636 17.2766 165.922 16.0679 162.694 16.0679ZM168.994 31.2954C168.344 32.4742 167.452 33.3991 166.357 34.041C165.248 34.6806 164.015 35.0094 162.685 35.0094C161.359 35.0094 160.129 34.6806 159.018 34.041C157.921 33.3991 157.03 32.4742 156.379 31.2954C155.73 30.1073 155.395 28.8115 155.395 27.4423C155.395 25.2833 156.102 23.4967 157.553 21.9749C158.998 20.4626 160.679 19.7258 162.685 19.7258C164.681 19.7258 166.364 20.4626 167.812 21.9749C169.272 23.4967 169.973 25.2833 169.973 27.4423C169.973 28.8115 169.648 30.1073 168.994 31.2954ZM135.033 20.2989C135.033 16.8292 131.396 16.592 131.396 16.592V19.2846C130.433 18.3051 129.435 17.5652 128.413 17.0711C127.049 16.4047 125.56 16.0679 123.997 16.0679C122.104 16.0679 120.28 16.5723 118.584 17.5652C116.883 18.5565 115.529 19.9266 114.568 21.6334C113.605 23.3425 113.115 25.2051 113.115 27.1814C113.115 29.1499 113.585 30.9895 114.512 32.6394C115.438 34.2908 116.771 35.6229 118.466 36.6008C120.161 37.5716 121.997 38.0649 123.916 38.0649C125.56 38.0649 127.138 37.7068 128.601 37.0095C129.638 36.5139 130.577 35.8593 131.396 35.0553V42.6461C131.396 44.7932 131.157 46.3514 130.68 47.2748C130.213 48.1839 129.428 48.9539 128.314 49.565C127.189 50.1808 125.778 50.4923 124.121 50.4923C122.435 50.4923 121.014 50.1888 119.897 49.5832C119.352 49.2883 118.548 48.3855 118.337 48.0843C118.015 47.6219 117.827 47.255 117.827 47.255H113.348C113.348 47.255 113.53 47.8416 113.711 48.1721C114.117 48.9128 115.036 50.222 115.914 51.1169C116.801 52.0205 118.008 52.7114 119.436 53.2276C120.864 53.7391 122.473 54 124.238 54C126.673 54 128.786 53.4672 130.53 52.4094C132.091 51.4607 133.233 50.0536 134.255 47.8432C135.011 46.1949 135.056 38.9511 135.038 34.305C135.038 34.305 135.033 23.1378 135.033 20.2989ZM129.517 32.4852C128.178 33.8442 126.426 34.5019 124.185 34.5019C121.969 34.5019 120.218 33.8323 118.841 32.4654C117.47 31.0986 116.798 29.4116 116.798 27.3111C116.798 25.9411 117.132 24.6477 117.795 23.4682C118.448 22.2935 119.374 21.3598 120.532 20.6942C121.696 20.0254 122.969 19.6862 124.334 19.6862C125.634 19.6862 126.861 20.0175 127.986 20.6641C129.107 21.3116 129.988 22.2026 130.598 23.3149C131.215 24.4319 131.52 25.726 131.52 27.1601C131.52 29.3934 130.87 31.1334 129.517 32.4852ZM89.7486 8.99881C90.2631 9.52927 90.5223 10.1751 90.5223 10.9167C90.5223 11.6527 90.2631 12.2907 89.7486 12.8227C89.2293 13.3492 88.5976 13.6188 87.8688 13.6188C87.1501 13.6188 86.5184 13.3492 86.0054 12.8227C85.4916 12.2907 85.2324 11.6527 85.2324 10.9167C85.2324 10.1751 85.4916 9.52926 86.0054 9.00117C86.523 8.47388 87.1501 8.20194 87.8688 8.20194C88.5976 8.20194 89.2293 8.47388 89.7486 8.99881ZM86.0512 16.5928H89.6973V38.0649H86.0512V16.5928ZM109.688 20.6863C110.272 22.0808 110.558 24.1552 110.558 27.0289V38.0649H106.916V27.7965C106.916 25.5047 106.825 23.9655 106.643 23.2247C106.377 21.9986 105.859 21.0752 105.113 20.4776C104.37 19.8815 103.368 19.574 102.133 19.574C100.693 19.574 99.436 20.0523 98.2943 21.0215C97.155 21.9915 96.3967 23.2089 96.0327 24.6367C95.7976 25.594 95.6796 27.4162 95.6796 30.0464V38.0649H92.035V19.936C92.035 16.5304 95.6796 16.592 95.6796 16.592V19.2902C96.4984 18.3992 97.3769 17.6925 98.3091 17.1754C99.6385 16.4386 101.096 16.0679 102.649 16.0679C104.242 16.0679 105.68 16.4877 106.923 17.3217C108.166 18.151 109.096 19.287 109.688 20.6863ZM170.595 35.2205C172.632 32.9983 173.657 30.3602 173.657 27.3822C173.657 24.4264 172.682 21.8263 170.757 19.6554C168.636 17.2766 165.922 16.0671 162.694 16.0671C159.457 16.0671 156.735 17.2814 154.618 19.6767C152.692 21.8413 151.722 24.4343 151.722 27.3822C151.722 30.3626 152.75 32.9983 154.779 35.2205C156.825 37.4562 159.484 38.5875 162.694 38.5875C165.894 38.5875 168.553 37.4562 170.595 35.2205ZM159.018 34.0402C157.921 33.3983 157.03 32.4741 156.379 31.2946C155.73 30.1065 155.395 28.8108 155.395 27.4415C155.395 25.2825 156.102 23.4959 157.553 21.9741C158.999 20.4618 160.679 19.725 162.686 19.725C164.681 19.725 166.365 20.4618 167.813 21.9741C169.272 23.4959 169.973 25.2825 169.973 27.4415C169.973 28.8108 169.648 30.1065 168.994 31.2946C168.344 32.4741 167.452 33.3983 166.357 34.0402C165.248 34.6806 164.016 35.0086 162.686 35.0086C161.359 35.0086 160.129 34.6806 159.018 34.0402ZM118.984 47.9665L118.261 47.2542H129.962L129.234 47.9673C128.899 48.2962 128.489 48.5966 128.017 48.8614L127.926 48.912H120.256L120.164 48.8606C119.737 48.6187 119.34 48.3183 118.984 47.9665ZM146.021 12.1523V16.592H150.1V19.9503H146.021V38.0641H142.374V19.9503H138.482V16.592H142.374V9.02489C142.374 9.02489 146.021 9.26916 146.021 12.1523ZM180.522 16.592V19.2902C181.338 18.3984 182.22 17.6917 183.153 17.1747C184.481 16.4379 185.938 16.0671 187.489 16.0671C189.084 16.0671 190.522 16.4869 191.766 17.3209C193.007 18.1502 193.939 19.2862 194.53 20.6855C195.114 22.08 195.401 24.1552 195.401 27.0281V38.0641H191.757V27.7965C191.757 25.5047 191.667 23.9647 191.484 23.2239C191.217 21.9978 190.7 21.0752 189.954 20.4776C189.211 19.8807 188.209 19.574 186.976 19.574C185.536 19.574 184.277 20.0523 183.138 21.0215C181.996 21.9907 181.236 23.2081 180.873 24.6359C180.638 25.5932 180.522 27.4154 180.522 30.0456V38.0641H176.876V19.9352C176.876 16.5296 180.522 16.592 180.522 16.592ZM135.038 34.3043C135.038 34.3043 135.034 23.1378 135.034 20.2981C135.034 16.8284 131.396 16.592 131.396 16.592V19.2839C130.433 18.3044 129.436 17.5644 128.414 17.0703C127.05 16.4039 125.561 16.0671 123.997 16.0671C122.104 16.0671 120.28 16.5723 118.584 17.5644C116.883 18.5565 115.529 19.9258 114.568 21.6326C113.605 23.3417 113.115 25.2043 113.115 27.1806C113.115 29.1491 113.585 30.9887 114.512 32.6386C115.439 34.29 116.771 35.6221 118.467 36.6C120.161 37.5708 121.997 38.0641 123.917 38.0641C125.561 38.0641 127.138 37.706 128.601 37.0087C129.639 36.5131 130.577 35.8585 131.396 35.0553V42.6453C131.396 44.7933 131.158 46.3506 130.681 47.2748C130.213 48.1831 129.428 48.9539 128.314 49.5642C127.189 50.1808 125.778 50.4915 124.122 50.4915C122.435 50.4915 121.014 50.1872 119.897 49.5824C119.352 49.2875 118.548 48.3847 118.337 48.0835C118.015 47.6211 117.827 47.2542 117.827 47.2542H113.348C113.348 47.2542 113.53 47.8408 113.711 48.1713C114.117 48.912 115.036 50.222 115.914 51.1161C116.801 52.0197 118.008 52.7106 119.436 53.2268C120.864 53.7383 122.473 53.9992 124.238 53.9992C126.672 53.9992 128.786 53.4672 130.53 52.4078C132.091 51.46 133.233 50.052 134.255 47.8424C135.011 46.1941 135.056 38.9511 135.038 34.3043ZM129.517 32.4844C128.178 33.8434 126.426 34.5003 124.185 34.5003C121.97 34.5003 120.219 33.8315 118.842 32.4646C117.47 31.0978 116.798 29.4108 116.798 27.3103C116.798 25.9403 117.132 24.6469 117.795 23.4682C118.448 22.2927 119.374 21.359 120.532 20.6934C121.696 20.0254 122.97 19.6854 124.334 19.6854C125.634 19.6854 126.861 20.0167 127.986 20.6634C129.107 21.3108 129.988 22.2018 130.597 23.3133C131.215 24.4319 131.521 25.7252 131.521 27.1601C131.521 29.3926 130.87 31.1326 129.517 32.4844ZM245 -3.8147e-06V48.912H134.574L134.931 48.1634C134.999 48.0163 135.066 47.8139 135.133 47.5618L135.213 47.2542H243.372V1.65776H1.62828V47.2542H112.534L113.375 48.912H0V-3.8147e-06H245ZM56.2517 38.0641V19.9352C56.2517 16.7683 52.6443 16.592 52.6443 16.592V19.3542C51.8239 18.449 50.9136 17.7288 49.9279 17.1984C48.527 16.4466 46.9383 16.0671 45.22 16.0671C42.2398 16.0671 39.6546 17.1747 37.5358 19.3621C35.4193 21.5393 34.3506 24.2026 34.3506 27.27C34.3506 30.3997 35.4123 33.1002 37.5063 35.2861C39.6057 37.4807 42.1792 38.5875 45.1463 38.5875C46.8142 38.5875 48.3765 38.2293 49.7859 37.5186C50.815 37.0056 51.7626 36.3028 52.6443 35.4197V38.0641H56.2517ZM51.862 31.3389C51.2295 32.4789 50.3245 33.3983 49.1565 34.0679C47.9768 34.7422 46.7218 35.0845 45.4094 35.0845C44.1149 35.0845 42.8917 34.7399 41.7632 34.0624C40.6317 33.3841 39.7166 32.4236 39.0445 31.2069C38.3724 29.9855 38.0294 28.689 38.0294 27.3561C38.0294 26.0114 38.3701 24.7165 39.0368 23.5085C39.698 22.3022 40.6092 21.3543 41.7384 20.6855C42.8529 20.0222 44.1048 19.6854 45.4296 19.6854C47.5266 19.6854 49.2473 20.4112 50.6769 21.8998C52.115 23.3923 52.8088 25.2003 52.8088 27.432C52.8088 28.8756 52.4961 30.1887 51.862 31.3389ZM76.3273 16.592V18.517C76.8566 17.9036 77.41 17.4063 77.9851 17.0292C78.9358 16.392 79.9502 16.0671 80.9948 16.0671C81.7965 16.0671 82.6487 16.324 83.5381 16.8284L84.024 17.1075L82.1473 20.2033L81.7267 20.0167C81.2509 19.8103 80.8652 19.71 80.5742 19.71C79.8423 19.71 79.1446 20.0151 78.4461 20.6468C77.729 21.2911 77.1748 22.3259 76.7829 23.7315C76.4794 24.8343 76.3273 27.1585 76.3273 30.625V38.0641H72.6276V19.9352C72.6276 16.6885 76.3273 16.592 76.3273 16.592ZM62.6204 16.592V18.517C63.1575 17.9036 63.7101 17.4063 64.2751 17.0292C65.232 16.392 66.2464 16.0671 67.2965 16.0671C68.0928 16.0671 68.9504 16.324 69.8351 16.8284L70.3241 17.1075L68.4428 20.2033L68.0206 20.0167C67.551 19.8103 67.1645 19.71 66.8719 19.71C66.1331 19.71 65.4431 20.0151 64.7408 20.6468C64.0283 21.2911 63.4679 22.3259 63.083 23.7315C62.7749 24.8343 62.6204 27.1585 62.6204 30.625V38.0641H58.9246V19.9352C58.9246 16.6885 62.6204 16.592 62.6204 16.592ZM10.2501 18.0933C9.29159 19.7811 8.80031 21.7124 8.80031 23.8263C8.80031 27.0162 9.88841 29.7151 12.0328 31.8465C14.1811 33.9801 16.9347 35.064 20.2184 35.064C23.8297 35.064 26.8883 33.6007 29.3214 30.7183L29.6497 30.3317L32.6137 32.6267L32.2807 33.0599C30.8822 34.8679 29.1243 36.2846 27.0366 37.272C24.9597 38.2554 22.6089 38.7566 20.057 38.7566C15.1799 38.7566 11.28 37.0751 8.45028 33.7548C6.0816 30.9547 4.88406 27.534 4.88406 23.5789C4.88406 19.4143 6.33383 15.8592 9.20776 13.0093C12.0778 10.168 15.7139 8.72448 20.0159 8.72448C22.6127 8.72448 24.99 9.25809 27.094 10.3087C29.1957 11.3594 30.9536 12.8567 32.297 14.7588L32.602 15.1872L29.6226 17.5083L29.302 17.0759C28.1836 15.5912 26.8208 14.4496 25.2624 13.6844C23.6939 12.9231 21.9375 12.5334 20.057 12.5334C18.0026 12.5334 16.0717 13.0409 14.3208 14.0457C12.5761 15.0465 11.2055 16.4078 10.2501 18.0933ZM89.7486 12.8219C89.2293 13.3484 88.5984 13.6172 87.8688 13.6172C87.1501 13.6172 86.5184 13.3484 86.0054 12.8219C85.4908 12.2899 85.2324 11.6519 85.2324 10.9159C85.2324 10.1743 85.4908 9.52846 86.0054 9.00038C86.523 8.47308 87.1501 8.20114 87.8688 8.20114C88.5984 8.20114 89.2293 8.47309 89.7486 8.99801C90.2639 9.52847 90.5223 10.1743 90.5223 10.9159C90.5223 11.6519 90.2639 12.2899 89.7486 12.8219ZM86.0512 16.592H89.6981V38.0641H86.0512V16.592ZM106.916 38.0641V27.7965C106.916 25.5047 106.825 23.9647 106.643 23.2239C106.377 21.9978 105.859 21.0752 105.113 20.4776C104.37 19.8807 103.368 19.574 102.133 19.574C100.693 19.574 99.436 20.0523 98.2951 21.0215C97.155 21.9907 96.3967 23.2081 96.0327 24.6359C95.7983 25.5932 95.6796 27.4154 95.6796 30.0456V38.0641H92.035V19.9352C92.035 16.5296 95.6796 16.592 95.6796 16.592V19.2902C96.4992 18.3984 97.3769 17.6917 98.3091 17.1747C99.6393 16.4379 101.096 16.0671 102.649 16.0671C104.242 16.0671 105.68 16.4869 106.923 17.3209C108.166 18.1502 109.096 19.2862 109.688 20.6855C110.273 22.08 110.559 24.1552 110.559 27.0281V38.0641H106.916Z" fill="#7D6240"/>
</svg>
