<svg width="243" height="50" viewBox="0 0 243 50" fill="none" xmlns="http://www.w3.org/2000/svg">
<path d="M2.00347 38.3891C1.79812 38.5538 1.53207 38.634 1.19757 38.634C0.788264 38.634 0.316152 38.4778 0.00846843 38.2118L0.258285 37.8965C0.51163 38.1407 0.827783 38.2604 1.21521 38.2604C1.62945 38.2604 1.90538 38.0823 1.90538 37.7234C1.90538 37.4082 1.66968 37.3061 1.1891 37.2132C1.09948 37.1956 1.03737 37.1823 1.00209 37.1773L0.827783 37.1372C0.672529 37.0978 0.632305 37.0619 0.507396 37.0042C0.387428 36.9374 0.347203 36.8663 0.275928 36.7643C0.208886 36.658 0.18701 36.5201 0.18701 36.3561C0.18701 36.0859 0.285102 35.8719 0.48058 35.7164C0.680998 35.5616 0.925875 35.4863 1.21521 35.4863C1.62945 35.4863 1.95902 35.5841 2.20813 35.7833L1.99007 36.1168C1.74025 35.9522 1.48267 35.8677 1.21521 35.8677C0.805906 35.8677 0.574437 36.05 0.574437 36.3561C0.574437 36.5067 0.640773 36.6179 0.769916 36.6847C0.899764 36.7509 1.12629 36.8177 1.44244 36.8797C1.64286 36.9198 1.74025 36.9423 1.91456 37.026C2.15449 37.1422 2.29281 37.342 2.31045 37.7284C2.31045 38.0077 2.20813 38.2252 2.00347 38.3891ZM7.47616 38.6073H5.51714V35.5173H7.47616V35.8769H5.90951V36.8754H7.24469V37.2175H5.90951V38.2477H7.47616V38.6073ZM12.5134 35.8586H11.632V38.6073H11.2396V35.8586H10.3582V35.5173H12.5134V35.8586ZM17.4342 35.8586H16.5528V38.6073H16.1612V35.8586H15.2798V35.5173H17.4342V35.8586ZM20.926 38.6073H20.5344V35.5173H20.926V38.6073ZM26.6944 38.6073H26.3112L25.1807 36.8663L24.7707 36.1921L24.7573 36.1964V38.6073H24.3656V35.5173H24.753L25.844 37.1999L26.2936 37.9409L26.307 37.9324V35.5173H26.6944V38.6073ZM31.6152 38.0697C31.7528 37.9233 31.8199 37.7502 31.8199 37.5503V37.3061H31.1657V36.9515H32.2115V37.5503C32.2115 37.8656 32.1092 38.1274 31.8996 38.3314C31.6957 38.5362 31.4325 38.6383 31.1078 38.6383C30.7465 38.6383 30.4755 38.5313 30.2885 38.3138C30.1015 38.0964 30.0077 37.8212 30.0077 37.4884V36.6355C30.0077 36.3118 30.1015 36.0408 30.2843 35.8234C30.4664 35.6059 30.7331 35.4948 31.0853 35.4948C31.5701 35.4948 31.9356 35.7432 32.1 36.1471L31.7352 36.3118C31.6286 36.0451 31.388 35.8719 31.081 35.8719C30.8538 35.8719 30.6851 35.9472 30.5694 36.1035C30.453 36.2541 30.3951 36.4363 30.3951 36.6538V37.4835C30.3951 37.7058 30.4572 37.8965 30.5821 38.0521C30.7063 38.2076 30.8848 38.2871 31.1121 38.2871C31.3125 38.2871 31.4769 38.216 31.6152 38.0697ZM41.1146 35.8586H40.2332V38.6073H39.8415V35.8586H38.9601V35.5173H41.1146V35.8586ZM46.3699 38.6073H45.9783V37.2175H44.6071V38.6073H44.2148V35.5173H44.6071V36.8754H45.9783V35.5173H46.3699V38.6073ZM51.7629 38.6073H49.8039V35.5173H51.7629V35.8769H50.1962V36.8754H51.5314V37.2175H50.1962V38.2477H51.7629V38.6073ZM60.3992 38.3891C60.1946 38.5538 59.9271 38.634 59.5933 38.634C59.1833 38.634 58.7119 38.4778 58.4049 38.2118L58.654 37.8965C58.9081 38.1407 59.2235 38.2604 59.6109 38.2604C60.0252 38.2604 60.3011 38.0823 60.3011 37.7234C60.3011 37.4082 60.0654 37.3061 59.5841 37.2132C59.4952 37.1956 59.4331 37.1823 59.3978 37.1773L59.2235 37.1372C59.0683 37.0978 59.028 37.0619 58.9031 37.0042C58.7825 36.9374 58.7429 36.8663 58.6717 36.7643C58.6053 36.658 58.5827 36.5201 58.5827 36.3561C58.5827 36.0859 58.6801 35.8719 58.8763 35.7164C59.0767 35.5616 59.3216 35.4863 59.6109 35.4863C60.0252 35.4863 60.3548 35.5841 60.6039 35.7833L60.3858 36.1168C60.136 35.9522 59.8784 35.8677 59.6109 35.8677C59.2016 35.8677 58.9702 36.05 58.9702 36.3561C58.9702 36.5067 59.0365 36.6179 59.1656 36.6847C59.2955 36.7509 59.522 36.8177 59.8382 36.8797C60.0386 36.9198 60.136 36.9423 60.3103 37.026C60.5502 37.1422 60.6885 37.342 60.7062 37.7284C60.7062 38.0077 60.6039 38.2252 60.3992 38.3891ZM65.7343 35.8586H64.8529V38.6073H64.4605V35.8586H63.5791V35.5173H65.7343V35.8586ZM70.9092 38.6073H70.4956L70.2465 37.8965H68.9593L68.7095 38.6073H68.3002L69.4357 35.5173H69.7744L70.9092 38.6073ZM70.135 37.5595L69.8365 36.6939L69.6093 36.0366H69.5959L69.3778 36.6756L69.0708 37.5595H70.135ZM76.36 38.6073H75.9775L74.8462 36.8663L74.4369 36.1921L74.4235 36.1964V38.6073H74.0312V35.5173H74.4193L75.5096 37.1999L75.9591 37.9409L75.9725 37.9324V35.5173H76.36V38.6073ZM79.7847 35.5173H80.8002C81.321 35.5173 81.6732 35.708 81.8552 36.0894C81.935 36.2541 81.9759 36.5602 81.9759 37.0085C81.9759 37.4933 81.9399 37.8212 81.8644 37.9944C81.6859 38.4025 81.3076 38.6073 80.724 38.6073H79.7847V35.5173ZM81.5835 36.7776C81.5835 36.1788 81.3168 35.8769 80.7819 35.8769H80.1771V38.2477H80.7819C81.3168 38.2477 81.5835 37.9542 81.5835 37.3688V36.7776ZM87.5904 38.6073H87.1762L86.9278 37.8965H85.6413L85.3915 38.6073H84.9815L86.1169 35.5173H86.4557L87.5904 38.6073ZM86.8163 37.5595L86.5178 36.6939L86.2905 36.0366H86.2771L86.0591 36.6756L85.7521 37.5595H86.8163ZM92.8323 38.6073H92.3962L91.8034 37.2484H91.1048V38.6073H90.7131V35.5173H91.977C92.2311 35.5173 92.4449 35.5968 92.6136 35.7523C92.7879 35.9078 92.8726 36.1126 92.8726 36.3603C92.8726 36.7734 92.6093 37.0845 92.2043 37.2083L92.8323 38.6073ZM91.9065 35.8586H91.1048V36.9064H91.8888C92.2403 36.9064 92.4802 36.703 92.4802 36.3603C92.4802 36.0275 92.2579 35.8586 91.9065 35.8586ZM96.1322 35.5173H97.1477C97.6685 35.5173 98.0206 35.708 98.2027 36.0894C98.2831 36.2541 98.3234 36.5602 98.3234 37.0085C98.3234 37.4933 98.2874 37.8212 98.2119 37.9944C98.0333 38.4025 97.6551 38.6073 97.0715 38.6073H96.1322V35.5173ZM97.931 36.7776C97.931 36.1788 97.6643 35.8769 97.1293 35.8769H96.5238V38.2477H97.1293C97.6643 38.2477 97.931 37.9542 97.931 37.3688V36.7776ZM107.182 35.8149C107.382 36.0275 107.485 36.3033 107.485 36.6355V37.4884C107.485 37.8388 107.382 38.114 107.182 38.323C106.982 38.5313 106.714 38.634 106.38 38.634C106.029 38.634 105.757 38.5271 105.565 38.3096C105.374 38.0922 105.281 37.817 105.281 37.4884V36.6355C105.281 36.3118 105.374 36.0408 105.565 35.8234C105.757 35.6059 106.029 35.4948 106.38 35.4948C106.714 35.4948 106.982 35.6017 107.182 35.8149ZM105.855 36.0943C105.73 36.2491 105.668 36.4321 105.668 36.6446V37.4659C105.668 37.6882 105.73 37.879 105.855 38.0345C105.979 38.19 106.158 38.2695 106.385 38.2695C106.598 38.2695 106.768 38.1942 106.897 38.0429C107.026 37.8923 107.093 37.7009 107.093 37.4659V36.6446C107.093 36.423 107.026 36.2358 106.897 36.0894C106.768 35.9388 106.598 35.8635 106.385 35.8635C106.158 35.8635 105.979 35.9388 105.855 36.0943ZM112.761 35.8769H111.195V36.898H112.53V37.24H111.195V38.6073H110.802V35.5173H112.761V35.8769ZM124.838 35.8149C125.038 36.0275 125.141 36.3033 125.141 36.6355V37.4884C125.141 37.715 125.096 37.9099 125.011 38.0823L125.417 38.4067L125.203 38.6734L124.807 38.3589C124.606 38.5404 124.352 38.634 124.036 38.634C123.685 38.634 123.413 38.5271 123.222 38.3096C123.03 38.0922 122.937 37.817 122.937 37.4884V36.6355C122.937 36.3118 123.03 36.0408 123.222 35.8234C123.413 35.6059 123.685 35.4948 124.036 35.4948C124.37 35.4948 124.637 35.6017 124.838 35.8149ZM123.511 36.1035C123.386 36.2583 123.324 36.4398 123.324 36.6538V37.4574C123.324 37.6791 123.386 37.8705 123.511 38.0253C123.635 38.1808 123.814 38.2604 124.04 38.2604C124.214 38.2604 124.366 38.2076 124.486 38.1055L124.054 37.7586L124.281 37.4968L124.682 37.8212C124.726 37.6974 124.748 37.5771 124.748 37.4574V36.6538C124.748 36.4321 124.682 36.2449 124.553 36.0985C124.424 35.9472 124.254 35.8719 124.04 35.8719C123.814 35.8719 123.635 35.9472 123.511 36.1035ZM130.306 35.5173H130.698V37.4884C130.698 37.8388 130.596 38.114 130.395 38.323C130.195 38.5313 129.927 38.634 129.594 38.634C129.242 38.634 128.97 38.5271 128.779 38.3096C128.588 38.0922 128.494 37.817 128.494 37.4884V35.5173H128.881V37.4574C128.881 37.6791 128.944 37.8705 129.068 38.0253C129.193 38.1808 129.371 38.2604 129.598 38.2604C130.039 38.2604 130.306 37.9676 130.306 37.4574V35.5173ZM136.451 38.6073H136.037L135.788 37.8965H134.501L134.252 38.6073H133.842L134.978 35.5173H135.316L136.451 38.6073ZM135.677 37.5595L135.378 36.6939L135.151 36.0366H135.137L134.919 36.6756L134.612 37.5595H135.677ZM141.621 38.6073H139.662V35.5173H140.055V38.2477H141.621V38.6073ZM145.318 38.6073H144.926V35.5173H145.318V38.6073ZM150.668 35.8586H149.786V38.6073H149.394V35.8586H148.513V35.5173H150.668V35.8586ZM155.762 35.5173L154.831 37.3814V38.6073H154.457V37.3814L153.527 35.5173H153.941L154.373 36.3737L154.649 36.9648L154.938 36.3477L155.357 35.5173H155.762ZM195.307 36.86C193.902 35.9705 192.394 35.2886 190.784 34.8755C188.406 34.2668 186.011 33.7207 183.401 33.0944C184.623 36.1717 186.552 38.5404 189.049 40.2561C191.921 42.2279 195.163 43.5129 198.681 44.071C200.159 44.3053 200.206 43.6748 199.912 42.6776C199.163 40.1344 197.519 38.2618 195.307 36.86ZM242.926 20.7835C242.872 19.7807 242.586 19.4063 241.506 19.8624C239.632 20.6519 237.69 21.2149 235.67 21.5942C229.634 22.7265 223.788 24.4295 218.619 27.9199C215.157 30.2577 212.869 33.3752 211.845 37.4729C211.249 39.8599 211.366 42.2913 211.017 44.6839C210.742 40.8191 210.553 36.981 212.537 33.3977C214.122 30.5364 216.412 28.4006 219.075 26.5815C223.272 23.7152 227.064 20.4429 229.251 15.7168C232.452 8.7978 229.369 2.03366 222.244 0.377811C219.727 -0.20768 217.171 -0.120422 214.698 0.693779C210.701 2.00832 208.382 6.01741 209.882 9.90545C210.941 12.6521 210.835 15.1812 210.071 18.1115C211.139 17.4113 211.601 16.6914 211.828 15.9159C212.481 13.683 213.401 11.5212 213.483 9.13136C213.576 6.45441 215.679 3.76903 217.912 3.2715C220.419 2.71275 223.169 4.15536 224.518 6.76335C225.529 8.71828 225.646 10.7696 225.079 12.8709C224.172 16.2305 221.864 18.5478 219.308 20.7286C214.351 24.958 209.757 29.6082 208.773 36.3498C207.661 43.9774 209.665 48.3264 217.202 49.6641C225.161 51.0758 231.685 47.9344 236.775 42.1822C242.116 36.1464 243.341 28.6265 242.926 20.7835ZM237.594 34.7587C234.111 43.6361 226.48 47.5825 217.544 47.8485C212.895 47.9872 212.413 47.2722 212.689 42.7184C212.989 37.7664 215.279 33.9297 219.21 30.9924C221.74 29.1015 224.571 27.8052 227.604 27.0072C231.636 25.9453 235.917 25.8552 239.909 23.5168C239.932 27.7102 238.963 31.2703 237.594 34.7587ZM194.013 31.701C190.924 30.0093 187.512 29.1859 184.095 28.4512C182.174 28.0382 180.222 27.77 178.219 26.8601C179.301 36.4581 183.556 42.2694 191.998 45.2708C194.418 46.1315 196.925 46.4636 199.461 46.3778C201.911 46.294 202.477 45.5671 202.127 43.2005C201.36 38.0218 198.575 34.1992 194.013 31.701ZM198.791 45.0322C194.84 44.42 190.651 42.7761 186.977 39.9416C184.594 38.1034 183.181 35.5539 182.091 32.8136C181.939 32.4287 181.625 31.9361 181.994 31.5842C182.37 31.2232 182.815 31.6419 183.231 31.7327C184.533 32.0163 185.831 32.3196 187.143 32.5518C190.439 33.1366 193.466 34.3653 196.278 36.171C198.635 37.6854 200.043 39.8993 200.918 42.4623C201.585 44.4158 201.158 45.0449 198.791 45.0322ZM215.79 42.6776C215.497 43.6748 215.543 44.3053 217.021 44.071C220.539 43.5129 223.782 42.2279 226.652 40.2561C229.15 38.5404 231.079 36.1717 232.301 33.0944C229.691 33.7207 227.297 34.2668 224.918 34.8755C223.309 35.2886 221.799 35.9705 220.396 36.86C218.183 38.2618 216.539 40.1344 215.79 42.6776ZM196.394 20.7286C193.838 18.5478 191.53 16.2305 190.623 12.8709C190.056 10.7696 190.173 8.71828 191.184 6.76335C192.533 4.15536 195.283 2.71275 197.79 3.2715C200.024 3.76903 202.126 6.45441 202.218 9.13136C202.301 11.5212 203.22 13.683 203.874 15.9159C204.1 16.6914 204.563 17.4113 205.63 18.1115C204.867 15.1812 204.76 12.6521 205.819 9.90545C207.319 6.01741 205.001 2.00832 201.004 0.693779C198.531 -0.120422 195.975 -0.20768 193.457 0.377811C186.334 2.03366 183.25 8.7978 186.452 15.7168C188.638 20.4429 192.43 23.7152 196.627 26.5815C199.29 28.4006 201.58 30.5364 203.165 33.3977C205.15 36.981 204.96 40.8191 204.685 44.6839C204.335 42.2913 204.452 39.8599 203.856 37.4729C202.833 33.3752 200.545 30.2577 197.082 27.9199C191.914 24.4295 186.068 22.7265 180.032 21.5942C178.663 21.3374 177.332 20.9939 176.031 20.5548C175.983 18.3501 175.721 16.7181 175.237 15.5852C174.69 14.3192 173.829 13.2917 172.682 12.5409C171.532 11.7865 170.204 11.4072 168.731 11.4072C167.297 11.4072 165.95 11.7429 164.724 12.4093C163.862 12.8765 163.046 13.5155 162.293 14.322V11.8815C162.293 11.8815 158.924 11.8252 158.924 14.9061V31.3055H162.293V24.0523C162.293 21.673 162.4 20.0249 162.617 19.1586C162.953 17.8666 163.655 16.7653 164.71 15.8885C165.762 15.0116 166.926 14.5788 168.257 14.5788C169.396 14.5788 170.321 14.8568 171.008 15.3966C171.697 15.937 172.175 16.7723 172.422 17.8814C172.591 18.5513 172.674 19.944 172.674 22.0164V22.5752C172.687 22.5752 172.7 22.5752 172.712 22.5752C172.574 29.7672 173.995 36.608 178.927 42.1822C184.016 47.9344 190.541 51.0758 198.499 49.6641C206.037 48.3264 208.042 43.9774 206.928 36.3498C205.945 29.6082 201.351 24.958 196.394 20.7286ZM198.158 47.8485C189.221 47.5825 181.591 43.6361 178.107 34.7587C176.739 31.2703 175.77 27.7102 175.793 23.5168C179.785 25.8552 184.066 25.9453 188.098 27.0072C191.13 27.8052 193.962 29.1015 196.492 30.9924C200.423 33.9297 202.714 37.7664 203.013 42.7184C203.289 47.2722 202.807 47.9872 198.158 47.8485ZM213.575 43.2005C213.225 45.5671 213.791 46.294 216.24 46.3778C218.777 46.4636 221.284 46.1315 223.704 45.2708C232.146 42.2694 236.401 36.4581 237.483 26.8601C235.481 27.77 233.529 28.0382 231.606 28.4512C228.191 29.1859 224.778 30.0093 221.689 31.701C217.127 34.1992 214.342 38.0218 213.575 43.2005ZM232.471 31.7327C232.887 31.6419 233.332 31.2232 233.708 31.5842C234.076 31.9361 233.764 32.4287 233.61 32.8136C232.521 35.5539 231.108 38.1034 228.726 39.9416C225.051 42.7761 220.862 44.42 216.912 45.0322C214.545 45.0449 214.118 44.4158 214.785 42.4623C215.66 39.8993 217.067 37.6854 219.425 36.171C222.236 34.3653 225.263 33.1366 228.56 32.5518C229.87 32.3196 231.169 32.0163 232.471 31.7327ZM75.0001 31.3055H78.3691V11.8822H75.0001V31.3055ZM57.6703 11.4072C56.6999 11.4072 55.7635 11.7013 54.8785 12.2777C54.3563 12.6183 53.8454 13.0687 53.35 13.6239V11.8815C53.35 11.8815 49.9337 11.9688 49.9337 14.9061V31.3055H53.35V24.5759C53.35 21.4401 53.4925 19.3381 53.7769 18.3402C54.1326 17.0686 54.6506 16.1327 55.309 15.5493C55.9576 14.9778 56.5955 14.702 57.2779 14.702C57.5482 14.702 57.9053 14.7935 58.34 14.98L58.7295 15.1489L60.4684 12.3481L60.016 12.0961C59.1988 11.6387 58.4056 11.4072 57.6703 11.4072ZM70.3277 11.4072C69.3623 11.4072 68.4251 11.7013 67.5458 12.2777C67.0151 12.6183 66.5042 13.0687 66.0151 13.6239V11.8815C66.0151 11.8815 62.596 11.9688 62.596 14.9061V31.3055H66.0151V24.5759C66.0151 21.4401 66.1549 19.3381 66.4364 18.3402C66.7978 17.0686 67.3108 16.1327 67.9728 15.5493C68.6185 14.9778 69.2621 14.702 69.9388 14.702C70.2077 14.702 70.5641 14.7935 71.0037 14.98L71.3926 15.1489L73.1272 12.3481L72.6776 12.0961C71.8562 11.6387 71.0694 11.4072 70.3277 11.4072ZM44.1315 11.8815V14.3804C43.3736 13.562 42.5331 12.9103 41.622 12.4304C40.3264 11.7506 38.8599 11.4072 37.2714 11.4072C34.5178 11.4072 32.1283 12.4093 30.1714 14.3867C28.2152 16.3578 27.2279 18.766 27.2279 21.5421C27.2279 24.3732 28.2088 26.8158 30.1432 28.7925C32.0838 30.777 34.4613 31.7784 37.2029 31.7784C38.7442 31.7784 40.188 31.4547 41.4901 30.8122C42.4406 30.3478 43.3164 29.7123 44.1315 28.9136V31.3055H47.4645V14.9061C47.4645 12.0419 44.1315 11.8815 44.1315 11.8815ZM43.4081 25.2219C42.8238 26.2535 41.9883 27.0846 40.9079 27.6898C39.8183 28.3006 38.6588 28.6103 37.4471 28.6103C36.2503 28.6103 35.1204 28.2985 34.0774 27.6856C33.0309 27.072 32.1868 26.2029 31.5658 25.1029C30.9441 23.9974 30.6266 22.8257 30.6266 21.6188C30.6266 20.4021 30.942 19.2311 31.5581 18.139C32.1685 17.0475 33.0111 16.1897 34.0541 15.5852C35.0844 14.9856 36.2404 14.6802 37.4648 14.6802C39.4026 14.6802 40.9925 15.336 42.3136 16.683C43.6417 18.0341 44.2832 19.6688 44.2832 21.6878C44.2832 22.9932 43.9946 24.1818 43.4081 25.2219ZM22.5809 24.6603C20.3325 27.2683 17.5055 28.5913 14.1697 28.5913C11.1359 28.5913 8.59045 27.611 6.60533 25.68C4.62443 23.7539 3.61882 21.3113 3.61882 18.4261C3.61882 16.5141 4.07258 14.7667 4.95823 13.2404C5.84106 11.7154 7.10708 10.4839 8.7203 9.57893C10.3385 8.66972 12.1218 8.20949 14.0201 8.20949C15.7582 8.20949 17.3806 8.56276 18.8294 9.25099C20.2704 9.94416 21.5294 10.9765 22.5625 12.3199L22.8589 12.7105L25.6119 10.6113L25.3296 10.2242C24.0883 8.50294 22.4652 7.14899 20.5224 6.19756C18.5789 5.24824 16.3813 4.7655 13.9827 4.7655C10.0068 4.7655 6.64696 6.07089 3.99495 8.64157C1.34012 11.2186 0 14.4346 0 18.2023C0 21.78 1.10653 24.8742 3.29561 27.4076C5.91021 30.4111 9.51421 31.9318 14.0201 31.9318C16.3778 31.9318 18.5507 31.4793 20.4695 30.5891C22.3981 29.6954 24.0226 28.4139 25.3162 26.7778L25.6225 26.3865L22.8843 24.3106L22.5809 24.6603ZM130.414 7.86537C130.414 5.25739 127.044 5.03642 127.044 5.03642V11.8815H123.447V14.9194H127.044V31.3055H130.414V14.9194H134.183V11.8815H130.414V7.86537ZM76.6796 4.29189C76.0149 4.29189 75.4355 4.53749 74.9577 5.01461C74.4835 5.49173 74.2436 6.07722 74.2436 6.74716C74.2436 7.41288 74.4835 7.99063 74.9577 8.47127C75.432 8.94769 76.0149 9.19117 76.6796 9.19117C77.3529 9.19117 77.9372 8.94769 78.4164 8.47127C78.892 7.99063 79.1312 7.41288 79.1312 6.74716C79.1312 6.07722 78.892 5.49173 78.4164 5.0125C77.9372 4.53749 77.3529 4.29189 76.6796 4.29189ZM145.819 11.4072C142.828 11.4072 140.313 12.505 138.358 14.6717C136.577 16.6302 135.682 18.9757 135.682 21.6428C135.682 24.338 136.631 26.7229 138.505 28.7327C140.396 30.7559 142.853 31.7784 145.819 31.7784C148.775 31.7784 151.233 30.7559 153.12 28.7327C155.002 26.7229 155.948 24.3366 155.948 21.6428C155.948 18.9679 155.048 16.6168 153.269 14.6527C151.31 12.5008 148.802 11.4072 145.819 11.4072ZM151.641 25.1818C151.039 26.2493 150.215 27.0846 149.203 27.6652C148.179 28.2443 147.04 28.5413 145.811 28.5413C144.586 28.5413 143.449 28.2443 142.422 27.6652C141.409 27.0846 140.585 26.2493 139.984 25.1818C139.384 24.1079 139.075 22.9348 139.075 21.6962C139.075 19.7434 139.728 18.127 141.07 16.7505C142.404 15.3832 143.957 14.7161 145.811 14.7161C147.656 14.7161 149.21 15.3832 150.549 16.7505C151.898 18.127 152.546 19.7434 152.546 21.6962C152.546 22.9348 152.245 24.1079 151.641 25.1818ZM120.261 15.2347C120.261 12.0961 116.899 11.8815 116.899 11.8815V14.3164C116.01 13.4311 115.087 12.7618 114.143 12.3143C112.883 11.7126 111.507 11.4072 110.063 11.4072C108.314 11.4072 106.628 11.8639 105.061 12.7618C103.489 13.6584 102.237 14.8983 101.35 16.4416C100.46 17.9877 100.007 19.6724 100.007 21.4605C100.007 23.2416 100.442 24.9052 101.299 26.3978C102.154 27.8918 103.385 29.0965 104.952 29.9811C106.519 30.8587 108.214 31.3055 109.988 31.3055C111.507 31.3055 112.964 30.9811 114.317 30.3513C115.276 29.9023 116.142 29.3105 116.899 28.5835V35.4497C116.899 37.3927 116.679 38.8015 116.237 39.6375C115.806 40.4588 115.081 41.1562 114.051 41.7086C113.012 42.2659 111.708 42.5474 110.177 42.5474C108.619 42.5474 107.306 42.2723 106.274 41.7248C105.445 41.2857 104.728 40.6453 104.138 39.8121H100.359C101.034 41.2399 101.784 42.3476 102.594 43.1118C103.431 43.9119 104.529 44.5551 105.848 45.0224C107.167 45.4847 108.655 45.7198 110.285 45.7198C112.535 45.7198 114.487 45.2384 116.099 44.2814C117.542 43.4235 118.597 42.1498 119.541 40.1513C120.24 38.6601 120.281 32.1078 120.265 27.9045C120.265 27.9045 120.261 17.8026 120.261 15.2347ZM115.163 26.2585C113.926 27.4878 112.307 28.0825 110.237 28.0825C108.189 28.0825 106.571 27.4773 105.298 26.2402C104.031 25.0037 103.411 23.4781 103.411 21.578C103.411 20.3388 103.719 19.1692 104.332 18.1017C104.934 17.0383 105.791 16.1939 106.862 15.5922C107.936 14.9877 109.113 14.6802 110.373 14.6802C111.574 14.6802 112.71 14.98 113.749 15.5648C114.784 16.1502 115.598 16.9567 116.161 17.9623C116.732 18.9729 117.014 20.1438 117.014 21.4415C117.014 23.4612 116.413 25.0354 115.163 26.2585ZM94.2861 12.5409C93.1365 11.7865 91.8091 11.4072 90.337 11.4072C88.9023 11.4072 87.5558 11.7429 86.3265 12.4093C85.4663 12.8765 84.6533 13.5155 83.8968 14.322V11.8815C83.8968 11.8815 80.5285 11.8252 80.5285 14.9061V31.3055H83.8968V24.0523C83.8968 21.673 84.0062 20.0249 84.2228 19.1586C84.5595 17.8666 85.2602 16.7653 86.3131 15.8885C87.3674 15.0116 88.5297 14.5788 89.8599 14.5788C91.0004 14.5788 91.9269 14.8568 92.6129 15.3966C93.3031 15.937 93.7815 16.7723 94.0271 17.8814C94.1951 18.5513 94.2797 19.944 94.2797 22.0164V31.3055H97.6452V21.3226C97.6452 18.7237 97.3806 16.8462 96.84 15.5852C96.2938 14.3192 95.435 13.2917 94.2861 12.5409Z" fill="#A7A5A6"/>
</svg>
