<svg width="237" height="81" viewBox="0 0 237 81" fill="none" xmlns="http://www.w3.org/2000/svg">
<g clip-path="url(#clip0_1099_22542)">
<path d="M237 27.8354H208.727V33.1047H237V27.8354Z" fill="#8B6F4B"/>
<path fill-rule="evenodd" clip-rule="evenodd" d="M196.939 33.1047H154.441C154.809 38.2458 156.679 42.4019 160.035 45.557C161.705 47.1347 163.67 48.3669 165.816 49.1831C167.962 49.9993 170.247 50.3835 172.541 50.3137C175.927 50.3606 179.251 49.399 182.091 47.551C184.959 45.663 187.231 42.9967 188.644 39.8634H195.485C193.322 45.0899 190.277 49.0938 186.35 51.8753C182.381 54.6844 177.624 56.1566 172.765 56.0794C169.51 56.153 166.277 55.5409 163.273 54.2829C160.269 53.0248 157.562 51.1488 155.328 48.7762C153.03 46.4639 151.219 43.7135 150 40.6875C148.781 37.6616 148.18 34.4215 148.232 31.1588C148.232 23.973 150.549 18.0418 155.184 13.3652C159.819 8.68861 165.743 6.34231 172.957 6.32629C180.021 6.32629 185.788 8.76602 190.258 13.6455C194.728 18.525 196.958 24.8646 196.947 32.6643L196.939 33.1047ZM190.282 27.8355C189.142 22.5984 187.043 18.6531 183.985 15.9998C180.927 13.3465 176.945 12.0252 172.038 12.0359C167.766 11.9254 163.614 13.452 160.426 16.3041C157.278 19.1496 155.341 22.9934 154.617 27.8355H190.282Z" fill="#8B6F4B"/>
<path fill-rule="evenodd" clip-rule="evenodd" d="M130.962 62.4297V21.3331H122.027V15.2791H130.962V0H137.011V15.2791H145.946V21.3331H137.011V62.4297H130.962Z" fill="#8B6F4B"/>
<path d="M117.106 15.2791H111.057V62.4296H117.106V15.2791Z" fill="#8B6F4B"/>
<path d="M117.106 0H111.057V9.74563H117.106V0Z" fill="#8B6F4B"/>
<path d="M101.235 0H95.1855V62.4297H101.235V0Z" fill="#8B6F4B"/>
<path fill-rule="evenodd" clip-rule="evenodd" d="M88.2011 33.1047H45.671C46.0386 38.2457 47.9086 42.4018 51.265 45.557C52.9333 47.1351 54.8962 48.3677 57.041 49.184C59.1858 50.0002 61.4703 50.3841 63.7635 50.3137C67.1495 50.3605 70.4731 49.399 73.3132 47.5509C76.1831 45.6634 78.4585 42.9972 79.8741 39.8633H86.7067C84.8608 44.6523 81.696 48.8177 77.5806 51.8752C73.5993 54.6904 68.8272 56.1628 63.9553 56.0793C60.7077 56.1394 57.4836 55.5179 54.4902 54.2546C51.4967 52.9913 48.8002 51.1142 46.5741 48.7441C44.2764 46.4318 42.4646 43.6814 41.2458 40.6554C40.0269 37.6295 39.4257 34.3894 39.4777 31.1267C39.4777 23.941 41.7952 18.0098 46.4302 13.3331C51.0652 8.65653 56.9895 6.31021 64.203 6.29419C71.2674 6.29419 77.0345 8.73392 81.5043 13.6134C85.9742 18.4929 88.2064 24.8432 88.2011 32.6642V33.1047ZM81.5443 27.8355C80.4042 22.5983 78.3051 18.6531 75.2471 15.9998C72.1891 13.3465 68.196 12.0252 63.268 12.0358C58.9982 11.9217 54.8466 13.4489 51.6646 16.3041C48.5106 19.1496 46.5714 22.9933 45.8468 27.8355H81.5443Z" fill="#8B6F4B"/>
<path d="M28.2735 27.8354H0V33.1047H28.2735V27.8354Z" fill="#8B6F4B"/>
<path d="M49.4513 78.2773V77.2843H55.1412V78.2773H49.4513ZM47.6133 80.8959L51.609 70.0692H52.9036L56.8992 80.8959H55.7085L52.2403 71.1903L48.796 80.8959H47.6133Z" fill="#8B6F4B"/>
<path d="M63.9629 80.8958V70.0691H65.0257V80.8958H63.9629ZM64.762 76.6997V75.7147H68.2223C68.5103 75.7263 68.7974 75.6749 69.0637 75.5643C69.33 75.4537 69.5692 75.2864 69.7646 75.0741C70.1425 74.5938 70.348 74 70.348 73.3884C70.348 72.7768 70.1425 72.183 69.7646 71.7028C69.5702 71.4891 69.3312 71.3209 69.0647 71.2102C68.7981 71.0995 68.5105 71.0489 68.2223 71.0621H64.77V70.0691H68.1743C68.7685 70.0545 69.3559 70.1982 69.8765 70.4856C70.3636 70.7509 70.7612 71.155 71.0193 71.6467C71.2824 72.1909 71.419 72.7877 71.419 73.3924C71.419 73.9971 71.2824 74.594 71.0193 75.1382C70.7389 75.6222 70.3218 76.0123 69.8206 76.2593C69.2979 76.5403 68.7114 76.681 68.1184 76.6677L64.762 76.6997Z" fill="#8B6F4B"/>
<path d="M78.8341 78.2773V77.2843H84.5239V78.2773H78.8341ZM76.9961 80.8959L80.9918 70.0692H82.2864L86.2821 80.8959H85.0913L81.6551 71.1903L78.2108 80.8959H76.9961Z" fill="#8B6F4B"/>
<path d="M99.9485 80.896L97.4712 75.9871L98.4621 75.6508L101.227 80.896H99.9485ZM93.3477 80.896V70.0692H94.4185V80.896H93.3477ZM94.0109 76.3234V75.3305H97.695C97.9686 75.3435 98.242 75.2982 98.4969 75.1974C98.7517 75.0966 98.9823 74.9427 99.1734 74.7459C99.5255 74.3065 99.7175 73.7599 99.7175 73.1963C99.7175 72.6328 99.5255 72.0862 99.1734 71.6468C98.9823 71.45 98.7517 71.2961 98.4969 71.1953C98.242 71.0945 97.9686 71.0492 97.695 71.0622H94.0109V70.0692H97.639C98.2126 70.0533 98.7802 70.1887 99.2852 70.4617C99.7486 70.7124 100.131 71.0901 100.388 71.5507C100.64 72.0625 100.772 72.6256 100.772 73.1963C100.772 73.7671 100.64 74.3302 100.388 74.842C100.131 75.3026 99.7486 75.6803 99.2852 75.931C98.7802 76.204 98.2126 76.3393 97.639 76.3234H94.0109Z" fill="#8B6F4B"/>
<path d="M107.125 71.0622V70.0692H114.757V71.0622H107.125ZM110.401 80.8959V70.4856H111.472V80.8959H110.401Z" fill="#8B6F4B"/>
<path d="M125.992 77.8849L129.46 70.0612H130.587V80.8959H129.516V71.5907L129.628 72.0711L126.367 79.3904H125.616L122.355 72.2153L122.467 71.5907V80.8959H121.396V70.0612H122.523L125.992 77.8849Z" fill="#8B6F4B"/>
<path d="M139.45 71.0622V70.0692H145.659V71.0622H139.45ZM139.45 76.0191V75.0261H144.836V76.0191H139.45ZM139.45 80.8959V79.9029H145.659V80.8959H139.45ZM138.715 80.8959V70.0692H139.786V80.8959H138.715Z" fill="#8B6F4B"/>
<path d="M153.266 80.8959V70.0612H154.344L160.618 79.8308L160.178 79.5265V70.0612H161.249V80.8959H160.154L153.761 71.0541L154.336 71.4786V80.8959H153.266Z" fill="#8B6F4B"/>
<path d="M167.891 71.0622V70.0692H175.514V71.0622H167.891ZM171.167 80.8959V70.4856H172.238V80.8959H171.167Z" fill="#8B6F4B"/>
<path d="M185.408 81.008C184.678 81.0166 183.951 80.9029 183.258 80.6717C182.613 80.4502 182.014 80.1108 181.492 79.6707L182.139 78.8219C182.576 79.2089 183.08 79.5129 183.626 79.7188C184.199 79.9175 184.802 80.0177 185.408 80.015C186.165 80.062 186.917 79.8687 187.558 79.4625C187.804 79.2881 188.003 79.0545 188.135 78.783C188.268 78.5115 188.33 78.2109 188.317 77.909C188.33 77.7195 188.304 77.5292 188.241 77.3502C188.178 77.1711 188.078 77.0069 187.949 76.8679C187.673 76.6126 187.342 76.4237 186.982 76.3154C186.554 76.1852 186.119 76.0783 185.68 75.9951C185.248 75.915 184.817 75.8189 184.385 75.7228C183.972 75.6297 183.571 75.4844 183.194 75.2904C182.842 75.1035 182.544 74.8274 182.331 74.4896C182.096 74.0789 181.982 73.6094 182.004 73.1363C181.981 72.6959 182.059 72.2561 182.232 71.8507C182.405 71.4454 182.669 71.0852 183.003 70.7979C183.826 70.2081 184.83 69.9249 185.839 69.9971C186.413 69.9964 186.982 70.0883 187.526 70.2694C188.096 70.475 188.634 70.7608 189.124 71.1182L188.493 71.919C187.717 71.3219 186.777 70.9805 185.8 70.9421C185.072 70.9007 184.352 71.0974 183.746 71.5026C183.503 71.69 183.311 71.9339 183.184 72.213C183.057 72.4921 183 72.7981 183.019 73.1042C183.005 73.2943 183.036 73.4849 183.108 73.6613C183.18 73.8377 183.292 73.995 183.434 74.1212C183.746 74.3724 184.109 74.5527 184.497 74.6497C184.936 74.7699 185.4 74.882 185.895 74.9781C186.391 75.0742 186.695 75.1622 187.134 75.2744C187.522 75.3818 187.896 75.5379 188.245 75.7388C188.573 75.9356 188.848 76.2107 189.044 76.5396C189.26 76.9454 189.365 77.4013 189.348 77.8609C189.371 78.3025 189.288 78.7431 189.106 79.1458C188.923 79.5485 188.647 79.9015 188.301 80.1752C187.445 80.7678 186.413 81.0503 185.376 80.976" fill="#8B6F4B"/>
<path d="M49.4513 78.2773V77.2843H55.1412V78.2773H49.4513ZM47.6133 80.8959L51.609 70.0692H52.9036L56.8992 80.8959H55.7085L52.2403 71.1903L48.796 80.8959H47.6133Z" fill="#8B6F4B"/>
<path d="M63.9629 80.8958V70.0691H65.0257V80.8958H63.9629ZM64.762 76.6997V75.7147H68.2223C68.5103 75.7263 68.7974 75.6749 69.0637 75.5643C69.33 75.4537 69.5692 75.2864 69.7646 75.0741C70.1425 74.5938 70.348 74 70.348 73.3884C70.348 72.7768 70.1425 72.183 69.7646 71.7028C69.5702 71.4891 69.3312 71.3209 69.0647 71.2102C68.7981 71.0995 68.5105 71.0489 68.2223 71.0621H64.77V70.0691H68.1743C68.7685 70.0545 69.3559 70.1982 69.8765 70.4856C70.3636 70.7509 70.7612 71.155 71.0193 71.6467C71.2824 72.1909 71.419 72.7877 71.419 73.3924C71.419 73.9971 71.2824 74.594 71.0193 75.1382C70.7389 75.6222 70.3218 76.0123 69.8206 76.2593C69.2979 76.5403 68.7114 76.681 68.1184 76.6677L64.762 76.6997Z" fill="#8B6F4B"/>
<path d="M78.8341 78.2773V77.2843H84.5239V78.2773H78.8341ZM76.9961 80.8959L80.9918 70.0692H82.2864L86.2821 80.8959H85.0913L81.6551 71.1903L78.2108 80.8959H76.9961Z" fill="#8B6F4B"/>
<path d="M99.9485 80.896L97.4712 75.9871L98.4621 75.6508L101.227 80.896H99.9485ZM93.3477 80.896V70.0692H94.4185V80.896H93.3477ZM94.0109 76.3234V75.3305H97.695C97.9686 75.3435 98.242 75.2982 98.4969 75.1974C98.7517 75.0966 98.9823 74.9427 99.1734 74.7459C99.5255 74.3065 99.7175 73.7599 99.7175 73.1963C99.7175 72.6328 99.5255 72.0862 99.1734 71.6468C98.9823 71.45 98.7517 71.2961 98.4969 71.1953C98.242 71.0945 97.9686 71.0492 97.695 71.0622H94.0109V70.0692H97.639C98.2126 70.0533 98.7802 70.1887 99.2852 70.4617C99.7486 70.7124 100.131 71.0901 100.388 71.5507C100.64 72.0625 100.772 72.6256 100.772 73.1963C100.772 73.7671 100.64 74.3302 100.388 74.842C100.131 75.3026 99.7486 75.6803 99.2852 75.931C98.7802 76.204 98.2126 76.3393 97.639 76.3234H94.0109Z" fill="#8B6F4B"/>
<path d="M107.125 71.0622V70.0692H114.757V71.0622H107.125ZM110.401 80.8959V70.4856H111.472V80.8959H110.401Z" fill="#8B6F4B"/>
<path d="M125.992 77.8849L129.46 70.0612H130.587V80.8959H129.516V71.5907L129.628 72.0711L126.367 79.3904H125.616L122.355 72.2153L122.467 71.5907V80.8959H121.396V70.0612H122.523L125.992 77.8849Z" fill="#8B6F4B"/>
<path d="M139.45 71.0622V70.0692H145.659V71.0622H139.45ZM139.45 76.0191V75.0261H144.836V76.0191H139.45ZM139.45 80.8959V79.9029H145.659V80.8959H139.45ZM138.715 80.8959V70.0692H139.786V80.8959H138.715Z" fill="#8B6F4B"/>
<path d="M153.266 80.8959V70.0612H154.344L160.618 79.8308L160.178 79.5265V70.0612H161.249V80.8959H160.154L153.761 71.0541L154.336 71.4786V80.8959H153.266Z" fill="#8B6F4B"/>
<path d="M167.891 71.0622V70.0692H175.514V71.0622H167.891ZM171.167 80.8959V70.4856H172.238V80.8959H171.167Z" fill="#8B6F4B"/>
<path d="M185.408 81.008C184.678 81.0166 183.951 80.9029 183.258 80.6717C182.613 80.4502 182.014 80.1108 181.492 79.6707L182.139 78.8219C182.576 79.2089 183.08 79.5129 183.626 79.7188C184.199 79.9175 184.802 80.0177 185.408 80.015C186.165 80.062 186.917 79.8687 187.558 79.4625C187.804 79.2882 188.003 79.0545 188.135 78.783C188.268 78.5115 188.33 78.2109 188.317 77.909C188.33 77.7195 188.304 77.5292 188.241 77.3502C188.178 77.1711 188.078 77.0069 187.949 76.8679C187.673 76.6126 187.342 76.4237 186.982 76.3154C186.554 76.1852 186.119 76.0783 185.68 75.9951C185.248 75.915 184.817 75.8189 184.385 75.7228C183.972 75.6297 183.571 75.4844 183.194 75.2904C182.842 75.1035 182.544 74.8274 182.331 74.4896C182.096 74.0789 181.982 73.6094 182.004 73.1363C181.981 72.6959 182.059 72.2561 182.232 71.8507C182.405 71.4454 182.669 71.0852 183.003 70.7979C183.826 70.2081 184.83 69.9249 185.839 69.9971C186.413 69.9964 186.982 70.0883 187.526 70.2694C188.096 70.475 188.634 70.7608 189.124 71.1182L188.493 71.919C187.717 71.3219 186.777 70.9805 185.8 70.9421C185.072 70.9007 184.352 71.0974 183.746 71.5026C183.503 71.69 183.311 71.9339 183.184 72.213C183.057 72.4921 183 72.7981 183.019 73.1042C183.005 73.2943 183.036 73.4849 183.108 73.6613C183.18 73.8377 183.292 73.995 183.434 74.1212C183.746 74.3724 184.109 74.5527 184.497 74.6497C184.936 74.7699 185.4 74.882 185.895 74.9781C186.391 75.0742 186.695 75.1622 187.134 75.2744C187.522 75.3818 187.896 75.5379 188.245 75.7388C188.573 75.9356 188.848 76.2107 189.044 76.5396C189.26 76.9454 189.365 77.4013 189.348 77.8609C189.371 78.3025 189.288 78.7431 189.106 79.1458C188.923 79.5485 188.647 79.9016 188.301 80.1752C187.458 80.7721 186.438 81.0656 185.408 81.008Z" fill="#8B6F4B"/>
</g>
<defs>
<clipPath id="clip0_1099_22542">
<rect width="237" height="81" fill="white"/>
</clipPath>
</defs>
</svg>
