<svg width="267" height="94" viewBox="0 0 267 94" fill="none" xmlns="http://www.w3.org/2000/svg">
<path d="M235.826 37.9722C235.826 33.7739 235.826 29.1496 235.878 27.3422C235.878 26.7576 236.036 26.4921 236.51 26.279C236.931 26.067 238.879 25.9075 239.933 25.9075C244.04 25.9075 250.044 26.5456 254.888 31.2225C257.153 33.4014 259.943 37.7602 259.943 44.5099C259.943 49.9845 258.891 54.8209 255.521 57.7449C252.36 60.5084 248.779 61.5716 243.408 61.5716C239.249 61.5716 237.195 60.4549 236.51 59.4452C236.088 58.8606 235.983 56.7342 235.93 55.4055C235.878 54.3958 235.826 50.3035 235.826 44.6695V37.9722ZM229.243 48.1771C229.243 53.067 229.243 57.2663 228.98 59.4987C228.77 61.0395 228.505 62.2097 227.453 62.4218C226.979 62.5278 226.347 62.6348 225.557 62.6348C224.924 62.6348 224.715 62.7934 224.715 63.0599C224.715 63.4315 225.083 63.591 225.767 63.591C226.821 63.591 228.189 63.485 229.401 63.485C230.665 63.4315 231.824 63.4315 232.402 63.4315C233.719 63.4315 235.563 63.591 237.564 63.7505C239.565 63.91 241.723 64.0696 243.619 64.0696C253.361 64.0696 258.838 60.2954 261.261 57.7974C264.21 54.7683 267 49.6654 267 42.9682C267 36.6435 264.525 32.2331 261.893 29.4686C256.153 23.4095 247.359 23.4095 240.776 23.4095C237.615 23.4095 234.299 23.569 232.666 23.569C231.191 23.569 227.874 23.4095 225.083 23.4095C224.293 23.4095 223.924 23.5165 223.924 23.8881C223.924 24.2597 224.241 24.3667 224.819 24.3667C225.557 24.3667 226.452 24.4192 226.874 24.5252C228.612 24.8978 229.033 25.7489 229.138 27.5553C229.243 29.2556 229.243 30.7439 229.243 38.8234V48.1771ZM170.967 38.8234C170.967 30.7439 170.967 29.2556 171.073 27.5553C171.178 25.6944 171.599 24.7917 173.022 24.5252C173.653 24.4192 174.495 24.3667 175.075 24.3667C175.707 24.3667 176.023 24.2597 176.023 23.8881C176.023 23.5165 175.654 23.4095 174.917 23.4095C172.863 23.4095 169.019 23.569 167.755 23.569C166.333 23.569 163.016 23.4095 160.541 23.4095C159.751 23.4095 159.383 23.5165 159.383 23.8881C159.383 24.2597 159.699 24.3667 160.277 24.3667C160.961 24.3667 161.595 24.4192 162.015 24.5252C163.753 24.8978 164.175 25.7489 164.28 27.5553C164.385 29.2556 164.385 30.7439 164.385 38.8234V48.1771C164.385 53.067 164.385 57.2663 164.122 59.4987C163.911 61.0395 163.647 62.2097 162.595 62.4218C162.12 62.5278 161.489 62.6348 160.699 62.6348C160.067 62.6348 159.857 62.7934 159.857 63.0599C159.857 63.4315 160.225 63.591 160.909 63.591C161.963 63.591 163.331 63.485 164.543 63.485C165.807 63.4315 166.966 63.4315 167.544 63.4315C169.704 63.4315 171.599 63.485 173.969 63.591C176.338 63.6445 179.077 63.7505 182.869 63.7505C185.608 63.7505 185.871 63.485 186.186 62.3148C186.608 60.774 186.976 56.7877 186.976 56.2031C186.976 55.565 186.923 55.2994 186.555 55.2994C186.133 55.2994 186.028 55.6185 185.976 56.0971C185.871 57.1068 185.238 58.5951 184.606 59.2857C183.29 60.7205 181.236 60.774 178.445 60.774C174.337 60.774 172.968 60.4024 172.074 59.6047C170.967 58.6476 170.967 54.9804 170.967 48.1771V38.8234ZM37.7042 54.1837C37.7042 51.5262 37.7042 49.3998 37.7562 47.8046C37.8093 45.9447 38.3364 45.042 39.758 44.7755C40.3902 44.6695 40.7584 44.616 41.1795 44.616C41.5486 44.616 41.8638 44.5099 41.8638 44.1919C41.8638 43.7668 41.4956 43.6598 40.8104 43.6598C39.0737 43.6598 36.2827 43.8193 34.6501 43.8193C33.0695 43.8193 29.7522 43.6598 27.0142 43.6598C26.2769 43.6598 25.9078 43.7668 25.9078 44.1919C25.9078 44.5099 26.2239 44.616 26.6981 44.616C27.4353 44.616 28.3307 44.6695 28.7519 44.7755C30.4895 45.148 30.9646 45.9982 31.0157 47.8046C31.0687 49.3998 31.0687 51.4202 31.0687 54.0777V59.0727C31.0687 59.9773 30.8586 60.6679 30.0683 61.0395C28.8039 61.6241 26.9612 61.6241 25.5926 61.6241C14.4805 61.6241 7.26674 53.067 7.26674 41.6404C7.26674 35.1027 9.16247 31.1164 12.1116 28.6175C15.797 25.5359 19.6424 25.3229 22.5375 25.3229C28.4887 25.3229 32.7013 27.7683 34.2819 29.4686C35.6504 30.9569 35.9135 32.6582 36.0716 33.88C36.1246 34.305 36.2297 34.5716 36.5978 34.5716C37.0199 34.5716 37.178 34.305 37.178 33.4549C37.178 26.8111 37.5462 25.3229 37.5462 24.7382C37.5462 24.3667 37.4401 24.1536 36.8089 24.1001C35.5974 24.0476 33.7547 23.7276 32.6493 23.5165C31.5959 23.3035 26.9612 22.6654 23.3278 22.6654C18.9041 22.6654 14.2184 23.0369 9.16247 26.1195C4.37065 29.0435 0 34.9957 0 43.5002C0 58.17 11.4273 64.3351 24.3292 64.3351C28.4367 64.3351 33.5967 63.7505 37.0199 61.9432C37.6512 61.5716 37.7042 61.4646 37.7042 60.0298V54.1837ZM201.191 82.5436C201.191 83.3345 200.945 83.9463 200.451 84.3772C199.959 84.8111 199.315 85.026 198.522 85.026H194.993V80.0389H198.522C199.315 80.0389 199.959 80.2577 200.451 80.6993C200.945 81.1371 201.191 81.7528 201.191 82.5436ZM204.058 93.731L200.441 86.7186C201.323 86.4657 202.066 85.9871 202.669 85.2819C203.271 84.5776 203.572 83.6535 203.572 82.5106C203.572 81.8423 203.458 81.2227 203.231 80.6517C203.002 80.0797 202.676 79.5904 202.249 79.1819C201.823 78.7733 201.311 78.4543 200.716 78.2247C200.121 77.9952 199.448 77.8794 198.698 77.8794H192.609V93.731H194.993V87.0522H197.971L201.278 93.731H204.058ZM172.463 93.731V91.5725H164.809V86.8071H171.338V84.67H164.809V80.0389H172.463V77.8794H162.426V93.731H172.463ZM143.249 77.8794H140.735L137.999 89.2117L134.845 77.8794H132.926L129.771 89.2117L127.036 77.8794H124.522L128.624 93.731H130.698L133.875 82.6215L137.073 93.731H139.148L143.249 77.8794ZM103.756 85.8052C103.756 86.6067 103.746 87.2711 103.724 87.7983C103.701 88.3255 103.657 88.7701 103.591 89.1339C103.526 89.4977 103.43 89.8021 103.304 90.0463C103.179 90.2914 103.021 90.5181 102.83 90.7253C102.551 91.0229 102.209 91.2603 101.804 91.4383C101.401 91.6163 100.963 91.7058 100.492 91.7058C100.022 91.7058 99.5843 91.6163 99.1795 91.4383C98.7748 91.2603 98.4336 91.0229 98.1541 90.7253C97.9623 90.5181 97.8043 90.2914 97.679 90.0463C97.5547 89.8021 97.4592 89.4977 97.3927 89.1339C97.3262 88.7701 97.2819 88.3255 97.2607 87.7983C97.2385 87.2711 97.227 86.6067 97.227 85.8052C97.227 85.0037 97.2385 84.3393 97.2607 83.8121C97.2819 83.2858 97.3262 82.8403 97.3927 82.4765C97.4592 82.1137 97.5547 81.8092 97.679 81.5641C97.8043 81.3199 97.9623 81.0933 98.1541 80.8851C98.4336 80.5885 98.7748 80.3511 99.1795 80.1721C99.5843 79.9951 100.022 79.9056 100.492 79.9056C100.963 79.9056 101.401 79.9951 101.804 80.1721C102.209 80.3511 102.551 80.5885 102.83 80.8851C103.021 81.0933 103.179 81.3199 103.304 81.5641C103.43 81.8092 103.526 82.1137 103.591 82.4765C103.657 82.8403 103.701 83.2858 103.724 83.8121C103.746 84.3393 103.756 85.0037 103.756 85.8052ZM106.14 85.8052C106.14 85.0484 106.132 84.3617 106.117 83.7459C106.102 83.1302 106.051 82.5699 105.962 82.0651C105.875 81.5602 105.727 81.0933 105.522 80.6624C105.316 80.2315 105.021 79.8239 104.639 79.4377C104.095 78.8891 103.477 78.4689 102.786 78.18C102.095 77.8911 101.331 77.7461 100.492 77.7461C99.6537 77.7461 98.8923 77.8911 98.209 78.18C97.5248 78.4689 96.9109 78.8891 96.3673 79.4377C95.9847 79.8239 95.6907 80.2315 95.4845 80.6624C95.2792 81.0933 95.1289 81.5602 95.0325 82.0651C94.9371 82.5699 94.8821 83.1302 94.8667 83.7459C94.8523 84.3617 94.8455 85.0484 94.8455 85.8052C94.8455 86.562 94.8523 87.2487 94.8667 87.8654C94.8821 88.4812 94.9371 89.0415 95.0325 89.5463C95.1289 90.0502 95.2792 90.5181 95.4845 90.948C95.6907 91.3789 95.9847 91.7875 96.3673 92.1727C96.9109 92.7223 97.5248 93.1415 98.209 93.4314C98.8923 93.7203 99.6537 93.8652 100.492 93.8652C101.331 93.8652 102.095 93.7203 102.786 93.4314C103.477 93.1415 104.095 92.7223 104.639 92.1727C105.021 91.7875 105.316 91.3789 105.522 90.948C105.727 90.5181 105.875 90.0502 105.962 89.5463C106.051 89.0415 106.102 88.4812 106.117 87.8654C106.132 87.2487 106.14 86.562 106.14 85.8052ZM76.2642 80.0389V77.8794H65.234V80.0389H69.5574V93.731H71.9408V80.0389H76.2642ZM102.821 28.9025C101.239 29.7371 99.8233 31.2847 98.1165 29.1846C96.8154 27.5825 96.5562 25.6487 96.8482 23.6585C97.3176 20.4563 100.225 17.2113 102.886 15.5722C109.371 11.5782 117.965 12.3651 124.182 17.2901C136.661 27.172 134.652 46.3221 122.858 55.4716C110.477 65.0783 93.2447 62.1523 82.8429 50.5554C77.708 44.829 75.3622 37.7125 74.7694 30.3441C74.2153 22.8327 76.4088 15.1043 80.5453 8.06372C63.7065 21.4037 69.1228 42.8417 79.7906 54.1059C92.0101 67.0111 112.84 70.2026 126.164 56.6934C138.845 43.8339 139.787 21.7092 122.301 12.8437C113.956 8.61234 104.079 9.64928 97.5604 16.3076C94.3781 19.5575 92.8602 24.1546 94.1584 28.7148C95.099 32.0259 96.0801 31.7078 98.6427 32.5707C100.266 33.1173 100.697 37.4596 101.519 37.9722C103.462 36.0919 101.885 33.6416 102.004 30.8908C102.04 30.099 102.472 29.598 102.821 28.9025ZM113.816 18.5215C119.696 20.0302 122.985 21.2102 126.104 27.4142C128.732 32.6388 128.06 39.6006 125.248 44.4097C119.244 54.6827 107.13 58.0883 96.323 53.3997C86.1042 48.968 79.9583 38.1045 80.6368 27.0368C81.1977 17.8961 84.2625 11.4751 90.6503 5.41595C91.4184 4.68738 96.482 0.879143 96.534 0.778954C82.4737 3.31972 76.3442 17.72 76.351 27.8831C76.3606 40.4887 83.157 51.7013 94.9361 56.7585C112.329 64.2272 126.483 51.4766 128.879 42.4283C131.953 30.8168 127.077 19.0721 113.816 18.5215ZM122.768 35.7962C122.076 37.801 122.401 41.9079 116.8 46.3017C113.382 48.9845 108.403 50.4815 104.148 49.7325C95.3804 48.1878 89.328 42.9983 86.9986 33.9821C85.7871 29.2945 86.2363 24.1536 87.9691 19.5166C88.584 17.8737 89.3637 16.2804 90.2995 14.7863C91.4444 12.9566 92.8216 11.2766 94.4089 9.83701C96.6372 7.84875 101.821 3.08432 112.056 2.10187C107.77 0.12236 98.9319 -1.88341 89.3212 9.73293C88.2621 11.013 87.3986 12.4235 86.6189 13.8018C82.0632 21.8502 81.588 32.0094 85.8643 40.0626C89.9034 47.6674 97.9556 52.6361 106.603 52.1478C110.848 51.9085 114.989 50.2004 118.109 47.2316C120.038 45.3941 123.717 39.8476 122.768 35.7962ZM68.2612 29.6282C64.8562 51.5651 81.1563 69.7571 101.953 67.5879C86.5447 65.3351 72.8092 56.029 69.2124 37.5987C69.0534 36.7816 68.2641 29.6311 68.2612 29.6282Z" fill="#7D6240"/>
</svg>
