<svg width="219" height="141" viewBox="0 0 219 141" fill="none" xmlns="http://www.w3.org/2000/svg">
<g clip-path="url(#clip0_1112_22120)">
<path d="M154.428 68.9749C173.406 68.9749 188.79 53.5906 188.79 34.613C188.79 15.6354 173.406 0.251099 154.428 0.251099C135.451 0.251099 120.066 15.6354 120.066 34.613C120.066 53.5906 135.451 68.9749 154.428 68.9749Z" stroke="#8C704D" stroke-width="0.502294" stroke-miterlimit="10"/>
<path d="M38.4392 96.9728C38.4392 86.6055 50.2682 56.8848 54.6482 46.5174C52.2372 50.2344 32.7382 83.0995 32.7382 85.3648C32.6302 85.5299 32.4802 85.6634 32.3038 85.7517C32.1273 85.8399 31.9305 85.8798 31.7336 85.8671C29.9103 85.9425 26.5499 84.1894 26.5499 81.7784C26.5499 74.5504 33.9989 53.0071 37.3593 44.5384H37.4296C37.4176 44.3887 37.4435 44.2384 37.505 44.1014C31.7336 52.3591 11.6419 92.6631 11.6419 94.8531C11.6021 95.0176 11.5092 95.1644 11.3775 95.2706C11.2458 95.3769 11.0827 95.4367 10.9135 95.4408H10.4112C9.02491 95.4408 6.10156 94.7075 6.10156 93.2508C7.10615 83.0995 10.5569 71.1951 14.3542 60.7524C16.4795 54.8833 18.9175 49.1322 21.6576 43.5238C24.2143 38.1894 26.4043 34.8341 27.2079 34.8341C28.0116 34.8341 29.4683 35.7081 30.4176 36.5871C31.0756 37.0894 31.5176 37.6821 31.5176 38.0437C31.4897 38.181 31.4167 38.305 31.3103 38.3961C31.2038 38.4871 31.0699 38.5399 30.9299 38.546C29.6893 38.546 26.9869 43.5137 23.9933 50.3047V50.375C21.8786 55.1971 19.6133 60.9634 17.6392 66.5841L16.5442 69.7284C15.3036 73.3048 14.2839 76.7354 13.4049 79.8044C19.0306 67.3877 33.6323 41.9064 41.0311 31.6094C41.331 31.2768 41.6478 30.9599 41.9804 30.66C42.8594 29.9317 45.0494 31.755 45.7074 33.071C45.8044 33.1783 45.8746 33.3072 45.9122 33.4469C45.9497 33.5866 45.9536 33.7332 45.9234 33.8747C45.8417 34.6218 45.6732 35.3567 45.4211 36.0647C41.5484 46.432 34.4661 62.9374 30.9601 78.4181C30.9601 79.0008 30.6687 79.5131 31.1811 78.4884C33.0797 74.6911 34.8328 71.1148 36.5858 67.7544C49.5801 43.3681 61.5548 30.0824 62.2881 29.8564C62.8708 29.6353 66.0101 31.9007 65.6434 33.287C65.5311 33.6888 65.3849 34.0803 65.2064 34.4574C63.6041 38.0337 61.7758 42.052 59.8771 46.3617C53.8144 60.0141 47.8221 76.5898 45.2001 89.9508C44.1955 95.1395 43.0804 101.272 45.0544 102.292C45.2001 102.367 45.2001 102.438 45.2001 102.513C45.1247 102.583 45.0544 102.659 44.9791 102.659H44.6878C41.1365 102.669 38.4392 100.846 38.4392 96.9728Z" fill="#8C704E"/>
<path d="M53.4805 83.7574C53.4805 74.9924 58.6692 63.7511 68.0118 63.7511C70.2068 63.7511 72.9042 64.6954 74.3658 66.5238C74.5115 66.2324 74.5868 65.7904 75.0992 65.7201C76.4855 65.4288 79.4038 67.1064 79.4038 67.8398C79.411 67.9828 79.3628 68.1231 79.2693 68.2316C79.1758 68.3401 79.0441 68.4084 78.9015 68.4224C75.8325 76.8208 72.4722 90.5485 75.6869 90.5485C77.5102 90.5485 81.5285 82.0748 83.0605 78.2774C83.4272 77.4034 85.8382 78.3528 85.5419 79.1564C83.7939 84.3401 79.4089 93.9791 76.3449 93.9791C76.098 93.9914 75.8507 93.966 75.6115 93.9038C74.0092 93.4668 71.7439 91.5681 71.0155 90.4731C70.1365 89.2324 70.011 87.1881 70.011 85.6561C68.0369 88.5041 63.6569 94.0545 60.2263 94.0545C55.6002 94.0545 53.4805 89.3781 53.4805 83.7574ZM72.1758 69.4421C72.1005 67.6941 70.669 66.0868 69.0365 66.0868C62.0998 66.0868 58.2271 78.7195 58.2271 85.8721C58.2271 88.6498 58.8148 90.5485 60.0555 90.5485C64.5812 90.5485 72.4672 75.7961 72.1758 69.4421Z" fill="#8C704E"/>
<path d="M87.5803 93.9037C86.6886 93.5681 85.8522 93.1008 85.099 92.5174C84.3097 91.953 83.619 91.2623 83.0547 90.4731C81.814 88.7954 81.9597 85.1437 82.5524 81.0551C85.2547 64.2584 98.8367 33.739 101.539 33.739C102.855 33.739 105.557 35.708 105.557 36.587C105.53 36.7444 105.45 36.8879 105.331 36.9938C105.211 37.0997 105.059 37.1617 104.899 37.1697C103.001 37.1697 90.368 66.157 87.3191 81.0551C86.8243 83.2624 86.5318 85.5103 86.4451 87.7707C86.4451 89.8151 86.8821 90.5484 87.7611 90.5484C89.5091 90.5484 93.3818 82.5871 95.1348 78.2774C95.5718 77.2728 97.9828 78.2071 97.6161 79.1564C93.6731 90.1064 90.1671 93.9791 88.4141 93.9791C88.134 93.994 87.8532 93.9687 87.5803 93.9037Z" fill="#8C704E"/>
<path d="M98.5412 90.4731C97.3006 88.7955 97.4462 85.1438 98.039 81.0551C98.7782 76.8281 99.8036 72.6562 101.108 68.5681C99.7216 72.8025 97.9686 78.1117 97.4563 79.5232C97.0193 80.6885 94.5329 79.5935 95.1206 78.2775C95.412 77.6245 100.962 63.3091 100.304 63.9671C101.108 62.2895 106.437 64.1881 107.336 65.5745C107.414 65.6442 107.467 65.7363 107.49 65.8378C107.512 65.9394 107.503 66.0454 107.463 66.1414C107.422 66.2373 107.353 66.3184 107.265 66.3734C107.177 66.4284 107.074 66.4546 106.97 66.4485C105.265 71.2213 103.874 76.1006 102.806 81.0551C102.311 83.2625 102.018 85.5104 101.932 87.7708C101.932 89.8152 102.369 90.5485 103.248 90.5485C105.141 90.5485 107.336 85.8721 110.621 78.2775C111.058 77.2729 113.54 77.9158 113.103 79.1565C110.4 86.8968 107.04 93.9792 103.901 93.9792C102.113 93.9792 99.2645 91.6435 98.5412 90.4731ZM102.997 59.1501C104.82 54.1824 105.111 53.4541 105.553 53.3788C106.794 53.0874 109.351 54.1824 110.004 55.0615C110.225 55.4231 110.154 55.7144 109.567 56.0058C108.984 57.6131 108.18 59.6574 107.598 61.1945C106.422 61.4105 103.062 60.6068 102.992 59.1501H102.997Z" fill="#8C704E"/>
<path d="M107.883 91.7891C111.238 66.9607 126.649 33.739 129.275 33.739C130.662 33.739 133.294 35.708 133.294 36.587C133.294 36.7327 133.073 37.1697 132.711 37.1697C131.32 37.1697 123.8 53.5997 118.541 68.7891C120.003 66.4484 123.288 63.967 125.99 63.7661C131.104 64.0575 133.525 68.2868 133.806 73.6211C134.168 80.9245 130.446 88.4438 127.377 90.4178C131.978 89.1721 135.263 85.3949 137.528 81.0701C138.257 79.6838 138.769 78.4431 138.844 78.2924C139.206 77.4184 141.617 78.2924 141.326 79.1715C138.257 87.7858 131.25 94.0695 123.579 94.0695C120.149 94.0695 116.497 92.7535 114.744 89.7598C114.161 88.9561 117.592 86.7461 117.758 87.3488C117.758 87.6401 117.688 90.3626 120.169 90.3626C126.232 90.3626 132.224 67.1415 125.644 66.1219C119.22 66.9959 112.941 85.9826 112.866 93.8686C112.866 94.0142 112.574 94.0896 112.213 94.0896C110.801 94.0544 107.883 93.2508 107.883 91.7891Z" fill="#8C704E"/>
<path d="M146.874 93.9038C145.266 93.4668 143.001 91.5681 142.273 90.4731C139.937 87.0424 142.494 76.4541 144.463 69.8791C143.222 73.8221 141.76 78.2724 141.248 79.5181C140.811 80.6834 138.33 79.5884 138.912 78.2724C139.204 77.6194 144.754 63.304 144.096 63.9621C144.463 63.2337 145.779 62.9575 148.26 63.8917C149.317 64.1943 150.274 64.7734 151.033 65.5694C151.108 65.6397 151.254 65.7854 151.254 65.8607C151.262 66.0041 151.214 66.1451 151.121 66.2538C151.027 66.3626 150.894 66.4306 150.751 66.4434C148.707 71.9937 145.643 82.2908 145.643 87.7658C145.643 89.8101 146.08 90.5434 146.954 90.5434C149.656 90.5434 152.434 86.0881 154.694 81.0501C157.834 74.1134 159.15 68.4928 160.611 64.3991C160.682 64.2534 160.757 63.8164 161.269 63.7461C161.34 63.6707 161.415 63.6707 161.561 63.6707C162.726 63.6707 164.846 64.7657 165.428 65.5694C165.508 65.6476 165.559 65.7501 165.574 65.8607C165.582 66.0041 165.535 66.1451 165.441 66.2538C165.347 66.3626 165.215 66.4306 165.072 66.4434C163.098 71.9937 159.958 82.2908 159.958 87.7658C159.958 89.8101 160.325 90.5434 161.199 90.5434C162.806 90.5434 165.363 85.7968 168.573 78.2724C169.015 77.2678 171.421 78.1267 171.129 78.9304C167.905 87.7708 164.841 93.9791 161.827 93.9791C161.582 93.988 161.337 93.9626 161.099 93.9038C159.491 93.4668 157.226 91.5681 156.498 90.4731C155.769 89.3781 155.493 87.9164 155.493 85.8721V85.8018C153.012 90.0361 149.872 93.9791 147.607 93.9791C147.36 93.9919 147.113 93.9665 146.874 93.9038Z" fill="#8C704E"/>
<path d="M0.22101 111.298H2.9786L2.94344 111.509H0V104.984H0.22101V111.298Z" fill="#8C704E"/>
<path d="M9.91901 109.505C9.91901 110.7 9.33635 111.585 7.93496 111.585C6.53356 111.585 5.92578 110.7 5.92578 109.505V104.984H6.14679V109.505C6.14679 110.625 6.64908 111.404 7.91486 111.404C9.18064 111.404 9.67791 110.61 9.67791 109.505V104.984H9.89892L9.91901 109.505Z" fill="#8C704E"/>
<path d="M17.3951 111.514H17.169L15.2151 108.114L13.3064 111.514H13.0703L15.0795 107.998L13.2963 104.984H13.5475L15.2051 107.832L16.8626 104.984H17.0887L15.3357 107.963L17.3951 111.514Z" fill="#8C704E"/>
<path d="M24.4815 109.505C24.4815 110.7 23.8938 111.585 22.4975 111.585C21.1011 111.585 20.4883 110.7 20.4883 109.505V104.984H20.7093V109.505C20.7093 110.625 21.2116 111.404 22.4824 111.404C23.7532 111.404 24.2454 110.61 24.2454 109.505V104.984H24.4664L24.4815 109.505Z" fill="#8C704E"/>
<path d="M30.4589 108.405H28.8616V111.514H28.6406V104.984H30.0671C31.574 104.984 32.2119 105.607 32.2119 106.682C32.2119 107.757 31.564 108.224 30.7051 108.375L32.5334 111.509H32.2772L30.4589 108.405ZM30.2128 108.204C31.2777 108.204 31.996 107.742 31.996 106.697C31.996 105.758 31.4937 105.19 30.042 105.19H28.8616V108.204H30.2128Z" fill="#8C704E"/>
<path d="M37.1537 108.912V111.514H36.9327V108.927L34.8633 104.984H35.1094L37.0483 108.711L38.9419 104.984H39.1931L37.1537 108.912Z" fill="#8C704E"/>
<path d="M48.7469 111.514H48.4757L46.3008 104.984H46.5318L48.5912 111.308L50.6707 104.984H50.9018L48.7469 111.514Z" fill="#8C704E"/>
<path d="M54.4827 111.514H54.2617V104.984H54.4827V111.514Z" fill="#8C704E"/>
<path d="M58.9593 111.298H61.7169L61.6767 111.509H58.7383V104.984H58.9593V111.298Z" fill="#8C704E"/>
<path d="M65.2405 111.298H67.9981L67.958 111.509H65.0195V104.984H65.2405V111.298Z" fill="#8C704E"/>
<path d="M74.2828 109.565H71.2691L70.6061 111.514H70.4102L72.6805 104.984H72.9216L75.202 111.514H74.9308L74.2828 109.565ZM74.2175 109.364L72.781 105.16L71.3444 109.364H74.2175Z" fill="#8C704E"/>
<path d="M81.6294 105.552L81.4837 105.713C81.2788 105.505 81.0326 105.342 80.7609 105.234C80.4893 105.127 80.1983 105.078 79.9065 105.09C78.9572 105.09 78.3544 105.637 78.3544 106.396C78.3544 107.154 78.7814 107.516 79.9919 107.903C81.2024 108.289 81.8303 108.716 81.8303 109.781C81.833 110.038 81.7814 110.293 81.6791 110.529C81.5767 110.764 81.4259 110.976 81.2363 111.149C81.0467 111.323 80.8227 111.454 80.5788 111.535C80.335 111.616 80.0768 111.645 79.8211 111.62C79.4593 111.625 79.1001 111.558 78.7646 111.422C78.4291 111.287 78.124 111.086 77.8672 110.831L78.0129 110.69C78.2474 110.927 78.528 111.113 78.8374 111.236C79.1467 111.36 79.4781 111.419 79.8111 111.409C80.886 111.409 81.6043 110.776 81.6043 109.791C81.6043 108.807 81.102 108.48 79.8965 108.094C78.5754 107.682 78.1183 107.28 78.1183 106.411C78.1183 105.542 78.8165 104.904 79.8914 104.904C80.2097 104.89 80.5276 104.94 80.8261 105.052C81.1246 105.163 81.3978 105.333 81.6294 105.552Z" fill="#8C704E"/>
<path d="M93.4636 106.26C93.4636 107.034 92.9261 107.476 91.8814 108.043L94.1517 110.168C94.4778 109.522 94.7079 108.831 94.8348 108.119L95.0458 108.174C94.9051 108.919 94.6492 109.637 94.2873 110.304L95.533 111.459L95.3572 111.575L94.1819 110.51C93.9491 110.866 93.6286 111.156 93.2512 111.352C92.8738 111.548 92.4522 111.644 92.027 111.63C91.7922 111.649 91.556 111.62 91.3327 111.545C91.1094 111.47 90.9036 111.351 90.7279 111.194C90.5522 111.037 90.4102 110.846 90.3106 110.633C90.211 110.419 90.1558 110.188 90.1484 109.952C90.1484 109.063 90.6758 108.536 91.5649 108.038C90.8768 107.375 90.5603 107.034 90.5603 106.326C90.5594 106.134 90.5975 105.945 90.6722 105.768C90.7468 105.592 90.8566 105.433 90.9947 105.3C91.1328 105.168 91.2965 105.065 91.4757 104.998C91.6549 104.93 91.8459 104.9 92.0371 104.909C92.2213 104.897 92.406 104.922 92.5798 104.985C92.7535 105.047 92.9124 105.145 93.0464 105.272C93.1804 105.399 93.2867 105.552 93.3585 105.722C93.4303 105.893 93.4661 106.076 93.4636 106.26ZM90.3694 109.927C90.3726 110.136 90.419 110.341 90.5058 110.531C90.5926 110.721 90.7179 110.891 90.8738 111.03C91.0296 111.168 91.2126 111.273 91.4111 111.338C91.6096 111.402 91.8194 111.425 92.027 111.404C92.4251 111.42 92.8205 111.331 93.1732 111.146C93.526 110.961 93.8236 110.686 94.0362 110.349L91.7106 108.139C90.8416 108.616 90.3694 109.133 90.3694 109.927ZM90.7914 106.29C90.7914 106.833 90.9169 107.124 91.7508 107.908C92.7553 107.38 93.2576 106.948 93.2576 106.26C93.265 106.101 93.2387 105.942 93.1805 105.793C93.1222 105.645 93.0333 105.51 92.9196 105.398C92.8058 105.286 92.6698 105.2 92.5204 105.144C92.3709 105.088 92.2113 105.065 92.0521 105.075C91.888 105.066 91.7238 105.091 91.5698 105.148C91.4158 105.205 91.2752 105.294 91.1569 105.408C91.0386 105.522 90.9451 105.659 90.8822 105.811C90.8193 105.963 90.7884 106.126 90.7914 106.29Z" fill="#8C704E"/>
<path d="M106.831 109.565H103.818L103.155 111.514H102.934L105.204 104.984H105.465L107.741 111.514H107.504L106.831 109.565ZM106.766 109.364L105.33 105.16L103.893 109.364H106.766Z" fill="#8C704E"/>
<path d="M114.709 106.873C114.709 108.279 113.75 108.807 112.363 108.807H111.309V111.514H111.098V104.984H112.419C113.895 104.984 114.709 105.542 114.709 106.873ZM114.478 106.873C114.478 105.637 113.76 105.175 112.409 105.175H111.309V108.596H112.384C113.609 108.606 114.478 108.174 114.478 106.883V106.873Z" fill="#8C704E"/>
<path d="M120.753 109.565H117.74L117.076 111.514H116.855L119.131 104.984H119.387L121.642 111.514H121.401L120.753 109.565ZM120.688 109.364L119.251 105.16L117.815 109.364H120.688Z" fill="#8C704E"/>
<path d="M126.838 108.405H125.241V111.514H125.02V104.984H126.446C127.953 104.984 128.591 105.607 128.591 106.682C128.613 107.106 128.467 107.521 128.185 107.838C127.903 108.155 127.507 108.348 127.084 108.375L128.912 111.509H128.656L126.838 108.405ZM126.592 108.204C127.652 108.204 128.37 107.742 128.37 106.697C128.37 105.758 127.868 105.19 126.416 105.19H125.241V108.204H126.592Z" fill="#8C704E"/>
<path d="M135.432 105.195H133.423V111.514H133.197V105.195H131.188V104.984H135.467L135.432 105.195Z" fill="#8C704E"/>
<path d="M143.865 111.514H143.654L143.277 108.209C143.167 107.129 143.021 105.843 142.956 105.195L141.067 110.721H140.856L138.943 105.195C138.892 105.723 138.732 107.084 138.626 108.129L138.27 111.514H138.059L138.762 104.984H139.083L140.962 110.434L142.82 104.984H143.147L143.865 111.514Z" fill="#8C704E"/>
<path d="M150.747 105.185H147.919V107.963H150.355V108.164H147.919V111.308H150.842V111.509H147.703V104.984H150.777L150.747 105.185Z" fill="#8C704E"/>
<path d="M158.315 111.514H158.048L154.532 105.23C154.532 105.567 154.563 105.999 154.563 106.943V111.514H154.352V104.984H154.628L158.144 111.258C158.144 110.876 158.114 110.294 158.114 109.545V104.984H158.315V111.514Z" fill="#8C704E"/>
<path d="M165.798 105.195H163.789V111.514H163.568V105.195H161.559V104.984H165.843L165.798 105.195Z" fill="#8C704E"/>
<path d="M171.95 105.552L171.804 105.713C171.599 105.505 171.353 105.342 171.081 105.235C170.81 105.127 170.519 105.078 170.227 105.09C169.277 105.09 168.675 105.637 168.675 106.396C168.675 107.154 169.107 107.516 170.312 107.903C171.518 108.289 172.151 108.716 172.151 109.781C172.153 110.038 172.102 110.293 171.999 110.529C171.897 110.764 171.746 110.976 171.557 111.149C171.367 111.323 171.143 111.454 170.899 111.535C170.655 111.616 170.397 111.645 170.141 111.62C169.78 111.626 169.42 111.559 169.085 111.423C168.749 111.288 168.444 111.086 168.188 110.831L168.328 110.69C168.564 110.926 168.846 111.112 169.156 111.235C169.466 111.359 169.798 111.418 170.131 111.409C171.201 111.409 171.92 110.776 171.92 109.791C171.92 108.807 171.417 108.48 170.217 108.094C168.896 107.682 168.434 107.28 168.434 106.411C168.434 105.542 169.132 104.904 170.207 104.904C170.526 104.889 170.845 104.939 171.144 105.05C171.444 105.162 171.718 105.332 171.95 105.552Z" fill="#8C704E"/>
<path d="M147.903 52.133C149.41 45.6032 144.542 37.9784 137.797 36.5619C137.704 36.5501 137.611 36.5641 137.526 36.6024C137.441 36.6408 137.369 36.7019 137.317 36.7789C137.264 36.856 137.235 36.946 137.231 37.039C137.227 37.1319 137.249 37.2242 137.294 37.3053C138.299 38.9478 139.339 40.5954 140.383 42.273C140.428 42.3382 140.487 42.392 140.556 42.4301C140.625 42.4683 140.701 42.4897 140.78 42.4926C140.859 42.4956 140.937 42.4799 141.009 42.447C141.08 42.4141 141.143 42.3648 141.192 42.3032L141.262 42.2077C141.302 42.1538 141.351 42.1083 141.408 42.0738C141.465 42.0393 141.529 42.0165 141.595 42.0066C141.66 41.9968 141.728 42.0002 141.792 42.0166C141.857 42.033 141.917 42.0621 141.971 42.1022C143.372 43.3379 142.473 45.9649 144.984 46.5626C145.376 46.658 145.366 48.4462 145.452 49.4357C145.461 49.5217 145.492 49.6038 145.542 49.6742C145.592 49.7446 145.66 49.8009 145.738 49.8376C146.743 50.3399 146.918 51.1636 146.933 52.0225C146.948 52.1341 146.999 52.2376 147.079 52.3165C147.159 52.3955 147.263 52.4453 147.375 52.458C147.486 52.4708 147.599 52.4457 147.695 52.3868C147.791 52.3278 147.864 52.2385 147.903 52.133Z" fill="#8C704E"/>
<path d="M138.266 35.924L144.294 37.1948C144.36 37.2134 144.43 37.2146 144.497 37.1984C144.564 37.1822 144.625 37.149 144.676 37.1021C144.726 37.0552 144.764 36.9962 144.785 36.9306C144.806 36.865 144.81 36.7951 144.796 36.7276L144.741 36.4162C144.727 36.3606 144.726 36.3029 144.736 36.2467C144.747 36.1905 144.769 36.1371 144.801 36.0899C144.833 36.0427 144.875 36.0026 144.923 35.9723C144.971 35.942 145.026 35.9221 145.082 35.9139C146.991 35.6678 148.272 38.2345 150.487 36.803C150.828 36.577 152.149 37.8678 152.923 38.4806C152.98 38.5251 153.047 38.5537 153.119 38.5634C153.19 38.5731 153.263 38.5636 153.33 38.5359C154.691 38.0336 155.45 38.8423 156.228 39.6058C156.299 39.6759 156.393 39.7176 156.492 39.7231C156.592 39.7286 156.69 39.6975 156.767 39.6356C156.845 39.5737 156.898 39.4853 156.915 39.3873C156.933 39.2892 156.913 39.1883 156.861 39.1035C153.385 32.9956 143.982 31.0015 138.13 35.1856C138.065 35.2307 138.015 35.2937 137.984 35.3669C137.954 35.4402 137.946 35.5206 137.96 35.5986C137.974 35.6765 138.011 35.7487 138.065 35.8064C138.119 35.8641 138.189 35.9049 138.266 35.924Z" fill="#8C704E"/>
<path d="M111.383 19.9359L113.97 20.167C114.055 20.1761 114.137 20.2054 114.209 20.2526C114.28 20.2998 114.34 20.3634 114.382 20.4382C115.889 22.9497 118.902 22.3771 120.304 23.9543C120.352 24.0115 120.388 24.0783 120.408 24.1504C120.429 24.2224 120.434 24.2981 120.423 24.3722C120.412 24.4463 120.386 24.5173 120.345 24.5804C120.305 24.6434 120.251 24.6971 120.188 24.7379L119.887 24.9388C119.811 24.9903 119.749 25.0604 119.708 25.1424C119.667 25.2243 119.648 25.3155 119.652 25.4071C119.656 25.4987 119.683 25.5878 119.731 25.6659C119.779 25.7439 119.847 25.8083 119.927 25.853L126.306 29.4745C126.399 29.5281 126.506 29.5525 126.613 29.5447C126.72 29.5369 126.823 29.4972 126.907 29.4307C126.991 29.3642 127.054 29.274 127.086 29.1717C127.119 29.0694 127.12 28.9597 127.09 28.8567C124.443 20.2423 114.789 14.26 107.42 17.0327C107.31 17.0786 107.219 17.1595 107.16 17.2628C107.101 17.3662 107.078 17.4861 107.095 17.6038C107.112 17.7215 107.167 17.8303 107.252 17.9133C107.337 17.9963 107.447 18.0487 107.566 18.0624L110.539 18.3738C110.626 18.3827 110.71 18.4129 110.783 18.4617C110.856 18.5104 110.916 18.5764 110.958 18.6537C111 18.731 111.022 18.8174 111.022 18.9052C111.023 18.993 111.002 19.0796 110.961 19.1574C110.92 19.2349 110.899 19.3212 110.9 19.4088C110.9 19.4964 110.922 19.5825 110.964 19.6595C111.006 19.7365 111.066 19.802 111.139 19.8502C111.212 19.8984 111.296 19.9279 111.383 19.9359Z" fill="#8C704E"/>
<path d="M117.52 31.0719L117.39 31.3834C117.356 31.4629 117.343 31.5499 117.352 31.6359C117.362 31.7219 117.393 31.804 117.444 31.8742C117.494 31.9444 117.562 32.0004 117.641 32.0368C117.719 32.0731 117.806 32.0885 117.892 32.0815L124.778 31.5792C124.881 31.5749 124.98 31.5391 125.062 31.4766C125.144 31.4141 125.205 31.3279 125.236 31.2298C125.267 31.1317 125.267 31.0263 125.237 30.928C125.206 30.8297 125.146 30.7432 125.065 30.6801C118.495 25.3257 107.816 25.6823 103.491 31.6847C103.423 31.7775 103.39 31.8906 103.395 32.0052C103.401 32.1199 103.445 32.2292 103.522 32.3149C103.598 32.4006 103.701 32.4576 103.815 32.4764C103.928 32.4952 104.044 32.4746 104.144 32.4181L106.656 31.1021C106.729 31.0627 106.81 31.0421 106.894 31.042C106.977 31.042 107.058 31.0626 107.131 31.1019C107.205 31.1412 107.267 31.198 107.313 31.2673C107.359 31.3366 107.386 31.4162 107.394 31.4989C107.402 31.5819 107.43 31.6616 107.477 31.7309C107.523 31.8001 107.586 31.8568 107.66 31.8956C107.734 31.9345 107.816 31.9544 107.899 31.9535C107.983 31.9527 108.064 31.9311 108.137 31.8907L110.287 30.7153C110.359 30.6783 110.438 30.659 110.518 30.659C110.599 30.659 110.678 30.6783 110.749 30.7153C113.261 31.9057 115.305 29.8714 117.214 30.3587C117.285 30.3793 117.351 30.4155 117.407 30.4647C117.462 30.5138 117.506 30.5747 117.536 30.6429C117.565 30.7111 117.579 30.785 117.576 30.8591C117.573 30.9333 117.554 31.006 117.52 31.0719Z" fill="#8C704E"/>
<path d="M123.855 11.4472C124.86 12.2308 125.864 12.9842 126.965 13.8281C127.033 13.8824 127.087 13.9539 127.119 14.0353C127.152 14.1167 127.163 14.2052 127.151 14.2921C127.138 14.379 127.104 14.4611 127.05 14.5304C126.996 14.5997 126.925 14.6537 126.844 14.687L125.96 15.0386C125.895 15.0654 125.837 15.1054 125.789 15.156C125.741 15.2065 125.704 15.2666 125.68 15.3323C125.657 15.398 125.647 15.4679 125.652 15.5375C125.657 15.6072 125.676 15.675 125.709 15.7368C126.879 17.8816 128.06 19.8656 129.28 21.7643C129.327 21.8456 129.35 21.9384 129.347 22.0322C129.344 22.1259 129.314 22.2169 129.262 22.2948C129.21 22.3727 129.137 22.4344 129.051 22.4729C128.965 22.5114 128.871 22.5252 128.778 22.5127L127.361 22.2565C127.276 22.2439 127.188 22.2535 127.108 22.2846C127.027 22.3156 126.956 22.3669 126.901 22.4336C126.845 22.5003 126.809 22.5801 126.793 22.6652C126.778 22.7503 126.785 22.838 126.814 22.9196C127.926 25.7883 129.189 28.5966 130.596 31.333C130.647 31.422 130.724 31.4933 130.817 31.5372C130.91 31.5812 131.014 31.5956 131.115 31.5787C131.216 31.5617 131.31 31.5141 131.383 31.4424C131.456 31.3706 131.506 31.2781 131.525 31.1773C133.715 17.6154 131.721 4.52558 122.414 5.70095C122.321 5.71755 122.235 5.75988 122.165 5.8231C122.095 5.88632 122.045 5.96789 122.019 6.05849C121.993 6.1491 121.994 6.24508 122.02 6.33551C122.046 6.42594 122.097 6.50717 122.168 6.56992C123.258 7.47907 124.242 8.29781 125.337 9.19189C125.401 9.24657 125.451 9.31656 125.481 9.3954C125.511 9.47423 125.521 9.55937 125.509 9.64296C125.498 9.72655 125.465 9.80589 125.415 9.87366C125.365 9.94143 125.298 9.99544 125.222 10.0307C124.719 10.2417 124.327 10.4175 123.956 10.5883C123.876 10.6237 123.807 10.6792 123.755 10.7495C123.703 10.8198 123.671 10.9024 123.661 10.9891C123.65 11.0758 123.663 11.1636 123.697 11.244C123.731 11.3243 123.786 11.3943 123.855 11.4472Z" fill="#8C704E"/>
<path d="M140.554 29.786C140.495 29.7357 140.454 29.6686 140.436 29.5938C140.417 29.5191 140.422 29.4404 140.45 29.3687C140.479 29.2971 140.528 29.2359 140.593 29.1936C140.657 29.1514 140.733 29.1302 140.81 29.133C142.995 29.1883 145.165 29.3038 147.37 29.4746C147.435 29.4804 147.5 29.4689 147.559 29.4411C147.618 29.4134 147.668 29.3705 147.705 29.3168C147.742 29.2631 147.764 29.2005 147.768 29.1356C147.773 29.0706 147.76 29.0056 147.732 28.9472C147.576 28.6307 147.43 28.3193 147.285 28.0079C147.252 27.935 147.243 27.8535 147.26 27.7754C147.277 27.6973 147.319 27.6268 147.379 27.5743C147.44 27.5219 147.515 27.4903 147.595 27.4843C147.675 27.4782 147.754 27.498 147.822 27.5408C148.892 28.239 149.977 28.9371 151.298 29.781C151.359 29.8202 151.429 29.8408 151.502 29.8403C151.574 29.8399 151.645 29.8183 151.705 29.7784C151.765 29.7384 151.812 29.6817 151.841 29.6152C151.869 29.5488 151.878 29.4755 151.865 29.4043C151.785 28.9422 151.73 28.5654 151.67 28.1736C151.66 28.1056 151.669 28.0362 151.696 27.9731C151.723 27.91 151.767 27.8556 151.823 27.816C151.88 27.7765 151.946 27.7533 152.014 27.749C152.083 27.7448 152.151 27.7596 152.212 27.7919L156.014 29.8011C156.082 29.833 156.158 29.8437 156.232 29.8318C156.306 29.8198 156.374 29.7859 156.429 29.7343C156.483 29.6827 156.52 29.6159 156.536 29.5427C156.552 29.4695 156.545 29.3932 156.517 29.3239C153.076 21.6991 139.288 21.5434 132.813 33.2719C132.785 33.3358 132.775 33.4066 132.785 33.4758C132.795 33.5451 132.825 33.61 132.871 33.6629C132.917 33.7157 132.977 33.7543 133.045 33.774C133.112 33.7937 133.183 33.7938 133.25 33.7742C136.013 32.9053 138.816 32.1669 141.679 31.5641C141.747 31.5512 141.809 31.5195 141.86 31.4725C141.91 31.4256 141.947 31.3654 141.964 31.2988C141.982 31.2322 141.981 31.1619 141.961 31.096C141.94 31.0301 141.902 30.9712 141.85 30.9262L140.554 29.786Z" fill="#8C704E"/>
<path d="M139.001 46.5977C139.019 46.5713 139.044 46.5507 139.074 46.5387C139.103 46.5266 139.136 46.5236 139.167 46.5301C139.198 46.5366 139.227 46.5522 139.249 46.575C139.271 46.5977 139.286 46.6267 139.292 46.658C139.543 48.0092 139.795 49.1444 140.056 50.3097L140.92 49.4106C141.226 50.8019 141.543 52.0979 141.924 53.5495C141.931 53.5866 141.95 53.6202 141.979 53.6444C142.008 53.6686 142.045 53.6819 142.083 53.6819C142.12 53.6819 142.157 53.6686 142.186 53.6444C142.215 53.6202 142.234 53.5866 142.241 53.5495C143.441 45.4274 138.68 37.4208 132.265 36.5016C132.236 36.4989 132.207 36.5035 132.18 36.5152C132.154 36.5268 132.131 36.5451 132.113 36.5682C132.095 36.5914 132.084 36.6186 132.08 36.6474C132.076 36.6762 132.079 36.7055 132.089 36.7327C133.094 39.0884 134.099 41.2885 135.334 43.589C135.349 43.6189 135.373 43.6435 135.403 43.6592C135.432 43.6749 135.466 43.6809 135.499 43.6765C135.532 43.6721 135.563 43.6574 135.588 43.6345C135.612 43.6116 135.629 43.5816 135.636 43.5488C135.826 42.5442 135.977 41.8762 136.138 41.0926C136.147 41.058 136.167 41.0274 136.195 41.0055C136.223 40.9836 136.258 40.9717 136.294 40.9717C136.329 40.9717 136.364 40.9836 136.392 41.0055C136.42 41.0274 136.44 41.058 136.449 41.0926C136.886 43.1872 137.389 45.2215 138.082 47.537C138.091 47.5668 138.109 47.5933 138.133 47.6133C138.157 47.6334 138.186 47.6463 138.217 47.6505C138.248 47.6547 138.28 47.65 138.308 47.6371C138.337 47.6241 138.361 47.6033 138.378 47.5772C138.659 47.1503 138.825 46.874 139.001 46.5977Z" fill="#8C704E"/>
<path d="M140.105 24.0497L139.452 24.105C139.368 24.1116 139.284 24.0929 139.21 24.0511C139.137 24.0094 139.078 23.9466 139.041 23.8709C139.003 23.7951 138.989 23.7099 139.001 23.6263C139.013 23.5427 139.049 23.4644 139.106 23.4017L142.536 19.6245L141.793 19.6747C141.721 19.6798 141.648 19.6661 141.583 19.6352C141.518 19.6042 141.461 19.557 141.419 19.4979C141.378 19.4389 141.352 19.3701 141.344 19.2982C141.336 19.2262 141.347 19.1535 141.376 19.087L142.27 16.9674C142.312 16.8739 142.318 16.7685 142.287 16.6709C142.257 16.5732 142.192 16.49 142.105 16.4365C142.018 16.3831 141.914 16.3632 141.813 16.3804C141.712 16.3977 141.621 16.451 141.557 16.5304L139.126 19.4688C139.108 19.4863 139.092 19.5067 139.081 19.5291L136.896 23.462C136.846 23.5466 136.77 23.6116 136.678 23.6464C136.587 23.6811 136.486 23.6834 136.393 23.6529L135.891 23.457C135.833 23.4363 135.771 23.4285 135.71 23.4339C135.649 23.4393 135.589 23.4579 135.536 23.4885C135.482 23.519 135.436 23.5607 135.4 23.6108C135.365 23.6608 135.34 23.718 135.328 23.7785L134.706 27.2543C134.69 27.3438 134.703 27.436 134.744 27.5171C134.785 27.5983 134.851 27.6641 134.932 27.7047C135.014 27.7454 135.106 27.7587 135.195 27.7427C135.285 27.7267 135.367 27.6823 135.429 27.616C136.869 26.2797 138.435 25.0855 140.105 24.0497Z" fill="#8C704E"/>
<path d="M129.43 35.2911C123.518 27.5608 108.61 37.456 107.154 55.1468C107.146 55.2324 107.171 55.3175 107.224 55.3857C107.276 55.4539 107.351 55.5003 107.436 55.516C107.52 55.5316 107.607 55.5153 107.681 55.4703C107.754 55.4253 107.808 55.3548 107.832 55.2724C108.5 53.0221 109.213 50.8873 110.092 48.5266C110.108 48.4722 110.144 48.4256 110.192 48.3958C110.24 48.366 110.298 48.355 110.354 48.365C110.41 48.3749 110.46 48.405 110.495 48.4497C110.53 48.4943 110.548 48.5503 110.544 48.6069C110.544 49.2649 110.544 49.7974 110.544 50.3298C110.543 50.3854 110.563 50.4395 110.599 50.4819C110.634 50.5244 110.685 50.5525 110.74 50.5611C110.794 50.5696 110.851 50.5581 110.898 50.5285C110.945 50.4989 110.98 50.4533 110.996 50.4001C111.79 48.1498 112.558 46.1758 113.538 43.9055C113.557 43.8542 113.594 43.8114 113.642 43.7849C113.69 43.7584 113.746 43.7498 113.8 43.7606C113.853 43.7715 113.901 43.8011 113.935 43.8442C113.969 43.8873 113.987 43.9411 113.985 43.9959C113.985 44.4429 113.985 44.8096 113.985 45.1311C113.984 45.2057 114.008 45.2785 114.053 45.3383C114.098 45.398 114.161 45.4415 114.232 45.462C114.304 45.4825 114.381 45.479 114.45 45.4518C114.52 45.4247 114.579 45.3756 114.618 45.3119C116.25 42.8004 117.943 40.4798 119.711 38.2446C119.748 38.1962 119.8 38.1624 119.86 38.1493C119.919 38.1362 119.981 38.1445 120.035 38.1729C120.088 38.2013 120.13 38.2478 120.153 38.3042C120.175 38.3605 120.177 38.4231 120.158 38.4807C119.897 39.3698 119.656 40.2588 119.384 41.2483C119.365 41.3212 119.37 41.3984 119.398 41.4682C119.427 41.5381 119.477 41.5967 119.542 41.6354C119.606 41.674 119.682 41.6904 119.757 41.6822C119.832 41.674 119.902 41.6416 119.957 41.5899C126.572 35.4971 126.808 35.929 128.436 36.361" fill="#8C704E"/>
<path d="M27.5742 128.899C27.5742 123.298 31.9542 116.577 35.9424 116.577C36.4753 116.548 37.0085 116.629 37.5084 116.816C38.0084 117.003 38.4645 117.291 38.8479 117.662C39.2313 118.033 39.5339 118.479 39.7367 118.973C39.9394 119.467 40.0379 119.997 40.0261 120.53C40.0261 123.69 37.2936 127.176 36.073 127.176C35.4955 127.037 34.9895 126.69 34.6515 126.201C34.6513 126.182 34.6552 126.164 34.663 126.146C34.6708 126.129 34.6822 126.113 34.6966 126.101C34.7109 126.089 34.7278 126.079 34.7461 126.074C34.7643 126.069 34.7835 126.068 34.8022 126.071H34.8374C34.8873 126.079 34.9382 126.079 34.9881 126.071C35.8319 126.071 38.6799 122.831 38.6799 119.646C38.6799 117.813 37.7808 117.532 36.9169 117.532C33.0442 117.532 29.1866 123.805 29.1866 129.456C29.1866 132.736 30.3268 135.207 33.004 135.207C35.5858 135.207 37.4594 132.827 38.7151 129.868C38.7441 129.813 38.7917 129.769 38.8495 129.745C38.9074 129.721 38.9719 129.719 39.0315 129.737C39.4434 129.943 39.3882 129.943 39.3128 130.205C38.0973 133.56 35.9826 136.086 32.9488 136.086C29.1112 136.127 27.5742 132.716 27.5742 128.899Z" fill="#8C704E"/>
<path d="M38.5664 131.295C38.5664 129.049 39.8975 126.166 42.2934 126.166C42.5992 126.163 42.9022 126.225 43.1827 126.347C43.4631 126.469 43.7146 126.649 43.9209 126.874C43.961 126.799 43.9811 126.689 44.1117 126.668C44.4633 126.593 45.2168 127.025 45.2168 127.211C45.2182 127.249 45.2048 127.286 45.1795 127.314C45.1542 127.342 45.1189 127.359 45.0812 127.362C44.2976 129.516 43.4336 133.037 44.2574 133.037C44.7295 133.037 45.7643 130.863 46.151 129.888C46.2465 129.667 46.8643 129.888 46.7889 130.114C46.3369 131.445 45.2168 133.917 44.4282 133.917C44.3666 133.926 44.3039 133.926 44.2423 133.917C43.7751 133.738 43.3665 133.434 43.0619 133.037C42.8613 132.658 42.7708 132.23 42.8007 131.802C42.2984 132.53 41.1683 133.952 40.2893 133.952C39.1089 133.932 38.5664 132.736 38.5664 131.295ZM43.3633 127.623C43.3557 127.406 43.2695 127.199 43.1207 127.041C42.9719 126.883 42.7707 126.784 42.5546 126.764C40.7765 126.764 39.787 130.004 39.787 131.837C39.787 132.55 39.9326 133.037 40.2541 133.037C41.4144 133.037 43.4336 129.255 43.3633 127.623Z" fill="#8C704E"/>
<path d="M48.8843 133.465C48.7162 133.341 48.5702 133.19 48.4523 133.017C48.2699 132.679 48.1863 132.296 48.2112 131.912C48.3152 130.455 48.5917 129.015 49.035 127.623C48.6037 127.452 48.1899 127.24 47.7993 126.99C47.4427 128.206 47.1062 129.235 46.7947 130.114C46.6642 130.431 46.2523 130.154 46.1769 129.964C46.1367 129.888 46.1769 129.888 46.2121 129.758C46.6039 128.823 47.0007 127.748 47.3372 126.668C45.8303 125.508 46.4381 124.554 47.2066 124.574C47.9751 124.594 48.2363 125.433 48.0455 126.126C48.0455 126.503 49.5825 127.306 50.0546 127.532C50.2405 127.623 50.2606 127.814 50.2053 128.035C50.2053 128.07 49.3062 130.822 49.3062 132.339C49.3062 132.842 49.4167 133.053 49.6428 133.053C49.9441 133.053 50.562 132.093 51.2149 130.617L51.5364 129.903C51.6469 129.622 52.1894 130.054 52.1341 130.225C52.0186 130.541 51.5364 131.732 51.3305 132.169C50.8784 133.088 50.2807 133.932 49.8236 133.932H49.693C49.3954 133.83 49.1206 133.672 48.8843 133.465Z" fill="#8C704E"/>
<path d="M52.426 133.017C52.1045 132.585 52.1447 131.651 52.2954 130.601C52.4819 129.518 52.7438 128.449 53.0789 127.402C52.7223 128.487 52.2753 129.853 52.1447 130.21C52.0141 130.566 51.3963 130.21 51.547 129.888C51.6223 129.722 53.0538 126.051 52.873 126.221C53.0789 125.789 54.4452 126.277 54.6712 126.633C54.689 126.652 54.7009 126.675 54.7055 126.7C54.7101 126.726 54.7071 126.752 54.6969 126.775C54.6867 126.799 54.6698 126.819 54.6482 126.833C54.6267 126.847 54.6015 126.854 54.5758 126.854C54.1398 128.079 53.7841 129.331 53.5109 130.601C53.3831 131.168 53.3075 131.744 53.2849 132.324C53.2849 132.827 53.4004 133.037 53.6214 133.037C54.1237 133.037 54.6712 131.837 55.5151 129.888C55.6256 129.627 56.2635 129.798 56.153 130.114C55.4598 132.123 54.5959 133.917 53.7922 133.917C53.2424 133.793 52.7565 133.474 52.426 133.017ZM53.5662 124.981C54.0333 123.705 54.1086 123.519 54.2242 123.474C54.4336 123.465 54.6426 123.499 54.8386 123.573C55.0346 123.647 55.2135 123.76 55.3644 123.906C55.4196 124.001 55.3995 124.072 55.2539 124.147C55.1032 124.559 54.8973 125.086 54.7516 125.478C54.4452 125.578 53.5863 125.357 53.5662 124.986V124.981Z" fill="#8C704E"/>
<path d="M54.8398 133.354C55.6988 126.99 59.6518 118.471 60.3249 118.471C60.6815 118.471 61.3546 118.973 61.3546 119.199C61.3546 119.234 61.2993 119.35 61.2039 119.35C60.8473 119.35 58.9185 123.559 57.5723 127.457C57.7864 127.124 58.066 126.837 58.3941 126.615C58.7222 126.394 59.092 126.241 59.481 126.166C60.792 126.236 61.4098 127.326 61.4902 128.677C61.5856 130.551 60.6313 132.475 59.8427 132.982C61.0231 132.666 61.8519 131.691 62.4446 130.586C62.569 130.354 62.6813 130.116 62.7811 129.873C62.8765 129.652 63.4944 129.873 63.419 130.099C62.6354 132.309 60.8372 133.916 58.8682 133.916C58.4281 133.942 57.9889 133.854 57.5923 133.661C57.1958 133.469 56.8552 133.178 56.6029 132.816C56.4522 132.61 57.3362 132.048 57.3714 132.199C57.3714 132.269 57.3714 132.962 57.9892 132.962C59.5413 132.962 61.0783 127.01 59.3956 126.749C57.7481 126.975 56.1358 131.842 56.1157 133.861C56.1157 133.901 56.0403 133.916 55.9499 133.916C55.5682 133.931 54.8398 133.73 54.8398 133.354Z" fill="#8C704E"/>
<path d="M62.082 133.354C62.946 126.99 66.894 118.471 67.5671 118.471C67.9237 118.471 68.5717 118.973 68.5717 119.199C68.5717 119.234 68.5164 119.35 68.426 119.35C68.0694 119.35 66.1406 123.559 64.7894 127.457C65.0045 127.123 65.285 126.837 65.6139 126.615C65.9429 126.393 66.3134 126.241 66.7031 126.166C68.0141 126.236 68.6319 127.326 68.7123 128.677C68.8027 130.551 67.8484 132.475 67.0648 132.982C68.2401 132.666 69.074 131.691 69.6667 130.586C69.8525 130.229 69.9831 129.913 70.0032 129.873C70.0936 129.652 70.7114 129.873 70.6361 130.099C69.8525 132.309 68.0543 133.916 66.0903 133.916C65.6501 133.943 65.2105 133.855 64.8138 133.663C64.4171 133.47 64.0766 133.179 63.825 132.816C63.6743 132.61 64.5533 132.048 64.5885 132.199C64.5885 132.269 64.5885 132.962 65.2063 132.962C66.7634 132.962 68.3004 127.01 66.6127 126.749C64.9652 126.975 63.3528 131.842 63.3378 133.861C63.3378 133.901 63.2624 133.916 63.167 133.916C62.8305 133.931 62.082 133.73 62.082 133.354Z" fill="#8C704E"/>
<path d="M73.6162 126.166C74.7212 126.166 75.7158 126.839 75.7158 127.959C75.7158 130.19 72.9431 131.742 71.3508 130.375C71.0143 131.666 71.391 133.038 72.8125 133.038C74.4399 133.038 75.4696 131.988 76.203 130.601C76.4441 130.134 76.4993 129.963 76.5395 129.888C76.65 129.627 77.2327 129.943 77.1573 130.154C76.203 132.666 74.4801 133.932 72.7773 133.932C67.7594 133.932 70.1152 126.166 73.6162 126.166ZM74.666 127.588C74.666 127.196 74.4801 126.764 73.9728 126.764C72.9984 126.764 72.0088 128.226 71.5417 129.647C72.1193 130.938 74.666 130.21 74.666 127.588Z" fill="#8C704E"/>
<path d="M76.3867 131.295C76.3867 129.049 77.7178 126.166 80.1137 126.166C80.4196 126.163 80.7226 126.225 81.003 126.347C81.2834 126.469 81.5349 126.649 81.7412 126.874C81.7814 126.799 81.7964 126.689 81.927 126.668C82.2836 126.593 83.0321 127.025 83.0321 127.211C83.0334 127.229 83.0311 127.248 83.0253 127.266C83.0195 127.283 83.0102 127.299 82.9981 127.313C82.9859 127.327 82.9712 127.339 82.9546 127.347C82.938 127.355 82.92 127.36 82.9015 127.362C82.1179 129.516 81.2539 133.037 82.0777 133.037C82.5448 133.037 83.5846 130.863 83.9714 129.888C84.0618 129.667 84.6796 129.888 84.6093 130.114C84.1572 131.445 83.0321 133.917 82.2485 133.917C82.1869 133.926 82.1242 133.926 82.0626 133.917C81.5954 133.738 81.1868 133.434 80.8823 133.037C80.6816 132.658 80.5911 132.23 80.6211 131.802C80.1188 132.53 78.9886 133.952 78.1096 133.952C76.9392 133.932 76.3867 132.736 76.3867 131.295ZM81.1786 127.623C81.1733 127.406 81.0885 127.199 80.9404 127.04C80.7922 126.882 80.5909 126.784 80.3749 126.764C78.5968 126.764 77.6023 130.004 77.6023 131.837C77.6023 132.55 77.753 133.037 78.0744 133.037C79.2347 133.037 81.2539 129.255 81.1786 127.623Z" fill="#8C704E"/>
<path d="M84.0832 133.354C84.3679 131.482 84.7944 129.635 85.3591 127.829C85.0376 128.803 84.7011 129.868 84.5705 130.189C84.4399 130.511 83.822 130.189 83.9727 129.868C84.0481 129.702 85.4796 126.03 85.2988 126.201C85.3942 126.01 85.7308 125.94 86.3687 126.201C86.6404 126.289 86.8892 126.437 87.097 126.633C87.1123 126.651 87.1227 126.673 87.1272 126.696C87.1316 126.719 87.13 126.743 87.1224 126.765C87.1148 126.787 87.1015 126.807 87.0838 126.823C87.0662 126.839 87.0447 126.849 87.0217 126.854C86.5947 128.075 86.1627 129.441 85.8463 130.712C86.2582 130.079 88.7646 126.166 89.513 126.166C89.7945 126.267 90.064 126.398 90.3167 126.558C90.426 126.613 90.5113 126.706 90.5567 126.82C90.602 126.934 90.6042 127.06 90.5628 127.176C90.1108 128.617 89.0559 132.49 89.5582 132.962C90.0605 133.434 91.0651 131.294 91.6377 129.888C91.7482 129.627 92.4062 129.757 92.2756 130.114C91.7482 131.52 90.5879 134.419 89.4829 133.786C89.1187 133.602 88.7997 133.339 88.5486 133.017C87.8755 132.013 88.8098 128.597 89.1664 127.437C88.7194 127.698 86.655 131.109 85.7609 132.811C85.3289 133.595 85.349 133.69 85.349 133.876C85.349 134.062 84.0832 133.841 84.0832 133.354Z" fill="#8C704E"/>
<path d="M93.7845 136.217L93.3928 135.805C93.3685 135.783 93.351 135.755 93.3422 135.724C93.3335 135.692 93.3339 135.659 93.3434 135.628C93.3529 135.597 93.3711 135.569 93.3959 135.548C93.4206 135.527 93.4509 135.513 93.4832 135.509C94.0307 135.393 94.5882 135.283 95.1307 135.187C95.7686 135.057 96.3513 134.966 97.7376 134.795C97.7181 134.776 97.7027 134.752 97.6924 134.726C97.682 134.7 97.6769 134.673 97.6773 134.645C98.5614 128.281 103.243 117.456 104.122 117.456C104.458 117.456 105.151 117.959 105.151 118.19C105.144 118.23 105.124 118.267 105.092 118.293C105.061 118.32 105.022 118.335 104.981 118.335C104.252 118.335 99.5509 130.004 99.139 134.665C99.1792 134.665 99.1943 134.665 99.2344 134.665C99.6061 134.63 99.9828 134.61 100.36 134.574C100.736 134.539 101.254 134.514 101.706 134.479C101.967 134.479 102.248 134.439 102.509 134.439L104.609 134.384C104.778 134.385 104.946 134.403 105.111 134.439C105.4 134.505 105.665 134.647 105.88 134.851L106.272 135.248C106.344 135.329 106.385 135.434 106.387 135.544C106.387 135.619 106.347 135.619 106.272 135.619C106.123 135.593 105.986 135.521 105.88 135.413C105.74 135.296 105.56 135.237 105.377 135.248C105.081 135.248 104.8 135.248 104.498 135.248C103.715 135.283 102.906 135.303 102.123 135.358C101.465 135.398 100.812 135.453 100.174 135.509C99.5358 135.564 97.9636 135.715 96.8787 135.885C95.9796 135.996 95.1006 136.202 94.2014 136.388C94.1229 136.404 94.0414 136.396 93.9672 136.365C93.893 136.335 93.8295 136.283 93.7845 136.217Z" fill="#8C704E"/>
<path d="M103.914 133.017C103.593 132.585 103.633 131.651 103.784 130.601C103.97 129.518 104.232 128.449 104.567 127.402C104.211 128.487 103.764 129.853 103.633 130.21C103.502 130.566 102.885 130.21 103.035 129.888C103.111 129.722 104.542 126.051 104.361 126.221C104.567 125.789 105.933 126.277 106.159 126.633C106.177 126.652 106.189 126.675 106.194 126.7C106.198 126.726 106.195 126.752 106.185 126.775C106.175 126.799 106.158 126.819 106.137 126.833C106.115 126.847 106.09 126.854 106.064 126.854C105.628 128.079 105.272 129.331 104.999 130.601C104.871 131.168 104.796 131.744 104.773 132.324C104.773 132.827 104.889 133.037 105.11 133.037C105.612 133.037 106.159 131.837 107.003 129.888C107.114 129.627 107.752 129.798 107.641 130.114C106.948 132.123 106.084 133.917 105.28 133.917C104.731 133.793 104.245 133.474 103.914 133.017ZM105.054 124.981C105.522 123.705 105.597 123.519 105.712 123.474C105.922 123.465 106.131 123.499 106.327 123.573C106.523 123.647 106.702 123.76 106.853 123.906C106.908 124.001 106.888 124.072 106.742 124.147C106.591 124.559 106.386 125.086 106.24 125.478C105.933 125.578 105.07 125.357 105.07 124.986L105.054 124.981Z" fill="#8C704E"/>
<path d="M105.671 139.703C105.204 139.1 105.671 134.494 107.339 128.617C108.127 125.789 109.022 123.489 109.398 123.489C109.628 123.532 109.847 123.621 110.043 123.749C110.239 123.878 110.407 124.044 110.538 124.237C110.532 124.272 110.514 124.304 110.488 124.327C110.461 124.351 110.428 124.365 110.393 124.368C110.016 124.368 108.705 127.341 107.545 132.404C109.192 132.46 109.996 131.36 110.614 129.858C110.875 129.225 111.473 129.446 111.252 130.084C110.408 132.5 109.433 132.741 108.238 133.138C108.569 133.692 108.742 134.326 108.74 134.971C108.74 136.584 107.299 140.326 106.626 140.326C106.252 140.218 105.92 140.001 105.671 139.703ZM107.374 133.073C106.947 134.157 106.46 139.155 106.57 139.457C106.776 139.326 108.705 134.343 107.374 133.073Z" fill="#8C704E"/>
<path d="M114.209 126.166C115.314 126.166 116.304 126.839 116.304 127.959C116.304 130.19 113.536 131.742 111.944 130.375C111.607 131.666 111.979 133.038 113.406 133.038C115.033 133.038 116.063 131.988 116.791 130.601C116.916 130.37 117.028 130.132 117.128 129.888C117.243 129.627 117.821 129.943 117.745 130.154C116.791 132.666 115.068 133.932 113.365 133.932C108.347 133.932 110.708 126.166 114.209 126.166ZM115.259 127.588C115.259 127.196 115.068 126.764 114.566 126.764C113.591 126.764 112.597 128.226 112.13 129.647C112.712 130.938 115.259 130.21 115.259 127.588Z" fill="#8C704E"/>
<path d="M120.691 133.655C120.691 133.203 120.973 132.681 121.194 132.681H121.254C121.254 132.716 121.927 133.148 121.927 133.374C121.927 133.429 121.887 133.464 121.852 133.52C121.672 133.722 121.572 133.982 121.57 134.253C121.57 134.328 121.606 134.363 121.872 134.363C124.117 134.363 129.301 130.415 128.552 128.371C128.256 127.567 123.107 128.281 123.107 125.618C123.107 123.428 127.096 117.476 129.451 117.476C129.768 117.473 130.078 117.556 130.351 117.717C131.194 118.411 131.214 118.471 131.305 119.295V119.33C131.305 122.062 128.964 124.986 128.14 124.986C127.919 124.986 127.166 124.423 127.337 124.102C127.342 124.08 127.354 124.061 127.371 124.049C127.389 124.036 127.41 124.029 127.432 124.031C127.523 124.031 127.523 124.122 127.578 124.122C128.196 124.122 130.406 121.183 130.406 118.822C130.411 118.684 130.4 118.546 130.371 118.411C130.371 118.335 130.371 118.32 130.295 118.32C128.181 118.32 124.228 124.086 124.228 126.166C124.228 126.874 124.489 126.708 127 127.135C128.648 127.417 129.512 128.522 129.512 129.33C129.512 131.706 125.076 135.187 122.48 135.187C121.591 135.187 120.691 134.308 120.691 133.655Z" fill="#8C704E"/>
<path d="M131.547 133.876C131.307 133.799 131.084 133.678 130.889 133.52C130.697 133.379 130.527 133.21 130.386 133.017C129.804 132.174 130.422 129.501 130.984 127.643C131.135 127.141 131.265 126.709 131.376 126.392C131.843 125.006 132.35 123.695 132.838 122.555C131.733 122.573 130.632 122.672 129.543 122.851C129.317 122.851 129.241 122.74 128.814 122.273C128.811 122.265 128.809 122.255 128.809 122.246C128.809 122.236 128.811 122.227 128.814 122.218C128.814 122.047 130.964 121.766 133.229 121.716C133.732 120.515 134.485 119.245 134.736 119.245C135.093 119.245 135.766 119.747 135.766 119.973C135.766 120.013 135.711 120.124 135.62 120.124C135.45 120.124 134.907 121.063 134.616 121.736C136.625 121.811 138.363 122.148 138.363 123.027C138.363 123.082 138.363 123.102 138.288 123.102H138.247C137.67 122.6 135.44 122.56 134.259 122.54C134.073 122.987 133.867 123.459 133.661 123.961C133.455 124.463 133.25 124.966 133.044 125.553C132.913 125.91 132.762 126.302 132.632 126.678C132.632 126.754 132.576 126.809 132.556 126.884C132.275 127.708 131.994 128.532 131.768 129.336C131.472 130.316 131.29 131.327 131.225 132.349C131.225 132.852 131.341 133.042 131.562 133.042C131.918 133.042 132.687 131.691 133.476 129.858C133.641 129.466 134.224 129.768 134.093 130.139C133.174 132.741 132.22 133.942 131.733 133.942C131.668 133.93 131.605 133.908 131.547 133.876Z" fill="#8C704E"/>
<path d="M132.131 138.166C134.361 138.166 135.446 136.272 136.235 133.168C136.259 132.948 136.315 132.734 136.401 132.53C136.009 133.108 135.275 134.067 134.622 133.896C134.164 133.712 133.763 133.409 133.462 133.017C133.259 132.659 133.168 132.248 133.201 131.837C133.201 130.787 133.703 128.617 134.306 126.814C134.492 126.312 134.512 126.141 134.718 126.141C135.101 126.188 135.456 126.365 135.722 126.643C135.744 126.663 135.758 126.689 135.763 126.719C135.764 126.755 135.751 126.791 135.727 126.818C135.702 126.845 135.668 126.862 135.632 126.864C135.13 128.291 134.336 130.928 134.336 132.334C134.336 132.836 134.452 133.047 134.673 133.047C136.23 133.047 137.686 127.633 138.008 126.452C138.043 126.266 138.063 126.156 138.249 126.156C138.606 126.156 139.279 126.528 139.279 126.719C139.279 126.909 139.148 126.864 139.148 126.864C138.962 127.412 138.832 127.954 138.681 128.497C138.249 130.164 137.857 131.847 137.39 133.52C136.285 137.357 135.014 139.005 132.839 139.005C132.488 138.969 132 138.166 132.131 138.166Z" fill="#8C704E"/>
<path d="M140.52 133.896C140.292 133.81 140.079 133.69 139.887 133.54C139.685 133.402 139.507 133.233 139.36 133.037C139.043 132.606 139.078 131.671 139.229 130.621C139.922 126.317 143.403 118.491 144.096 118.491C144.433 118.491 145.126 118.993 145.126 119.219C145.119 119.259 145.099 119.296 145.069 119.324C145.039 119.351 145.001 119.367 144.96 119.37C144.458 119.37 141.233 126.804 140.439 130.621C140.313 131.188 140.239 131.764 140.218 132.344C140.218 132.847 140.329 133.058 140.555 133.058C141.002 133.058 141.997 131.013 142.444 129.908C142.559 129.647 143.177 129.908 143.082 130.134C142.077 132.942 141.173 133.937 140.721 133.937C140.652 133.933 140.585 133.919 140.52 133.896Z" fill="#8C704E"/>
<path d="M146.022 126.166C147.127 126.166 148.121 126.839 148.121 127.959C148.121 130.19 145.349 131.742 143.756 130.375C143.42 131.666 143.797 133.038 145.218 133.038C146.845 133.038 147.875 131.988 148.608 130.601C148.85 130.134 148.905 129.963 148.945 129.888C149.056 129.627 149.638 129.943 149.563 130.154C148.608 132.666 146.886 133.932 145.178 133.932C140.16 133.932 142.521 126.166 146.022 126.166ZM147.071 127.588C147.071 127.196 146.886 126.764 146.378 126.764C145.404 126.764 144.414 128.226 143.942 129.647C144.525 130.938 147.071 130.21 147.071 127.588Z" fill="#8C704E"/>
<path d="M154.426 18.1829C154.426 18.1829 165.25 0.813637 178.214 8.48868C178.214 8.48868 180.982 -4.72668 197.849 2.3205C197.849 2.3205 184.759 -1.32615 178.842 9.85491C178.842 9.875 169.781 2.57166 154.426 18.1829Z" fill="#8C704E"/>
<path d="M189.957 17.8464C189.957 17.8464 197.2 7.00186 205.875 11.8189C205.875 11.8189 207.728 3.56618 219.01 7.96627C219.01 7.96627 210.255 5.69087 206.297 12.6828C206.287 12.6577 200.219 8.10188 189.957 17.8464Z" fill="#8C704E"/>
</g>
<defs>
<clipPath id="clip0_1112_22120">
<rect width="219" height="140.356" fill="white"/>
</clipPath>
</defs>
</svg>
