<svg width="198" height="82" viewBox="0 0 198 82" fill="none" xmlns="http://www.w3.org/2000/svg">
<path d="M198 81.9999H0V73.5079H198V81.9999Z" fill="#002047"/>
<path d="M109.66 80.9448V74.5534H110.38V80.2966H112.225V80.9448H109.66Z" fill="white"/>
<path d="M115.855 79.4384C115.855 80.0133 116.086 80.3606 116.612 80.3606C117.128 80.3606 117.36 80.0133 117.36 79.4384V74.5536H118.033V79.4022C118.033 80.3701 117.58 81.0175 116.585 81.0175C115.597 81.0175 115.145 80.3701 115.145 79.4022V74.5536H115.855V79.4384Z" fill="white"/>
<path d="M122.754 78.1871L121.674 80.9445H120.992L122.293 77.6483L121.075 74.5531H121.822L122.819 77.1096L123.824 74.5531H124.498L123.289 77.6483L124.581 80.9445H123.824L122.754 78.1871Z" fill="white"/>
<path d="M128.25 79.4384C128.25 80.0133 128.481 80.3606 129.006 80.3606C129.523 80.3606 129.754 80.0133 129.754 79.4384V74.5536H130.427V79.4022C130.427 80.3701 129.975 81.0175 128.979 81.0175C127.991 81.0175 127.539 80.3701 127.539 79.4022V74.5536H128.25V79.4384Z" fill="white"/>
<path d="M134.982 74.5535C135.998 74.5535 136.421 75.0647 136.421 76.0154V76.5352C136.421 77.2385 136.173 77.6764 135.619 77.8497C136.21 78.0229 136.431 78.4979 136.431 79.1822V80.1787C136.431 80.4614 136.441 80.726 136.56 80.9449H135.832C135.748 80.7631 135.711 80.5976 135.711 80.1683V79.1641C135.711 78.4436 135.37 78.2151 134.77 78.2151H134.263V80.9449H133.543V74.5535H134.982ZM134.798 77.5669C135.37 77.5669 135.711 77.3842 135.711 76.6903V76.0783C135.711 75.5034 135.499 75.2017 134.964 75.2017H134.263V77.5669H134.798Z" fill="white"/>
<path d="M140.306 80.9449H139.586V74.5536H140.306V80.9449Z" fill="white"/>
<path d="M143.391 76.0961C143.391 75.1195 143.88 74.4886 144.867 74.4886C145.864 74.4886 146.353 75.1195 146.353 76.0961V79.4017C146.353 80.3697 145.864 81.0093 144.867 81.0093C143.88 81.0093 143.391 80.3697 143.391 79.4017V76.0961ZM144.101 79.4379C144.101 80.0223 144.35 80.3602 144.867 80.3602C145.393 80.3602 145.633 80.0223 145.633 79.4379V76.0599C145.633 75.485 145.393 75.1376 144.867 75.1376C144.35 75.1376 144.101 75.485 144.101 76.0599V79.4379Z" fill="white"/>
<path d="M150.121 79.4384C150.121 80.0133 150.352 80.3606 150.877 80.3606C151.394 80.3606 151.626 80.0133 151.626 79.4384V74.5536H152.298V79.4022C152.298 80.3701 151.846 81.0175 150.85 81.0175C149.862 81.0175 149.41 80.3701 149.41 79.4022V74.5536H150.121V79.4384Z" fill="white"/>
<path d="M158.21 76.0875V76.2608H157.528V76.0513C157.528 75.4755 157.305 75.1376 156.788 75.1376C156.273 75.1376 156.05 75.4755 156.05 76.0418C156.05 77.4753 158.219 77.6123 158.219 79.4104C158.219 80.3792 157.748 81.0093 156.761 81.0093C155.774 81.0093 155.312 80.3792 155.312 79.4104V79.0466H155.986V79.4466C155.986 80.0223 156.226 80.3611 156.743 80.3611C157.26 80.3611 157.499 80.0223 157.499 79.4466C157.499 78.0235 155.34 77.8856 155.34 76.0875C155.34 75.1014 155.801 74.4894 156.77 74.4894C157.748 74.4894 158.21 75.1195 158.21 76.0875Z" fill="white"/>
<path d="M165.628 74.5535L166.68 80.114L167.723 74.5535H168.387L167.178 80.9449H166.116L164.898 74.5535H165.628Z" fill="white"/>
<path d="M172.067 80.9449H171.348V74.5536H172.067V80.9449Z" fill="white"/>
<path d="M175.207 80.9449V74.5535H175.927V80.2968H177.772V80.9449H175.207Z" fill="white"/>
<path d="M180.719 80.9449V74.5535H181.438V80.2968H183.284V80.9449H180.719Z" fill="white"/>
<path d="M186.961 79.6575L186.712 80.9453H186.047L187.284 74.5539H188.327L189.564 80.9453H188.844L188.594 79.6575H186.961ZM187.054 79.0464H188.493L187.763 75.3564L187.054 79.0464Z" fill="white"/>
<path d="M195.327 76.0876V76.2609H194.644V76.0514C194.644 75.4756 194.422 75.1378 193.905 75.1378C193.39 75.1378 193.168 75.4756 193.168 76.0419C193.168 77.4754 195.336 77.6124 195.336 79.4105C195.336 80.3793 194.866 81.0094 193.878 81.0094C192.891 81.0094 192.43 80.3793 192.43 79.4105V79.0467H193.103V79.4467C193.103 80.0225 193.343 80.3612 193.859 80.3612C194.377 80.3612 194.616 80.0225 194.616 79.4467C194.616 78.0236 192.458 77.8857 192.458 76.0876C192.458 75.1016 192.918 74.4896 193.887 74.4896C194.866 74.4896 195.327 75.1197 195.327 76.0876Z" fill="white"/>
<path d="M34.8649 71.3622H21.5784V69.534H24.1258V21.2506L18.3812 71.3622H11.8377L5.0947 21.2506V69.534H7.64293V71.3622H0V69.534H2.54735V2.32208H0V0.493874H10.8393L17.882 55.6961L24.0256 0.493874H34.8649V2.32208H32.3176V69.534H34.8649V71.3622Z" fill="#7D6240"/>
<path d="M64.0363 61.528C64.0363 64.3621 62.8375 66.7911 60.44 68.8176C58.0425 70.8432 55.1449 71.8568 51.749 71.8568C48.3854 71.8568 45.4965 70.8432 43.0825 68.8176C40.6675 66.7911 39.4609 64.3621 39.4609 61.528V10.3287C39.4609 7.49543 40.6675 5.06557 43.0825 3.03911C45.4965 1.01265 48.3854 -0.000152588 51.749 -0.000152588C55.1449 -0.000152588 58.0425 1.01265 60.44 3.03911C62.8375 5.06557 64.0363 7.49543 64.0363 10.3287V61.528ZM55.8454 65.9757V5.88098C55.8454 4.7613 55.4455 3.80539 54.6457 3.01411C53.8469 2.22369 52.8807 1.82806 51.749 1.82806C50.6165 1.82806 49.6503 2.22369 48.8515 3.01411C48.0526 3.80539 47.6527 4.7613 47.6527 5.88098V65.9757C47.6527 67.0962 48.0526 68.0513 48.8515 68.8417C49.6503 69.6321 50.6165 70.0286 51.749 70.0286C52.8807 70.0286 53.8469 69.6321 54.6457 68.8417C55.4455 68.0513 55.8454 67.0962 55.8454 65.9757Z" fill="#7D6240"/>
<path d="M97.7531 71.3622H94.2065C89.4115 71.3622 87.014 68.891 87.014 63.9494V38.894C87.014 37.7735 86.615 36.8176 85.8152 36.0272C85.0164 35.2359 84.0502 34.8402 82.9185 34.8402H79.3719V69.534H81.9193V71.3622H68.6328V69.534H71.1802V2.32208H68.6328V0.493874H82.9185C86.3144 0.493874 89.212 1.50753 91.6095 3.53313C94.007 5.55959 95.2058 7.98944 95.2058 10.8227V24.5114C95.2058 28.9281 92.8248 32.057 88.0629 33.9016C92.8248 35.878 95.2058 39.025 95.2058 43.3409V66.8162C95.2058 68.6281 95.9881 69.534 97.5536 69.534H97.7531V71.3622ZM87.014 28.96V6.37414C87.014 5.25532 86.615 4.29941 85.8152 3.50813C85.0164 2.71858 84.0502 2.32208 82.9185 2.32208H79.3719V33.012H82.9185C84.0502 33.012 85.0164 32.6173 85.8152 31.826C86.615 31.0347 87.014 30.0797 87.014 28.96Z" fill="#7D6240"/>
<path d="M125.373 71.3622H100.348V69.534H102.895V2.32209H100.348V0.493881H113.634V2.32209H111.088V69.534H117.23V50.1115H125.373V71.3622Z" fill="#7D6240"/>
<path d="M154.545 71.3622H141.258V69.534H143.805L141.957 48.9755H134.614L132.566 69.534H135.114V71.3622H127.422V69.534H129.97L137.162 0.493881H145.354L151.997 69.534H154.545V71.3622ZM141.857 47.1955L138.462 8.89537L134.715 47.1955H141.857Z" fill="#7D6240"/>
<path d="M170.079 71.3622H156.793V69.534H159.339V2.32208H156.793V0.493874H170.079V2.32208H167.532V69.534H170.079V71.3622Z" fill="#7D6240"/>
<path d="M197.999 61.5279C197.999 64.3939 196.874 66.8332 194.627 68.8416C192.38 70.8516 189.59 71.8567 186.261 71.8567C182.897 71.8567 180.092 70.8516 177.844 68.8416C175.596 66.8332 174.473 64.3939 174.473 61.5279V50.1113H182.664V65.9756C182.664 68.6769 183.863 70.0285 186.261 70.0285C188.624 70.0285 189.806 68.6769 189.806 65.9756V53.6694C189.806 50.3087 188.991 47.3608 187.359 44.824L177.119 29.0589C175.354 26.3247 174.473 23.2932 174.473 19.9652V10.3286C174.473 7.46169 175.596 5.02407 177.844 3.01399C180.092 1.00563 182.897 -0.000274658 186.261 -0.000274658C189.59 -0.000274658 192.38 1.00563 194.627 3.01399C196.874 5.02407 197.999 7.46169 197.999 10.3286V21.7443H189.806V5.88086C189.806 3.17949 188.624 1.82794 186.261 1.82794C183.863 1.82794 182.664 3.17949 182.664 5.88086V17.7414C182.664 21.0694 183.48 24.0009 185.112 26.5385L195.351 42.3028C197.116 45.0387 197.999 48.0857 197.999 51.4464V61.5279Z" fill="#7D6240"/>
</svg>
