<svg width="250" height="173" viewBox="0 0 250 173" fill="none" xmlns="http://www.w3.org/2000/svg">
<g clip-path="url(#clip0_1099_22430)">
<path d="M19.0575 140.437C19.0575 138.045 18.2285 136.222 16.5707 134.966C15.0923 133.834 13.1029 133.269 10.6024 133.269H8.96994V147.424H12.2349C14.3609 147.424 16.0304 146.802 17.2436 145.558C18.4489 144.31 19.0575 142.606 19.0575 140.437ZM24.1012 140.069C24.1395 141.389 23.8227 142.696 23.1837 143.852C22.5448 145.009 21.607 145.975 20.4676 146.648C18.216 148.057 15.5939 148.764 12.9371 148.678H8.96994V155.479C8.96994 157.404 9.23324 158.687 9.74815 159.323C10.3684 160.116 11.6147 160.489 13.4929 160.489L13.3116 161.562C12.6679 161.562 11.6732 161.498 10.3274 161.376C8.98164 161.253 7.93427 161.195 7.19116 161.195C6.44806 161.195 5.24855 161.253 3.68042 161.376C2.11229 161.498 0.877677 161.562 0.0116936 161.562V160.495C1.49206 160.495 2.53358 160.326 3.12456 159.976C3.90472 159.486 4.2948 158.526 4.2948 157.095V135.963C4.2948 134.684 3.87351 133.834 3.03093 133.414C2.04967 133.094 1.02646 132.919 -0.00585938 132.895V132.009C0.608521 132.009 1.49791 132.009 2.6623 132.102C3.8267 132.195 4.67514 132.195 5.2193 132.195C5.939 132.195 7.01562 132.16 8.44918 132.102C9.88273 132.044 10.9535 132.009 11.6732 132.009C14.985 132.009 17.7039 132.526 19.8298 133.56C22.6774 134.944 24.1012 137.118 24.1012 140.081V140.069Z" fill="#8C704E"/>
<path d="M46.2015 147.08L44.2355 149.081H43.8669L41.8599 147.08L41.7487 146.893C41.7487 146.864 41.7838 146.818 41.8599 146.736L43.8669 144.747C43.9663 144.648 44.0248 144.601 44.0541 144.601L44.2355 144.747L46.2015 146.742C46.301 146.818 46.3478 146.87 46.3478 146.893C46.31 146.962 46.2604 147.023 46.2015 147.074V147.08ZM53.9837 139.165C52.8605 137.265 51.1911 135.746 49.1915 134.802C47.2189 133.783 45.0296 133.251 42.8078 133.251C41.2438 133.214 39.692 133.534 38.2718 134.189C36.8517 134.843 35.601 135.813 34.6161 137.025C32.5834 139.429 31.5014 142.49 31.5734 145.634C31.5141 149.413 32.8488 153.082 35.3241 155.946C36.4986 157.408 37.9924 158.585 39.6918 159.385C41.3912 160.185 43.2513 160.589 45.1307 160.565C48.739 160.565 51.5847 159.297 53.6677 156.762C55.5518 154.468 56.4938 151.585 56.4938 148.112C56.5233 144.946 55.653 141.836 53.9837 139.142V139.165ZM61.1807 146.007C61.3305 148.22 60.9556 150.437 60.0865 152.478C59.2174 154.52 57.8784 156.329 56.1779 157.759C52.9038 160.691 48.6358 162.275 44.2355 162.192C39.8235 162.377 35.4963 160.945 32.0708 158.168C30.3179 156.826 28.9051 155.094 27.9458 153.11C26.9865 151.125 26.5075 148.944 26.5472 146.742C26.5098 144.612 26.9691 142.502 27.8891 140.579C28.809 138.656 30.1644 136.972 31.8484 135.66C35.1681 133.009 39.2749 131.527 43.5278 131.447C47.7808 131.367 51.9408 132.692 55.3587 135.217C59.0177 138.008 60.9583 141.597 61.1807 145.983V146.007Z" fill="#8C704E"/>
<path d="M84.9131 153.373C84.9131 156.185 83.6395 158.415 81.0922 160.063C78.7849 161.505 76.1026 162.237 73.3803 162.169C70.8152 162.214 68.2754 161.657 65.9668 160.542L64.8901 154.26H66.1482C67.4354 158.448 69.9573 160.542 73.7138 160.542C75.3663 160.601 76.9931 160.122 78.348 159.177C79.0105 158.697 79.5437 158.062 79.9 157.327C80.2563 156.592 80.4246 155.781 80.3901 154.966C80.3901 153.508 79.4753 152.077 77.6458 150.673C76.1702 149.661 74.6212 148.761 73.0117 147.978C71.2626 147.15 69.6394 146.08 68.1902 144.799C67.4893 144.146 66.9303 143.355 66.5479 142.477C66.1655 141.6 65.9677 140.653 65.9668 139.696C65.9118 138.446 66.1832 137.203 66.7545 136.088C67.3258 134.974 68.1773 134.027 69.2259 133.338C71.1334 132.061 73.5266 131.42 76.4229 131.42C78.4236 131.475 80.4179 131.67 82.3912 132.003L83.0933 137.398H82.0226C81.4804 134.264 79.4402 132.699 75.9022 132.703C74.4305 132.669 72.9895 133.125 71.8063 133.998C71.2108 134.42 70.7276 134.981 70.3983 135.631C70.069 136.281 69.9036 137.002 69.9164 137.73C69.9164 139.527 70.7648 141.084 72.4733 142.396C74.0649 143.464 75.7536 144.38 77.5171 145.132C79.3256 145.909 81.0109 146.944 82.5199 148.206C83.2699 148.851 83.8706 149.651 84.2807 150.55C84.6908 151.449 84.9006 152.426 84.8955 153.414" fill="#8C704E"/>
<path d="M114.871 155.187C113.618 157.108 112.878 159.317 112.724 161.603C111.238 161.603 109.322 161.572 106.978 161.51C104.638 161.452 103.023 161.417 102.157 161.417L96.6331 161.236C94.0819 161.162 91.1017 161.222 87.6924 161.417V160.32C89.2527 160.32 90.304 160.161 90.8462 159.842C91.6264 159.375 92.0164 158.415 92.0164 156.96V136.447C92.0164 135.018 91.6127 134.068 90.7935 133.601C90.2084 133.251 89.202 133.082 87.7158 133.082V132.009C91.1251 132.207 94.1053 132.269 96.6565 132.195H102.18C103.046 132.195 104.649 132.16 107.001 132.102C109.354 132.044 111.261 132.009 112.747 132.009C112.867 134.249 113.61 136.413 114.895 138.255L113.637 138.588C112.924 136.681 111.489 135.129 109.64 134.266C108.312 133.723 106.311 133.449 103.649 133.449C101.133 133.449 99.5294 133.574 98.839 133.823C97.4054 134.365 96.6916 135.654 96.6916 137.701V145.208H102.753L104.006 143.96C104.076 143.855 104.123 143.802 104.152 143.802C104.218 143.84 104.278 143.89 104.327 143.948L106.293 145.908C106.393 146.007 106.446 146.065 106.446 146.094C106.39 146.15 106.339 146.21 106.293 146.275L104.304 148.247H103.982L102.73 147.004H96.6682V155.887C96.6682 157.905 97.382 159.165 98.8156 159.655C99.4046 159.877 101.008 159.988 103.625 159.988C106.356 159.988 108.353 159.729 109.617 159.212C111.372 158.477 112.704 157.011 113.613 154.814L114.871 155.187Z" fill="#8C704E"/>
<path d="M132.191 161.58C131.547 161.58 130.553 161.516 129.207 161.393C127.861 161.271 126.814 161.212 126.071 161.212C125.327 161.212 124.134 161.271 122.56 161.393C120.986 161.516 119.757 161.58 118.891 161.58V160.495C120.371 160.495 121.413 160.326 122.004 159.976C122.784 159.486 123.174 158.526 123.174 157.095V135.963C123.174 134.684 122.753 133.834 121.91 133.414C120.929 133.094 119.906 132.919 118.874 132.895V132.009C121.663 132.129 123.874 132.191 125.509 132.195C126.944 132.219 129.17 132.156 132.185 132.009V132.895C130.453 132.996 129.297 133.354 128.715 133.968C128.13 134.587 127.843 135.777 127.843 137.555V155.479C127.843 157.423 128.079 158.704 128.551 159.323C129.096 160.116 130.307 160.489 132.185 160.489L132.191 161.58Z" fill="#8C704E"/>
<path d="M165.005 147.162C165.005 142.554 163.302 139.043 159.897 136.628C156.913 134.513 153.027 133.453 148.241 133.449H145.901V154.627C145.901 156.696 146.183 158.113 146.749 158.879C147.439 159.719 148.76 160.139 150.71 160.139C154.904 160.139 158.284 159.043 160.851 156.85C163.612 154.517 164.993 151.287 164.993 147.162H165.005ZM170.148 146.608C170.148 151.907 167.874 155.85 163.326 158.436C159.671 160.528 154.99 161.576 149.283 161.58C148.668 161.58 147.732 161.551 146.486 161.487C145.239 161.422 144.315 161.393 143.724 161.393C142.928 161.393 141.775 161.428 140.254 161.487C138.733 161.545 137.627 161.58 136.937 161.58V160.495C138.546 160.495 139.616 160.326 140.161 159.976C140.878 159.61 141.237 158.662 141.237 157.13V136.115C141.237 134.832 140.804 133.994 139.938 133.601C138.97 133.277 137.958 133.102 136.937 133.082V132.009C137.826 132.129 140.385 132.191 144.613 132.195C145.28 132.195 146.012 132.16 146.819 132.102C147.627 132.044 148.136 132.009 148.358 132.009C154.116 132.009 158.912 132.994 162.746 134.966C167.693 137.505 170.164 141.386 170.16 146.608H170.148Z" fill="#8C704E"/>
<path d="M194.969 147.08L193.003 149.081H192.634L190.622 147.08C190.622 147.033 190.563 146.969 190.516 146.893C190.469 146.818 190.551 146.818 190.622 146.736L192.634 144.747C192.734 144.648 192.792 144.601 192.816 144.601L193.003 144.747L194.969 146.742C195.069 146.818 195.115 146.87 195.115 146.893C195.078 146.962 195.028 147.023 194.969 147.074V147.08ZM202.751 139.165C201.627 137.267 199.958 135.747 197.959 134.802C195.986 133.783 193.797 133.251 191.575 133.251C190.011 133.214 188.46 133.534 187.039 134.189C185.619 134.843 184.369 135.813 183.384 137.025C181.349 139.427 180.266 142.49 180.341 145.634C180.297 149.409 181.644 153.07 184.127 155.922C185.3 157.385 186.793 158.561 188.491 159.362C190.19 160.162 192.049 160.566 193.928 160.542C197.544 160.542 200.391 159.274 202.47 156.739C204.354 154.445 205.297 151.561 205.297 148.089C205.311 144.927 204.429 141.826 202.751 139.142V139.165ZM209.948 146.007C210.098 148.22 209.723 150.438 208.853 152.48C207.983 154.522 206.642 156.33 204.94 157.759C201.668 160.692 197.402 162.276 193.003 162.192C188.591 162.379 184.263 160.947 180.838 158.168C179.086 156.826 177.673 155.094 176.713 153.11C175.754 151.125 175.275 148.944 175.315 146.742C175.277 144.612 175.737 142.502 176.657 140.579C177.577 138.656 178.932 136.972 180.616 135.66C183.936 133.009 188.042 131.527 192.295 131.447C196.548 131.367 200.708 132.692 204.126 135.217C207.781 138.008 209.722 141.597 209.948 145.983V146.007Z" fill="#8C704E"/>
<path d="M249.994 161.58C249.214 161.58 248.016 161.518 246.401 161.393C244.787 161.269 243.536 161.209 242.651 161.212C241.814 161.212 240.533 161.271 238.818 161.393C237.104 161.516 235.817 161.58 234.98 161.58V160.495C237.184 160.495 238.582 160.106 239.175 159.328C239.69 158.687 239.948 157.233 239.948 154.966V134.668L222.979 140.548V155.001C222.979 157.24 223.313 158.722 223.98 159.433C224.647 160.145 226.045 160.507 228.169 160.507V161.58C227.356 161.58 226.092 161.516 224.389 161.393C222.686 161.271 221.382 161.212 220.492 161.212C219.712 161.212 218.507 161.273 216.876 161.393C215.246 161.514 214.003 161.576 213.149 161.58V160.495C216.738 160.495 218.53 158.179 218.526 153.548V137.515C218.526 135.765 218.316 134.657 217.894 134.114C217.403 133.426 216.35 133.082 214.746 133.082V132.009L222.979 132.195V138.069L239.772 132.009C240.07 132.009 240.55 132.009 241.2 132.102C241.849 132.195 242.335 132.195 242.627 132.195C244.595 132.234 246.564 132.172 248.525 132.009V133.082C246.893 133.082 245.834 133.385 245.337 133.986C244.839 134.587 244.593 135.765 244.593 137.515V153.56C244.593 158.191 246.386 160.507 249.971 160.507L249.994 161.58Z" fill="#8C704E"/>
<path fill-rule="evenodd" clip-rule="evenodd" d="M205.051 168.544H204.706C204.518 168.53 204.333 168.586 204.185 168.701C204.054 168.883 203.975 169.097 203.957 169.32V169.46H203.436L203.471 168.684L203.506 167.92H207.637L207.672 168.678L207.707 169.46H207.216V169.32C207.203 169.096 207.124 168.88 206.988 168.701C206.842 168.586 206.658 168.529 206.473 168.544H206.122V171.694C206.113 171.892 206.142 172.09 206.209 172.277C206.274 172.358 206.561 172.388 206.654 172.393H206.806V172.883H204.372V172.393H204.524C204.624 172.393 204.905 172.358 204.969 172.277C205.034 172.09 205.062 171.891 205.051 171.694V168.544ZM194.273 168.672C194.219 168.603 194.156 168.543 194.086 168.491C193.988 168.443 193.879 168.417 193.77 168.416H193.618V167.932H195.045L197.386 170.912V169.244C197.4 169 197.372 168.755 197.304 168.521C197.251 168.433 197.023 168.416 196.935 168.416H196.777V167.926H198.673V168.416H198.515C198.427 168.416 198.199 168.416 198.146 168.521C198.081 168.756 198.053 169 198.064 169.244V173H197.69L194.958 169.501V171.577C194.945 171.821 194.973 172.065 195.039 172.3C195.098 172.388 195.32 172.405 195.414 172.411H195.572V172.901H193.67V172.411H193.834C193.922 172.411 194.15 172.411 194.203 172.3C194.268 172.065 194.296 171.821 194.285 171.577L194.273 168.672ZM187.187 171.863C187.422 171.412 187.545 170.912 187.545 170.405C187.545 169.897 187.422 169.397 187.187 168.946C187.093 168.793 186.961 168.667 186.804 168.579C186.646 168.491 186.469 168.445 186.289 168.445C186.109 168.445 185.931 168.491 185.774 168.579C185.617 168.667 185.485 168.793 185.391 168.946C185.155 169.397 185.032 169.897 185.032 170.405C185.032 170.912 185.155 171.412 185.391 171.863C185.486 172.015 185.618 172.14 185.775 172.227C185.933 172.313 186.109 172.359 186.289 172.359C186.469 172.359 186.645 172.313 186.802 172.227C186.959 172.14 187.092 172.015 187.187 171.863ZM184.56 172.259C184.13 171.738 183.894 171.083 183.894 170.407C183.894 169.732 184.13 169.077 184.56 168.556C184.785 168.325 185.054 168.142 185.352 168.016C185.649 167.891 185.969 167.827 186.292 167.827C186.615 167.827 186.934 167.891 187.232 168.016C187.529 168.142 187.799 168.325 188.024 168.556C188.454 169.077 188.689 169.732 188.689 170.407C188.689 171.083 188.454 171.738 188.024 172.259C187.799 172.49 187.529 172.673 187.232 172.799C186.934 172.924 186.615 172.988 186.292 172.988C185.969 172.988 185.649 172.924 185.352 172.799C185.054 172.673 184.785 172.49 184.56 172.259ZM176.128 170.165H176.415C176.661 170.185 176.904 170.107 177.094 169.95C177.173 169.861 177.233 169.758 177.271 169.645C177.309 169.533 177.325 169.415 177.316 169.296C177.321 169.195 177.304 169.093 177.264 168.999C177.225 168.905 177.164 168.821 177.088 168.754C176.897 168.604 176.657 168.53 176.415 168.544H176.362C176.294 168.535 176.225 168.535 176.157 168.544C176.136 168.612 176.126 168.683 176.128 168.754V170.165ZM177.415 170.644L178.434 171.962C178.527 172.097 178.639 172.219 178.767 172.323C178.861 172.373 178.965 172.399 179.071 172.399H179.224V172.883H177.808L176.21 170.766H176.128V171.933C176.124 172.06 176.144 172.186 176.187 172.306C176.314 172.356 176.448 172.384 176.585 172.388H176.743V172.878H174.455V172.393H174.613C174.701 172.393 174.935 172.358 174.993 172.283C175.053 172.094 175.079 171.897 175.069 171.699V169.121C175.078 168.924 175.052 168.727 174.993 168.538C174.94 168.462 174.695 168.439 174.613 168.433H174.455V167.949H176.415C176.938 167.92 177.458 168.041 177.913 168.299C178.09 168.417 178.233 168.578 178.329 168.767C178.426 168.956 178.472 169.166 178.463 169.378C178.468 169.592 178.417 169.803 178.314 169.99C178.211 170.178 178.061 170.335 177.878 170.445C177.732 170.53 177.577 170.596 177.415 170.644ZM167.305 170.025H168.165C168.328 170.039 168.491 170.002 168.633 169.92C168.675 169.869 168.707 169.809 168.726 169.745C168.745 169.681 168.751 169.614 168.744 169.547V169.384H169.241V171.297H168.744V171.128C168.756 170.994 168.716 170.86 168.633 170.755C168.49 170.677 168.327 170.643 168.165 170.655H167.305V171.694C167.295 171.891 167.321 172.088 167.381 172.277C167.433 172.353 167.679 172.382 167.761 172.388H167.919V172.872H165.631V172.382H165.789C165.871 172.382 166.111 172.353 166.169 172.271C166.229 172.083 166.255 171.885 166.245 171.688V169.11C166.255 168.912 166.229 168.715 166.169 168.526C166.111 168.451 165.871 168.427 165.789 168.421H165.631V167.937H169.592V168.602L169.622 169.291H169.136V169.151C169.126 168.979 169.061 168.815 168.949 168.684C168.802 168.591 168.63 168.548 168.457 168.561H167.533C167.465 168.552 167.396 168.552 167.328 168.561C167.303 168.629 167.294 168.7 167.299 168.771L167.305 170.025ZM157.644 170.702H158.592L158.118 169.536L157.644 170.702ZM158.844 171.326H157.387L157.135 171.939C157.106 172.014 157.03 172.224 157.071 172.3C157.112 172.376 157.316 172.393 157.387 172.399H157.539V172.889H155.813V172.417H155.953C156.053 172.408 156.148 172.372 156.228 172.312C156.321 172.184 156.398 172.045 156.456 171.898L158.142 167.815H158.522L160.277 172.009C160.319 172.128 160.38 172.241 160.459 172.341C160.539 172.38 160.627 172.402 160.716 172.405H160.874V172.889H158.826V172.393H158.967C159.007 172.393 159.183 172.393 159.212 172.347C159.212 172.268 159.194 172.19 159.16 172.119L158.844 171.326ZM148.434 170.025H149.3C149.463 170.038 149.626 170.002 149.768 169.92C149.85 169.814 149.888 169.68 149.874 169.547V169.384H150.377V171.297H149.874V171.128C149.888 170.995 149.85 170.861 149.768 170.755C149.625 170.678 149.463 170.644 149.3 170.655H148.434V172.044C148.428 172.109 148.428 172.176 148.434 172.242C148.504 172.253 148.575 172.253 148.645 172.242H149.365C149.622 172.255 149.878 172.194 150.102 172.067C150.32 171.906 150.492 171.691 150.599 171.443L150.646 171.349H151.149L150.898 172.16L150.675 172.872H146.749V172.382H146.901C146.989 172.382 147.229 172.353 147.282 172.277C147.342 172.088 147.369 171.891 147.364 171.694V169.116C147.371 168.918 147.343 168.72 147.282 168.532C147.229 168.456 146.989 168.433 146.901 168.427H146.749V167.943H150.71L150.74 168.608L150.769 169.296H150.283V169.156C150.271 168.984 150.203 168.82 150.09 168.69C149.946 168.597 149.776 168.554 149.605 168.567H148.668C148.602 168.558 148.535 168.558 148.469 168.567C148.445 168.634 148.435 168.706 148.44 168.777L148.434 170.025ZM141.167 169.512C141.109 169.218 140.964 168.948 140.752 168.736C140.668 168.647 140.566 168.576 140.453 168.526C140.341 168.477 140.219 168.452 140.096 168.451C140.03 168.448 139.964 168.458 139.903 168.483C139.841 168.507 139.786 168.544 139.739 168.591C139.641 168.708 139.593 168.858 139.605 169.011C139.61 169.147 139.666 169.276 139.763 169.372C139.935 169.545 140.132 169.69 140.348 169.804C140.754 170.014 141.123 170.288 141.442 170.615C141.662 170.864 141.781 171.186 141.776 171.519C141.783 171.722 141.744 171.925 141.662 172.112C141.58 172.299 141.457 172.465 141.302 172.598C140.952 172.87 140.516 173.009 140.073 172.988C139.784 172.987 139.5 172.913 139.248 172.773C139.208 172.75 139.164 172.736 139.119 172.732C139.119 172.732 139.078 172.784 139.072 172.802L139.008 172.965H138.581L138.347 171.122H138.827L138.862 171.244C138.948 171.555 139.118 171.835 139.353 172.055C139.545 172.245 139.803 172.354 140.073 172.358C140.164 172.365 140.255 172.352 140.341 172.321C140.427 172.29 140.505 172.241 140.57 172.178C140.634 172.111 140.683 172.032 140.714 171.946C140.745 171.86 140.758 171.768 140.752 171.676C140.736 171.529 140.665 171.394 140.553 171.297C140.326 171.087 140.072 170.909 139.798 170.766C139.454 170.582 139.144 170.341 138.879 170.055C138.678 169.836 138.561 169.552 138.552 169.256C138.546 169.067 138.579 168.879 138.647 168.702C138.715 168.526 138.818 168.365 138.949 168.229C139.082 168.095 139.24 167.99 139.416 167.92C139.591 167.851 139.779 167.819 139.968 167.827C140.264 167.827 140.557 167.897 140.822 168.031C140.856 168.042 140.893 168.042 140.927 168.031C140.956 168.031 140.974 168.031 140.986 167.984L141.079 167.809H141.501L141.67 169.623H141.185L141.167 169.512ZM122.379 172.895V172.411H122.531C122.619 172.411 122.859 172.382 122.911 172.3C122.976 172.113 123.003 171.915 122.993 171.717V169.139C123.003 168.941 122.975 168.743 122.911 168.556C122.859 168.48 122.619 168.457 122.531 168.451H122.379V167.967H124.661V168.451H124.509C124.427 168.451 124.181 168.48 124.128 168.556C124.069 168.744 124.043 168.942 124.052 169.139V171.915C124.04 172.028 124.04 172.141 124.052 172.254C124.167 172.283 124.285 172.295 124.403 172.289H124.901C125.186 172.302 125.47 172.242 125.726 172.114C125.952 171.957 126.13 171.741 126.241 171.489L126.282 171.396H126.791L126.539 172.207L126.317 172.918L122.379 172.895ZM114.363 170.702H115.31L114.836 169.536L114.363 170.702ZM115.568 171.326H114.105L113.853 171.939C113.824 172.014 113.748 172.224 113.795 172.3C113.842 172.376 114.035 172.393 114.105 172.399H114.257V172.889H112.537V172.417H112.672C112.771 172.409 112.867 172.373 112.947 172.312C113.039 172.184 113.116 172.045 113.175 171.898L114.86 167.815H115.24L116.996 172.009C117.037 172.128 117.099 172.241 117.177 172.341C117.259 172.38 117.349 172.402 117.44 172.405H117.592V172.889H115.544V172.393H115.714C115.755 172.393 115.931 172.393 115.96 172.347C115.989 172.3 115.925 172.154 115.913 172.119L115.568 171.326ZM103.438 168.661C103.385 168.593 103.324 168.533 103.257 168.48C103.158 168.432 103.05 168.406 102.941 168.404H102.783V167.92H104.211L106.551 170.9V169.244C106.563 169 106.535 168.756 106.469 168.521C106.411 168.433 106.188 168.416 106.095 168.416H105.937V167.926H107.838V168.416H107.675C107.587 168.416 107.359 168.416 107.306 168.521C107.24 168.756 107.213 169 107.224 169.244V173H106.85L104.123 169.501V171.577C104.108 171.821 104.136 172.066 104.205 172.3C104.257 172.388 104.486 172.405 104.573 172.411H104.731V172.901H102.836V172.411H102.994C103.081 172.411 103.31 172.411 103.362 172.3C103.431 172.066 103.459 171.821 103.444 171.577L103.438 168.661ZM96.3583 171.863C96.5899 171.411 96.7107 170.912 96.7107 170.405C96.7107 169.898 96.5899 169.398 96.3583 168.946C96.2634 168.793 96.1308 168.667 95.9731 168.579C95.8154 168.491 95.6378 168.445 95.4572 168.445C95.2766 168.445 95.099 168.491 94.9413 168.579C94.7836 168.667 94.651 168.793 94.5561 168.946C94.3207 169.397 94.1978 169.897 94.1978 170.405C94.1978 170.912 94.3207 171.412 94.5561 171.863C94.652 172.015 94.785 172.14 94.9426 172.226C95.1001 172.313 95.2772 172.359 95.4572 172.359C95.6372 172.359 95.8142 172.313 95.9718 172.226C96.1294 172.14 96.2624 172.015 96.3583 171.863ZM93.7252 172.259C93.2949 171.738 93.0597 171.083 93.0597 170.407C93.0597 169.732 93.2949 169.077 93.7252 168.556C93.9504 168.325 94.2197 168.142 94.5172 168.016C94.8147 167.891 95.1343 167.827 95.4572 167.827C95.7801 167.827 96.0997 167.891 96.3972 168.016C96.6947 168.142 96.964 168.325 97.1892 168.556C97.6452 169.064 97.8845 169.729 97.8562 170.41C97.88 171.089 97.6412 171.751 97.1892 172.259C96.964 172.49 96.6947 172.673 96.3972 172.799C96.0997 172.924 95.7801 172.988 95.4572 172.988C95.1343 172.988 94.8147 172.924 94.5172 172.799C94.2197 172.673 93.9504 172.49 93.7252 172.259ZM86.5282 171.676V169.098C86.5373 168.901 86.5116 168.703 86.4521 168.515C86.3936 168.439 86.1537 168.416 86.0718 168.41H85.9138V167.926H88.2016V168.41H88.0437C87.9618 168.41 87.716 168.439 87.6633 168.515C87.6039 168.703 87.5781 168.901 87.5873 169.098V171.676C87.5794 171.873 87.6052 172.071 87.6633 172.259C87.716 172.335 87.9618 172.358 88.0437 172.364H88.2016V172.854H85.9138V172.364H86.0718C86.1537 172.364 86.3936 172.335 86.4521 172.254C86.5092 172.073 86.535 171.883 86.5282 171.694V171.676ZM78.4184 168.526H78.0673C77.8818 168.512 77.6977 168.568 77.5524 168.684C77.4183 168.864 77.3391 169.079 77.3242 169.302V169.442H76.8327L76.8678 168.666L76.9088 167.902H81.0046L81.0397 168.661L81.0807 169.442H80.5833V169.302C80.5653 169.079 80.4864 168.865 80.3551 168.684C80.2093 168.569 80.0256 168.513 79.8402 168.526H79.4892V171.676C79.4781 171.874 79.5059 172.072 79.5711 172.259C79.6354 172.341 79.9221 172.37 80.0158 172.376H80.1737V172.866H77.7455V172.376H77.9035C77.9971 172.376 78.278 172.341 78.3482 172.259C78.413 172.072 78.4408 171.874 78.4301 171.676L78.4184 168.526ZM69.7702 170.276H70.0277C70.1469 170.294 70.2686 170.284 70.383 170.246C70.4974 170.209 70.6013 170.145 70.6863 170.059C70.7712 169.974 70.8348 169.87 70.8718 169.756C70.9089 169.641 70.9184 169.52 70.8995 169.401C70.9086 169.281 70.8931 169.16 70.8539 169.046C70.8146 168.931 70.7525 168.826 70.6713 168.736C70.4796 168.583 70.2383 168.504 69.9926 168.515C69.9246 168.506 69.8557 168.506 69.7878 168.515C69.7633 168.582 69.7534 168.654 69.7586 168.725L69.7702 170.276ZM69.7702 170.906V171.915C69.7629 172.04 69.7829 172.166 69.8288 172.283C69.9539 172.339 70.0894 172.369 70.2266 172.37H70.3846V172.854H68.0968V172.37H68.2489C68.3367 172.37 68.5766 172.335 68.6351 172.259C68.6946 172.071 68.7203 171.873 68.7112 171.676V169.098C68.7199 168.901 68.6942 168.703 68.6351 168.515C68.5766 168.439 68.3367 168.416 68.2489 168.41H68.0968V167.926H69.9692C70.4999 167.899 71.0262 168.033 71.4788 168.311C71.6638 168.434 71.8145 168.602 71.9168 168.798C72.0191 168.995 72.0697 169.215 72.0639 169.436C72.0756 169.654 72.0337 169.872 71.942 170.07C71.8502 170.268 71.7113 170.441 71.5373 170.574C71.0902 170.842 70.5723 170.97 70.0511 170.941L69.7702 170.906ZM60.6657 170.025H61.5317C61.6948 170.039 61.8582 170.002 61.9998 169.92C62.0835 169.815 62.1233 169.681 62.111 169.547V169.384H62.6083V171.297H62.111V171.128C62.1233 170.994 62.0835 170.86 61.9998 170.755C61.8563 170.678 61.694 170.644 61.5317 170.655H60.6657V172.044C60.6594 172.109 60.6594 172.176 60.6657 172.242C60.7354 172.255 60.8067 172.255 60.8764 172.242H61.5902C61.8495 172.255 62.1073 172.194 62.3333 172.067C62.5483 171.904 62.7176 171.689 62.8248 171.443L62.8716 171.349H63.3807L63.1291 172.16L62.9009 172.872H58.9747V172.382H59.1327C59.2146 172.382 59.4545 172.353 59.513 172.277C59.5712 172.088 59.5969 171.891 59.5891 171.694V169.116C59.5982 168.918 59.5725 168.721 59.513 168.532C59.4545 168.456 59.2146 168.433 59.1327 168.427H58.9747V167.943H62.9419V168.608L62.977 169.296H62.4913V169.156C62.4817 168.985 62.4159 168.821 62.3041 168.69C62.1578 168.597 61.9854 168.554 61.8126 168.567H60.8822C60.8143 168.558 60.7454 168.558 60.6774 168.567C60.6656 168.637 60.6656 168.708 60.6774 168.777L60.6657 170.025ZM54.0187 171.997C53.7755 172.307 53.4682 172.562 53.1176 172.743C52.7732 172.909 52.3942 172.991 52.0117 172.983C51.6843 172.99 51.3588 172.929 51.0564 172.804C50.754 172.678 50.4815 172.491 50.2564 172.254C49.7866 171.756 49.5323 171.094 49.5484 170.41C49.5245 169.725 49.7702 169.057 50.233 168.55C50.4586 168.314 50.7314 168.127 51.0337 168.003C51.3361 167.878 51.6613 167.818 51.9883 167.827C52.4078 167.819 52.8242 167.899 53.2112 168.06C53.2379 168.068 53.2665 168.068 53.2932 168.06C53.3231 168.047 53.3478 168.024 53.3634 167.996L53.457 167.821H53.8841L53.9368 169.658L53.4745 169.728L53.4453 169.576C53.3926 169.255 53.2265 168.964 52.9772 168.754C52.7081 168.558 52.3799 168.459 52.0468 168.474C51.8557 168.471 51.6668 168.514 51.4964 168.601C51.3261 168.687 51.1796 168.814 51.0697 168.97C50.8226 169.407 50.6928 169.9 50.6928 170.402C50.6928 170.903 50.8226 171.397 51.0697 171.834C51.1773 171.992 51.3234 172.12 51.4942 172.207C51.6651 172.294 51.8552 172.336 52.0468 172.329C52.3285 172.334 52.6078 172.278 52.866 172.166C53.1326 172.029 53.3708 171.843 53.5682 171.618L53.6852 171.489L54.0772 171.874L54.0187 171.997ZM41.6726 170.463L40.5784 168.841C40.502 168.71 40.4029 168.594 40.2859 168.497C40.17 168.445 40.0445 168.417 39.9172 168.416H39.7592V167.932H42.17V168.427H42.0061C41.8738 168.421 41.7413 168.437 41.6141 168.474C41.6298 168.543 41.6597 168.609 41.7019 168.666L42.3455 169.617L42.9306 168.841C42.9774 168.789 43.1471 168.561 43.1413 168.491C43.0496 168.449 42.9497 168.427 42.8487 168.427H42.6966V167.943H44.6216V168.416H44.4812C44.3355 168.434 44.1946 168.48 44.0658 168.55C43.9103 168.675 43.7725 168.82 43.6562 168.981L42.7083 170.189L43.9195 171.979C43.9989 172.11 44.0975 172.228 44.212 172.329C44.3164 172.378 44.4302 172.404 44.5456 172.405H44.6977V172.895H42.3572V172.399H42.521C42.6356 172.404 42.7503 172.391 42.8604 172.358C42.8604 172.312 42.7902 172.195 42.7668 172.16L42.0061 171.034L41.2689 171.979C41.2279 172.032 41.0641 172.248 41.0758 172.318C41.0875 172.388 41.3566 172.393 41.4152 172.399H41.5731V172.889H39.6539V172.417H39.7943C39.9156 172.403 40.032 172.362 40.1337 172.294C40.2849 172.163 40.4222 172.016 40.5433 171.857L41.6726 170.463ZM32.3106 170.025H33.1649C33.328 170.039 33.4914 170.002 33.633 169.92C33.7167 169.815 33.7565 169.681 33.7442 169.547V169.384H34.2415V171.297H33.75V171.128C33.7623 170.994 33.7225 170.86 33.6388 170.755C33.4956 170.677 33.3331 170.643 33.1708 170.655H32.3048V172.044C32.2985 172.109 32.2985 172.176 32.3048 172.242C32.3744 172.255 32.4458 172.255 32.5154 172.242H33.2293C33.4886 172.255 33.7463 172.194 33.9724 172.067C34.1873 171.904 34.3566 171.689 34.4639 171.443L34.5107 171.349H35.0198L34.7681 172.16L34.5399 172.872H30.6138V172.382H30.8244C30.9063 172.382 31.1462 172.353 31.2047 172.277C31.2629 172.088 31.2886 171.891 31.2808 171.694V169.116C31.2899 168.918 31.2642 168.721 31.2047 168.532C31.1462 168.456 30.9063 168.433 30.8244 168.427H30.6664V167.943H34.6336V168.608L34.6687 169.296H34.183V169.156C34.1734 168.985 34.1077 168.821 33.9958 168.69C33.8495 168.597 33.6771 168.554 33.5043 168.567H32.5798C32.5118 168.558 32.4429 168.558 32.375 168.567C32.3534 168.635 32.3435 168.706 32.3457 168.777L32.3106 170.025Z" fill="#8C704E"/>
<path d="M30.8242 172.743V172.574C31.0875 172.574 31.2572 172.498 31.3274 172.399C31.4199 172.18 31.4561 171.942 31.4328 171.705V169.127C31.4556 168.893 31.4194 168.656 31.3274 168.439C31.2572 168.334 31.0875 168.276 30.8242 168.258V168.077H34.4637V168.585V169.104H34.335C34.3394 168.997 34.3196 168.891 34.2771 168.793C34.2347 168.695 34.1706 168.607 34.0897 168.537C34.0087 168.467 33.913 168.416 33.8096 168.388C33.7062 168.36 33.5978 168.356 33.4924 168.375H32.5796C32.5242 168.357 32.465 168.355 32.4084 168.368C32.3518 168.382 32.3001 168.411 32.2589 168.452C32.2177 168.493 32.1888 168.544 32.1751 168.601C32.1615 168.657 32.1638 168.716 32.1817 168.771V170.183H33.1647C33.37 170.203 33.5759 170.153 33.7498 170.043C33.8112 169.976 33.8576 169.896 33.8859 169.81C33.9141 169.723 33.9236 169.632 33.9137 169.541H34.0834V171.122H33.9137C33.9239 171.032 33.9145 170.942 33.8862 170.856C33.858 170.771 33.8114 170.692 33.7498 170.626C33.578 170.511 33.3709 170.459 33.1647 170.48H32.1349V172.038C32.1211 172.149 32.1458 172.263 32.2051 172.359C32.3009 172.418 32.4148 172.443 32.5269 172.428H33.2408C33.5317 172.442 33.8204 172.371 34.0716 172.224C34.3156 172.046 34.5076 171.807 34.6275 171.53H34.8031L34.6217 172.114L34.4344 172.697H30.8242V172.743Z" fill="#8C704E"/>
<path d="M40.7069 171.944L41.8771 170.469L40.7069 168.719C40.6169 168.569 40.4998 168.436 40.3616 168.328C40.2236 168.259 40.0716 168.221 39.9169 168.217V168.077H41.9941V168.241C41.7133 168.241 41.5377 168.282 41.4734 168.357C41.409 168.433 41.4324 168.562 41.5553 168.742L42.3218 169.909L43.0707 168.958C43.2521 168.725 43.3341 168.556 43.2989 168.451C43.2638 168.346 43.1292 168.287 42.8659 168.27V168.077H44.4575V168.241C44.2875 168.26 44.1237 168.315 43.9777 168.404C43.8096 168.537 43.6601 168.692 43.533 168.865L42.5266 170.171L43.8021 172.067C43.8924 172.215 44.0071 172.347 44.1415 172.458C44.2691 172.527 44.4119 172.563 44.557 172.563V172.743H42.5734V172.574C42.8308 172.574 42.9947 172.533 43.0532 172.458C43.1117 172.382 43.0532 172.254 42.9537 172.079L42.0702 170.766L41.1866 171.892C41.0053 172.119 40.935 172.289 40.976 172.388C41.017 172.487 41.175 172.557 41.4558 172.574V172.743H39.8701V172.574C40.0188 172.558 40.1612 172.506 40.2856 172.423C40.4496 172.285 40.5969 172.128 40.7244 171.956" fill="#8C704E"/>
<path d="M53.878 171.892C53.6535 172.186 53.3682 172.429 53.0413 172.603C52.7201 172.756 52.3674 172.832 52.0115 172.825C51.7059 172.834 51.4019 172.779 51.1194 172.662C50.837 172.546 50.5826 172.37 50.3732 172.149C49.9564 171.66 49.7275 171.04 49.7275 170.399C49.7275 169.758 49.9564 169.137 50.3732 168.649C50.5826 168.427 50.837 168.252 51.1194 168.135C51.4019 168.019 51.7059 167.963 52.0115 167.972C52.4128 167.964 52.8113 168.04 53.1817 168.194C53.214 168.208 53.2489 168.216 53.2842 168.216C53.3194 168.216 53.3543 168.208 53.3865 168.194C53.4219 168.183 53.4547 168.165 53.4828 168.141C53.511 168.117 53.5339 168.087 53.5504 168.054L53.5972 167.967H53.761L53.8078 169.501H53.644C53.5867 169.143 53.4018 168.818 53.1232 168.585C52.8248 168.363 52.4594 168.25 52.0876 168.264C51.8681 168.261 51.6513 168.312 51.457 168.414C51.2628 168.516 51.0973 168.665 50.9758 168.847C50.7074 169.313 50.5661 169.841 50.5661 170.378C50.5661 170.916 50.7074 171.443 50.9758 171.909C51.0969 172.092 51.2623 172.241 51.4566 172.343C51.651 172.445 51.868 172.497 52.0876 172.493C52.3939 172.5 52.698 172.438 52.977 172.312C53.2646 172.169 53.5211 171.971 53.7318 171.729L53.878 171.892Z" fill="#8C704E"/>
<path d="M59.1445 172.743V172.574C59.4137 172.574 59.5834 172.516 59.6536 172.399C59.746 172.18 59.7823 171.942 59.7589 171.705V169.127C59.7818 168.893 59.7456 168.656 59.6536 168.439C59.5834 168.334 59.4137 168.276 59.1445 168.258V168.077H62.7899V168.585V169.104H62.6202C62.6246 168.997 62.6048 168.891 62.5624 168.793C62.5199 168.695 62.4558 168.607 62.3749 168.537C62.2939 168.467 62.1982 168.416 62.0948 168.388C61.9914 168.36 61.883 168.356 61.7776 168.375H60.8472C60.7324 168.36 60.6163 168.387 60.5196 168.451C60.4603 168.547 60.4355 168.66 60.4494 168.771V170.183H61.4792C61.6844 170.203 61.8904 170.153 62.0643 170.043C62.1257 169.976 62.1721 169.896 62.2003 169.81C62.2286 169.723 62.2381 169.632 62.2282 169.541H62.4212V171.122H62.2515C62.2618 171.032 62.2524 170.942 62.2241 170.856C62.1959 170.771 62.1493 170.692 62.0877 170.626C61.9159 170.511 61.7087 170.459 61.5026 170.48H60.4903V172.038C60.4765 172.149 60.5013 172.263 60.5605 172.359C60.6564 172.418 60.7702 172.443 60.8824 172.428H61.5962C61.8872 172.442 62.1758 172.371 62.4271 172.224C62.6711 172.046 62.863 171.807 62.9829 171.53H63.1585L62.9771 172.114L62.7899 172.697H59.1445V172.743Z" fill="#8C704E"/>
<path d="M69.6006 170.469H70.0278C70.1676 170.479 70.308 170.461 70.4407 170.415C70.5733 170.37 70.6956 170.299 70.8002 170.206C70.8937 170.101 70.9651 169.978 71.0103 169.845C71.0556 169.712 71.0736 169.571 71.0635 169.43C71.0738 169.288 71.0542 169.145 71.0058 169.01C70.9575 168.876 70.8814 168.753 70.7826 168.649C70.566 168.462 70.2849 168.365 69.9985 168.381C69.9425 168.36 69.8817 168.355 69.8232 168.367C69.7646 168.38 69.7108 168.408 69.6679 168.45C69.625 168.491 69.5948 168.544 69.5808 168.602C69.5668 168.66 69.5697 168.721 69.5889 168.777L69.6006 170.469ZM68.8575 171.694V169.116C68.8796 168.881 68.8435 168.645 68.7522 168.427C68.682 168.328 68.5123 168.27 68.2432 168.246V168.077H69.9517C70.4491 168.049 70.9432 168.173 71.3677 168.433C71.5288 168.543 71.6597 168.691 71.7486 168.864C71.8376 169.038 71.8816 169.23 71.8768 169.425C71.8888 169.617 71.8529 169.809 71.7723 169.984C71.6916 170.159 71.5687 170.312 71.4145 170.428C70.9974 170.678 70.5133 170.794 70.0278 170.76H69.5831V171.927C69.5606 172.096 69.6001 172.268 69.6943 172.411C69.8442 172.506 70.0199 172.553 70.1975 172.545V172.743H68.2724V172.574C68.5416 172.574 68.7113 172.498 68.7815 172.393C68.8662 172.17 68.8924 171.929 68.8575 171.694Z" fill="#8C704E"/>
<path d="M78.5822 171.693V168.381H78.0673C77.9537 168.371 77.8394 168.385 77.7309 168.42C77.6225 168.455 77.5221 168.511 77.4354 168.585C77.2725 168.788 77.1765 169.037 77.1604 169.296H76.9849L77.0141 168.713L77.0434 168.13H80.8525L80.8818 168.713L80.9111 169.296H80.7355C80.7194 169.037 80.6234 168.788 80.4605 168.585C80.3738 168.511 80.2734 168.455 80.165 168.42C80.0565 168.385 79.9422 168.371 79.8286 168.381H79.3137V171.693C79.2859 171.929 79.3265 172.168 79.4307 172.382C79.5068 172.487 79.6998 172.545 80.0158 172.563V172.743H77.9211V172.574C78.2195 172.574 78.4126 172.498 78.5062 172.393C78.6104 172.18 78.651 171.941 78.6232 171.705" fill="#8C704E"/>
<path d="M86.692 171.694V169.116C86.7149 168.881 86.6787 168.644 86.5867 168.427C86.5165 168.322 86.3468 168.264 86.0776 168.247V168.077H88.032V168.241C87.7686 168.241 87.599 168.317 87.5288 168.422C87.4368 168.639 87.4006 168.875 87.4234 169.11V171.688C87.4001 171.924 87.4363 172.163 87.5288 172.382C87.599 172.481 87.7686 172.539 88.032 172.557V172.743H86.0776V172.574C86.3468 172.574 86.5165 172.516 86.5867 172.399C86.6784 172.18 86.7146 171.942 86.692 171.705" fill="#8C704E"/>
<path d="M96.4927 171.956C96.7463 171.479 96.8789 170.947 96.8789 170.407C96.8789 169.868 96.7463 169.336 96.4927 168.859C96.3826 168.684 96.2299 168.54 96.0487 168.44C95.8676 168.34 95.664 168.288 95.457 168.288C95.25 168.288 95.0465 168.34 94.8653 168.44C94.6842 168.54 94.5314 168.684 94.4214 168.859C94.1678 169.336 94.0352 169.868 94.0352 170.407C94.0352 170.947 94.1678 171.479 94.4214 171.956C94.5314 172.131 94.6842 172.275 94.8653 172.375C95.0465 172.474 95.25 172.527 95.457 172.527C95.664 172.527 95.8676 172.474 96.0487 172.375C96.2299 172.275 96.3826 172.131 96.4927 171.956ZM93.8479 172.148C93.4388 171.657 93.2148 171.038 93.2148 170.399C93.2148 169.76 93.4388 169.141 93.8479 168.649C94.0573 168.435 94.3075 168.265 94.5839 168.148C94.8602 168.032 95.1571 167.972 95.457 167.972C95.757 167.972 96.0539 168.032 96.3302 168.148C96.6066 168.265 96.8568 168.435 97.0661 168.649C97.4753 169.141 97.6992 169.76 97.6992 170.399C97.6992 171.038 97.4753 171.657 97.0661 172.148C96.8568 172.363 96.6066 172.533 96.3302 172.649C96.0539 172.765 95.757 172.825 95.457 172.825C95.1571 172.825 94.8602 172.765 94.5839 172.649C94.3075 172.533 94.0573 172.363 93.8479 172.148Z" fill="#8C704E"/>
<path d="M103.965 171.577C103.939 171.852 103.977 172.13 104.076 172.388C104.146 172.504 104.316 172.563 104.579 172.574V172.743H103.011V172.574C103.274 172.574 103.444 172.504 103.514 172.388C103.614 172.13 103.652 171.852 103.626 171.577V168.62C103.549 168.524 103.46 168.437 103.362 168.363C103.242 168.297 103.107 168.261 102.97 168.258V168.077H104.14L106.721 171.379V169.244C106.745 168.971 106.709 168.696 106.616 168.439C106.545 168.322 106.376 168.258 106.106 168.247V168.077H107.675V168.241C107.411 168.241 107.242 168.317 107.171 168.433C107.078 168.691 107.042 168.965 107.066 169.238V172.831H106.937L103.965 169.028V171.577Z" fill="#8C704E"/>
<path d="M114.134 170.865H115.574L114.854 169.116L114.134 170.865ZM113.327 171.944L114.971 167.978H115.129L116.826 172.061C116.872 172.206 116.95 172.34 117.054 172.452C117.16 172.522 117.284 172.558 117.411 172.557V172.743H115.697V172.574C115.896 172.574 116.024 172.533 116.077 172.458C116.13 172.382 116.118 172.253 116.048 172.078L115.679 171.174H113.994L113.701 171.892C113.658 171.967 113.63 172.051 113.621 172.137C113.612 172.223 113.622 172.311 113.649 172.393C113.707 172.504 113.859 172.563 114.093 172.574V172.743H112.742V172.574C112.875 172.562 113.002 172.509 113.104 172.423C113.202 172.275 113.277 172.114 113.327 171.944Z" fill="#8C704E"/>
<path d="M122.56 172.743V172.574C122.829 172.574 122.993 172.498 123.069 172.393C123.162 172.177 123.198 171.94 123.174 171.705V169.127C123.197 168.893 123.16 168.656 123.069 168.439C122.93 168.314 122.747 168.249 122.56 168.258V168.077H124.514V168.241C124.251 168.241 124.081 168.322 124.011 168.422C123.914 168.637 123.876 168.875 123.9 169.11V171.886C123.865 171.962 123.853 172.047 123.868 172.129C123.883 172.212 123.922 172.288 123.982 172.347C124.041 172.406 124.117 172.446 124.2 172.46C124.283 172.475 124.368 172.464 124.444 172.428H124.942C125.259 172.444 125.574 172.373 125.854 172.224C126.113 172.055 126.316 171.813 126.439 171.53H126.615L126.434 172.114L126.246 172.697H122.572L122.56 172.743Z" fill="#8C704E"/>
<path d="M141.342 169.477C141.281 169.15 141.122 168.849 140.886 168.614C140.682 168.408 140.404 168.29 140.114 168.287C140.024 168.283 139.935 168.298 139.853 168.331C139.77 168.365 139.695 168.415 139.634 168.48C139.511 168.629 139.449 168.818 139.458 169.011C139.462 169.186 139.533 169.353 139.657 169.477C139.841 169.668 140.054 169.827 140.289 169.95C140.678 170.15 141.034 170.41 141.342 170.719C141.534 170.942 141.638 171.226 141.635 171.519C141.644 171.698 141.611 171.878 141.539 172.042C141.467 172.207 141.358 172.353 141.219 172.469C140.902 172.722 140.502 172.848 140.096 172.825C139.833 172.824 139.575 172.756 139.347 172.627C139.273 172.579 139.183 172.56 139.095 172.574C139.059 172.587 139.026 172.609 138.999 172.637C138.973 172.666 138.953 172.7 138.943 172.738V172.802H138.78L138.586 171.291H138.756C138.849 171.631 139.035 171.938 139.294 172.178C139.516 172.397 139.813 172.522 140.125 172.528C140.238 172.533 140.351 172.516 140.457 172.476C140.563 172.435 140.659 172.374 140.74 172.294C140.818 172.212 140.878 172.115 140.918 172.009C140.957 171.902 140.974 171.789 140.968 171.676C140.954 171.486 140.868 171.309 140.728 171.18C140.489 170.953 140.221 170.757 139.932 170.597C139.603 170.425 139.306 170.198 139.055 169.926C138.88 169.736 138.78 169.49 138.774 169.232C138.767 169.065 138.794 168.899 138.854 168.742C138.913 168.586 139.003 168.443 139.119 168.322C139.235 168.202 139.375 168.108 139.531 168.047C139.686 167.986 139.853 167.958 140.02 167.967C140.29 167.968 140.557 168.032 140.798 168.153C140.866 168.191 140.945 168.201 141.021 168.182C141.056 168.174 141.088 168.159 141.117 168.136C141.145 168.114 141.168 168.086 141.184 168.054L141.231 167.967H141.401L141.541 169.454L141.342 169.477Z" fill="#8C704E"/>
<path d="M146.942 172.743V172.574C147.035 172.581 147.127 172.569 147.215 172.539C147.302 172.509 147.383 172.461 147.451 172.399C147.544 172.18 147.58 171.942 147.557 171.705V169.127C147.58 168.893 147.543 168.656 147.451 168.439C147.375 168.334 147.211 168.276 146.942 168.258V168.077H150.582V168.585V169.104H150.412C150.401 168.887 150.314 168.681 150.166 168.521C149.996 168.4 149.789 168.342 149.581 168.357H148.645C148.532 168.343 148.418 168.37 148.323 168.433C148.261 168.528 148.235 168.641 148.247 168.754V170.165H149.283C149.488 170.187 149.695 170.137 149.868 170.025C149.93 169.959 149.978 169.879 150.007 169.793C150.036 169.706 150.047 169.615 150.038 169.524H150.201V171.105H150.038C150.047 171.015 150.037 170.924 150.007 170.838C149.978 170.752 149.931 170.674 149.868 170.609C149.697 170.492 149.489 170.44 149.283 170.463H148.247V172.02C148.227 172.075 148.222 172.134 148.234 172.191C148.247 172.248 148.275 172.3 148.317 172.342C148.358 172.383 148.41 172.411 148.468 172.424C148.525 172.436 148.584 172.432 148.639 172.411H149.359C149.65 172.424 149.938 172.353 150.19 172.207C150.432 172.028 150.622 171.789 150.74 171.513H150.921L150.734 172.096L150.547 172.679H146.907L146.942 172.743Z" fill="#8C704E"/>
<path d="M157.393 170.865H158.838L158.118 169.116L157.393 170.865ZM156.626 171.944L158.27 167.978H158.428L160.119 172.061C160.169 172.206 160.249 172.339 160.353 172.452C160.459 172.522 160.583 172.558 160.71 172.557V172.743H158.967V172.574C159.165 172.574 159.294 172.533 159.347 172.458C159.4 172.382 159.388 172.253 159.318 172.078L158.949 171.174H157.27L156.983 171.892C156.937 171.966 156.909 172.05 156.899 172.137C156.89 172.223 156.901 172.311 156.93 172.393C156.989 172.504 157.135 172.563 157.375 172.574V172.743H155.982V172.574C156.116 172.561 156.242 172.508 156.345 172.423C156.464 172.279 156.559 172.118 156.626 171.944Z" fill="#8C704E"/>
<path d="M166.409 171.694V169.116C166.432 168.881 166.396 168.644 166.304 168.427C166.234 168.322 166.064 168.264 165.795 168.247V168.077H169.434V168.585V169.104H169.265C169.269 168.997 169.249 168.891 169.207 168.793C169.164 168.695 169.1 168.607 169.019 168.537C168.938 168.467 168.843 168.416 168.739 168.388C168.636 168.36 168.528 168.356 168.422 168.375H167.498C167.383 168.359 167.266 168.386 167.17 168.451C167.108 168.546 167.081 168.659 167.094 168.771V170.183H168.124C168.329 170.204 168.535 170.154 168.709 170.043C168.77 169.976 168.817 169.896 168.845 169.81C168.873 169.723 168.883 169.632 168.873 169.541H169.042V171.122H168.914C168.924 171.032 168.914 170.942 168.886 170.856C168.858 170.771 168.811 170.692 168.75 170.626C168.578 170.51 168.371 170.458 168.165 170.48H167.158V171.688C167.133 171.923 167.171 172.161 167.269 172.376C167.34 172.481 167.509 172.539 167.773 172.557V172.743H165.818V172.574C166.087 172.574 166.257 172.516 166.327 172.399C166.419 172.18 166.455 171.942 166.433 171.705" fill="#8C704E"/>
<path d="M175.964 170.329H176.415C176.705 170.349 176.991 170.255 177.211 170.066C177.306 169.963 177.379 169.842 177.426 169.709C177.472 169.577 177.491 169.436 177.48 169.296C177.485 169.17 177.462 169.045 177.413 168.929C177.363 168.813 177.288 168.709 177.193 168.626C176.972 168.454 176.695 168.367 176.415 168.381H176.362C176.307 168.363 176.248 168.361 176.191 168.374C176.135 168.388 176.083 168.417 176.042 168.458C176 168.499 175.971 168.55 175.958 168.607C175.944 168.663 175.947 168.722 175.964 168.777V170.329ZM175.239 171.694V169.116C175.263 168.88 175.225 168.643 175.128 168.427C175.057 168.328 174.888 168.27 174.625 168.246V168.077H176.415C176.904 168.046 177.393 168.157 177.819 168.398C177.974 168.501 178.099 168.642 178.183 168.808C178.268 168.973 178.307 169.158 178.299 169.343C178.304 169.528 178.26 169.711 178.172 169.874C178.084 170.037 177.954 170.173 177.796 170.27C177.593 170.399 177.369 170.492 177.135 170.545L178.305 172.061C178.412 172.207 178.538 172.339 178.679 172.452C178.797 172.519 178.93 172.555 179.066 172.557V172.743H177.895L176.298 170.62H175.97V171.956C175.949 172.125 175.986 172.296 176.076 172.44C176.226 172.539 176.405 172.586 176.585 172.574V172.743H174.63V172.574C174.894 172.574 175.063 172.498 175.134 172.393C175.232 172.174 175.268 171.932 175.239 171.694Z" fill="#8C704E"/>
<path d="M187.327 171.956C187.577 171.478 187.707 170.947 187.707 170.407C187.707 169.868 187.577 169.337 187.327 168.859C187.216 168.684 187.063 168.54 186.881 168.441C186.7 168.341 186.496 168.289 186.289 168.289C186.081 168.289 185.877 168.341 185.696 168.441C185.514 168.54 185.361 168.684 185.25 168.859C185 169.337 184.87 169.868 184.87 170.407C184.87 170.947 185 171.478 185.25 171.956C185.361 172.131 185.514 172.275 185.696 172.374C185.877 172.474 186.081 172.526 186.289 172.526C186.496 172.526 186.7 172.474 186.881 172.374C187.063 172.275 187.216 172.131 187.327 171.956ZM184.712 172.16C184.303 171.668 184.079 171.049 184.079 170.41C184.079 169.771 184.303 169.153 184.712 168.661C184.921 168.447 185.171 168.276 185.448 168.16C185.724 168.044 186.021 167.984 186.321 167.984C186.621 167.984 186.918 168.044 187.194 168.16C187.47 168.276 187.721 168.447 187.93 168.661C188.339 169.153 188.563 169.771 188.563 170.41C188.563 171.049 188.339 171.668 187.93 172.16C187.721 172.374 187.47 172.544 187.194 172.661C186.918 172.777 186.621 172.837 186.321 172.837C186.021 172.837 185.724 172.777 185.448 172.661C185.171 172.544 184.921 172.374 184.712 172.16Z" fill="#8C704E"/>
<path d="M194.782 171.577C194.758 171.852 194.794 172.128 194.887 172.388C194.957 172.504 195.127 172.563 195.396 172.574V172.743H193.828V172.574C194.091 172.574 194.261 172.504 194.331 172.388C194.425 172.128 194.46 171.852 194.437 171.577V168.62C194.362 168.524 194.275 168.438 194.179 168.363C194.057 168.297 193.92 168.261 193.781 168.258V168.077H194.951L197.532 171.379V169.244C197.556 168.971 197.52 168.696 197.427 168.439C197.364 168.368 197.285 168.314 197.196 168.28C197.107 168.247 197.012 168.235 196.917 168.247V168.077H198.486V168.241C198.222 168.241 198.053 168.317 197.982 168.433C197.883 168.689 197.844 168.965 197.871 169.238V172.831H197.748L194.77 169.022L194.782 171.577Z" fill="#8C704E"/>
<path d="M205.22 171.693V168.381H204.706C204.474 168.363 204.246 168.436 204.068 168.585C203.905 168.788 203.809 169.037 203.793 169.296H203.623V168.713V168.13H207.438V168.713V169.296H207.268C207.252 169.037 207.156 168.788 206.993 168.585C206.816 168.436 206.587 168.363 206.356 168.381H205.841V171.693C205.816 171.929 205.856 172.167 205.958 172.382C206.038 172.449 206.131 172.5 206.232 172.531C206.332 172.563 206.438 172.573 206.543 172.563V172.743H204.448V172.574C204.553 172.585 204.659 172.574 204.759 172.543C204.86 172.512 204.953 172.461 205.033 172.393C205.134 172.179 205.175 171.941 205.15 171.705" fill="#8C704E"/>
<path d="M162.881 129.337C164.139 129.337 164.999 128.083 166.052 126.707C166.796 125.737 167.643 124.851 168.58 124.065C168.691 123.966 168.814 123.884 168.919 123.802C168.777 123.775 168.632 123.762 168.486 123.761C166.834 123.826 165.241 124.398 163.928 125.4C162.442 126.567 161.991 127.733 161.991 128.439C161.978 128.559 161.991 128.681 162.031 128.796C162.071 128.91 162.135 129.014 162.221 129.1C162.306 129.186 162.41 129.252 162.524 129.293C162.638 129.334 162.76 129.349 162.881 129.337ZM165.847 128.643C165.864 128.433 165.96 128.237 166.117 128.095C166.273 127.953 166.478 127.876 166.69 127.879C166.924 127.879 167.117 127.99 167.117 128.206C167.117 128.422 166.924 128.532 166.76 128.602C166.596 128.672 166.462 128.725 166.433 128.877C166.403 129.028 166.708 129.203 166.953 129.203C167.474 129.139 167.956 128.895 168.315 128.513C168.674 128.132 168.888 127.637 168.919 127.115C168.932 127.005 168.921 126.894 168.886 126.789C168.852 126.684 168.796 126.588 168.721 126.507C168.646 126.425 168.554 126.361 168.452 126.318C168.35 126.275 168.24 126.255 168.129 126.258C167.999 126.285 167.865 126.299 167.731 126.299C167.556 126.299 167.392 126.269 167.404 126.188C167.416 126.106 167.638 126.083 167.772 126.083C167.91 126.085 168.047 126.098 168.182 126.124C168.502 126.062 168.798 125.914 169.037 125.694C169.277 125.475 169.451 125.193 169.54 124.881C169.607 124.709 169.613 124.52 169.558 124.344C169.503 124.168 169.389 124.016 169.235 123.913C169.124 124.024 169.019 124.117 168.919 124.228C168.311 124.891 167.746 125.592 167.228 126.328C165.97 128.031 164.478 129.46 162.893 129.46C162.044 129.46 161.441 129.174 161.441 128.427C161.441 127.681 162.073 126.491 163.7 125.301C165.12 124.275 166.815 123.696 168.568 123.639C168.746 123.64 168.924 123.654 169.101 123.68C169.508 123.386 169.948 123.139 170.411 122.945C170.842 122.765 171.302 122.668 171.769 122.659C171.945 122.644 172.123 122.67 172.288 122.733C172.453 122.797 172.602 122.897 172.723 123.027C172.764 123.097 172.775 123.137 172.752 123.149C172.728 123.161 172.711 123.149 172.67 123.085C172.552 122.974 172.412 122.888 172.259 122.834C172.105 122.78 171.943 122.758 171.781 122.77C171.335 122.778 170.897 122.879 170.493 123.067C170.106 123.252 169.745 123.486 169.417 123.761C169.661 123.817 169.875 123.965 170.015 124.173C170.154 124.381 170.208 124.635 170.166 124.881C170.043 125.634 169.083 126.083 168.41 126.176C169.247 126.316 169.645 126.789 169.616 127.343C169.563 128.509 168.317 129.297 166.936 129.297C166.433 129.314 165.847 129.162 165.847 128.643Z" fill="#8C704E"/>
<path d="M172.816 127.92C172.956 127.848 173.081 127.748 173.181 127.627C173.282 127.505 173.357 127.365 173.401 127.214C173.408 127.19 173.409 127.165 173.404 127.141C173.399 127.116 173.387 127.093 173.371 127.074C173.355 127.055 173.334 127.041 173.311 127.031C173.288 127.022 173.262 127.019 173.238 127.022C173.115 127.022 172.91 127.156 172.652 127.418C172.381 127.696 172.14 128.001 171.933 128.328C172.261 128.244 172.574 128.106 172.857 127.92H172.816ZM171.055 128.754C171.092 128.52 171.177 128.296 171.304 128.095C171.43 127.895 171.597 127.722 171.792 127.588C172.279 127.183 172.872 126.928 173.501 126.853C173.805 126.853 173.91 127.039 173.899 127.22C173.869 127.57 173.436 127.844 173.027 128.048C172.65 128.228 172.259 128.374 171.857 128.486C171.806 128.583 171.778 128.691 171.775 128.801C171.769 128.842 171.773 128.883 171.786 128.922C171.799 128.962 171.82 128.997 171.849 129.027C171.878 129.057 171.913 129.08 171.952 129.094C171.99 129.108 172.032 129.114 172.073 129.11C172.527 129.059 172.957 128.885 173.319 128.608C173.577 128.433 173.905 128.142 174.156 127.955C174.238 127.885 174.279 127.873 174.302 127.897C174.326 127.92 174.302 127.996 174.191 128.078C173.938 128.312 173.671 128.53 173.39 128.731C172.921 129.072 172.365 129.274 171.786 129.314C171.254 129.314 171.002 129.104 171.014 128.754H171.055Z" fill="#8C704E"/>
<path d="M177.468 128.602C177.788 128.401 178.089 128.173 178.369 127.92C178.439 127.868 178.51 127.798 178.551 127.838C178.591 127.879 178.521 127.949 178.398 128.06C178.178 128.255 177.945 128.436 177.702 128.602C177.432 128.785 177.143 128.939 176.842 129.063C176.471 129.218 176.074 129.303 175.672 129.314C174.946 129.314 174.8 128.877 174.852 128.492C174.867 128.311 174.944 128.141 175.072 128.012C175.199 127.883 175.368 127.803 175.549 127.786C175.587 127.785 175.625 127.792 175.66 127.807C175.695 127.822 175.726 127.844 175.751 127.873C175.776 127.901 175.795 127.935 175.805 127.971C175.816 128.008 175.818 128.046 175.812 128.083C175.791 128.16 175.753 128.231 175.7 128.291C175.647 128.35 175.582 128.397 175.508 128.427C175.427 128.467 175.357 128.524 175.302 128.595C175.247 128.666 175.21 128.748 175.192 128.836C175.192 129.052 175.344 129.174 175.59 129.174C175.836 129.174 176.204 128.958 176.508 128.439C176.754 128.043 177 127.226 177.152 127.051C176.944 127.239 176.723 127.413 176.491 127.57C176.326 127.69 176.154 127.799 175.976 127.897C175.917 127.926 175.865 127.955 175.836 127.897C175.806 127.838 175.836 127.833 175.906 127.792C175.976 127.751 176.263 127.57 176.491 127.407C176.719 127.243 176.982 127.028 177.298 126.754C177.357 126.664 177.43 126.585 177.515 126.52C177.631 126.435 177.769 126.384 177.913 126.374C178.229 126.374 178.024 126.549 177.843 126.66C177.729 126.72 177.619 126.789 177.515 126.864C177.41 126.975 177.421 127.08 177.421 127.232C177.467 127.61 177.425 127.993 177.298 128.352C177.199 128.569 177.049 128.759 176.859 128.906C177.064 128.826 177.26 128.726 177.445 128.608" fill="#8C704E"/>
<path d="M180.926 129.063C181.109 129.048 181.285 128.983 181.435 128.877C181.666 128.707 181.876 128.512 182.061 128.293C181.83 128.392 181.594 128.478 181.353 128.55C181.037 128.643 180.768 128.783 180.768 128.929C180.768 129.075 180.809 129.052 180.92 129.052L180.926 129.063ZM179.481 128.072C179.369 128.165 179.299 128.235 179.258 128.194C179.217 128.153 179.311 128.06 179.451 127.937L180.382 127.074C180.639 126.847 181.552 125.984 182.137 125.564C182.584 125.172 183.142 124.929 183.735 124.87C183.886 124.865 184.037 124.897 184.173 124.963C184.267 125.015 184.32 125.097 184.296 125.126C184.273 125.155 184.267 125.097 184.156 125.056C184.037 125.018 183.912 125 183.787 125.004C183.461 125.056 183.148 125.173 182.867 125.346C182.586 125.519 182.342 125.746 182.149 126.013C181.528 126.684 180.956 127.399 180.44 128.153C180.805 127.819 181.197 127.515 181.611 127.243C181.954 127.002 182.361 126.864 182.781 126.847C182.846 126.844 182.911 126.856 182.971 126.883C183.03 126.91 183.083 126.95 183.124 127C183.166 127.05 183.195 127.11 183.209 127.173C183.224 127.237 183.223 127.303 183.208 127.366C183.064 127.862 182.768 128.301 182.359 128.62C181.93 128.97 181.407 129.187 180.856 129.244C180.692 129.244 180.446 129.203 180.446 128.97C180.446 128.737 180.867 128.521 181.213 128.427C181.519 128.352 181.82 128.256 182.114 128.142C182.291 127.936 182.439 127.706 182.553 127.459C182.605 127.308 182.646 127.051 182.412 127.051C181.976 127.136 181.572 127.338 181.242 127.634C180.732 128.004 180.269 128.433 179.861 128.912C179.551 129.256 178.96 130.078 178.562 130.533C177.506 131.837 176.246 132.961 174.829 133.863C173.561 134.669 172.096 135.11 170.593 135.141C168.188 135.141 166.064 133.863 165.912 131.723C165.873 131.315 165.97 130.905 166.187 130.556C166.228 130.504 166.269 130.475 166.298 130.492C166.327 130.51 166.298 130.527 166.298 130.585C166.131 130.928 166.057 131.308 166.081 131.688C166.257 133.735 168.27 134.797 170.675 134.797C172.092 134.829 173.49 134.461 174.706 133.735C175.85 132.947 176.841 131.959 177.632 130.819C178.141 130.166 180.124 127.599 180.809 126.783L179.481 128.072Z" fill="#8C704E"/>
<path d="M187.146 128.672C187.023 128.703 186.894 128.692 186.778 128.643C186.337 129.015 185.795 129.249 185.221 129.314C184.8 129.314 184.536 129.104 184.554 128.731C184.584 128.415 184.718 128.118 184.934 127.885C185.175 127.613 185.462 127.386 185.783 127.214C186.117 127.034 186.482 126.919 186.859 126.876C186.959 126.876 187.07 126.876 187.07 126.929C187.07 126.981 187.029 126.958 186.918 127.01C186.55 127.203 186.217 127.458 185.935 127.763C185.57 128.074 185.296 128.477 185.139 128.929C185.139 129.069 185.18 129.162 185.332 129.162C185.834 129.031 186.28 128.74 186.602 128.334C186.632 128.136 186.71 127.948 186.829 127.786C186.949 127.625 187.106 127.494 187.287 127.407C187.319 127.305 187.332 127.198 187.328 127.092C187.328 126.969 187.275 126.899 187.328 126.876C187.38 126.853 187.462 126.876 187.515 126.958C187.581 127.016 187.63 127.09 187.659 127.172C187.688 127.255 187.695 127.344 187.679 127.43C187.546 127.873 187.273 128.262 186.9 128.538C186.985 128.556 187.073 128.556 187.158 128.538C187.33 128.497 187.49 128.417 187.626 128.305C187.781 128.198 187.928 128.079 188.065 127.949C188.188 127.838 188.252 127.774 188.293 127.815C188.334 127.856 188.252 127.938 188.118 128.06C187.98 128.189 187.834 128.308 187.679 128.416C187.523 128.531 187.346 128.614 187.158 128.661" fill="#8C704E"/>
<path d="M191.224 129.273C191.156 129.279 191.087 129.27 191.022 129.245C190.958 129.221 190.9 129.182 190.852 129.132C190.805 129.082 190.77 129.022 190.749 128.957C190.728 128.891 190.723 128.822 190.733 128.754C190.733 128.235 191.154 127.757 191.154 127.588C190.785 127.588 190.61 127.494 190.633 127.436C190.669 127.401 190.713 127.375 190.76 127.358C190.808 127.342 190.858 127.337 190.908 127.343C191.042 127.34 191.172 127.384 191.277 127.465C191.437 127.461 191.596 127.43 191.745 127.372C192.074 127.212 192.375 126.999 192.634 126.742C192.746 126.636 192.863 126.537 192.986 126.444C193.149 126.322 193.331 126.252 193.454 126.345C193.576 126.439 193.495 126.672 193.22 126.759C193.067 126.8 192.92 126.859 192.781 126.934C192.466 127.14 192.133 127.318 191.786 127.465C191.648 127.516 191.505 127.553 191.359 127.576C191.429 127.681 191.593 127.832 191.441 128.445C191.388 128.678 191.318 128.935 191.54 128.976C191.706 128.977 191.868 128.926 192.003 128.83C192.207 128.712 192.403 128.58 192.588 128.433C192.874 128.2 193.015 128.077 193.173 127.914C193.243 127.862 193.307 127.78 193.366 127.821C193.424 127.862 193.284 127.967 193.225 128.025C192.98 128.263 192.72 128.485 192.447 128.69C192.108 128.999 191.684 129.202 191.23 129.273H191.224ZM191.768 125.115C192.277 124.523 192.821 123.963 193.395 123.435C193.531 123.299 193.712 123.218 193.904 123.207C194.039 123.207 194.109 123.248 194.109 123.301C193.781 123.627 192.646 124.881 192.073 125.564C191.704 126.001 191.335 126.45 190.902 127.033C190.317 127.786 189.674 128.725 189.481 128.999C189.431 129.076 189.362 129.138 189.281 129.181C189.2 129.224 189.11 129.246 189.018 129.244C188.814 129.244 188.755 129.186 188.837 129.022C189.012 128.707 189.208 128.403 189.422 128.112C189.533 127.949 189.668 127.774 189.832 127.564C189.627 127.739 189.463 127.891 189.311 128.025C189.159 128.159 189.188 128.112 189.165 128.072C189.141 128.031 189.165 127.984 189.229 127.949C189.293 127.914 189.814 127.442 190.107 127.185C190.499 126.625 191.183 125.779 191.768 125.115Z" fill="#8C704E"/>
<path d="M195.859 127.92C195.999 127.848 196.123 127.748 196.224 127.627C196.324 127.505 196.399 127.365 196.444 127.214C196.444 127.092 196.403 127.022 196.28 127.022C196.157 127.022 195.952 127.156 195.695 127.418C195.422 127.696 195.179 128.001 194.969 128.328C195.3 128.245 195.615 128.107 195.9 127.92H195.859ZM196.368 128.602C196.659 128.403 196.936 128.185 197.199 127.949C197.281 127.879 197.321 127.868 197.351 127.891C197.38 127.914 197.351 128.002 197.24 128.072C196.967 128.316 196.68 128.544 196.379 128.754C195.934 129.096 195.396 129.299 194.835 129.337C194.326 129.337 194.097 129.145 194.109 128.789C194.143 128.468 194.288 128.17 194.519 127.943L194.244 128.188C194.174 128.241 194.133 128.258 194.109 128.229C194.086 128.2 194.109 128.136 194.191 128.078C194.35 127.931 194.518 127.795 194.694 127.669C194.908 127.517 195.133 127.381 195.367 127.261C195.723 127.048 196.124 126.918 196.537 126.882C196.836 126.882 196.947 127.068 196.935 127.249C196.906 127.599 196.467 127.873 196.058 128.078C195.682 128.258 195.29 128.405 194.887 128.515C194.839 128.613 194.811 128.72 194.805 128.83C194.801 128.872 194.806 128.915 194.82 128.955C194.834 128.995 194.857 129.032 194.888 129.061C194.918 129.091 194.955 129.114 194.996 129.127C195.036 129.141 195.079 129.145 195.121 129.139C195.564 129.069 195.98 128.884 196.327 128.602H196.368Z" fill="#8C704E"/>
<path d="M208.907 125.768C209.708 125.657 210.967 125.185 211.16 124.38C211.253 123.925 210.902 123.627 210.323 123.639C209.944 123.664 209.575 123.776 209.246 123.966C209.354 124.108 209.441 124.265 209.504 124.432C209.627 124.788 209.586 124.934 209.562 124.934C209.539 124.934 209.562 124.8 209.357 124.461C209.273 124.317 209.166 124.187 209.041 124.076C208.404 124.54 207.865 125.125 207.456 125.797C207.939 125.848 208.426 125.838 208.907 125.768ZM206.689 125.675C207.27 124.921 208.011 124.305 208.86 123.872C208.266 123.479 207.566 123.276 206.853 123.289C205.683 123.289 205.033 123.82 205.033 124.397C205.033 124.975 205.776 125.5 206.689 125.675ZM203.764 128.492C203.179 128.492 202.681 128.737 202.669 128.982C202.658 129.227 202.874 129.215 203.102 129.203C203.636 129.16 204.142 128.945 204.542 128.591C204.285 128.517 204.019 128.484 203.752 128.492H203.764ZM206.935 123.085C207.721 123.049 208.492 123.3 209.106 123.791C209.498 123.637 209.913 123.55 210.335 123.534C211.078 123.505 211.692 123.872 211.569 124.485C211.388 125.371 209.709 125.82 208.901 125.919C208.401 125.972 207.897 125.972 207.397 125.919C206.775 126.917 205.952 127.775 204.981 128.439C205.156 128.439 205.566 128.573 206.005 128.684C206.464 128.808 206.934 128.89 207.409 128.929C207.827 128.922 208.24 128.832 208.623 128.663C209.006 128.495 209.351 128.252 209.638 127.949C209.708 127.891 209.779 127.809 209.82 127.85C209.861 127.891 209.779 127.973 209.697 128.06C208.696 128.982 208.216 129.378 207.356 129.378C206.853 129.373 206.354 129.28 205.882 129.104C205.431 128.929 204.922 128.696 204.747 128.655C204.222 129.077 203.577 129.322 202.904 129.355C202.353 129.355 202.067 129.256 202.078 129.04C202.078 128.591 203.325 128.328 204.121 128.346C204.334 128.347 204.547 128.365 204.758 128.398C205.513 127.704 205.853 126.829 206.648 125.797C205.747 125.605 204.951 125.115 204.951 124.421C204.951 123.726 205.636 123.085 206.947 123.085H206.935Z" fill="#8C704E"/>
<path d="M211.271 127.646C211.066 127.809 210.914 127.938 210.779 128.06C210.645 128.183 210.616 128.194 210.575 128.165C210.534 128.136 210.575 128.083 210.721 127.949C211.029 127.675 211.353 127.42 211.692 127.185C211.913 126.995 212.196 126.889 212.488 126.888C212.775 126.888 212.804 126.928 212.64 127.103C212.476 127.278 212.201 127.605 211.926 127.949C211.738 128.179 211.569 128.425 211.423 128.684C211.365 128.795 211.365 128.888 211.423 128.929C211.482 128.97 211.604 128.97 211.739 128.9C212.098 128.692 212.441 128.456 212.763 128.194C213.418 127.687 213.804 127.348 214.243 127.028C214.295 126.977 214.357 126.938 214.424 126.912C214.491 126.886 214.563 126.874 214.635 126.876C214.869 126.876 215.004 126.905 214.84 127.092C214.594 127.395 214.39 127.611 214.12 127.967C213.934 128.185 213.764 128.417 213.611 128.661C213.529 128.795 213.518 128.917 213.57 128.958C213.623 128.999 213.746 128.987 213.886 128.917C214.095 128.802 214.291 128.665 214.471 128.509C214.747 128.293 214.975 128.089 215.127 127.955C215.279 127.821 215.291 127.815 215.32 127.856C215.349 127.897 215.25 127.99 215.209 128.031C214.945 128.283 214.668 128.521 214.378 128.742C214.052 129.039 213.644 129.23 213.208 129.291C212.933 129.291 212.78 129.162 212.78 128.958C212.798 128.756 212.875 128.563 213.003 128.404C213.195 128.15 213.408 127.912 213.641 127.693L212.546 128.55C212.14 128.934 211.633 129.194 211.084 129.302C210.797 129.302 210.621 129.162 210.633 128.917C210.663 128.703 210.752 128.501 210.891 128.334C211.18 127.941 211.505 127.576 211.862 127.243C211.656 127.364 211.461 127.5 211.277 127.652" fill="#8C704E"/>
<path d="M218.327 127.582C218.503 127.366 219.012 126.713 219.433 126.713C219.656 126.713 219.966 126.788 219.901 127.296C219.858 127.201 219.785 127.122 219.693 127.071C219.602 127.019 219.497 126.998 219.392 127.01C219.024 127.01 218.696 127.337 218.398 127.675C218.316 127.774 218.164 127.949 218.082 128.06C217.933 128.243 217.8 128.438 217.684 128.643C217.537 128.917 217.549 129.052 217.684 129.052C218.032 128.978 218.359 128.824 218.637 128.602C218.903 128.405 219.155 128.191 219.392 127.961C219.463 127.891 219.503 127.891 219.527 127.92C219.55 127.949 219.527 127.99 219.445 128.072C219.269 128.235 218.994 128.492 218.708 128.713C218.317 129.032 217.845 129.234 217.344 129.296C216.929 129.296 216.759 128.964 217.11 128.451C216.782 128.866 216.422 129.256 216.034 129.617C215.542 130.066 214.676 130.854 213.693 130.854C213.489 130.854 213.29 130.787 213.128 130.662C212.966 130.537 212.85 130.363 212.798 130.166C212.757 129.985 212.745 129.821 212.798 129.81C212.851 129.798 212.798 129.903 212.921 130.066C213.022 130.187 213.151 130.283 213.296 130.345C213.442 130.406 213.6 130.433 213.758 130.422C214.591 130.388 215.38 130.042 215.969 129.454C216.418 129.045 216.835 128.602 217.216 128.13C217.416 127.898 217.594 127.648 217.748 127.383C217.83 127.232 217.871 127.057 217.707 127.057C217.413 127.129 217.144 127.281 216.929 127.494C216.712 127.669 216.467 127.885 216.285 128.077C216.104 128.27 216.092 128.252 216.051 128.212C216.01 128.171 216.092 128.089 216.221 127.978C216.437 127.774 216.765 127.477 216.982 127.313C217.244 127.071 217.575 126.914 217.929 126.864C218.24 126.864 218.515 127.08 218.339 127.599" fill="#8C704E"/>
<path d="M221.089 127.646C220.884 127.809 220.732 127.938 220.598 128.06C220.463 128.183 220.434 128.194 220.393 128.165C220.352 128.136 220.393 128.083 220.539 127.949C220.847 127.675 221.172 127.42 221.511 127.185C221.732 126.995 222.014 126.889 222.306 126.888C222.593 126.888 222.616 126.928 222.453 127.103C222.289 127.278 222.02 127.605 221.745 127.949C221.555 128.18 221.384 128.425 221.236 128.684C221.183 128.795 221.183 128.888 221.236 128.929C221.288 128.97 221.411 128.97 221.552 128.9C221.911 128.692 222.253 128.456 222.575 128.194C223.231 127.687 223.617 127.348 224.056 127.028C224.108 126.977 224.169 126.938 224.236 126.912C224.304 126.886 224.376 126.874 224.448 126.876C224.682 126.876 224.816 126.905 224.653 127.092C224.407 127.395 224.202 127.611 223.927 127.967C223.744 128.187 223.576 128.419 223.424 128.661C223.342 128.795 223.33 128.917 223.383 128.958C223.436 128.999 223.558 128.987 223.699 128.917C223.907 128.801 224.103 128.664 224.284 128.509C224.559 128.293 224.787 128.089 224.939 127.955C225.092 127.821 225.103 127.815 225.132 127.856C225.162 127.897 225.062 127.99 225.021 128.031C224.758 128.283 224.48 128.521 224.19 128.742C223.864 129.037 223.456 129.228 223.02 129.291C222.745 129.291 222.593 129.162 222.593 128.958C222.61 128.756 222.688 128.563 222.815 128.404C223.008 128.15 223.221 127.912 223.453 127.693L222.359 128.55C221.953 128.934 221.445 129.194 220.896 129.302C220.609 129.302 220.434 129.162 220.446 128.917C220.475 128.703 220.565 128.501 220.703 128.334C220.992 127.941 221.318 127.576 221.674 127.243C221.469 127.364 221.273 127.5 221.089 127.652" fill="#8C704E"/>
<path d="M228.403 127.249C228.403 127.424 228.075 127.71 227.771 128.066C227.598 128.265 227.443 128.48 227.309 128.707C227.239 128.83 227.239 128.923 227.309 128.964C227.379 129.005 227.455 128.993 227.607 128.912C227.824 128.793 228.029 128.657 228.222 128.503C228.445 128.337 228.66 128.16 228.865 127.973C228.959 127.873 229.041 127.833 229.07 127.862C229.099 127.891 229.018 127.984 228.906 128.095C228.795 128.206 228.467 128.492 228.128 128.748C227.786 129.047 227.362 129.238 226.911 129.297C226.624 129.297 226.472 129.145 226.484 128.941C226.596 128.556 226.827 128.217 227.145 127.973C227.473 127.658 227.994 127.29 228.029 127.197C228.064 127.103 227.83 127.086 227.484 127.086C227.378 127.094 227.271 127.084 227.169 127.057C227.063 127.179 226.87 127.372 226.654 127.576L226.104 128.083C225.981 128.188 225.928 128.217 225.899 128.188C225.87 128.159 225.899 128.095 226.051 127.973L226.583 127.483C226.776 127.302 226.952 127.127 227.063 127.004C227.032 126.977 227.007 126.943 226.99 126.906C226.973 126.868 226.964 126.827 226.964 126.786C226.964 126.744 226.973 126.703 226.99 126.666C227.007 126.628 227.032 126.594 227.063 126.567C227.126 126.492 227.205 126.433 227.294 126.393C227.383 126.352 227.48 126.332 227.578 126.334C227.689 126.334 227.812 126.392 227.83 126.474C227.746 126.528 227.667 126.59 227.596 126.66C227.414 126.853 227.455 126.952 227.637 126.964C228.017 126.964 228.415 126.964 228.415 127.238L228.403 127.249Z" fill="#8C704E"/>
<path d="M232.873 127.646C232.598 127.879 232.124 128.229 231.767 128.521C231.361 128.904 230.854 129.165 230.305 129.273C230.018 129.273 229.854 129.122 229.866 128.877C229.897 128.675 229.982 128.486 230.112 128.328C230.407 127.941 230.732 127.576 231.083 127.238C230.878 127.365 230.682 127.507 230.498 127.663C230.293 127.827 230.158 127.938 230.018 128.06C229.878 128.183 229.854 128.194 229.813 128.165C229.772 128.136 229.813 128.083 229.965 127.949C230.273 127.675 230.598 127.42 230.937 127.185C231.158 126.995 231.44 126.889 231.732 126.888C232.019 126.888 232.042 126.928 231.879 127.103C231.715 127.278 231.44 127.605 231.171 127.949C230.977 128.177 230.806 128.423 230.662 128.684C230.609 128.795 230.609 128.888 230.662 128.929C230.714 128.97 230.837 128.958 230.978 128.888C231.336 128.684 231.679 128.452 232.002 128.194C232.657 127.687 233.037 127.348 233.476 127.028C233.585 126.929 233.727 126.875 233.874 126.876C234.108 126.876 234.213 126.905 234.067 127.08C233.845 127.366 233.535 127.774 233.26 128.142C232.985 128.509 232.481 129.151 231.452 130.556C230.252 132.189 229.228 133.718 229.035 134.056C228.924 134.231 228.924 134.301 228.965 134.33C229.006 134.359 229.076 134.33 229.17 134.219C229.263 134.108 229.784 133.391 230.17 132.843C230.48 132.405 231.001 131.676 231.715 130.743C232.262 130.048 232.848 129.384 233.47 128.754C233.675 128.55 234.126 128.13 234.301 127.967C234.348 127.92 234.453 127.827 234.494 127.868C234.535 127.908 234.453 127.978 234.348 128.089C234.243 128.2 233.88 128.521 233.552 128.847C233.031 129.384 232.382 130.131 231.826 130.825C231.188 131.67 230.626 132.446 230.199 133.059C229.857 133.593 229.465 134.095 229.029 134.558C228.925 134.667 228.782 134.732 228.631 134.738C228.595 134.739 228.559 134.731 228.525 134.716C228.492 134.702 228.462 134.68 228.438 134.653C228.414 134.626 228.395 134.594 228.384 134.56C228.373 134.525 228.37 134.489 228.374 134.453C228.48 134.031 228.669 133.634 228.93 133.286C229.427 132.51 229.807 131.95 230.779 130.615C231.434 129.716 232.089 128.801 232.908 127.698L232.873 127.646Z" fill="#8C704E"/>
<path d="M127.955 15.503C126.972 15.4505 125.983 15.4155 124.988 15.4155C123.994 15.4155 123.104 15.4155 122.168 15.4971C122.172 15.4149 122.182 15.3331 122.197 15.2521L125.088 -0.00585938L127.955 15.503Z" fill="#8C704E"/>
<path d="M73.2753 70.055C73.2226 69.0752 73.1933 68.0895 73.1933 67.0979C73.1933 66.1064 73.1934 65.214 73.2694 64.2866C73.1876 64.2814 73.1055 64.2814 73.0237 64.2866L57.7402 67.1737L73.2753 70.055Z" fill="#8C704E"/>
<path d="M176.789 70.0551C176.848 69.0752 176.877 68.0895 176.877 67.098C176.877 66.1531 176.848 65.2141 176.801 64.2867C176.881 64.2812 176.961 64.2812 177.041 64.2867L192.348 67.1738L176.789 70.0551Z" fill="#8C704E"/>
<path fill-rule="evenodd" clip-rule="evenodd" d="M125.029 18.4543C136.085 18.4423 146.816 22.1819 155.456 29.0579L168.914 23.3944L163.144 36.6752C168.066 42.7875 171.439 49.9916 172.977 57.6779C174.514 65.3643 174.173 73.3069 171.98 80.8337C170.804 81.4131 169.665 82.0637 168.568 82.7817C167.878 83.2308 167.205 83.6974 166.532 84.1699C169.254 77.5514 170.343 70.3788 169.709 63.2539C169.075 56.1289 166.736 49.2595 162.889 43.2217C159.041 37.184 153.797 32.154 147.597 28.5539C141.396 24.9538 134.42 22.8885 127.253 22.5312L125.029 19.6558L122.812 22.5312C111.295 23.039 100.423 27.9711 92.474 36.2936C84.5252 44.6161 80.117 55.6828 80.1736 67.1738C80.1736 91.4956 100.255 111.892 125.035 111.892C127.843 111.853 130.634 111.461 133.344 110.726C139.611 109.122 144.83 105.476 149.774 101.469C156.538 95.975 162.647 89.6875 169.978 84.8814C180.715 77.8824 191.458 79.9879 202.336 84.9456C201.089 85.1556 199.837 85.3364 198.603 85.5814C191.137 87.0512 184.49 90.3991 178.071 94.3302C168.867 99.9645 160.277 106.631 150.277 110.912C116.849 125.231 76.1363 106.614 76.1363 67.1679C76.118 56.0651 79.9202 45.2918 86.9084 36.6461L81.145 23.3944L94.6028 29.0579C103.243 22.1832 113.974 18.4437 125.029 18.4543Z" fill="#8C704E"/>
<path d="M133.133 105.616C132.326 105.783 131.512 105.929 130.693 106.054C130.208 89.2675 129.494 95.5142 125.825 84.5607C125.55 83.7208 125.269 82.8109 125.035 81.9302V80.2504C125.736 80.2433 126.434 80.1789 127.124 80.0579C127.389 81.3186 127.733 82.5614 128.154 83.7791C133.051 98.413 132.25 86.6371 133.133 105.616ZM138.189 104.181C137.375 104.473 136.55 104.765 135.714 104.981C136.123 89.9966 135.913 96.01 129.277 84.0649C128.568 82.8459 127.967 81.5676 127.481 80.2446L127.399 79.9996C128.226 79.8766 129.007 79.5454 129.669 79.0372L129.81 79.4805C130.252 80.6578 130.794 81.7954 131.431 82.8809C139.704 97.7889 138.686 86.1296 138.189 104.181ZM125.661 106.468L126.75 90.7782L128.856 106.281C127.803 106.386 126.738 106.45 125.661 106.468ZM145.907 38.7283C143.601 41.4638 142.396 44.415 142.56 47.6171H135.889C135.989 45.2258 137.645 43.9659 140.892 43.8318L141.126 39.714L145.907 38.7283ZM125.029 76.4242C128.827 76.4825 132.595 78.0748 134.637 81.1894C135.817 83.1439 137.139 85.0095 138.592 86.7712C143.016 91.7172 140.974 97.6431 140.155 103.47C141.627 102.85 143.062 102.143 144.45 101.353C145.62 96.4299 145.62 91.1048 142.226 87.0162C141.28 85.783 140.43 84.4784 139.687 83.1142C139.154 82.1985 138.089 80.682 138.423 79.9121C138.423 79.9121 143.595 79.0081 142.091 74.4178C140.336 77.6432 138.581 76.4184 138.903 73.7762C139.166 71.4432 139.663 69.151 141.582 66.9754C141.891 67.9802 142.147 69.0003 142.349 70.0317C142.998 75.0886 143.864 80.0346 146.749 84.4498C148.282 86.812 148.329 89.5883 147.726 92.2888C147.124 94.9893 146.328 97.7948 145.573 100.682C150.716 97.5206 153.765 87.3486 149.827 82.8867C144.561 76.9375 146.427 69.1977 143.513 62.741C144.96 63.8474 146.168 65.2332 147.064 66.8157C147.961 68.3981 148.529 70.1446 148.733 71.9506C149.014 74.1787 148.82 76.8617 151.073 78.1332C155.795 80.8336 155.391 84.7065 153.999 88.9059C153.174 91.4198 152.243 93.8928 151.325 96.3833C156.421 91.7989 158.481 88.031 158.393 80.9036C158.387 80.2688 158.202 79.6484 157.859 79.1139C157.515 78.5794 157.027 78.1525 156.45 77.8824C152.466 76.0393 150.857 72.738 150.014 68.6844C149.456 66.2397 148.275 63.9797 146.585 62.1227C145.362 60.7288 144.245 59.2648 143.075 57.8241C146.843 60.8337 150.944 63.4992 152.858 68.1303C154.069 71.0466 156.029 73.158 159.165 74.1087C161.278 74.7444 162.091 76.2842 161.717 78.4481C161.465 79.9587 161.231 81.4752 160.956 83.2133C162.301 80.2077 163.261 77.0447 163.811 73.7995C163.302 72.8955 162.208 72.2598 160.301 71.5832C158.767 71.0908 157.376 70.2358 156.246 69.0911C155.116 67.9465 154.281 66.5462 153.812 65.0099C153.403 63.6694 152.681 62.4445 151.706 61.4357C150.73 60.427 149.529 59.663 148.2 59.2065C147.191 58.8365 146.267 58.2685 145.482 57.5362C144.697 56.8038 144.067 55.922 143.63 54.9428C146.032 56.2416 148.587 57.235 151.237 57.9C153.367 58.4832 155.192 59.6031 155.778 61.7611C156.731 65.2607 159.043 66.8413 162.284 68.1245C162.917 68.4467 163.622 68.5995 164.332 68.5677C164.332 68.1128 164.332 67.652 164.332 67.1971C164.332 57.9666 161.076 49.0299 155.135 41.9502C149.193 34.8704 140.943 30.0984 131.828 28.4688L125.029 19.6558V22.2629L130.945 29.9386L127.089 34.9371V39.2707L130.857 42.3037L133.601 37.8826L133.139 34.4355L138.75 32.1025L139.546 38.0984C135.801 40.7522 133.66 43.8784 133.426 47.5821C131.182 48.122 129.043 49.0265 127.095 50.2593V52.9598C127.596 52.9187 128.092 52.8288 128.575 52.6915C130.26 52.1724 131.94 51.6299 133.613 51.0875C135.954 50.3351 137.475 50.7142 137.463 53.5897C137.463 53.9396 139.219 57.5033 138.189 57.6258C135.263 57.6258 134.461 55.9169 133.244 56.0394C130.623 56.296 129.646 59.2881 127.504 58.9557L127.03 57.69V62.356L127.493 61.0845C128.326 60.5896 129.199 60.1643 130.102 59.813C130.11 60.2307 130.284 60.6282 130.586 60.918C130.887 61.2079 131.292 61.3664 131.711 61.3587C132.13 61.3509 132.529 61.1776 132.82 60.8768C133.111 60.576 133.27 60.1724 133.262 59.7547C133.263 59.5023 133.201 59.2537 133.081 59.0315C134.783 58.8157 135.848 58.7982 137.346 59.4573C137.656 60.268 136.621 60.8629 134.461 60.9796C136.597 61.1137 138.107 63.75 138.089 65.5231C138.089 67.1388 135.275 68.5619 134.028 69.9267C136.205 70.6091 136.205 70.6091 135.749 75.3452C132.735 75.3452 130.629 71.729 127.627 71.7348L127.58 69.9151L125.029 72.5455V76.4242ZM116.931 105.616C117.733 105.785 118.546 105.931 119.365 106.054C119.857 89.2675 120.565 95.5142 124.234 84.5607C124.514 83.7208 124.819 82.8109 125.029 81.9302V80.2504C124.329 80.2438 123.63 80.1794 122.94 80.0579C122.676 81.3186 122.332 82.5614 121.911 83.7791C117.019 98.413 117.844 86.6371 116.937 105.616H116.931ZM111.876 104.181C112.689 104.473 113.514 104.765 114.351 104.981C113.941 89.9966 114.146 96.01 120.787 84.0649C121.498 82.846 122.101 81.5678 122.589 80.2446L122.665 79.9996C121.84 79.8782 121.06 79.5468 120.401 79.0372L120.255 79.4805C119.814 80.6576 119.274 81.7952 118.64 82.8809C110.36 97.7889 111.384 86.1296 111.882 104.181H111.876ZM124.403 106.468L123.315 90.7782L121.208 106.281C122.268 106.386 123.332 106.45 124.409 106.468H124.403ZM104.158 38.7283C106.469 41.4638 107.669 44.415 107.505 47.6171H114.175C114.082 45.2258 112.42 43.9659 109.172 43.8318L108.944 39.714L104.158 38.7283ZM125.029 76.4242C121.232 76.4825 117.458 78.0748 115.416 81.1894C114.236 83.1439 112.914 85.0095 111.46 86.7712C107.043 91.7172 109.079 97.6431 109.898 103.47C108.428 102.849 106.996 102.142 105.609 101.353C104.439 96.4299 104.439 91.1048 107.827 87.0162C108.775 85.7844 109.624 84.4797 110.366 83.1142C110.904 82.1985 111.969 80.682 111.63 79.9121C111.63 79.9121 106.457 79.0081 107.961 74.4178C109.717 77.6432 111.472 76.4184 111.156 73.7762C110.887 71.4432 110.389 69.151 108.476 66.9754C108.164 67.9794 107.909 68.9997 107.71 70.0317C107.06 75.0886 106.188 80.0346 103.309 84.4498C101.771 86.812 101.73 89.5883 102.332 92.2888C102.935 94.9893 103.725 97.7948 104.48 100.682C99.3424 97.5206 96.288 87.3486 100.232 82.8867C105.498 76.9375 103.625 69.1977 106.539 62.741C105.094 63.8484 103.888 65.2346 102.992 66.8169C102.097 68.3992 101.53 70.1452 101.326 71.9506C101.045 74.1787 101.238 76.8617 99.0147 78.1332C94.2869 80.8336 94.6906 84.7065 96.0891 88.9059C96.9141 91.4198 97.8444 93.8928 98.7631 96.3833C93.6666 91.7989 91.607 88.031 91.6889 80.9036C91.6971 80.2686 91.8841 79.6487 92.2286 79.1145C92.5731 78.5803 93.0613 78.1534 93.6374 77.8824C97.6221 76.0393 99.2253 72.738 100.074 68.6844C100.63 66.2389 101.811 63.9784 103.503 62.1227C104.725 60.7288 105.843 59.2648 107.013 57.8241C103.239 60.8337 99.1376 63.4992 97.2301 68.1303C96.0188 71.0466 94.0587 73.158 90.9224 74.1087C88.8101 74.7444 87.9968 76.2842 88.3713 78.4481C88.6229 79.9587 88.8569 81.4752 89.1319 83.2133C87.7839 80.2086 86.8244 77.0454 86.2765 73.7995C86.7856 72.8955 87.8798 72.2598 89.758 71.5832C91.2915 71.0908 92.6826 70.2358 93.8126 69.0911C94.9426 67.9465 95.7779 66.5462 96.247 65.0099C96.6556 63.6702 97.3766 62.446 98.3508 61.4373C99.3251 60.4287 100.525 59.6642 101.853 59.2065C102.862 58.8365 103.787 58.2687 104.573 57.5364C105.359 56.8041 105.99 55.9222 106.428 54.9428C104.027 56.2421 101.471 57.2356 98.8216 57.9C96.6976 58.4832 94.872 59.6031 94.281 61.7611C93.3273 65.2607 91.0219 66.8413 87.7803 68.1245C87.1472 68.4452 86.4419 68.5979 85.7324 68.5677C85.7324 68.1128 85.7031 67.652 85.7031 67.1971C85.7046 57.966 88.9615 49.0293 94.9042 41.9497C100.847 34.8701 109.097 30.0983 118.213 28.4688L125.029 19.6558V22.2629L119.108 29.9386L122.964 34.9371V39.2707L119.201 42.3037L116.457 37.8826L116.914 34.4355L111.308 32.1025L110.512 38.0984C114.257 40.7522 116.393 43.8784 116.627 47.5821C118.875 48.1196 121.018 49.0242 122.97 50.2593V52.9598C122.469 52.9176 121.973 52.8278 121.489 52.6915C119.804 52.1724 118.131 51.6299 116.457 51.0875C114.117 50.3351 112.59 50.7142 112.601 53.5897C112.601 53.9396 110.846 57.5033 111.882 57.6258C114.807 57.6258 115.603 55.9169 116.826 56.0394C119.441 56.296 120.424 59.2881 122.566 58.9557L123.04 57.69V62.356L122.578 61.0845C121.744 60.5906 120.871 60.1653 119.968 59.813C119.959 60.0485 119.896 60.2788 119.786 60.4871C119.675 60.6954 119.519 60.8762 119.329 61.0164C119.139 61.1566 118.92 61.2524 118.688 61.2969C118.456 61.3415 118.217 61.3335 117.988 61.2736C117.759 61.2137 117.547 61.1035 117.367 60.951C117.187 60.7985 117.043 60.6076 116.947 60.3924C116.85 60.1773 116.804 59.9433 116.81 59.7078C116.817 59.4722 116.876 59.2411 116.984 59.0315C115.287 58.8157 114.216 58.7982 112.724 59.4573C112.414 60.268 113.45 60.8629 115.609 60.9796C113.473 61.1137 111.963 63.75 111.975 65.5231C111.975 67.1388 114.795 68.5619 116.042 69.9267C113.865 70.6091 113.865 70.6091 114.316 75.3452C117.335 75.3452 119.441 71.729 122.437 71.7348L122.484 69.9151L125.035 72.5864L125.029 76.4242Z" fill="#8C704E"/>
<path d="M52.2925 105.785C62.1635 100.314 72.134 98.2613 82.836 102.432C87.47 104.282 91.9076 106.587 96.0831 109.314C113.502 120.466 131.846 120.612 150.751 113.898C153.677 112.872 156.456 111.565 159.434 110.586C155.924 114.878 151.29 117.701 146.421 120.069C127.645 129.197 109.067 128.136 90.7936 118.541C85.9195 115.987 81.2795 112.989 76.3586 110.539C69.545 107.11 61.9124 105.626 54.3053 106.252C53.8923 106.281 53.4778 106.281 53.0648 106.252C52.9069 106.252 52.7606 106.077 52.2925 105.791" fill="#8C704E"/>
<path d="M129.903 12.155C140.954 13.1199 151.456 17.3891 160.031 24.4034L156.363 25.9491C148.845 20.2502 139.904 16.7158 130.512 15.7304L130.459 15.1763L129.903 12.155ZM120.161 12.155C109.112 13.1211 98.6132 17.3902 90.0389 24.4034L93.7076 25.9491C101.224 20.2494 110.166 16.7149 119.558 15.7304L119.611 15.1763L120.161 12.155ZM73.474 61.7319C74.4462 52.3222 78.0058 43.3628 83.7605 35.8411L82.1865 32.2133C75.1357 40.7805 70.852 51.2747 69.8989 62.3152L72.5846 61.8077H72.6256C72.7959 61.7787 72.9679 61.7612 73.1405 61.7553L73.474 61.7319ZM73.474 72.6155C74.446 82.027 78.0056 90.9884 83.7605 98.5121L85.1063 100.262C84.7026 100.093 84.2988 99.9295 83.8892 99.772C82.3978 99.1895 80.8692 98.7063 79.3136 98.3255C73.9656 90.5295 70.7287 81.4885 69.9165 72.0789L72.5964 72.5863H72.6373C72.807 72.5863 72.9825 72.6272 73.1522 72.6388L73.474 72.6155ZM176.602 61.7319C175.627 52.3229 172.068 43.3641 166.316 35.8411L167.89 32.2133C174.938 40.7816 179.222 51.2752 180.177 62.3152L177.497 61.8077H177.456C177.284 61.7787 177.11 61.7612 176.936 61.7553L176.602 61.7319ZM176.602 72.6155C176.359 74.9918 175.948 77.3481 175.373 79.6671C176.618 79.2292 177.893 78.8822 179.188 78.6289C179.649 76.4539 179.975 74.2529 180.165 72.0381L177.48 72.5455H177.439C177.269 72.5455 177.099 72.5863 176.924 72.598L176.602 72.6155Z" fill="#8C704E"/>
</g>
<defs>
<clipPath id="clip0_1099_22430">
<rect width="250" height="173" fill="white"/>
</clipPath>
</defs>
</svg>
