<svg width="236" height="135" viewBox="0 0 236 135" fill="none" xmlns="http://www.w3.org/2000/svg">
<path d="M98.5048 61.4804C96.3546 61.6305 94.363 61.051 92.3414 60.4133C90.1828 59.7326 88.6675 57.8816 86.4405 57.3715C86.1367 57.3012 85.8732 56.9674 85.9173 56.6063C85.9632 56.2172 86.3674 56.3391 86.6196 56.2472C86.9281 56.1338 87.2525 56.0531 87.5498 55.9162C88.4706 55.4924 88.5428 55.0835 87.7355 54.5397C87.2619 54.219 86.8981 53.9124 86.8606 53.2991C86.8231 52.6934 86.3505 52.609 85.8732 52.6081C82.6166 52.6034 79.3601 52.6043 76.1025 52.6099C75.5709 52.6109 75.102 52.7356 75.0383 53.3863C74.9867 53.9152 75.0823 54.3615 75.6553 54.5941C75.9713 54.7225 76.5076 54.6991 76.4664 55.1858C76.4317 55.6002 75.9281 55.633 75.6112 55.8056C75.4705 55.8825 75.3149 55.9518 75.3655 56.1572C75.6543 56.3082 76.1382 56.4066 76.1916 56.6148C76.5451 57.9969 77.766 58.2229 78.7974 58.7218C79.0103 58.8249 79.2344 59.0049 79.3413 59.2084C79.888 60.2492 80.8707 60.6018 81.9021 60.7031C83.4296 60.855 84.3523 62.194 85.9435 62.3187C85.0518 63.2873 84.2585 63.1926 83.4324 62.7191C83.0048 62.4734 82.5979 62.1687 82.0568 62.2756C79.5016 62.781 76.8686 62.6525 74.3294 63.1036C72.0686 63.5068 70.2523 62.4115 67.9147 62.1068C68.5195 61.7645 68.8242 61.593 69.2509 61.351C67.4365 60.9459 65.7542 61.0097 64.0777 60.9384C62.0588 60.8531 60.0212 60.6665 58.294 59.4822C57.6451 59.0368 57.015 58.8249 56.2555 58.7471C55.029 58.6233 53.8166 58.3608 52.5901 58.2276C51.6918 58.1291 51.6149 57.4071 51.4949 56.8192C51.3458 56.0859 52.1016 56.3766 52.4401 56.1966C52.8733 55.9659 53.3637 55.8393 53.7903 55.5983C54.1429 55.3995 54.2254 54.9682 53.8288 54.8238C52.9155 54.4919 52.4429 53.933 52.3369 52.9569C52.2994 52.6118 51.8146 52.6099 51.4864 52.609C48.2711 52.6034 45.0558 52.5874 41.8395 52.6174C40.9337 52.6259 40.479 53.5232 40.9403 54.264C41.1841 54.6541 41.622 54.7028 42.013 54.8097C42.9601 55.0667 43.4495 55.8253 43.698 56.6335C43.9643 57.499 42.9666 57.5722 42.5278 57.9988C42.48 58.0448 42.479 58.1395 42.435 58.2773C44.6995 58.9459 46.798 60.2324 49.2763 60.0345C50.7729 59.9154 52.0087 60.8109 52.8855 61.6042C54.1195 62.7191 55.3525 63.3717 56.9288 63.563C60.206 63.9587 63.4344 64.5823 66.6235 65.4515C68.5729 65.9832 70.6002 66.1276 72.6209 66.2064C77.4922 66.3967 82.1975 65.2724 86.9328 64.3844C87.125 64.3488 87.4663 64.165 87.4607 64.1491C87.0022 62.8569 88.089 63.5677 88.3562 63.5527C89.0913 63.5143 89.8237 63.7149 90.4951 64.0637C92.1201 64.9067 93.8492 65.459 95.6467 65.7506C100.323 66.5083 105.001 67.2631 109.689 67.9439C113.143 68.4456 116.585 69.055 120.121 68.6321C127.25 67.7789 134.275 66.3695 141.288 64.8795C141.93 64.7426 142.712 64.6826 143.151 64.2822C144.609 62.9517 146.23 63.5311 147.828 63.6605C147.941 63.6699 148.068 63.7431 148.016 63.8837C147.801 64.2185 147.263 63.9915 147.127 64.4529C155.753 66.8346 164.311 66.4436 172.883 64.1472C172.629 63.5621 171.932 63.834 171.559 63.2414C176.815 63.3858 181.67 62.0046 186.574 60.9338C187.373 60.7593 188.011 60.3908 188.686 59.831C189.506 59.1484 189.714 57.8075 190.854 57.6247C192.781 57.3152 193.491 55.378 195.089 54.6653C195.252 54.5922 195.297 54.31 195.172 54.2415C194.329 53.7783 193.893 52.6399 192.819 52.624C189.562 52.5762 186.305 52.6043 183.048 52.6099C182.72 52.6109 182.342 52.6165 182.206 52.9897C182.042 53.4379 182.367 53.6836 182.711 53.8542C183.673 54.3296 183.376 54.6363 182.628 55.0348C181.962 55.3902 181.837 55.9171 182.645 56.2688C183.488 56.6354 183.078 56.912 182.606 57.1155C181.921 57.4099 181.178 57.4812 180.432 57.5309C179.283 57.6069 178.113 57.6406 177.025 58.0476C176.54 58.2295 175.724 58.5155 176.224 59.2384C176.936 60.2671 176.199 60.388 175.551 60.5043C172.19 61.1072 168.819 61.6633 165.452 62.2418C163.817 62.5213 162.107 62.1762 160.53 62.5681C156.789 63.4965 153.161 62.269 149.465 62.3206C150.12 61.984 150.774 61.7308 151.451 61.5751C152.847 61.2544 154.273 61.2263 155.133 59.6519C156.231 57.6434 158.628 56.9158 160.054 55.1754C160.254 54.9316 160.631 54.8201 160.604 54.4215C160.588 54.1937 158.622 52.6071 158.349 52.6071C155.133 52.6024 151.917 52.6006 148.702 52.6099C148.337 52.6109 147.928 52.6127 147.782 53.0638C147.669 53.4163 147.791 53.7295 148.074 53.9452C148.638 54.3737 148.676 54.7178 148.074 55.1914C147.572 55.5861 147.594 56.0409 148.295 56.2725C148.581 56.3682 149.055 56.2725 148.984 56.7714C148.929 57.1596 148.521 57.198 148.206 57.2683C146.928 57.5534 145.862 58.2539 144.791 58.959C143.003 60.1358 141.317 61.3473 139.005 61.6305C137.346 61.833 135.751 62.675 133.984 62.7491C132.508 62.8101 131.039 63.0717 129.569 63.2705C129.31 63.3052 128.766 63.4242 128.872 63.5837C129.31 64.2438 128.76 64.1247 128.47 64.1772C127.215 64.4051 125.95 64.586 124.698 64.8317C119.846 65.7825 114.982 66.1135 110.089 65.1515C107.221 64.587 104.452 63.5687 101.52 63.2855C101.031 63.2386 100.466 63.3736 99.9432 62.9329C100.321 62.6319 100.63 62.3853 101.053 62.0477C100.143 61.517 99.3215 61.4232 98.5048 61.4804Z" fill="#2A8CD4"/>
<path d="M147.613 49.4833C147.612 48.164 147.595 46.8447 147.618 45.5254C147.633 44.6299 147.283 43.5619 148.62 43.2084C148.747 43.1746 148.877 42.867 148.877 42.6879C148.873 41.2223 149.14 39.7558 148.364 38.3418C141.526 25.8668 131.716 16.5594 118.853 10.4635C117.757 9.944 116.851 9.94306 115.726 10.4719C102.803 16.5641 92.9829 25.9137 86.1096 38.4121C85.3332 39.8252 85.6146 41.2936 85.623 42.7601C85.6239 42.9055 85.7271 43.1521 85.8302 43.1812C87.2752 43.5872 86.857 44.7668 86.8673 45.7223C86.8964 48.5663 86.8401 51.4122 86.8964 54.2552C86.9179 55.3476 86.6113 55.8174 85.4401 55.794C82.3908 55.7349 79.3396 55.749 76.2893 55.7893C75.2794 55.8024 74.8968 55.4405 74.9099 54.4203C74.9503 51.2049 74.9259 47.9887 74.924 44.7743C74.924 44.1789 74.9353 43.605 75.6507 43.3734C76.0173 43.2543 76.1139 42.9355 76.1242 42.5839C76.1289 42.4188 76.1552 42.251 76.1327 42.0897C75.5879 38.3652 76.9879 35.2174 78.8201 32.0818C86.2606 19.3518 96.4664 9.5783 109.631 2.9273C111.503 1.98118 113.498 1.28167 115.405 0.40118C116.702 -0.197998 117.891 -0.0732841 119.199 0.428379C126.631 3.27613 133.317 7.36537 139.379 12.4842C146.677 18.6495 152.456 26.0337 156.993 34.4391C158.124 36.5339 158.507 38.64 158.395 40.9485C158.347 41.9444 157.986 43.1174 159.317 43.7307C159.594 43.8582 159.53 44.3298 159.531 44.658C159.535 47.9146 159.515 51.1712 159.545 54.4268C159.555 55.4508 159.117 55.7987 158.128 55.7865C155.077 55.7518 152.027 55.7508 148.977 55.7874C147.983 55.7996 147.558 55.4705 147.597 54.4296C147.659 52.7831 147.613 51.1318 147.613 49.4833ZM40.5532 54.2627C40.5157 55.3645 40.9142 55.8127 42.0582 55.793C45.0653 55.7386 48.0753 55.7424 51.0824 55.7921C52.1589 55.809 52.5283 55.4264 52.5087 54.3509C52.4552 51.3428 52.4927 48.3337 52.489 45.3257C52.488 44.4883 52.7103 43.5591 51.5269 43.229C51.2287 43.1465 51.2859 42.7442 51.2568 42.4601C51.1715 41.6452 51.4256 40.9279 51.8185 40.2256C57.0499 30.8675 64.5101 23.8967 74.1842 19.2805C74.9606 18.9111 75.6507 18.8886 76.4168 19.2768C78.145 20.1516 79.9022 20.9777 81.5019 22.0767C82.2258 22.5746 82.6974 22.5446 83.2431 21.8151C84.6497 19.9332 86.1603 18.129 87.8537 16.4975C88.5983 15.7811 88.5167 15.3573 87.6718 14.8087C84.4115 12.6914 80.9758 10.9389 77.3845 9.44797C75.8429 8.80846 74.5133 8.91349 73.0149 9.5211C61.9193 14.0192 52.9813 21.1943 46.3668 31.1554C44.0789 34.5995 41.2733 37.9648 41.9578 42.6101C42.0085 42.958 41.8481 43.289 41.4599 43.3593C40.5626 43.5215 40.5644 44.1854 40.5654 44.8662C40.5682 46.4321 40.5663 47.999 40.5663 49.564C40.5663 51.1309 40.6066 52.6977 40.5532 54.2627ZM181.993 54.5769C181.976 55.4076 182.285 55.7827 183.138 55.7771C186.353 55.7583 189.566 55.7621 192.781 55.7733C193.556 55.7752 193.916 55.4255 193.915 54.6575C193.912 51.279 193.919 47.9005 193.911 44.5211C193.911 44.1095 193.901 43.6003 193.403 43.5056C192.405 43.3162 192.513 42.5951 192.512 41.8937C192.509 40.2556 192.548 38.6728 191.707 37.1068C188.062 30.3189 183.514 24.2671 177.615 19.2786C172.666 15.0947 167.208 11.7612 161.158 9.40014C159.861 8.89379 158.714 8.82722 157.372 9.35514C153.749 10.7795 150.32 12.5489 147.062 14.6624C145.812 15.4726 145.79 15.5682 146.85 16.6691C148.424 18.3025 149.924 20.0025 151.289 21.8095C151.848 22.5484 152.303 22.5615 153.025 22.088C154.611 21.0499 156.289 20.1676 157.991 19.3274C158.796 18.9289 159.512 18.8876 160.337 19.273C165.967 21.9032 170.899 25.4917 175.189 29.9758C178.082 32.9998 180.502 36.3717 182.546 40.0184C183.118 41.0386 183.52 42.3054 182.747 43.1362C182.073 43.8619 182.003 44.5024 182.001 45.306C181.996 46.7069 182 48.1087 182.001 49.5087C182.002 51.1984 182.025 52.8881 181.993 54.5769Z" fill="#002047"/>
<path d="M101.462 89.3264C101.668 89.5786 101.879 89.829 102.081 90.084C105.432 94.3177 108.804 98.5354 112.116 102.8C112.816 103.701 113.179 103.601 113.831 102.767C117.107 98.5785 120.432 94.4293 123.751 90.2753C124.038 89.9162 124.267 89.468 124.856 89.2026C124.856 94.3252 124.826 99.309 124.866 104.291C124.894 107.895 124.201 107.457 128.21 107.483C128.292 107.484 128.375 107.475 128.457 107.476C129.192 107.489 129.458 107.119 129.457 106.4C129.444 99.0211 129.444 91.6425 129.457 84.2638C129.458 83.5334 129.163 83.1968 128.44 83.2005C127.575 83.2061 126.701 83.2718 125.846 83.1752C124.54 83.0289 123.727 83.5896 122.948 84.5977C119.971 88.4431 116.895 92.2117 113.901 96.044C113.235 96.8954 112.863 97.0745 112.105 96.0852C109.524 92.7161 106.674 89.5393 104.266 86.0539C102.658 83.7265 100.816 82.8217 98.0856 83.1602C96.5084 83.3562 96.4418 83.2465 96.4409 84.8827C96.4371 91.3555 96.4212 97.8265 96.4465 104.298C96.4615 107.94 95.9289 107.407 99.6834 107.506C100.916 107.539 101.219 107.035 101.207 105.899C101.162 101.489 101.188 97.0773 101.188 92.6674V89.3658C101.28 89.3527 101.371 89.3395 101.462 89.3264ZM179.775 94.2689C176.781 94.3018 177.125 93.8263 177.033 96.9535C176.996 98.1838 177.373 98.6404 178.64 98.6039C181.317 98.527 183.998 98.5907 186.678 98.5767C187.467 98.572 187.659 98.827 187.229 99.52C186.725 100.334 186.131 101.062 185.381 101.662C181.497 104.765 173.816 104.488 170.16 101.108C166.605 97.8228 166.801 92.3007 170.582 89.2664C174.669 85.9854 181.599 85.8551 185.775 89.3076C187.318 90.5838 188.37 90.5763 189.939 89.6612C191.965 88.4806 191.982 88.5303 190.218 86.8725C184.657 81.6458 176.08 81.3833 170.204 84.2423C165.68 86.4421 162.863 89.9837 162.805 95.1944C162.748 100.389 165.408 104.017 169.914 106.323C173.356 108.085 177.064 108.39 180.874 108.017C188.252 107.296 193.221 102.385 193.588 95.4326C193.633 94.5615 193.388 94.2417 192.513 94.2539C190.122 94.2886 187.731 94.2661 185.34 94.2652C183.485 94.2642 181.63 94.2474 179.775 94.2689ZM23.7834 106.002C26.2974 104.563 27.5548 102.356 27.4432 99.4656C27.3344 96.6075 25.6654 94.8719 23.1064 93.8798C22.4932 93.6426 21.8631 93.4372 21.2264 93.2769C18.5333 92.6017 15.77 92.5108 13.0197 92.2989C11.0534 92.1479 9.05991 92.1395 7.17235 91.4521C6.35844 91.1558 5.72362 90.6739 5.68142 89.6893C5.63923 88.7047 6.23279 88.1702 7.01575 87.8036C7.53336 87.5626 8.08565 87.3469 8.64545 87.2485C12.8397 86.5087 16.9271 86.9044 20.8991 88.4694C23.5256 89.5046 23.5003 89.4661 25.4122 87.3732C26.1417 86.5752 25.9382 86.1833 25.1121 85.691C23.143 84.517 21.0435 83.6872 18.8043 83.2483C14.2931 82.3641 9.80162 82.2319 5.41138 83.8906C4.123 84.3773 2.99121 85.1368 2.10416 86.2067C-0.6245 89.4989 0.66575 94.1489 4.70248 95.4992C7.94687 96.5841 11.3488 96.5953 14.7095 96.8794C16.5539 97.036 18.418 97.0726 20.2127 97.5808C21.3389 97.8996 22.2616 98.5138 22.4069 99.8078C22.556 101.135 21.8255 101.991 20.7481 102.597C19.5038 103.298 18.1311 103.576 16.7255 103.695C11.9658 104.101 7.43959 103.339 3.27627 100.896C2.57207 100.483 2.09572 100.518 1.63719 101.224C1.21055 101.878 0.712637 102.488 0.230667 103.104C-0.121902 103.555 -0.0722083 103.942 0.392883 104.252C1.00894 104.662 1.62126 105.085 2.27201 105.436C6.00399 107.449 10.0585 107.992 14.1046 108.032C17.5488 108.003 20.8194 107.698 23.7834 106.002ZM29.9309 105.739C29.9346 107.406 30.0134 107.484 31.6731 107.485C38.0606 107.489 44.4481 107.487 50.8356 107.487C53.433 107.487 53.433 107.487 53.4058 104.835C53.388 103.241 53.3524 103.2 51.7096 103.199C46.4763 103.197 41.2422 103.179 36.009 103.214C35.0178 103.221 34.5649 102.946 34.6268 101.889C34.6943 100.74 34.6868 99.5809 34.6296 98.4294C34.579 97.4242 34.9484 97.0257 35.9799 97.0445C38.5341 97.0923 41.0893 97.0717 43.6445 97.0557C46.7004 97.037 46.4482 97.4261 46.4904 94.178C46.5045 93.1231 46.1425 92.7368 45.052 92.7593C42.0045 92.8211 38.9533 92.748 35.9049 92.7977C34.9194 92.8136 34.5649 92.4545 34.6324 91.5028C34.684 90.7648 34.6399 90.0193 34.6418 89.2776C34.6456 87.4867 34.6456 87.4829 36.3859 87.482C40.8362 87.4801 45.2864 87.4951 49.7376 87.4763C52.6566 87.4642 52.4081 87.888 52.4719 84.7627C52.4963 83.6046 52.139 83.1639 50.9294 83.1724C44.4603 83.2174 37.9903 83.1902 31.5203 83.1968C30.0462 83.1977 29.9365 83.3121 29.9328 84.8461C29.9225 88.3081 29.929 91.7691 29.929 95.231C29.929 98.7333 29.9243 102.236 29.9309 105.739ZM215.481 102.111C210.96 99.4103 210.235 93.3978 213.99 89.7362C217.717 86.1017 225.707 85.6404 230.173 89.137C231.867 90.4619 233.206 90.5257 234.901 89.6715C235.01 89.6161 235.126 89.5664 235.245 89.5355C236.228 89.2805 236.154 88.8013 235.576 88.1505C234.308 86.7196 232.89 85.4772 231.188 84.5864C227.158 82.4766 222.89 82.0256 218.461 82.8142C214.437 83.5306 211.024 85.3684 208.718 88.7891C204.454 95.1138 207.213 103.529 214.537 106.622C219.502 108.718 224.578 108.598 229.626 106.899C231.767 106.178 233.551 104.821 235.127 103.216C236.14 102.183 236.108 102.046 234.897 101.351C234.254 100.983 233.588 100.654 232.952 100.272C232.419 99.9532 231.983 99.9635 231.518 100.42C228.976 102.917 225.832 103.773 221.533 103.725C219.461 103.725 217.36 103.232 215.481 102.111ZM84.8736 107.697C86.6917 107.689 86.7377 107.625 85.9032 106.047C82.4544 99.5293 78.8311 93.0968 75.6318 86.4599C74.3359 83.7716 72.7428 82.8404 69.9428 83.1855C68.8504 83.3205 68.1734 83.569 67.6361 84.6005C63.9857 91.6172 60.2697 98.5992 56.5677 105.589C55.4481 107.702 55.4528 107.524 57.8111 107.746C60.0896 107.961 61.2458 107.094 62.2369 105.078C64.854 99.7572 67.7205 94.5587 70.4942 89.3151C70.6611 89.0001 70.7586 88.5012 71.1553 88.5022C71.566 88.5031 71.625 89.0226 71.7919 89.333C72.9603 91.5112 74.1099 93.6998 75.2651 95.8846C76.366 97.9672 76.366 97.9672 74.0621 97.9756C71.8182 97.9831 70.6245 98.7886 69.8097 100.845C69.2902 102.152 69.4083 102.343 70.7924 102.35C73.0588 102.359 75.3261 102.376 77.5915 102.341C78.3426 102.329 78.8236 102.556 79.1537 103.257C79.6619 104.336 80.3202 105.349 80.7853 106.445C81.2063 107.439 81.8589 107.827 82.896 107.703C83.2205 107.664 83.5543 107.697 83.8843 107.697C84.2135 107.697 84.5435 107.698 84.8736 107.697ZM149.785 102.353C150.485 102.353 151.204 102.452 151.883 102.334C153.837 101.994 154.833 102.862 155.629 104.613C157.062 107.771 157.173 107.721 160.684 107.697C162.359 107.685 162.427 107.599 161.675 106.178C158.209 99.6184 154.558 93.1484 151.346 86.4665C150.048 83.765 148.456 82.8451 145.658 83.1874C144.567 83.3196 143.885 83.5634 143.346 84.6005C139.774 91.4774 136.142 98.3235 132.507 105.167C130.995 108.014 131.062 107.561 134.038 107.741C135.932 107.855 136.88 107.162 137.719 105.491C140.453 100.039 143.374 94.6815 146.238 89.2955C146.399 88.9935 146.453 88.4815 146.9 88.5059C147.251 88.5266 147.312 88.9785 147.462 89.2598C148.645 91.4784 149.823 93.6998 150.993 95.9249C152.063 97.9615 152.058 97.9643 149.716 97.9756C147.382 97.9859 145.884 99.1674 145.331 101.362C145.15 102.078 145.341 102.362 146.074 102.352C147.311 102.335 148.548 102.347 149.785 102.347V102.353ZM202.426 86.0708C202.395 82.907 202.959 83.2099 199.522 83.1968C197.86 83.1902 197.837 83.2239 197.837 84.9624C197.835 91.4287 197.814 97.8959 197.845 104.362C197.862 107.865 197.264 107.423 201.008 107.503C202.181 107.53 202.469 107.054 202.453 105.965C202.399 102.423 202.433 98.8805 202.433 95.3379C202.433 92.2492 202.456 89.1595 202.426 86.0708Z" fill="#002047"/>
<path d="M89.522 131H86.8014L80.0986 118.876H82.7206L88.1617 128.95L93.6029 118.876H96.2249L89.522 131ZM98.2419 131V118.876H100.608V131H98.2419ZM104.749 131V118.876H107.115V128.851H116.479V131H104.749ZM118.476 131V118.876H120.842V128.851H130.206V131H118.476ZM139.223 120.887L136.325 126.249H142.101L139.223 120.887ZM144.684 131L143.284 128.398H135.142L133.742 131H131.14L137.744 118.876H140.682L147.286 131H144.684ZM160.203 121.872C159.388 121.452 158.56 121.143 157.719 120.946C156.878 120.735 155.99 120.63 155.057 120.63C152.363 120.63 151.016 121.11 151.016 122.069C151.016 122.398 151.147 122.648 151.41 122.819C151.673 122.976 152.048 123.095 152.534 123.173C153.02 123.252 153.612 123.311 154.308 123.351C155.005 123.39 155.793 123.456 156.674 123.548C157.62 123.64 158.448 123.771 159.158 123.942C159.868 124.1 160.452 124.323 160.912 124.613C161.386 124.889 161.734 125.237 161.957 125.657C162.194 126.078 162.312 126.591 162.312 127.195C162.312 128.496 161.734 129.502 160.577 130.211C159.434 130.921 157.745 131.276 155.511 131.276C152.396 131.276 149.905 130.566 148.039 129.147L149.32 127.471C150.148 128.049 151.075 128.49 152.1 128.792C153.125 129.081 154.249 129.226 155.471 129.226C156.878 129.226 157.942 129.055 158.665 128.713C159.401 128.358 159.769 127.892 159.769 127.313C159.769 126.656 159.309 126.203 158.389 125.953C157.719 125.769 156.924 125.671 156.004 125.657C155.097 125.644 154.065 125.585 152.908 125.48C151.41 125.335 150.306 125.02 149.596 124.534C148.887 124.034 148.532 123.298 148.532 122.326C148.532 121.169 149.09 120.256 150.208 119.585C151.325 118.902 152.928 118.56 155.018 118.56C157.752 118.56 159.966 119.152 161.662 120.335L160.203 121.872Z" fill="#2A8CD4"/>
</svg>
