<svg width="188" height="142" viewBox="0 0 188 142" fill="none" xmlns="http://www.w3.org/2000/svg">
<g clip-path="url(#clip0_1099_22512)">
<path d="M93.9338 0.0256907V0L93.8854 0.134898C93.3012 1.16912 92.5944 1.96566 93.2399 3.25684C92.5944 3.07055 91.9974 2.90674 91.7682 3.47203C91.5036 4.11441 92.5686 3.99557 92.588 4.57692C92.2943 4.81781 92.0587 4.4934 91.7908 4.47734C91.5858 4.45264 91.3778 4.47488 91.1828 4.54236C90.9877 4.60985 90.8107 4.7208 90.6653 4.86675C90.5199 5.01269 90.4099 5.18977 90.3438 5.38447C90.2776 5.57916 90.257 5.78632 90.2836 5.99014C90.2942 6.13759 90.3417 6.28007 90.4217 6.4046C90.5018 6.52914 90.6118 6.63178 90.7419 6.70317C91.0646 6.85734 91.1841 6.56827 91.3261 6.3595C91.4681 6.15073 91.6101 5.9805 91.8618 6.12503C92.0587 6.24066 92.0071 6.44622 91.9199 6.61002C91.8019 6.8175 91.7605 7.05952 91.8029 7.29417C91.8454 7.52881 91.969 7.74128 92.1523 7.89477C92.4944 8.25771 92.3201 8.59496 91.936 8.78446C91.552 8.97396 91.2389 8.80373 91.1324 8.35407C91.013 7.84017 90.7742 7.42584 90.1642 7.5479C89.6188 7.6571 89.5187 8.08106 89.5865 8.56927C89.6285 8.84549 89.6091 9.10565 89.2638 9.16668C89.0088 9.21164 88.8539 9.01893 88.7312 8.84549C88.3181 8.2256 88.3504 7.69243 89.0314 7.25561C89.2831 7.09181 89.9189 7.12072 89.5736 6.55221C89.3703 6.21497 89.4735 5.51799 88.8377 5.62398C88.4085 5.69786 87.7178 5.5469 87.6759 6.33702C87.6482 6.47186 87.6003 6.60179 87.5339 6.72244C87.0562 6.60682 87.1692 6.25993 87.1788 5.99977C87.1788 5.54047 87.0175 5.37988 86.5818 5.53726C86.3555 5.5961 86.1202 5.61244 85.8879 5.58544C85.4586 5.56296 85.0423 5.54368 84.9197 5.99335C84.7486 6.56827 85.6039 6.83486 86.0202 7.21065C87.3596 8.42795 87.8243 10.0178 88.0986 11.7073C88.373 13.3967 88.3988 13.4288 90.1868 13.4288C91.4326 13.4288 92.6784 13.4288 93.9241 13.4288C95.1699 13.4288 96.4189 13.4288 97.6647 13.4288C99.4527 13.4288 99.4721 13.4288 99.7496 11.7073C100.027 9.9857 100.489 8.42152 101.831 7.21065C102.244 6.83486 103.1 6.56827 102.932 5.99335C102.8 5.54368 102.383 5.56296 101.964 5.58544C101.732 5.61257 101.498 5.59622 101.273 5.53726C100.837 5.37988 100.657 5.53726 100.676 5.99977C100.676 6.25993 100.795 6.60682 100.321 6.72244C100.254 6.60179 100.206 6.47186 100.179 6.33702C100.134 5.5469 99.443 5.69464 99.017 5.62398C98.3715 5.51799 98.4845 6.21497 98.2812 6.55221C97.9326 7.12072 98.5684 7.09181 98.8234 7.25561C99.5043 7.69243 99.5366 8.21917 99.1203 8.84549C98.9976 9.02857 98.8459 9.22128 98.591 9.16668C98.2682 9.10565 98.2392 8.84549 98.2682 8.56927C98.3392 8.08106 98.2327 7.6571 97.6873 7.5479C97.0741 7.42584 96.8353 7.84017 96.7191 8.35407C96.6126 8.80373 96.3447 8.99645 95.9155 8.78446C95.4862 8.57248 95.3571 8.25771 95.6992 7.89477C95.882 7.74092 96.0052 7.52848 96.0476 7.294C96.09 7.05952 96.049 6.81766 95.9316 6.61002C95.8444 6.4398 95.7896 6.24066 95.9864 6.12503C96.2414 5.9805 96.3963 6.17321 96.5254 6.3595C96.6545 6.54579 96.774 6.85734 97.1096 6.70317C97.2389 6.63115 97.3481 6.52829 97.4276 6.40383C97.507 6.27937 97.5541 6.13721 97.5647 5.99014C97.5905 5.78913 97.5704 5.58491 97.5058 5.39272C97.4412 5.20054 97.3339 5.02534 97.1918 4.8802C97.0497 4.73507 96.8765 4.62375 96.6851 4.55455C96.4937 4.48535 96.2891 4.46006 96.0865 4.48056C95.8154 4.49662 95.5798 4.82102 95.2893 4.58013C95.3087 3.99878 96.3737 4.13046 96.1059 3.47524C95.8767 2.90995 95.2667 3.07376 94.6342 3.26005C95.2796 1.9753 94.5761 1.17233 93.9887 0.138108C93.9887 0.0931419 93.9564 0.0481763 93.9435 0.00321011C93.9389 0.0122116 93.9335 0.0208076 93.9274 0.0289057" fill="#8B6F4B"/>
<path d="M92.5654 84.8255C91.8166 85.8501 91.9005 86.7687 92.8881 87.6005C93.185 87.8543 93.2818 88.3104 93.7176 88.4613L93.8725 88.3907C93.9176 88.3682 93.9628 88.3457 94.0048 88.32C95.228 87.5106 95.6185 86.197 94.8956 84.8705C94.5728 84.2506 94.4631 83.1714 93.8725 83.03C93.8317 83.0251 93.7906 83.0251 93.7498 83.03C93.0366 83.03 93.0172 84.2345 92.5783 84.8383" fill="#8B6F4B"/>
<path d="M95.6056 83.014H91.8167V88.4614H95.6056V83.014Z" fill="#8B6F4B"/>
<path d="M4.46672 73.8248C4.45058 71.1654 6.27084 69.1515 8.88504 68.9235C9.88554 68.8368 10.7214 69.0905 11.2475 69.9963C11.7736 70.902 11.3605 71.6407 10.8796 72.3538C10.3489 73.0607 9.7147 73.6843 8.99802 74.2038C8.57522 74.5411 8.49131 74.798 9.07547 75.071C10.6892 75.8226 13.2421 75.4596 14.5362 74.2199C14.859 73.8987 15.1817 73.7156 15.6077 73.8441C17.0827 74.2777 18.2736 73.783 19.3451 72.7938C19.5807 72.5786 19.855 72.0326 20.21 72.4533C20.4908 72.7745 20.352 73.2981 19.9454 73.6192C19.3709 74.0785 18.8255 74.5828 18.2187 74.9907C15.8143 76.632 13.4293 78.3118 10.3729 78.543C10.2406 78.543 10.1082 78.5591 9.97591 78.5591C7.16484 78.5591 4.48931 76.3108 4.46672 73.8248ZM178.924 75.071C179.509 74.798 179.425 74.5411 178.999 74.2038C178.282 73.6851 177.649 73.0613 177.12 72.3538C176.636 71.6407 176.246 70.8699 176.752 69.9963C177.259 69.1226 178.111 68.8368 179.112 68.9235C181.726 69.1515 183.546 71.1718 183.53 73.8248C183.514 76.4778 180.577 78.7647 177.627 78.543C174.571 78.3118 172.186 76.632 169.781 74.9907C169.174 74.5796 168.626 74.0785 168.051 73.6192C167.648 73.2981 167.509 72.7842 167.79 72.4533C168.145 72.0326 168.419 72.5786 168.652 72.7938C169.726 73.783 170.911 74.2777 172.392 73.8441C172.825 73.7156 173.138 73.9083 173.464 74.2199C174.306 75.026 175.681 75.4596 176.982 75.4596C177.648 75.4707 178.308 75.3381 178.918 75.071H178.924ZM8.45581 81.196C5.60278 80.7946 2.75296 78.2476 2.04616 75.4757C1.33935 72.7039 2.56254 69.5434 5.05088 67.7319C7.69736 65.8048 11.5057 65.9429 14.4782 68.0531C15.7368 68.9492 16.9891 69.8678 18.5253 70.2693C18.7254 70.3207 19.0094 70.3367 19.0288 70.6065C19.0482 70.8763 18.7738 70.9277 18.6092 71.0755C17.9186 71.644 16.9955 71.7178 16.0273 72.1161C16.9084 72.4598 17.6152 72.1643 18.3898 72.1161C17.4635 73.1471 16.1306 73.2788 15.64 72.3698C15.0881 71.326 14.8622 71.9748 14.5976 72.479C14.0812 73.4715 13.4615 74.3002 12.1964 74.2905C12.0878 74.2951 11.9798 74.3091 11.8736 74.3323C11.5993 74.3837 11.3153 74.4351 11.1862 74.1203C11.0313 73.7445 11.5089 73.6128 11.7445 73.4008C12.1665 73.028 12.4844 72.5529 12.6674 72.0218C12.8504 71.4906 12.8923 70.9213 12.7891 70.3693C12.6858 69.8172 12.4408 69.3011 12.078 68.8711C11.7151 68.4411 11.2467 68.1117 10.7182 67.915C8.56553 67.0863 5.748 68.1141 4.26339 70.2693C2.77878 72.4244 2.91434 75.6652 4.63132 77.4317C6.89051 79.7411 9.61768 80.3449 12.6514 79.3846C16.6147 78.1319 19.7195 75.5014 22.8081 72.8741C23.0953 72.63 23.3374 72.3056 23.9474 72.2317C22.9792 73.5165 21.6559 74.2777 21.0104 75.6459L26.4034 71.7499C26.4583 72.6396 26 72.9351 25.5385 73.2338C23.8452 74.3451 22.1529 75.4586 20.4618 76.5742C20.1745 76.7637 19.7711 76.8697 19.755 77.3932C20.1648 77.4542 20.4618 77.2133 20.7748 77.072C22.3111 76.3525 23.8377 75.617 25.3771 74.9072C25.6418 74.7852 26.0226 74.4768 26.2227 74.9457C26.3873 75.328 26.0484 75.5335 25.7451 75.7005C25.6192 75.7712 25.4869 75.8419 25.3545 75.9061C23.3116 76.9275 21.2848 77.9842 19.2225 78.9574C16.3791 80.2903 13.468 81.3727 10.3309 81.3727C9.70248 81.3729 9.0748 81.3289 8.45258 81.241L8.45581 81.196ZM171.953 72.1482C170.985 71.7467 170.078 71.6761 169.371 71.1076C169.21 70.9694 168.936 70.8924 168.955 70.6386C168.974 70.3849 169.255 70.3528 169.458 70.3014C170.995 69.8999 172.247 68.9813 173.506 68.0852C176.468 65.9878 180.283 65.8529 182.933 67.764C185.421 69.5755 186.644 72.7296 185.938 75.5078C185.231 78.2861 182.387 80.8267 179.525 81.2282C175.652 81.7774 172.16 80.5408 168.755 78.9445C166.689 77.981 164.663 76.9146 162.623 75.8933C162.49 75.829 162.361 75.7584 162.232 75.6877C161.932 75.5207 161.587 75.3151 161.755 74.9329C161.958 74.464 162.336 74.7723 162.603 74.8944C164.143 75.6042 165.669 76.3397 167.202 77.0592C167.525 77.2069 167.812 77.4478 168.222 77.3803C168.222 76.8568 167.803 76.738 167.516 76.5613C165.827 75.4436 164.134 74.3301 162.439 73.221C161.977 72.9223 161.522 72.6268 161.574 71.7371L166.967 75.6331C166.321 74.2648 165.008 73.5133 164.033 72.2189C164.475 72.2981 164.877 72.5246 165.172 72.8612C168.261 75.4886 171.366 78.1191 175.326 79.3717C178.36 80.3353 181.1 79.7282 183.346 77.4189C185.066 75.6524 185.199 72.3923 183.717 70.2564C182.236 68.1205 179.396 67.0735 177.243 67.9021C176.715 68.0992 176.247 68.4288 175.884 68.859C175.522 69.2892 175.277 69.8054 175.174 70.3574C175.071 70.9094 175.113 71.4785 175.297 72.0095C175.48 72.5405 175.798 73.0154 176.22 73.388C176.446 73.6 176.93 73.7317 176.775 74.1074C176.646 74.4286 176.365 74.3708 176.088 74.3194C175.981 74.296 175.873 74.282 175.765 74.2777C174.5 74.2777 173.88 73.4587 173.364 72.4662C173.099 71.9619 172.873 71.3131 172.318 72.357C171.837 73.2659 170.498 73.1343 169.571 72.1032C170.072 72.1418 170.54 72.2799 171.053 72.2799C171.353 72.2822 171.651 72.2266 171.931 72.1161L171.953 72.1482ZM61.692 71.1686C61.8436 70.7543 61.2885 70.5262 61.0239 70.2436C59.7749 68.8882 58.4807 66.7651 58.3161 65.6474C60.3461 68.2586 62.715 70.3849 65.1614 72.6717C64.5313 72.7775 63.8844 72.72 63.2831 72.5047C62.8357 72.3645 62.3707 72.2877 61.9017 72.2767C63.0577 73.1335 64.4393 73.6368 65.8779 73.7252C67.1689 73.8088 67.8563 74.7948 68.9181 75.4629C68.5545 75.6426 68.1362 75.6793 67.7466 75.5656C67.4289 75.4778 67.0923 75.4845 66.7784 75.5849C67.8434 76.4328 69.015 76.526 70.1607 76.6256C71.3064 76.7251 72.0713 77.2968 73.017 77.9103C72.6197 78.0402 72.191 78.0402 71.7938 77.9103C71.4663 77.8116 71.1198 77.7929 70.7836 77.8557C72.8072 79.3171 75.3891 78.254 77.5612 79.8952C73.1686 80.2807 69.1408 79.9788 65.2712 78.3118C66.0022 78.0627 66.7509 77.8684 67.511 77.7304C67.8337 77.6566 68.1823 77.5281 68.1565 77.1073C68.1565 76.7444 67.8337 76.6705 67.5336 76.5838C67.3229 76.5072 67.1073 76.4449 66.8881 76.3975C64.1835 75.8804 62.0083 74.3997 59.9879 72.6493C59.691 72.3955 59.2682 72.1289 59.5102 71.6568C59.7265 71.2393 60.1945 71.3163 60.5979 71.2842C60.7303 71.2825 60.8622 71.302 60.9884 71.342C61.1009 71.3743 61.2168 71.3937 61.3337 71.3998C61.4131 71.4079 61.4926 71.3864 61.5569 71.3395C61.6213 71.2927 61.6659 71.2238 61.6823 71.1461L61.692 71.1686ZM122.777 72.6493C125.224 70.3624 127.592 68.2362 129.623 65.6249C129.455 66.7426 128.164 68.8657 126.915 70.2211C126.65 70.5069 126.095 70.7318 126.243 71.1461C126.366 71.4833 126.65 71.4127 126.937 71.342C127.065 71.3018 127.198 71.2823 127.331 71.2842C127.734 71.3163 128.202 71.2393 128.419 71.6568C128.661 72.1289 128.238 72.3955 127.941 72.6493C125.917 74.3997 123.745 75.8804 121.041 76.3975C120.822 76.4449 120.606 76.5072 120.395 76.5838C120.111 76.6705 119.782 76.7444 119.769 77.1073C119.769 77.5281 120.092 77.6566 120.415 77.7304C121.175 77.8687 121.923 78.063 122.655 78.3118C118.782 79.9788 114.757 80.2807 110.365 79.8952C112.524 78.254 115.106 79.3171 117.142 77.8557C116.806 77.793 116.459 77.8118 116.132 77.9103C115.736 78.0411 115.308 78.0411 114.912 77.9103C115.858 77.284 116.671 76.7091 117.765 76.6256C118.911 76.526 120.082 76.4328 121.151 75.5849C120.837 75.4851 120.5 75.4784 120.182 75.5656C119.794 75.6784 119.377 75.6417 119.014 75.4629C120.076 74.7948 120.747 73.8088 122.054 73.7252C123.493 73.6359 124.874 73.1326 126.03 72.2767C125.56 72.2874 125.094 72.3642 124.646 72.5047C124.228 72.6391 123.794 72.7169 123.355 72.736C123.163 72.7361 122.971 72.7146 122.784 72.6717L122.777 72.6493ZM32.9519 82.8277C29.8116 80.9006 27.6557 78.2636 27.4265 74.4415C27.1038 69.3378 30.9993 63.0522 38.6353 62.0983C43.0795 61.5426 47.3945 62.2107 51.6676 63.3156C52.9005 63.6368 54.1527 63.9579 55.2404 64.6838L50.7672 63.4569C50.7381 63.5436 50.7091 63.6303 50.6833 63.7171C52.9618 64.8701 55.4921 65.4836 57.6867 66.839C55.1048 66.1773 52.6488 65.2042 49.9861 64.8316L51.3449 65.5735C50.5775 65.4594 49.8216 65.2788 49.0857 65.0339C44.1865 63.6464 39.3292 63.2417 34.7399 65.9975C30.938 68.294 29.3275 71.3035 30.1505 75.3826C30.6023 77.6116 31.79 79.4424 33.4295 81.0098C34.7194 82.2598 36.4409 82.9715 38.2411 82.9989C40.0413 83.0264 41.784 82.3676 43.1118 81.1575C44.5125 79.8728 45.003 75.8065 43.0827 74.207C42.2952 73.5486 41.3464 73.3462 40.5008 72.8805C43.002 72.6685 44.2317 74.1845 44.9804 76.359C45.1095 74.9329 44.577 73.8055 43.8928 72.6846C45.4904 73.4522 46.4747 74.9522 47.9045 76.0281C48.3208 75.0004 46.9136 73.7124 48.5693 73.1375C49.0848 72.9349 49.6398 72.8518 50.1924 72.8947C50.7449 72.9376 51.2803 73.1052 51.758 73.3848C51.654 73.4659 51.5331 73.523 51.4041 73.5519C51.2752 73.5808 51.1414 73.5807 51.0125 73.5518C50.9054 73.5369 50.7968 73.5369 50.6897 73.5518C50.367 73.5968 50.0184 73.4651 49.686 73.9115C50.1411 74.04 50.5445 74.1621 50.9511 74.2648C51.738 74.4647 52.4899 74.782 53.1813 75.2059C53.7622 75.5528 54.0269 75.8483 53.1813 76.2048C50.7672 77.2551 48.8791 79.0216 47.0492 80.8299C44.6319 83.2131 41.6885 84.5171 38.687 84.5171C36.64 84.5028 34.6387 83.9138 32.9131 82.818L32.9519 82.8277ZM136.294 63.3059C140.567 62.201 144.882 61.533 149.323 62.0886C156.959 63.0522 160.838 69.3282 160.535 74.4318C160.306 78.254 158.146 80.8813 155.009 82.818C150.255 85.7537 144.856 84.7452 140.873 80.8299C139.034 79.0216 137.149 77.2551 134.741 76.2048C133.902 75.8354 134.163 75.5624 134.741 75.2059C135.434 74.7825 136.187 74.4653 136.975 74.2648C137.381 74.1621 137.781 74.04 138.24 73.9115C137.917 73.4651 137.546 73.5903 137.233 73.5518C137.126 73.5366 137.017 73.5366 136.91 73.5518C136.781 73.581 136.647 73.5811 136.518 73.5522C136.389 73.5233 136.268 73.4661 136.164 73.3848C136.642 73.1052 137.178 72.9376 137.73 72.8947C138.283 72.8518 138.838 72.9349 139.353 73.1375C141.009 73.706 139.602 74.9939 140.018 76.0281C141.441 74.9522 142.432 73.4586 144.03 72.6846C143.345 73.8055 142.81 74.9329 142.939 76.359C143.688 74.1845 144.917 72.6685 147.422 72.8805C146.589 73.3462 145.64 73.5486 144.84 74.207C142.923 75.813 143.413 79.8695 144.814 81.1575C146.142 82.3676 147.884 83.0264 149.685 82.9989C151.485 82.9715 153.206 82.2598 154.496 81.0098C156.136 79.4424 157.323 77.6116 157.772 75.3826C158.598 71.3035 156.985 68.294 153.186 65.9975C148.596 63.2288 143.739 63.6335 138.84 65.0339C138.104 65.2786 137.348 65.4592 136.581 65.5735L137.94 64.8316C135.277 65.2042 132.808 66.1773 130.242 66.839C132.437 65.4836 134.967 64.8701 137.246 63.7171C137.217 63.6303 137.188 63.5436 137.162 63.4569L132.685 64.6838C133.776 63.9483 135.028 63.6335 136.261 63.3156L136.294 63.3059ZM21.217 72.3216C20.8555 72.1546 21.0234 71.7371 20.9588 71.4287C20.8265 70.7864 21.4913 70.2371 21.2622 69.6237C20.9394 68.7244 21.0072 67.8058 21.0459 66.9C21.2331 62.6443 21.1944 58.3886 21.2493 54.1328C21.2493 50.4927 21.2493 46.8579 21.2493 43.2285C21.2201 42.6038 21.3009 41.9787 21.4881 41.3817C21.6817 40.8453 21.9367 40.3121 22.5951 40.3121C23.2535 40.3121 23.6085 40.8485 23.7925 41.4331C23.8699 41.7166 23.9058 42.0098 23.899 42.3035C23.9474 50.5227 23.899 58.7451 24.2863 66.9578C24.396 69.1869 23.8344 70.7896 21.9367 71.9234C21.7334 72.0422 21.5881 72.3538 21.3525 72.3538C21.3055 72.353 21.2593 72.342 21.217 72.3216ZM166.05 71.9234C164.149 70.7896 163.591 69.1869 163.698 66.9578C164.091 58.7451 164.02 50.5227 164.088 42.3035C164.08 42.0099 164.115 41.7168 164.191 41.4331C164.375 40.8485 164.692 40.3121 165.389 40.3121C166.086 40.3121 166.302 40.8453 166.499 41.3817C166.686 41.9787 166.767 42.6038 166.738 43.2285C166.738 46.8686 166.738 50.5034 166.738 54.1328C166.796 58.3886 166.738 62.6443 166.941 66.9C166.983 67.8058 167.064 68.7244 166.728 69.6237C166.496 70.2371 167.161 70.7799 167.028 71.4287C166.967 71.7499 167.132 72.1546 166.773 72.3216C166.731 72.342 166.685 72.353 166.638 72.3538C166.399 72.3538 166.257 72.0326 166.054 71.9234H166.05ZM40.6267 59.3072C40.6815 56.5899 40.646 53.8695 40.646 51.1554H40.9042C40.9042 48.2647 40.8687 45.3484 40.9042 42.448C40.9268 41.2018 41.611 40.2736 42.2662 40.3089C42.9213 40.3443 43.512 41.3335 43.5055 42.5283C43.4732 47.889 43.7153 53.2464 43.8282 58.607C43.8702 60.5341 43.8508 60.4891 41.9273 60.6304H41.6852C40.8074 60.6304 40.6105 60.2033 40.6299 59.2975L40.6267 59.3072ZM146.076 60.6208C144.139 60.4795 144.139 60.5341 144.175 58.5973C144.288 53.2367 144.53 47.8793 144.498 42.5187C144.498 41.3239 145.082 40.3378 145.74 40.2993C146.399 40.2608 147.08 41.1922 147.102 42.4384C147.154 45.3291 147.118 48.2423 147.118 51.1458H147.36C147.36 53.8598 147.325 56.5803 147.36 59.2975C147.38 60.2033 147.183 60.6304 146.308 60.6304H146.063L146.076 60.6208ZM30.286 63.5725C30.4958 56.9689 30.6088 50.3653 30.5507 43.7553C30.5413 43.2426 30.5759 42.7301 30.6539 42.2232C30.8411 41.1151 31.7835 40.264 32.7356 40.2961C33.7813 40.3186 34.6107 41.1954 34.7237 42.4159C34.7527 42.7371 34.7463 43.0776 34.7528 43.4084C34.7979 46.1578 34.8367 48.9103 34.8948 51.6597C34.9625 54.6692 35.0561 57.6755 35.1239 60.685C35.1239 61.1026 35.2756 61.6101 34.7399 61.8445C33.1939 62.4997 31.7675 63.4048 30.5184 64.5232C30.1569 64.1699 30.2796 63.8616 30.286 63.5854V63.5725ZM153.25 61.8445C152.715 61.6101 152.857 61.1026 152.866 60.685C152.931 57.6755 153.028 54.6692 153.092 51.6597C153.154 48.9103 153.189 46.1578 153.237 43.4084C153.237 43.0872 153.238 42.7467 153.267 42.4159C153.38 41.1954 154.206 40.3186 155.255 40.2961C156.223 40.2768 157.149 41.128 157.336 42.2232C157.415 42.73 157.448 43.2426 157.436 43.7553C157.385 50.3653 157.494 56.9689 157.701 63.5725C157.701 63.8487 157.833 64.1571 157.472 64.5104C156.222 63.3927 154.796 62.4877 153.25 61.8317V61.8445ZM18.3446 69.3153C17.8798 69.0552 17.9573 68.5573 17.9476 68.1269C17.8928 65.702 18.038 63.2802 18.0703 60.8585C18.1639 53.6607 18.1574 46.4597 18.1832 39.2619C18.1832 37.6816 18.2639 37.5853 19.8647 37.5821C24.0733 37.5821 28.2807 37.5821 32.4871 37.5821H43.8928C46.9007 37.5821 46.8749 37.5821 46.8846 40.6044C46.904 46.8483 46.9072 53.0922 47.1137 59.3328C47.1654 60.9002 46.791 61.1508 45.2806 60.7332C44.5157 60.5212 44.5673 59.9784 44.577 59.4485C44.6738 54.014 44.7814 48.5816 44.8997 43.1514C44.9256 42.0273 44.8062 40.9385 44.18 39.9813C43.9934 39.6726 43.7355 39.4125 43.4277 39.2227C43.1199 39.0329 42.7711 38.9189 42.4102 38.89C42.0493 38.8611 41.6866 38.9182 41.3523 39.0566C41.018 39.195 40.7217 39.4107 40.4879 39.6858C39.752 40.4695 39.581 41.4267 39.5906 42.4416C39.6423 47.5453 39.6681 52.6522 39.7649 57.7558C39.8198 60.5502 39.8746 60.5502 37.183 61.1187C36.034 61.3628 35.892 61.2632 35.892 60.0716C35.9404 57.3158 36.0308 54.5632 36.0857 51.8106C36.1405 48.7273 36.2212 45.6439 36.2051 42.5637C36.2051 40.4374 34.8786 38.9632 33.0487 38.8154C30.6443 38.6195 29.0273 40.3186 29.0757 42.9909C29.1876 49.2005 29.3027 55.4047 29.4211 61.6036C29.4953 65.5028 29.5018 65.5125 26.4389 67.9921C26.0549 68.3132 25.6515 68.9845 25.219 68.7693C24.722 68.5188 24.9834 67.7704 24.9931 67.2437C25.1673 59.0181 25.2997 50.7925 25.2254 42.5669C25.2682 41.8676 25.1581 41.1674 24.9027 40.5145C24.467 39.5895 23.7763 38.9664 22.7016 38.9086C21.6979 38.8604 21.0427 39.4321 20.5586 40.2286C20.18 40.9064 20.0021 41.677 20.0454 42.4513C20.0777 47.0796 20.0874 51.7079 20.1229 56.3362C20.1519 60.3735 20.2165 64.4108 20.2423 68.4513C20.2423 68.8657 20.3294 69.431 19.8195 69.6108C19.6988 69.6511 19.5724 69.6717 19.4451 69.6719C19.0536 69.6444 18.6752 69.5196 18.3446 69.3089V69.3153ZM155.51 37.5756C159.718 37.5756 163.927 37.5756 168.135 37.5756C169.749 37.5756 169.807 37.6752 169.814 39.2554C169.843 46.4533 169.833 53.6543 169.93 60.8521C169.962 63.2738 170.107 65.6956 170.052 68.1205C170.052 68.5509 170.12 69.0488 169.655 69.3089C169.191 69.5691 168.687 69.7843 168.18 69.6108C167.674 69.4374 167.754 68.8657 167.758 68.4513C167.783 64.4108 167.845 60.3735 167.877 56.3362C167.913 51.7079 167.922 47.0796 167.955 42.4513C167.997 41.6767 167.818 40.9061 167.438 40.2286C166.957 39.4321 166.302 38.8604 165.298 38.9086C164.224 38.96 163.53 39.5831 163.097 40.5145C162.835 41.1657 162.719 41.8663 162.758 42.5669C162.687 50.7925 162.816 59.0181 162.991 67.2437C162.991 67.7704 163.262 68.5284 162.768 68.7693C162.336 68.9845 161.929 68.3004 161.548 67.9921C158.485 65.5125 158.492 65.5028 158.563 61.6036C158.679 55.394 158.795 49.1898 158.911 42.9909C158.96 40.3089 157.343 38.6099 154.938 38.8154C153.105 38.9632 151.792 40.4374 151.782 42.5637C151.763 45.6439 151.843 48.7273 151.901 51.8106C151.953 54.5632 152.047 57.3158 152.095 60.0716C152.114 61.2632 151.963 61.3563 150.804 61.1187C148.125 60.5502 148.18 60.5502 148.222 57.7558C148.322 52.6522 148.348 47.5453 148.4 42.4416C148.4 41.4267 148.238 40.4695 147.499 39.6858C147.265 39.4114 146.969 39.1962 146.635 39.0582C146.301 38.9202 145.939 38.8633 145.579 38.8922C145.218 38.9211 144.87 39.0349 144.562 39.2243C144.255 39.4137 143.997 39.6732 143.81 39.9813C143.184 40.9449 143.065 42.0273 143.091 43.1514C143.202 48.5816 143.31 54.014 143.413 59.4485C143.413 59.9881 143.471 60.5309 142.71 60.7332C141.19 61.1508 140.822 60.9002 140.877 59.3328C141.083 53.0922 141.083 46.8483 141.106 40.6044C141.106 37.5821 141.106 37.5821 144.094 37.5821H155.5L155.51 37.5756ZM21.7882 34.3638C30.2742 34.3638 38.7601 34.3541 47.2461 34.3349C47.6301 34.3349 48.111 34.1839 48.4434 34.7074C48.2903 34.7282 48.1351 34.7282 47.9819 34.7074C47.6108 34.6657 47.2687 34.6239 47.2203 35.141C47.1589 35.7641 47.543 35.7577 48.0142 35.7545C48.1758 35.7481 48.3377 35.7545 48.4983 35.7738C48.1096 36.0566 47.6273 36.1817 47.1492 36.1239C38.7063 36.1239 30.2623 36.1132 21.8173 36.0918H20.7781C19.8357 36.0918 18.89 36.0918 17.9444 36.0918C17.3441 36.0918 16.86 35.9279 16.8503 35.1635C16.8406 34.3991 17.4054 34.4023 17.9121 34.3959C18.7932 34.3959 19.6775 34.3959 20.5618 34.3959H21.7882V34.3638ZM139.54 34.7396C139.863 34.216 140.357 34.367 140.741 34.367C149.225 34.367 157.711 34.3766 166.199 34.3959H167.419C168.303 34.3959 169.187 34.3959 170.072 34.3959C170.578 34.3959 171.143 34.3638 171.134 35.1635C171.124 35.9633 170.636 36.0821 170.036 36.0918C169.091 36.1078 168.148 36.0918 167.202 36.0918H166.163C157.72 36.1046 149.276 36.1153 140.831 36.1239C140.353 36.1814 139.871 36.0563 139.482 35.7738C139.644 35.7546 139.807 35.7482 139.97 35.7545C140.431 35.7545 140.822 35.7545 140.764 35.141C140.712 34.6239 140.373 34.6657 139.999 34.7074C139.899 34.7074 139.795 34.7299 139.695 34.7299C139.643 34.7348 139.59 34.7348 139.537 34.7299L139.54 34.7396ZM48.4983 32.0994C48.9792 32.0287 49.5149 31.9581 49.5085 32.5394C49.5085 33.0597 48.9243 33.0116 48.4112 32.9666C48.2627 32.9666 48.1175 32.9377 47.9981 32.9377C37.6316 32.9505 27.2662 32.9505 16.9019 32.9377C16.5792 32.9377 16.2371 32.9377 15.9079 32.9056C15.6497 32.8831 15.3399 32.8317 15.3625 32.4913C15.3851 32.1508 15.7207 32.1861 15.966 32.1701C16.2113 32.154 16.4114 32.1508 16.6308 32.1508H32.4452V32.1347C37.6445 32.1347 42.8471 32.1347 48.0465 32.154C48.1925 32.1485 48.3381 32.1335 48.4822 32.109L48.4983 32.0994ZM138.453 32.5491C138.453 31.9677 138.982 32.0384 139.463 32.109C139.61 32.1336 139.759 32.1486 139.908 32.154C145.108 32.1219 150.307 32.1347 155.51 32.1347V32.1508H171.324C171.543 32.1508 171.766 32.1508 171.969 32.1701C172.173 32.1893 172.55 32.154 172.576 32.4913C172.602 32.8285 172.286 32.8831 172.031 32.9056C171.708 32.9345 171.366 32.9377 171.033 32.9377C160.671 32.9377 150.307 32.9377 139.941 32.9377C139.818 32.9377 139.676 32.9538 139.527 32.9666C139.379 32.9794 139.224 32.9923 139.082 32.9923C138.727 32.9923 138.437 32.9088 138.437 32.5394L138.453 32.5491ZM52.7746 27.9079C53.0974 27.8597 53.4556 27.8083 53.4653 28.2612C53.4653 28.6274 53.1006 28.6177 52.7778 28.6081H52.5487C51.3352 28.6756 50.1185 28.7366 48.9017 28.743C42.0403 28.7687 35.1788 28.7719 28.3173 28.7976C24.8575 28.8137 21.3913 28.7976 17.9315 29.1188C29.3113 29.2376 40.6815 29.6937 52.3325 29.8768C51.8667 30.1431 51.3246 30.246 50.793 30.1691C42.0854 30.1691 33.3779 30.1691 24.6703 30.1691C20.9072 30.1691 17.1419 30.1616 13.3744 30.1466C12.39 30.1466 11.5638 29.5042 11.5993 28.7301C11.6413 27.8083 12.2448 27.8662 12.7999 27.9272C12.9387 27.9272 13.0742 27.9529 13.1969 27.9529C19.6904 27.9165 26.184 27.9015 32.6775 27.9079C39.2808 27.9079 45.8852 27.9186 52.4906 27.94C52.5815 27.9356 52.672 27.9259 52.7617 27.9111L52.7746 27.9079ZM134.519 28.2644C134.519 27.8116 134.893 27.8629 135.212 27.9111C135.304 27.9277 135.397 27.9374 135.49 27.94C142.093 27.9143 148.698 27.9036 155.303 27.9079C161.792 27.9079 168.286 27.9229 174.784 27.9529C174.903 27.9529 175.039 27.9529 175.177 27.9272C175.729 27.8662 176.339 27.8083 176.381 28.7301C176.417 29.501 175.591 30.1434 174.606 30.1466C170.843 30.1616 167.078 30.1691 163.31 30.1691C154.605 30.1691 145.898 30.1691 137.191 30.1691C136.659 30.2462 136.117 30.1433 135.651 29.8768C147.302 29.6937 158.672 29.2344 170.049 29.1188C166.589 28.7976 163.126 28.8137 159.666 28.7976C152.802 28.7719 145.94 28.7687 139.079 28.743C137.862 28.743 136.645 28.6756 135.432 28.6081H135.048C134.773 28.6081 134.509 28.5663 134.515 28.258L134.519 28.2644ZM93.9499 18.3301H94.1274C100.457 18.2319 106.726 19.5652 112.462 22.2293C119.692 25.5665 125.601 30.4517 129.155 37.6784C133.502 46.5175 133.011 55.2827 127.793 63.6175C122.745 71.6761 115.206 76.4232 106.137 78.9638C98.2111 81.2677 89.7888 81.2677 81.8633 78.9638C72.8039 76.4232 65.255 71.6761 60.2074 63.6175C54.9854 55.2827 54.4981 46.5175 58.8422 37.6784C62.3923 30.4517 68.3082 25.5665 75.5343 22.2293C81.2717 19.5651 87.542 18.2319 93.8725 18.3301H93.9499ZM101.838 12.0927C101.597 12.915 101.63 13.793 101.933 14.5949C102.235 15.3969 102.791 16.0797 103.516 16.5411C107.24 18.8793 111.159 19.5378 115.315 17.7134C115.567 17.601 115.812 17.3922 116.213 17.5593C115.244 18.8697 113.469 18.6128 112.101 19.6663C114.283 19.8654 116.229 19.6406 118.162 19.9264C120.095 20.2123 122.035 20.5688 123.839 21.5323C123.184 21.744 122.517 21.9167 121.841 22.0495C121.692 22.0689 121.553 22.135 121.444 22.2384C121.335 22.3417 121.261 22.4769 121.234 22.6244C121.189 23.013 121.522 23.0933 121.799 23.18C122.222 23.3149 122.648 23.4338 123.074 23.5526C125.408 24.195 127.334 25.5279 129.067 27.1692C129.28 27.3715 129.529 27.5835 129.413 27.924C129.297 28.2644 128.925 28.319 128.583 28.3158C128.399 28.3158 128.215 28.2965 128.031 28.3158C127.943 28.3145 127.855 28.3026 127.77 28.2805C127.557 28.2387 127.341 28.1938 127.241 28.4475C127.108 28.7687 127.476 28.9453 127.667 29.1509C128.866 30.3993 129.781 31.8903 130.349 33.5223C128.362 31.2096 126.234 29.0203 123.978 26.9668C125.007 26.787 125.775 27.2559 126.815 27.3041C125.769 26.3887 124.704 26.1478 123.616 26.0193C122.261 25.8523 121.357 25.0044 120.34 24.0922C120.702 24.0011 121.083 24.0224 121.431 24.1532C121.769 24.2831 122.139 24.3045 122.49 24.2143C120.834 22.7336 118.317 23.6104 116.832 21.8792C117.113 21.7745 117.421 21.7666 117.707 21.8567C117.917 21.9147 118.137 21.9279 118.352 21.8953C117.881 21.2176 117.136 21.1084 116.484 21.0666C114.728 20.9478 113.143 20.2958 111.494 19.7819C105.881 18.0027 100.025 17.1012 94.1339 17.1096H93.8789C87.9881 17.1006 82.1315 18.0022 76.5187 19.7819C74.8662 20.2958 73.2913 20.9478 71.5291 21.0666C70.8836 21.1084 70.1316 21.2176 69.6604 21.8953C69.8759 21.9283 70.096 21.9151 70.3059 21.8567C70.5929 21.7666 70.9019 21.7745 71.1838 21.8792C69.6992 23.6104 67.1818 22.7336 65.5261 24.2143C65.8756 24.3044 66.2448 24.2831 66.5815 24.1532C66.9303 24.0226 67.311 24.0013 67.6724 24.0922C66.6493 24.9947 65.7553 25.8427 64.403 26.0193C63.3089 26.151 62.2471 26.3919 61.2014 27.3041C62.2406 27.2559 63.0087 26.787 64.0351 26.9668C61.7798 29.0203 59.6533 31.2096 57.6674 33.5223C58.233 31.8899 59.1468 30.3986 60.3461 29.1509C60.5398 28.9453 60.9045 28.7719 60.7754 28.4475C60.6721 28.1938 60.4526 28.2387 60.2461 28.2805C60.1607 28.3026 60.0729 28.3145 59.9847 28.3158C59.8007 28.3158 59.6135 28.3158 59.4296 28.3158C59.1068 28.3158 58.7389 28.3158 58.6033 27.924C58.4678 27.5321 58.7356 27.3715 58.9487 27.1692C60.6786 25.5279 62.6053 24.2078 64.942 23.5526C65.368 23.4338 65.794 23.3149 66.2136 23.18C66.4943 23.0933 66.8235 23.013 66.7784 22.6244C66.7522 22.4772 66.6796 22.3421 66.5711 22.2387C66.4626 22.1353 66.3238 22.069 66.1748 22.0495C65.499 21.9175 64.8319 21.7448 64.1771 21.5323C65.965 20.5688 67.8886 20.2187 69.8541 19.9264C71.8196 19.6341 73.727 19.8654 75.9119 19.6663C74.5435 18.6128 72.7813 18.8697 71.8002 17.5593C72.2004 17.3794 72.4457 17.601 72.7007 17.7134C76.8576 19.5378 80.7692 18.8793 84.4969 16.5411C85.2194 16.0775 85.7719 15.3939 86.072 14.5922C86.3721 13.7905 86.4038 12.9137 86.1622 12.0927C85.9698 11.4153 85.5231 10.8375 84.9145 10.4788C84.306 10.1201 83.5822 10.0079 82.8928 10.1655C81.4566 10.5413 80.7111 11.9032 81.1145 13.4738C81.1938 13.8552 81.3928 14.2017 81.6829 14.4632C81.9729 14.7248 82.339 14.8878 82.7282 14.9287C83.4576 15.0283 83.974 14.7135 84.3419 13.8496C83.6351 14.0198 83.2349 14.6782 82.5894 14.3088C82.2566 14.1487 81.9833 13.8878 81.8084 13.5637C81.6094 13.1225 81.5875 12.6222 81.7471 12.1654C81.9067 11.7086 82.2358 11.3298 82.6669 11.1066C83.3415 10.7308 83.9579 10.8946 84.5291 11.2993C85.1907 11.7522 85.3263 12.4492 85.2392 13.1558C85.0358 14.7842 83.4544 16.1043 81.7923 16.175C79.2717 16.2842 76.9512 15.7959 75.0147 13.811C75.2697 14.9577 75.2697 14.9576 79.7977 17.055C78.2183 17.4233 76.5748 17.4233 74.9954 17.055C73.5489 16.7145 72.2151 16.0087 71.1225 15.0058C70.861 14.7682 70.6255 14.3635 70.2027 14.5562C69.7799 14.7489 69.9283 15.1985 69.9057 15.5518C69.8605 16.2842 69.8057 17.0325 70.1897 17.7038C70.5738 18.3751 70.2478 18.6192 69.6088 18.722C67.5626 19.0431 65.5455 19.4768 63.6704 20.405C63.179 20.6566 62.7047 20.9399 62.2503 21.2529C61.9469 21.4585 61.6274 21.7154 61.7791 22.1522C61.9308 22.5891 62.3019 22.6276 62.6795 22.6758C62.9636 22.7111 63.2766 22.6533 63.5574 22.9777C62.8216 23.4017 62.0922 23.7935 61.395 24.2335C60.1666 25.0478 59.0313 25.9935 58.0095 27.0536C57.2736 27.7859 57.251 28.2901 58.1902 28.7687C59.2617 29.3115 58.9745 29.8543 58.4742 30.5577C57.2414 32.2761 56.4087 34.1968 55.6761 36.1656C55.5791 36.3267 55.5279 36.511 55.5279 36.6988C55.5279 36.8866 55.5791 37.0709 55.6761 37.232C58.1095 33.9205 60.6205 30.8082 63.9511 28.4732C58.4936 34.1935 55.0499 40.7843 54.8337 48.7947C54.6175 56.8051 57.7384 63.4986 62.9668 69.4181C62.0276 68.8914 61.3531 68.082 60.6366 67.3079C59.8717 66.4664 59.1326 65.5992 58.4032 64.7224C57.6738 63.8455 57.0348 63.0104 56.1828 61.9409C56.228 63.2578 55.5922 63.0361 54.9273 62.8177C52.9807 62.1246 50.9746 61.6096 48.934 61.2792C48.1368 61.17 47.8851 60.7364 47.8948 59.9945C47.969 54.817 48.0271 49.6362 48.0981 44.4587C48.1239 42.6247 48.1723 40.7875 48.1917 38.9503C48.1917 38.2212 48.3337 37.6656 49.2342 37.566C49.9991 37.4921 50.0346 36.8369 49.9603 36.3005C49.7021 34.4794 51.0189 33.2782 51.8709 32.0255C52.4002 31.245 53.5718 30.7408 54.3916 30.0117C55.2823 29.2216 55.2339 28.1841 55.3049 27.1724C55.3372 26.7067 54.9628 26.5461 54.5626 26.53C53.788 26.5043 53.0167 26.5011 52.2421 26.4979C43.9347 26.4829 35.6285 26.4701 27.3232 26.4594H21.4494C18.0928 26.4594 14.7364 26.4754 11.3798 26.4594C10.318 26.4594 10.0889 26.8641 10.0889 27.8276C10.0372 29.7001 11.2249 30.7183 12.5837 31.547C13.1304 31.8301 13.5641 32.29 13.8133 32.851C14.0812 33.4934 14.3071 34.1132 15.0268 34.4794C15.6303 34.7813 15.2915 35.4783 15.3302 35.9986C15.3883 36.7309 15.2818 37.4632 16.3275 37.6688C16.8793 37.7748 16.8439 38.3979 16.8471 38.8797C16.9159 46.8901 16.9859 54.8973 17.0569 62.9012C17.0569 64.4076 17.1569 65.9108 17.1698 67.4171C17.1698 67.7383 17.328 68.2169 16.9148 68.416C16.5566 68.5895 16.321 68.2105 16.0564 68.0338C14.5879 67.0446 13.1162 66.1067 11.354 65.6442C9.71953 65.2129 7.9925 65.2806 6.39716 65.8385C4.80181 66.3963 3.41181 67.4186 2.40763 68.7725C0.164575 71.8431 0.012894 75.2445 1.9913 78.3471C4.35376 82.0408 7.8781 83.1232 12.035 82.7281C16.2823 82.3234 20.0067 80.4156 23.7731 78.6426C24.6735 78.2187 25.5675 77.4446 26.4615 77.4446C27.5556 77.4446 27.5879 78.8803 28.1462 79.6447C31.577 84.3437 37.183 86.4089 42.3468 84.7644C44.3543 84.1221 46.0229 82.9016 47.5624 81.514C48.5933 80.6312 49.6706 79.8036 50.7898 79.0345C52.6488 77.6951 54.7466 77.3161 56.9767 77.4285C57.3073 77.4563 57.6392 77.4648 57.9708 77.4542C58.5226 77.4125 58.6162 77.133 58.2612 76.7348C56.5378 74.8462 54.7111 73.0797 52.2195 72.2157C50.7381 71.7018 49.2374 71.6311 47.8786 72.6011C47.3687 72.9672 47.0557 72.858 46.6716 72.418C43.7314 69.0102 40.1813 70.0091 37.3476 72.479C36.7021 73.0507 36.8796 73.3687 37.6703 73.5357C38.688 73.7102 39.6921 73.956 40.675 74.2713C42.6309 74.9747 43.2796 76.0474 43.1343 78.0548C43.0785 78.9053 42.741 79.7134 42.1745 80.3527C41.6081 80.992 40.8447 81.4263 40.0038 81.5879C37.6639 82.0472 35.6564 81.4594 33.9653 79.7057C31.3833 77.0367 30.499 73.5036 31.9643 70.6322C33.3004 68.0145 35.6887 66.6077 38.4417 65.8562C42.4082 64.7802 46.2714 65.535 50.0862 66.7394C52.8747 67.6163 55.4953 68.8914 58.1547 70.0733C58.7647 70.3431 59.2617 70.5872 58.5582 71.3195C58.0482 71.8495 58.5323 72.2831 58.8809 72.63C60.3881 74.1042 62.0083 75.434 63.9447 76.3236C64.2674 76.4746 64.5902 76.6448 65.1356 76.9082C64.4901 77.0527 64.0641 77.1202 63.6607 77.2294C63.3379 77.3193 62.9894 77.3836 62.9216 77.7947C62.8538 78.2058 63.1346 78.4081 63.4025 78.5976C64.8757 79.5854 66.5345 80.2661 68.2791 80.5986C69.2893 80.817 70.3027 81.0387 71.3226 81.1768C72.01 81.2731 72.0875 81.5204 71.8422 82.1179C71.5111 83.0208 71.4254 83.9946 71.5937 84.9411C71.6937 85.683 72.0326 85.7408 72.5199 85.2623C73.2764 84.5608 74.1255 83.9654 75.0438 83.4925C77.1384 82.3202 79.3749 82.2945 81.7245 82.7795C79.5847 83.4636 77.4934 84.1767 76.5962 86.4892C78.5003 83.8394 81.3114 83.5214 84.2193 83.6242C85.7297 83.6788 86.8238 84.6135 87.508 85.9271C88.1245 87.1059 87.7501 88.23 87.0627 89.2514C86.0266 90.7963 84.0967 90.8895 83.08 89.4762C82.5184 88.6893 82.583 87.7643 83.2478 87.1894C83.9127 86.6145 84.3968 86.7205 85.2811 87.5299C85.5264 87.1059 85.3457 86.8489 85.0132 86.6241C84.7756 86.446 84.493 86.3367 84.1969 86.3083C83.9007 86.28 83.6024 86.3337 83.335 86.4635C82.9168 86.624 82.5624 86.9153 82.3249 87.2935C82.0874 87.6717 81.9798 88.1165 82.0182 88.5609C82.0731 89.6561 82.4248 90.5876 83.5189 91.0501C84.8519 91.6153 86.0815 91.2781 87.1498 90.4334C89.5058 88.5673 89.5026 85.0985 87.0239 83.4187C83.0962 80.7624 78.8682 80.1843 74.4209 82.105C74.153 82.2206 73.8851 82.3459 73.6172 82.4583C73.5947 82.4583 73.5527 82.4358 73.4526 82.3973C73.614 81.8384 74.0981 81.6264 74.5467 81.4337C75.7022 80.9487 76.8802 80.5248 78.0485 80.0687C78.4293 79.9177 78.7747 80.0687 79.1232 80.1747C83.8611 81.6072 88.6893 82.1018 93.6466 82.0343H94.3146C99.2719 82.0954 104.103 81.6072 108.838 80.1747C109.187 80.0719 109.529 79.9177 109.913 80.0687C111.078 80.5248 112.259 80.9487 113.411 81.4337C113.857 81.6168 114.347 81.8288 114.509 82.3973C114.405 82.4358 114.367 82.4679 114.344 82.4583C114.073 82.3459 113.808 82.2206 113.537 82.105C109.09 80.1779 104.862 80.7624 100.95 83.4187C98.4715 85.0985 98.4651 88.5577 100.824 90.4334C101.893 91.2781 103.119 91.6153 104.452 91.0501C105.549 90.5876 105.901 89.6561 105.956 88.5609C105.994 88.1165 105.887 87.6717 105.649 87.2935C105.412 86.9153 105.057 86.624 104.639 86.4635C104.372 86.3337 104.073 86.28 103.777 86.3083C103.481 86.3367 103.199 86.446 102.961 86.6241C102.638 86.8489 102.448 87.1059 102.69 87.5299C103.577 86.7205 104.094 86.6434 104.723 87.1894C105.352 87.7354 105.456 88.6893 104.891 89.4762C103.874 90.8895 101.947 90.7963 100.908 89.2514C100.224 88.23 99.8496 87.1059 100.466 85.9271C101.15 84.6135 102.244 83.6788 103.752 83.6242C106.656 83.5214 109.471 83.8394 111.375 86.4892C110.481 84.1767 108.386 83.4636 106.246 82.7795C108.599 82.2945 110.833 82.3202 112.93 83.4925C113.848 83.9662 114.697 84.5615 115.454 85.2623C115.942 85.7408 116.28 85.683 116.38 84.9411C116.548 83.9944 116.461 83.0205 116.129 82.1179C115.887 81.5204 115.964 81.2731 116.652 81.1768C117.671 81.0387 118.685 80.817 119.692 80.5986C121.437 80.2667 123.096 79.5859 124.568 78.5976C124.839 78.4081 125.114 78.1897 125.049 77.7947C124.985 77.3996 124.623 77.3193 124.313 77.2294C123.91 77.117 123.497 77.0495 122.839 76.9082C123.387 76.6384 123.707 76.4746 124.029 76.3236C125.966 75.434 127.58 74.1042 129.093 72.63C129.451 72.2799 129.932 71.8495 129.416 71.3195C128.712 70.5872 129.213 70.356 129.819 70.0733C132.482 68.8914 135.103 67.6163 137.888 66.7394C141.699 65.5382 145.563 64.7802 149.532 65.8562C152.285 66.6077 154.67 68.0145 156.007 70.6322C157.472 73.5036 156.578 77.0367 154.006 79.7057C152.314 81.4594 150.31 82.0472 147.967 81.5879C147.127 81.4257 146.364 80.9911 145.798 80.3519C145.233 79.7126 144.895 78.9049 144.84 78.0548C144.691 76.0474 145.34 74.9747 147.299 74.2713C148.281 73.9557 149.284 73.7099 150.301 73.5357C151.101 73.3687 151.285 73.0507 150.623 72.479C147.793 70.0091 144.243 69.0102 141.299 72.418C140.918 72.858 140.605 72.9672 140.095 72.6011C138.737 71.6375 137.233 71.7018 135.755 72.2157C133.273 73.0797 131.436 74.8462 129.713 76.7348C129.358 77.1234 129.448 77.4125 130 77.4542C130.333 77.4649 130.666 77.4563 130.997 77.4285C133.228 77.3257 135.325 77.7048 137.184 79.0345C138.304 79.8035 139.381 80.6312 140.412 81.514C141.954 82.9016 143.623 84.1253 145.627 84.7644C150.791 86.4089 156.394 84.3437 159.828 79.6447C160.383 78.8803 160.418 77.4446 161.509 77.4446C162.407 77.4446 163.301 78.2187 164.201 78.6426C167.967 80.4156 171.689 82.3234 175.936 82.7281C180.096 83.1232 183.62 82.0408 185.98 78.3471C187.961 75.2445 187.81 71.8431 185.566 68.7725C184.562 67.4183 183.171 66.3959 181.575 65.8381C179.979 65.2802 178.252 65.2127 176.617 65.6442C174.858 66.0906 173.389 67.0446 171.915 68.0338C171.653 68.2105 171.418 68.5895 171.056 68.416C170.643 68.2169 170.801 67.7512 170.804 67.4171C170.804 65.9108 170.901 64.4076 170.917 62.9012C170.995 54.8973 171.065 46.8901 171.127 38.8797C171.127 38.3979 171.092 37.7748 171.643 37.6688C172.692 37.4632 172.586 36.7309 172.641 35.9986C172.683 35.4783 172.344 34.7813 172.963 34.4794C173.683 34.1132 173.909 33.4869 174.177 32.851C174.426 32.2909 174.858 31.8313 175.403 31.547C176.762 30.7151 177.953 29.7001 177.901 27.8276C177.876 26.8641 177.663 26.4497 176.61 26.4594C173.254 26.4786 169.897 26.4594 166.541 26.4594H160.664C152.361 26.4594 144.056 26.4722 135.748 26.4979C134.974 26.4979 134.199 26.4979 133.424 26.53C133.024 26.5461 132.653 26.7067 132.685 27.1724C132.756 28.1841 132.708 29.2216 133.599 30.0117C134.415 30.7408 135.59 31.245 136.119 32.0255C136.968 33.2782 138.288 34.4794 138.03 36.3005C137.956 36.8369 137.988 37.4921 138.756 37.566C139.657 37.6527 139.789 38.2084 139.795 38.9503C139.815 40.7875 139.866 42.6247 139.892 44.4587C139.961 49.6362 140.029 54.8148 140.095 59.9945C140.095 60.7268 139.853 61.1604 139.056 61.2792C137.016 61.6096 135.01 62.1246 133.063 62.8177C132.395 63.0361 131.772 63.2578 131.807 61.9409C130.955 63.0104 130.284 63.868 129.584 64.7224C128.883 65.5767 128.119 66.4664 127.35 67.3079C126.647 68.082 125.963 68.8914 125.02 69.4181C130.242 63.4986 133.373 56.7955 133.157 48.7947C132.94 40.7939 129.51 34.1935 124.052 28.4732C127.383 30.8082 129.894 33.9334 132.324 37.232C132.422 37.0713 132.474 36.8869 132.474 36.6988C132.474 36.5107 132.422 36.3263 132.324 36.1656C131.591 34.1968 130.759 32.2761 129.529 30.5577C129.025 29.8543 128.738 29.3115 129.81 28.7687C130.752 28.2901 130.73 27.7859 129.994 27.0536C128.968 25.9937 127.83 25.0481 126.598 24.2335C125.898 23.7935 125.169 23.4017 124.436 22.9777C124.717 22.6565 125.03 22.7111 125.314 22.6758C125.688 22.6276 126.072 22.5537 126.211 22.1522C126.35 21.7508 126.047 21.4585 125.74 21.2529C125.287 20.9399 124.813 20.6566 124.323 20.405C122.448 19.4768 120.428 19.0528 118.381 18.722C117.736 18.6192 117.413 18.4008 117.804 17.7038C118.194 17.0068 118.126 16.2842 118.088 15.5518C118.065 15.2018 118.188 14.7457 117.788 14.5562C117.387 14.3667 117.142 14.7682 116.871 15.0058C115.779 16.0089 114.445 16.7147 112.998 17.055C111.419 17.4233 109.775 17.4233 108.196 17.055C112.714 14.9576 112.714 14.9577 112.979 13.811C111.042 15.7959 108.735 16.2842 106.201 16.175C104.539 16.1043 102.954 14.7842 102.751 13.1558C102.664 12.4492 102.803 11.7522 103.464 11.2993C104.049 10.8946 104.652 10.7308 105.327 11.1066C105.758 11.3298 106.087 11.7086 106.246 12.1654C106.406 12.6222 106.384 13.1225 106.185 13.5637C106.008 13.8873 105.734 14.1478 105.401 14.3088C104.755 14.6782 104.358 14.0198 103.648 13.8496C104.016 14.7135 104.533 15.0283 105.262 14.9287C105.652 14.8888 106.018 14.7261 106.308 14.4644C106.599 14.2027 106.797 13.8556 106.876 13.4738C107.279 11.9032 106.553 10.5413 105.097 10.1655C104.887 10.1099 104.67 10.0819 104.452 10.082C103.854 10.0971 103.277 10.3014 102.804 10.6653C102.331 11.0292 101.987 11.5337 101.822 12.1055" fill="#8B6F4B"/>
<path d="M75.4536 102.667C76.0397 102.846 76.6514 102.928 77.2642 102.908C77.9409 102.929 78.6137 102.799 79.2329 102.526C80.1269 102.086 80.398 101.437 80.398 100.895C80.398 100.005 79.8655 99.356 78.368 98.5017L78.0194 98.3057C76.9931 97.7148 76.7058 97.3871 76.7058 96.9568C76.7058 96.3915 77.2642 95.9932 78.1808 95.9932C78.4258 95.9729 78.6724 96.0033 78.9051 96.0823C79.1378 96.1613 79.3516 96.2874 79.5331 96.4525C79.7123 96.6136 79.8269 96.8338 79.8558 97.0724C79.8558 97.1848 79.8913 97.2394 79.9784 97.2394C80.0656 97.2394 80.114 97.1655 80.114 96.96C80.114 96.2277 80.1656 95.9547 80.1656 95.8326C80.1656 95.7684 80.1011 95.7395 79.9913 95.7202C79.4486 95.6107 78.8959 95.558 78.3421 95.5628C76.6187 95.5628 75.4794 96.3015 75.4794 97.3326C75.4794 98.0938 75.9506 98.749 77.3126 99.5584L77.8839 99.8796C78.9134 100.49 79.0974 100.923 79.0974 101.383C79.0974 101.842 78.5519 102.449 77.4385 102.449C76.6704 102.449 75.9377 102.199 75.6666 101.505C75.6024 101.352 75.5642 101.189 75.5537 101.023C75.5537 100.949 75.5537 100.866 75.431 100.866C75.3084 100.866 75.2923 100.968 75.2826 101.11C75.2729 101.251 75.218 101.823 75.218 102.337C75.218 102.545 75.2567 102.59 75.4536 102.658" fill="#8B6F4B"/>
<path d="M82.3119 95.8679C82.4727 95.8656 82.6334 95.8753 82.7928 95.8968C83.2026 95.9611 83.3027 96.112 83.3253 96.43C83.3479 96.748 83.3511 96.9921 83.3511 98.4181V100.069C83.3697 100.736 83.3492 101.403 83.2898 102.067C83.2414 102.34 83.1768 102.545 82.9315 102.581C82.7836 102.608 82.6334 102.621 82.4829 102.619C82.3345 102.619 82.2861 102.648 82.2861 102.693C82.2861 102.738 82.3732 102.79 82.5313 102.79C82.7799 102.79 83.1026 102.77 83.3866 102.77C83.6706 102.77 83.9579 102.77 84.0934 102.77C84.4678 102.77 84.8519 102.77 85.3844 102.799C85.9169 102.828 86.5979 102.825 87.5274 102.825C87.9986 102.825 88.1083 102.825 88.1955 102.584C88.281 102.243 88.335 101.894 88.3568 101.543C88.3568 101.447 88.3568 101.373 88.2568 101.373C88.1567 101.373 88.147 101.412 88.1212 101.514C88.1058 101.671 88.0452 101.82 87.9467 101.943C87.8482 102.066 87.716 102.158 87.5661 102.208C87.1841 102.301 86.7906 102.339 86.3978 102.321C85.1359 102.321 84.9358 102.179 84.9132 101.534C84.9132 101.261 84.9132 100.397 84.9132 100.079V99.3271C84.9132 99.2725 84.9132 99.234 84.9874 99.234C85.2843 99.234 86.5107 99.234 86.7463 99.2629C87.2046 99.3014 87.3918 99.4395 87.4402 99.629C87.467 99.7344 87.4842 99.8418 87.4919 99.9502C87.4919 99.9952 87.5145 100.034 87.6016 100.034C87.6888 100.034 87.7114 99.9309 87.7114 99.8571C87.7114 99.7832 87.7501 99.4138 87.763 99.2147C87.8114 98.7361 87.863 98.5884 87.863 98.5306C87.863 98.4728 87.8243 98.4567 87.7759 98.4567C87.7275 98.4567 87.6629 98.5017 87.5758 98.5787C87.3963 98.6832 87.1894 98.7314 86.982 98.7169C86.6979 98.7361 85.2714 98.7361 85.0003 98.7361C84.9261 98.7361 84.9132 98.7008 84.9132 98.6333V96.2598C84.9132 96.1955 84.9358 96.1666 85.0003 96.1666C85.2456 96.1666 86.5495 96.1859 86.7593 96.2052C87.3789 96.2598 87.5016 96.3754 87.5887 96.5264C87.6377 96.6321 87.6631 96.7472 87.6629 96.8636C87.6629 96.9471 87.6888 96.9953 87.7759 96.9953C87.8057 96.9971 87.8351 96.9875 87.8579 96.9683C87.8807 96.9492 87.8953 96.922 87.8985 96.8925C87.9244 96.7801 87.9469 96.3658 87.9599 96.2726C87.98 96.0683 88.0134 95.8656 88.0599 95.6656C88.0599 95.6174 88.0599 95.5789 87.9857 95.5789C87.9192 95.587 87.8534 95.5999 87.7888 95.6174C87.6888 95.6367 87.4919 95.6527 87.2563 95.672C87.0207 95.6913 84.5517 95.672 84.158 95.672C83.9837 95.672 83.6964 95.672 83.3769 95.6559C83.0574 95.6399 82.7056 95.6559 82.3732 95.6559C82.186 95.6559 82.0989 95.6752 82.0989 95.7427C82.0989 95.8101 82.1731 95.8262 82.3119 95.8262" fill="#8B6F4B"/>
<path d="M88.5957 102.79C89.2412 102.79 89.9221 102.761 90.0577 102.761C90.4418 102.761 90.9743 102.79 91.3713 102.79C91.5068 102.79 91.581 102.77 91.581 102.696C91.581 102.623 91.5455 102.619 91.3971 102.619H91.2099C90.8258 102.619 90.7161 102.497 90.7161 102.33C90.7371 102.129 90.7997 101.934 90.9 101.759L91.5714 100.474C91.5768 100.45 91.591 100.428 91.6113 100.414C91.6316 100.4 91.6565 100.394 91.6811 100.397H94.4438C94.4691 100.394 94.4948 100.399 94.5172 100.411C94.5397 100.423 94.558 100.442 94.5696 100.464L95.5604 102.391C95.5724 102.412 95.5789 102.436 95.5793 102.46C95.5797 102.484 95.5741 102.508 95.5628 102.529C95.5516 102.551 95.5352 102.569 95.515 102.583C95.4949 102.596 95.4716 102.604 95.4475 102.606C95.3248 102.606 95.2764 102.635 95.2764 102.693C95.2764 102.751 95.4249 102.757 95.6476 102.767C96.6384 102.786 97.5421 102.786 97.9875 102.786C98.4328 102.786 98.5587 102.767 98.5587 102.693C98.5587 102.619 98.4974 102.616 98.3974 102.616C98.2234 102.616 98.0497 102.603 97.8777 102.578C97.6163 102.533 97.2581 102.401 96.7869 101.556C95.9929 100.133 94.0113 96.3819 93.7144 95.8647C93.5885 95.6495 93.5143 95.566 93.3916 95.566C93.269 95.566 93.1915 95.6688 93.0431 95.9386L89.9609 101.759C89.7156 102.227 89.48 102.545 88.9087 102.6C88.8119 102.6 88.6376 102.619 88.5247 102.619C88.4117 102.619 88.3762 102.639 88.3762 102.696C88.3762 102.754 88.4504 102.79 88.6118 102.79H88.5957ZM93.0366 97.567C93.0366 97.5285 93.0721 97.4803 93.1108 97.4803C93.1496 97.4803 93.1593 97.5285 93.1722 97.567L94.2856 99.8732C94.2856 99.9021 94.2856 99.9278 94.2243 99.9278H91.9296C91.8812 99.9278 91.8683 99.9021 91.8812 99.8635L93.0366 97.567Z" fill="#8B6F4B"/>
<path d="M101.957 102.789C102.354 102.789 102.951 102.761 103.187 102.761C103.422 102.761 103.965 102.789 104.478 102.789C104.662 102.789 104.775 102.77 104.775 102.683C104.775 102.597 104.688 102.619 104.587 102.619C104.413 102.618 104.24 102.603 104.068 102.574C103.858 102.536 103.697 102.452 103.697 102.272C103.698 102.125 103.71 101.978 103.732 101.832L104.378 98.174H104.426C104.862 98.8774 105.604 99.9855 105.717 100.181C105.866 100.445 106.843 101.877 107.14 102.311C107.337 102.594 107.463 102.78 107.573 102.78C107.683 102.78 107.747 102.696 108.034 102.253L110.736 98.0777H110.784L111.526 102.157C111.578 102.42 111.526 102.542 111.465 102.561C111.404 102.581 111.33 102.616 111.33 102.664C111.33 102.712 111.404 102.748 111.688 102.767C112.185 102.796 113.895 102.815 114.205 102.815C114.278 102.815 114.35 102.808 114.421 102.793L115.499 102.767C115.88 102.767 116.416 102.796 116.81 102.796C116.948 102.796 117.023 102.777 117.023 102.703C117.023 102.629 116.984 102.626 116.836 102.626H116.652C116.267 102.626 116.155 102.504 116.155 102.337C116.175 102.135 116.239 101.94 116.342 101.765L117.01 100.48C117.036 100.422 117.058 100.403 117.12 100.403H119.885C119.91 100.4 119.936 100.405 119.958 100.417C119.98 100.429 119.997 100.448 120.008 100.471L120.999 102.398C121.011 102.418 121.017 102.442 121.018 102.466C121.018 102.49 121.013 102.513 121.002 102.535C120.991 102.556 120.975 102.574 120.956 102.588C120.936 102.602 120.913 102.61 120.889 102.613C120.763 102.613 120.715 102.642 120.715 102.7C120.715 102.757 120.863 102.764 121.086 102.773C122.08 102.793 122.984 102.793 123.429 102.793C123.875 102.793 124 102.773 124 102.7C124 102.626 123.936 102.622 123.836 102.622C123.662 102.623 123.488 102.61 123.316 102.584C123.058 102.539 122.696 102.407 122.225 101.563C121.435 100.14 119.45 96.3882 119.153 95.8711C119.03 95.6559 118.956 95.5724 118.83 95.5724C118.704 95.5724 118.633 95.6752 118.485 95.945L115.373 101.762C115.125 102.231 114.889 102.549 114.321 102.603C114.231 102.603 114.086 102.603 113.976 102.622C113.832 102.607 113.688 102.582 113.547 102.549C113.176 102.465 113.05 102.192 112.94 101.601L111.814 95.8615C111.775 95.6656 111.701 95.5724 111.591 95.5724C111.481 95.5724 111.417 95.6463 111.317 95.7973L107.97 101.062L104.584 95.8583C104.426 95.6142 104.352 95.5692 104.262 95.5692C104.171 95.5692 104.087 95.6527 104.052 95.8101L102.825 101.852C102.761 102.173 102.661 102.536 102.315 102.594C102.193 102.612 102.068 102.621 101.944 102.619C101.818 102.619 101.744 102.639 101.744 102.683C101.744 102.728 101.844 102.789 101.967 102.789H101.957ZM118.478 97.567C118.478 97.5285 118.517 97.4803 118.553 97.4803C118.588 97.4803 118.601 97.5285 118.614 97.567L119.73 99.8731C119.73 99.902 119.73 99.9277 119.669 99.9277H117.394C117.345 99.9277 117.333 99.902 117.345 99.8635L118.478 97.567Z" fill="#8B6F4B"/>
<path d="M129.687 102.921C130.699 102.95 131.709 102.806 132.672 102.497C132.821 102.433 132.834 102.414 132.834 102.16V101.129C132.834 100.66 132.834 100.284 132.834 100.005C132.826 99.9381 132.832 99.8704 132.852 99.8062C132.871 99.7419 132.905 99.6826 132.949 99.632C132.994 99.5814 133.048 99.5406 133.11 99.5125C133.171 99.4843 133.238 99.4693 133.305 99.4684C133.412 99.4518 133.52 99.4421 133.628 99.4395C133.715 99.4395 133.789 99.4235 133.789 99.3656C133.789 99.3078 133.702 99.2725 133.541 99.2725C133.131 99.2725 132.476 99.3014 132.092 99.3014C131.707 99.3014 130.939 99.2725 130.294 99.2725C130.12 99.2725 130.032 99.2918 130.032 99.3656C130.032 99.4395 130.11 99.4395 130.22 99.4395C130.382 99.4372 130.543 99.4468 130.704 99.4684C131.11 99.5359 131.223 99.6836 131.236 100.005C131.249 100.326 131.236 100.647 131.236 101.11V101.993C131.245 102.069 131.227 102.145 131.184 102.209C131.142 102.273 131.078 102.319 131.004 102.34C130.659 102.426 130.304 102.461 129.949 102.443C127.334 102.443 125.637 100.933 125.637 98.9096C125.637 97.7565 126.082 97.0531 126.776 96.6131C127.52 96.1838 128.374 95.9816 129.232 96.0317C130.63 96.0317 131.624 96.4621 131.995 96.7608C132.113 96.857 132.211 96.9755 132.283 97.1094C132.355 97.2433 132.399 97.3901 132.414 97.5413C132.414 97.6152 132.453 97.6634 132.54 97.6634C132.627 97.6634 132.676 97.6152 132.676 97.4642C132.663 96.951 132.693 96.4376 132.763 95.9289C132.763 95.8615 132.737 95.823 132.589 95.8133C132.264 95.796 131.941 95.7617 131.62 95.7105C130.892 95.6217 130.159 95.5724 129.426 95.5628C128.288 95.5171 127.154 95.7267 126.108 96.1763C124.982 96.6934 123.952 97.7436 123.952 99.2436C123.952 101.832 126.64 102.921 129.677 102.921" fill="#8B6F4B"/>
<path d="M135.403 95.8679C135.552 95.8658 135.701 95.8787 135.848 95.9064C136.123 95.9514 136.248 96.112 136.271 96.4299C136.294 96.7479 136.297 96.992 136.297 98.4181V100.069C136.316 100.752 136.296 101.435 136.236 102.115C136.197 102.385 136.123 102.545 135.874 102.581C135.727 102.608 135.578 102.621 135.429 102.619C135.28 102.619 135.229 102.648 135.229 102.693C135.229 102.738 135.316 102.789 135.477 102.789C135.974 102.789 136.768 102.761 137.039 102.761C137.362 102.761 138.156 102.789 138.976 102.789C139.111 102.789 139.211 102.761 139.211 102.693C139.211 102.626 139.15 102.619 139.014 102.619C138.799 102.619 138.583 102.606 138.369 102.581C137.998 102.545 137.911 102.375 137.872 102.121C137.823 101.72 137.823 100.978 137.823 100.069V98.4181C137.823 96.992 137.823 96.7319 137.849 96.4299C137.875 96.128 137.972 95.9417 138.304 95.8968C138.428 95.8785 138.553 95.8689 138.679 95.8679C138.801 95.8679 138.876 95.8486 138.876 95.7747C138.876 95.7009 138.776 95.6976 138.614 95.6976C138.146 95.6976 137.414 95.7265 137.104 95.7265C136.746 95.7265 135.964 95.6976 135.49 95.6976C135.293 95.6976 135.193 95.7169 135.193 95.7747C135.193 95.8325 135.267 95.8679 135.39 95.8679" fill="#8B6F4B"/>
<path d="M141.961 101.897C143.087 102.638 144.514 102.921 146.211 102.921C146.961 102.938 147.709 102.866 148.442 102.706C148.651 102.638 148.703 102.59 148.764 102.433C148.894 102.027 148.984 101.61 149.035 101.187C149.035 101.11 149.013 101.045 148.926 101.045C148.839 101.045 148.8 101.081 148.764 101.232C148.68 101.472 148.535 101.685 148.342 101.852C147.848 102.282 147.176 102.375 146.082 102.375C144.42 102.375 142.177 101.27 142.177 99.038C142.177 98.129 142.413 97.2361 143.32 96.6098C143.862 96.234 144.569 96.0284 145.647 96.0284C146.789 96.0284 147.754 96.279 148.164 96.6098C148.301 96.7112 148.415 96.8402 148.499 96.9886C148.582 97.137 148.633 97.3012 148.648 97.4706C148.648 97.6023 148.671 97.6761 148.771 97.6761C148.871 97.6761 148.906 97.6023 148.919 97.4609C148.932 97.3196 148.919 96.7575 148.958 96.4492C148.997 96.1409 149.019 96.0092 149.019 95.9353C149.019 95.8614 148.968 95.8293 148.832 95.8197C148.461 95.794 148.064 95.7105 147.593 95.6623C146.996 95.5986 146.396 95.5675 145.795 95.5692C143.949 95.5692 142.771 95.9417 141.88 96.5616C141.428 96.8503 141.058 97.2491 140.805 97.7202C140.551 98.1912 140.422 98.7189 140.431 99.2532C140.44 99.7876 140.586 100.311 140.854 100.773C141.123 101.236 141.506 101.623 141.967 101.897" fill="#8B6F4B"/>
<path d="M166.196 93.0319C165.711 93.0319 165.011 93.3531 164.201 93.8477C162.852 94.6635 161.345 95.9675 159.728 97.5574C156.923 100.329 153.473 103.878 150.133 107.835C143.555 115.624 141.077 119.578 141.077 120.802C141.077 121.248 141.183 121.332 141.238 121.412C141.561 122.025 142.748 122.88 143.174 123.044C143.71 123.308 144.325 123.367 144.901 123.207C148.129 122.311 157.514 114.889 160.154 112.608C160.315 112.486 160.102 112.162 159.779 112.364C156.597 114.564 147.651 121.213 145.33 121.007C146.621 118.399 150.669 113.222 155.358 107.839C158.053 104.861 160.264 102.455 162.581 100.214C164.953 98.0135 168.455 94.1785 170.327 94.8305C171.35 95.2802 169.194 92.9034 166.176 93.0383" fill="#8B6F4B"/>
<path d="M71.4324 126.622C68.252 128.444 64.6453 129.4 60.9755 129.393C50.2476 129.393 40.3201 121.646 35.9082 116.755C35.3356 116.131 34.8133 115.463 34.3462 114.757C35.4241 114.837 36.5021 114.879 37.6349 114.879C53.3201 114.879 73.372 106.03 72.7814 98.3668C72.1876 90.9474 59.8976 88.9496 52.6198 88.9496C31.9643 88.9496 10.1438 99.1023 10.1438 106.438C10.1438 108.6 11.9221 110.353 15.5884 110.353C16.8278 110.353 16.9891 110.151 16.9891 110.151C15.6982 110.068 13.9715 108.966 13.9715 107.338C13.9715 102.565 34.5075 90.1412 54.7821 90.1412C60.982 90.1412 69.1764 92.261 69.5508 96.8283C70.0898 104.167 46.6975 112.605 34.4075 113.055C40.1749 107.55 54.7402 94.4612 58.0709 95.6431C57.1026 94.8273 55.376 94.1785 53.4363 94.1785C48.5952 94.1785 38.0738 103.637 31.8126 109.917C31.6651 109.662 31.5564 109.387 31.4899 109.101C31.4078 108.836 31.3943 108.555 31.4507 108.284C31.5072 108.013 31.6317 107.76 31.8126 107.55C32.6744 106.775 28.5852 107.957 27.8784 110.607C27.7687 111.015 28.0398 111.709 28.469 112.647L28.6853 113.093C24.3186 117.824 19.0385 124.431 19.0385 127.245C19.0385 127.935 19.2516 128.957 20.8717 128.957C22.7565 128.957 24.9124 127.775 26.1518 126.837C24.8512 127.431 23.432 127.723 22.0013 127.691C21.5172 127.691 21.4623 127.527 21.4623 127.283C21.4623 126.32 25.8839 121.454 30.8961 116.437C31.3285 116.967 31.7578 117.458 32.0805 117.786C36.8248 123.124 47.3914 130.871 58.6034 130.871C63.3168 130.889 67.917 129.434 71.7551 126.712C72.0778 126.509 71.9713 126.307 71.4324 126.631" fill="#8B6F4B"/>
<path d="M115.635 109.457C116.013 109.496 116.226 109.701 116.226 109.538C116.226 108.519 114.125 106.888 112.885 106.888C112.596 106.881 112.312 106.966 112.075 107.132C109.112 108.927 104.907 112.432 102.051 114.519C99.5173 116.395 94.0178 120.063 91.4294 120.879C91.4294 119.697 94.0727 116.109 96.8192 113.418C98.6524 111.584 100.863 109.628 101.728 109.708C102.157 109.75 102.319 109.952 102.319 109.788C102.319 108.728 100.269 107.138 98.9783 107.138C98.7073 107.14 98.4434 107.225 98.2231 107.382C96.8741 108.198 94.673 110.035 92.8334 112.03C89.7609 115.242 86.7949 119.369 86.7949 121.123C86.7949 122.086 88.4667 123.204 89.3284 123.204H89.7609C92.9883 122.716 100.595 116.597 106.04 112.399C98.4394 119.003 91.1067 129.808 88.2892 134.455C87.3209 136.167 86.1849 137.963 86.03 139.186C85.8686 139.919 86.6754 142.164 88.8346 142C89.0391 142.016 89.2441 141.974 89.4252 141.878C90.0191 139.919 97.1355 131.356 104.843 126.708C104.842 126.674 104.835 126.641 104.821 126.61C104.807 126.579 104.787 126.551 104.762 126.528C104.737 126.505 104.707 126.488 104.675 126.477C104.643 126.466 104.609 126.462 104.575 126.464C103.009 126.83 95.1926 132.246 90.9356 136.697C94.1179 132.172 102.687 120.554 106.892 116.597C109.264 114.397 111.475 112.194 113.737 110.402C114.493 109.788 115.193 109.438 115.625 109.464" fill="#8B6F4B"/>
<path d="M89.8124 112.149C92.4556 111.506 94.6116 110.151 94.8794 109.579C94.2888 109.538 92.2975 111.127 88.6828 111.372C86.5269 111.497 85.2327 110.559 84.2064 109.294C83.8531 109.019 83.4151 108.875 82.9671 108.886C82.2667 108.927 80.6498 110.151 80.4884 110.559C80.2722 110.967 80.8111 112.187 81.0822 112.554C77.4708 116.729 69.7605 123.236 66.7428 122.298C63.7252 121.361 74.9889 107.582 84.7486 107.582C85.123 107.582 85.5554 107.662 86.0944 107.704C86.3107 107.704 86.472 107.704 86.2041 107.582C85.8233 107.337 84.9616 106.888 82.9122 106.888C74.3983 106.888 62.5795 113.533 62.5795 120.179C62.5795 121.73 64.1932 123.278 66.6751 123.39C72.3908 123.635 83.548 117.763 85.0036 112.342C85.5316 112.468 86.0744 112.523 86.6173 112.505C87.6877 112.507 88.7546 112.384 89.7963 112.139" fill="#8B6F4B"/>
<path d="M144.256 112.351C140.915 114.715 133.205 120.304 129.81 121.023C129.885 120.527 130.069 120.053 130.349 119.636C131.962 117.028 136.82 112.57 137.088 112.99C137.304 112.502 135.474 110.26 134.393 110.668C133.044 111.237 129.552 113.806 128.583 114.458C125.779 116.254 118.233 120.371 116.455 120.818C116.332 120.86 116.199 120.86 116.077 120.818C115.593 120.615 119.627 115.48 124.756 112.175C128.261 109.926 132.195 108.221 135.322 108.099C136.936 108.015 137.962 108.629 137.962 109.849C137.93 110.391 137.721 110.907 137.368 111.32C137.317 111.359 137.423 111.401 137.533 111.359C138.072 110.829 138.556 110.138 138.556 109.432C138.556 107.505 135.861 106.862 133.812 106.862C123.894 106.862 111.543 115.955 111.543 120.397C111.543 121.213 112.943 122.764 113.915 123.13C114.071 123.19 114.233 123.231 114.399 123.252C116.658 123.252 127.176 116.405 128.793 115.181C127.77 116.199 126.311 118.072 125.666 119.581C125.449 120.061 125.305 120.569 125.237 121.091C125.237 121.826 126.26 122.681 127.015 123.018C127.3 123.162 127.612 123.246 127.931 123.262C131.159 123.262 139.95 116.453 144.64 112.579C144.801 112.457 144.533 112.133 144.262 112.335" fill="#8B6F4B"/>
<path d="M60.7883 44.7446C60.7883 46.8098 62.4892 48.4832 65.9877 48.4832C67.1721 48.4832 67.3238 48.2873 67.3238 48.2873C66.091 48.2102 64.445 47.1599 64.445 45.6021C64.445 41.0477 84.0547 29.1734 103.406 29.1734C109.325 29.1734 117.149 31.1969 117.507 35.5586C118.023 42.5637 95.6831 50.6223 83.9418 51.0527C89.4477 45.7981 103.345 33.3007 106.534 34.428C105.604 33.6508 103.952 33.0277 102.106 33.0277C97.4743 33.0277 87.4371 42.0594 81.4664 48.0528C81.3216 47.8106 81.2129 47.5488 81.1436 47.2755C81.0669 47.0222 81.0563 46.7537 81.1128 46.4952C81.1693 46.2367 81.2909 45.9968 81.4664 45.7981C82.2926 45.0561 78.3777 46.1835 77.7096 48.7144C77.6064 49.1063 77.8646 49.7679 78.2777 50.664L78.481 51.0912C74.3112 55.6071 69.27 61.912 69.27 64.6004C69.27 65.262 69.4733 66.2352 71.0192 66.2352C72.8201 66.2352 74.8921 65.1046 76.0637 64.2085C74.8218 64.7762 73.4667 65.0563 72.1004 65.0275C71.6389 65.0275 71.584 64.8734 71.584 64.6389C71.584 63.7042 75.8055 59.0727 80.5917 54.2838C81.0048 54.7881 81.4147 55.2474 81.7245 55.5686C86.2429 60.6658 96.3415 68.066 107.047 68.066C111.553 68.0845 115.951 66.6948 119.621 64.0929C119.944 63.9002 119.824 63.7042 119.298 64.0158C116.265 65.7539 112.825 66.6667 109.325 66.6624C99.0816 66.6624 89.6124 59.2751 85.3909 54.5954C84.8437 53.9999 84.3451 53.3619 83.8998 52.6875C84.9294 52.7646 85.9589 52.8032 87.0369 52.8032C102.015 52.8032 121.164 44.3559 120.602 37.0361C120.037 29.9507 108.302 28.0428 101.354 28.0428C81.6406 28.0428 60.7948 37.7363 60.7948 44.7446" fill="#8B6F4B"/>
<path d="M106.824 126.397H110.281V126.837H108.786V131.471H108.318V126.837H106.824V126.397Z" fill="#8B6F4B"/>
<path d="M110.984 126.021H111.446V128.459C111.56 128.238 111.733 128.054 111.946 127.926C112.164 127.805 112.41 127.744 112.659 127.749C112.83 127.739 113 127.768 113.157 127.835C113.314 127.902 113.453 128.005 113.563 128.134C113.795 128.457 113.909 128.85 113.886 129.246V131.472H113.421V129.358C113.445 129.042 113.371 128.725 113.208 128.452C113.129 128.353 113.027 128.275 112.91 128.225C112.794 128.174 112.666 128.153 112.54 128.163C112.387 128.157 112.234 128.188 112.096 128.253C111.958 128.319 111.837 128.417 111.746 128.539C111.538 128.845 111.437 129.211 111.459 129.58V131.472H110.997L110.984 126.021Z" fill="#8B6F4B"/>
<path d="M117.826 129.467V129.731H115.244C115.233 130.117 115.363 130.495 115.609 130.794C115.734 130.922 115.885 131.021 116.052 131.084C116.22 131.148 116.399 131.175 116.577 131.163C116.743 131.162 116.908 131.141 117.068 131.099C117.239 131.05 117.404 130.983 117.562 130.9V131.353C117.402 131.422 117.235 131.475 117.065 131.51C116.889 131.544 116.711 131.561 116.532 131.561C116.296 131.574 116.06 131.535 115.841 131.447C115.622 131.358 115.425 131.223 115.264 131.051C114.937 130.65 114.774 130.143 114.806 129.628C114.781 129.134 114.938 128.647 115.248 128.26C115.391 128.091 115.57 127.957 115.772 127.868C115.975 127.778 116.195 127.736 116.416 127.743C116.613 127.736 116.81 127.774 116.99 127.855C117.17 127.936 117.329 128.057 117.455 128.208C117.728 128.57 117.864 129.016 117.839 129.467H117.826ZM117.391 129.393C117.389 129.057 117.283 128.729 117.087 128.456C117 128.349 116.889 128.265 116.762 128.209C116.636 128.153 116.499 128.128 116.361 128.134C116.22 128.133 116.08 128.162 115.951 128.221C115.823 128.28 115.709 128.367 115.619 128.475C115.405 128.738 115.282 129.062 115.267 129.4L117.391 129.393Z" fill="#8B6F4B"/>
<path d="M120.347 127.8V128.266L120.205 128.24H120.092C119.952 128.234 119.812 128.263 119.685 128.323C119.559 128.384 119.449 128.475 119.366 128.587C119.176 128.872 119.084 129.21 119.104 129.551V131.478H118.643V127.829H119.069V128.597C119.143 128.36 119.285 128.15 119.479 127.993C119.662 127.849 119.891 127.773 120.124 127.778H120.228H120.357" fill="#8B6F4B"/>
<path d="M123.849 129.467V129.731H121.267C121.255 130.117 121.383 130.494 121.628 130.794C121.753 130.921 121.905 131.02 122.072 131.084C122.239 131.148 122.418 131.175 122.597 131.163C122.762 131.162 122.927 131.141 123.087 131.099C123.259 131.051 123.424 130.984 123.581 130.9V131.353C123.421 131.422 123.255 131.475 123.084 131.51C122.909 131.544 122.732 131.561 122.555 131.561C122.318 131.575 122.081 131.536 121.862 131.447C121.642 131.359 121.444 131.224 121.283 131.051C120.957 130.65 120.793 130.143 120.825 129.628C120.801 129.133 120.959 128.647 121.27 128.26C121.412 128.091 121.591 127.958 121.793 127.868C121.995 127.778 122.214 127.736 122.435 127.743C122.633 127.736 122.829 127.774 123.009 127.855C123.189 127.936 123.349 128.057 123.474 128.208C123.75 128.569 123.887 129.015 123.862 129.467H123.849ZM123.413 129.393C123.411 129.057 123.304 128.729 123.106 128.456C123.019 128.35 122.909 128.265 122.783 128.21C122.658 128.154 122.521 128.128 122.384 128.134C122.242 128.133 122.102 128.163 121.973 128.222C121.844 128.281 121.73 128.367 121.638 128.475C121.427 128.739 121.304 129.063 121.286 129.4L123.413 129.393Z" fill="#8B6F4B"/>
<path d="M124.978 126.397H125.55L124.991 127.974H124.539L124.978 126.397Z" fill="#8B6F4B"/>
<path d="M128.503 127.91V128.34C128.235 128.218 127.945 128.155 127.651 128.157C127.455 128.147 127.26 128.198 127.095 128.305C127.031 128.345 126.978 128.402 126.941 128.469C126.904 128.536 126.885 128.611 126.886 128.687C126.886 128.902 127.121 129.12 127.596 129.329L127.699 129.377C127.985 129.495 128.246 129.666 128.467 129.882C128.609 130.041 128.685 130.247 128.68 130.46C128.686 130.607 128.656 130.753 128.593 130.886C128.53 131.019 128.436 131.135 128.319 131.224C128.038 131.425 127.696 131.525 127.35 131.507C127.18 131.508 127.009 131.494 126.841 131.465C126.686 131.438 126.534 131.394 126.389 131.333V130.9C126.538 130.974 126.695 131.032 126.857 131.073C127.009 131.11 127.165 131.128 127.321 131.128C127.55 131.141 127.777 131.079 127.967 130.951C128.042 130.902 128.103 130.836 128.145 130.757C128.188 130.679 128.21 130.591 128.209 130.502C128.212 130.358 128.162 130.218 128.067 130.11C127.856 129.931 127.617 129.788 127.36 129.686C127.083 129.571 126.83 129.408 126.611 129.204C126.484 129.06 126.416 128.873 126.421 128.68C126.419 128.555 126.448 128.432 126.504 128.32C126.56 128.208 126.642 128.112 126.744 128.038C126.995 127.861 127.298 127.772 127.605 127.788C127.764 127.787 127.922 127.797 128.08 127.816C128.225 127.835 128.369 127.866 128.509 127.91" fill="#8B6F4B"/>
<path d="M133.031 127.749C133.262 127.739 133.493 127.78 133.706 127.869C133.92 127.958 134.111 128.092 134.267 128.263C134.591 128.651 134.756 129.147 134.728 129.65C134.754 130.156 134.589 130.653 134.267 131.044C134.106 131.208 133.913 131.338 133.701 131.427C133.489 131.516 133.261 131.562 133.031 131.562C132.8 131.562 132.573 131.516 132.36 131.427C132.148 131.338 131.956 131.208 131.795 131.044C131.471 130.654 131.306 130.156 131.333 129.65C131.305 129.146 131.47 128.651 131.795 128.263C131.95 128.092 132.142 127.958 132.355 127.869C132.569 127.78 132.799 127.739 133.031 127.749ZM133.031 128.134C132.863 128.13 132.696 128.165 132.545 128.237C132.393 128.309 132.261 128.416 132.159 128.549C131.943 128.872 131.827 129.252 131.827 129.641C131.827 130.029 131.943 130.409 132.159 130.733C132.261 130.866 132.393 130.974 132.544 131.046C132.696 131.119 132.863 131.155 133.031 131.15C133.2 131.156 133.368 131.122 133.521 131.05C133.674 130.979 133.808 130.872 133.912 130.739C134.126 130.413 134.241 130.032 134.241 129.642C134.241 129.253 134.126 128.871 133.912 128.546C133.808 128.413 133.674 128.306 133.521 128.235C133.368 128.163 133.2 128.129 133.031 128.134Z" fill="#8B6F4B"/>
<path d="M138.617 129.246V131.472H138.156V129.358C138.179 129.041 138.104 128.725 137.94 128.452C137.861 128.353 137.758 128.275 137.642 128.225C137.525 128.174 137.398 128.153 137.272 128.163C137.119 128.157 136.966 128.188 136.828 128.253C136.69 128.319 136.569 128.417 136.478 128.539C136.269 128.845 136.168 129.211 136.19 129.58V131.472H135.729V127.829H136.155V128.517C136.27 128.282 136.447 128.083 136.668 127.942C136.89 127.809 137.145 127.742 137.404 127.749C137.574 127.738 137.745 127.768 137.902 127.835C138.059 127.902 138.198 128.004 138.308 128.134C138.54 128.457 138.654 128.849 138.63 129.246" fill="#8B6F4B"/>
<path d="M140.25 126.021H139.789V131.472H140.25V126.021Z" fill="#8B6F4B"/>
<path d="M140.954 127.829H141.445L142.503 130.99L143.568 127.829H144.033L142.568 132.005C142.48 132.301 142.328 132.575 142.122 132.808C142.041 132.887 141.944 132.95 141.837 132.991C141.731 133.032 141.617 133.052 141.503 133.048C141.441 133.053 141.38 133.053 141.319 133.048C141.255 133.042 141.191 133.031 141.128 133.016L141.164 132.608H141.183C141.277 132.625 141.372 132.637 141.467 132.644C141.552 132.644 141.636 132.624 141.711 132.586C141.787 132.549 141.853 132.493 141.903 132.425C142.071 132.178 142.196 131.904 142.274 131.616L140.954 127.829Z" fill="#8B6F4B"/>
<path d="M148.129 127.749C148.36 127.739 148.59 127.78 148.804 127.869C149.018 127.958 149.209 128.092 149.365 128.263C149.689 128.651 149.853 129.147 149.826 129.65C149.852 130.156 149.687 130.653 149.365 131.044C149.204 131.208 149.011 131.338 148.799 131.427C148.587 131.516 148.359 131.562 148.129 131.562C147.898 131.562 147.67 131.516 147.458 131.427C147.246 131.338 147.054 131.208 146.892 131.044C146.573 130.651 146.411 130.153 146.441 129.647C146.414 129.143 146.579 128.648 146.902 128.26C147.058 128.089 147.249 127.955 147.463 127.866C147.676 127.777 147.907 127.736 148.138 127.746L148.129 127.749ZM148.138 128.131C147.97 128.127 147.804 128.162 147.653 128.234C147.501 128.306 147.369 128.413 147.267 128.545C147.037 128.863 146.923 129.25 146.944 129.641C146.922 130.03 147.036 130.415 147.267 130.73C147.367 130.863 147.499 130.971 147.65 131.043C147.801 131.116 147.967 131.152 148.135 131.147C148.304 131.153 148.472 131.118 148.625 131.047C148.778 130.975 148.912 130.869 149.016 130.736C149.231 130.41 149.345 130.029 149.345 129.639C149.345 129.249 149.231 128.868 149.016 128.542C148.912 128.409 148.778 128.303 148.625 128.231C148.472 128.16 148.304 128.126 148.135 128.131" fill="#8B6F4B"/>
<path d="M153.715 129.246V131.471H153.254V129.358C153.278 129.042 153.203 128.725 153.041 128.452C152.961 128.353 152.858 128.275 152.741 128.224C152.624 128.174 152.496 128.153 152.369 128.163C152.216 128.158 152.064 128.189 151.926 128.254C151.788 128.32 151.667 128.417 151.575 128.539C151.367 128.845 151.266 129.211 151.288 129.58V131.471H150.827V127.829H151.253V128.517C151.368 128.282 151.545 128.083 151.766 127.942C151.988 127.809 152.243 127.742 152.502 127.749C152.672 127.738 152.843 127.767 153 127.834C153.157 127.901 153.296 128.004 153.405 128.134C153.638 128.457 153.751 128.849 153.728 129.246" fill="#8B6F4B"/>
<path d="M157.672 129.467V129.731H155.09C155.078 130.117 155.206 130.494 155.452 130.794C155.577 130.921 155.728 131.02 155.895 131.084C156.062 131.148 156.241 131.175 156.42 131.163C156.585 131.162 156.75 131.141 156.91 131.099C157.082 131.051 157.247 130.984 157.404 130.9V131.353C157.244 131.422 157.078 131.475 156.907 131.51C156.733 131.544 156.555 131.561 156.378 131.561C156.141 131.575 155.905 131.536 155.685 131.447C155.465 131.359 155.267 131.224 155.106 131.051C154.78 130.65 154.616 130.143 154.648 129.628C154.624 129.133 154.783 128.647 155.093 128.26C155.236 128.091 155.414 127.958 155.616 127.868C155.818 127.778 156.038 127.736 156.258 127.743C156.456 127.736 156.652 127.774 156.832 127.855C157.013 127.936 157.172 128.057 157.298 128.208C157.573 128.569 157.71 129.015 157.685 129.467H157.672ZM157.236 129.393C157.229 129.055 157.117 128.727 156.914 128.456C156.826 128.349 156.715 128.265 156.589 128.209C156.463 128.153 156.325 128.128 156.187 128.134C156.046 128.134 155.907 128.164 155.778 128.223C155.65 128.282 155.536 128.368 155.445 128.475C155.233 128.739 155.11 129.062 155.093 129.4L157.236 129.393Z" fill="#8B6F4B"/>
<path d="M159.166 130.829H158.569V131.471H159.166V130.829Z" fill="#8B6F4B"/>
</g>
<defs>
<clipPath id="clip0_1099_22512">
<rect width="188" height="142" fill="white"/>
</clipPath>
</defs>
</svg>
