<svg width="236" height="131" viewBox="0 0 236 131" fill="none" xmlns="http://www.w3.org/2000/svg">
<path d="M98.5048 61.4802C96.3546 61.6302 94.363 61.0507 92.3414 60.4131C90.1828 59.7323 88.6675 57.8814 86.4405 57.3713C86.1367 57.3009 85.8732 56.9671 85.9173 56.6061C85.9632 56.217 86.3674 56.3389 86.6196 56.247C86.9281 56.1335 87.2525 56.0529 87.5498 55.916C88.4706 55.4921 88.5428 55.0833 87.7355 54.5394C87.2619 54.2188 86.8981 53.9121 86.8606 53.2989C86.8231 52.6931 86.3505 52.6088 85.8732 52.6078C82.6166 52.6031 79.3601 52.6041 76.1025 52.6097C75.5709 52.6106 75.102 52.7353 75.0383 53.3861C74.9867 53.9149 75.0823 54.3613 75.6553 54.5938C75.9713 54.7223 76.5076 54.6988 76.4664 55.1855C76.4317 55.6 75.9281 55.6328 75.6112 55.8053C75.4705 55.8822 75.3149 55.9516 75.3655 56.1569C75.6543 56.3079 76.1382 56.4064 76.1916 56.6145C76.5451 57.9967 77.766 58.2227 78.7974 58.7215C79.0103 58.8247 79.2344 59.0047 79.3413 59.2082C79.888 60.249 80.8707 60.6016 81.9021 60.7028C83.4296 60.8547 84.3523 62.1938 85.9435 62.3185C85.0518 63.2871 84.2585 63.1924 83.4324 62.7189C83.0048 62.4732 82.5979 62.1684 82.0568 62.2753C79.5016 62.7808 76.8686 62.6523 74.3294 63.1033C72.0686 63.5065 70.2523 62.4113 67.9147 62.1066C68.5195 61.7643 68.8242 61.5927 69.2509 61.3508C67.4365 60.9457 65.7542 61.0095 64.0777 60.9382C62.0588 60.8529 60.0212 60.6663 58.294 59.482C57.6451 59.0366 57.015 58.8247 56.2555 58.7468C55.029 58.6231 53.8166 58.3605 52.5901 58.2274C51.6918 58.1289 51.6149 57.4069 51.4949 56.819C51.3458 56.0857 52.1016 56.3764 52.4401 56.1963C52.8733 55.9657 53.3637 55.8391 53.7903 55.5981C54.1429 55.3993 54.2254 54.968 53.8288 54.8236C52.9155 54.4916 52.4429 53.9328 52.3369 52.9566C52.2994 52.6116 51.8146 52.6097 51.4864 52.6087C48.2711 52.6031 45.0558 52.5872 41.8395 52.6172C40.9337 52.6256 40.479 53.523 40.9403 54.2638C41.1841 54.6538 41.622 54.7026 42.013 54.8095C42.9601 55.0664 43.4495 55.825 43.698 56.6333C43.9643 57.4988 42.9666 57.5719 42.5278 57.9986C42.48 58.0445 42.479 58.1392 42.435 58.2771C44.6995 58.9456 46.798 60.2321 49.2763 60.0343C50.7729 59.9152 52.0087 60.8107 52.8855 61.604C54.1195 62.7189 55.3525 63.3715 56.9288 63.5628C60.206 63.9585 63.4344 64.582 66.6235 65.4513C68.5729 65.9829 70.6002 66.1273 72.6209 66.2061C77.4922 66.3965 82.1975 65.2722 86.9328 64.3842C87.125 64.3486 87.4663 64.1648 87.4607 64.1488C87.0022 62.8567 88.089 63.5675 88.3562 63.5525C89.0913 63.514 89.8237 63.7147 90.4951 64.0635C92.1201 64.9065 93.8492 65.4588 95.6467 65.7504C100.323 66.508 105.001 67.2629 109.689 67.9436C113.143 68.4453 116.585 69.0548 120.121 68.6319C127.25 67.7786 134.275 66.3693 141.288 64.8793C141.93 64.7424 142.712 64.6824 143.151 64.282C144.609 62.9514 146.23 63.5309 147.828 63.6603C147.941 63.6697 148.068 63.7428 148.016 63.8835C147.801 64.2182 147.263 63.9913 147.127 64.4526C155.753 66.8344 164.311 66.4433 172.883 64.147C172.629 63.5618 171.932 63.8338 171.559 63.2412C176.815 63.3856 181.67 62.0044 186.574 60.9335C187.373 60.7591 188.011 60.3906 188.686 59.8308C189.506 59.1482 189.714 57.8073 190.854 57.6244C192.781 57.315 193.491 55.3777 195.089 54.6651C195.252 54.592 195.297 54.3097 195.172 54.2413C194.329 53.778 193.893 52.6397 192.819 52.6238C189.562 52.5759 186.305 52.6041 183.048 52.6097C182.72 52.6106 182.342 52.6163 182.206 52.9895C182.042 53.4377 182.367 53.6833 182.711 53.854C183.673 54.3294 183.376 54.636 182.628 55.0345C181.962 55.3899 181.837 55.9169 182.645 56.2685C183.488 56.6352 183.078 56.9118 182.606 57.1153C181.921 57.4097 181.178 57.481 180.432 57.5307C179.283 57.6066 178.113 57.6404 177.025 58.0473C176.54 58.2292 175.724 58.5152 176.224 59.2382C176.936 60.2668 176.199 60.3878 175.551 60.5041C172.19 61.107 168.819 61.663 165.452 62.2416C163.817 62.521 162.107 62.1759 160.53 62.5679C156.789 63.4962 153.161 62.2688 149.465 62.3204C150.12 61.9837 150.774 61.7305 151.451 61.5749C152.847 61.2542 154.273 61.2261 155.133 59.6517C156.231 57.6432 158.628 56.9155 160.054 55.1752C160.254 54.9314 160.631 54.8198 160.604 54.4213C160.588 54.1934 158.622 52.6069 158.349 52.6069C155.133 52.6022 151.917 52.6003 148.702 52.6097C148.337 52.6106 147.928 52.6125 147.782 53.0635C147.669 53.4161 147.791 53.7293 148.074 53.945C148.638 54.3735 148.676 54.7176 148.074 55.1911C147.572 55.5859 147.594 56.0407 148.295 56.2723C148.581 56.3679 149.055 56.2723 148.984 56.7711C148.929 57.1593 148.521 57.1978 148.206 57.2681C146.928 57.5532 145.862 58.2536 144.791 58.9588C143.003 60.1355 141.317 61.347 139.005 61.6302C137.346 61.8328 135.751 62.6748 133.984 62.7489C132.508 62.8098 131.039 63.0714 129.569 63.2702C129.31 63.3049 128.766 63.424 128.872 63.5834C129.31 64.2435 128.76 64.1245 128.47 64.177C127.215 64.4048 125.95 64.5858 124.698 64.8315C119.846 65.7823 114.982 66.1133 110.089 65.1512C107.221 64.5867 104.452 63.5684 101.52 63.2852C101.031 63.2383 100.466 63.3734 99.9432 62.9327C100.321 62.6317 100.63 62.3851 101.053 62.0475C100.143 61.5168 99.3215 61.423 98.5048 61.4802Z" fill="#2A8CD4"/>
<path d="M147.613 49.4833C147.612 48.164 147.595 46.8447 147.618 45.5254C147.633 44.6299 147.283 43.5619 148.62 43.2084C148.747 43.1746 148.877 42.867 148.877 42.6879C148.873 41.2223 149.14 39.7558 148.364 38.3418C141.526 25.8668 131.716 16.5594 118.853 10.4635C117.757 9.944 116.851 9.94306 115.726 10.4719C102.803 16.5641 92.9829 25.9137 86.1096 38.4121C85.3332 39.8252 85.6146 41.2936 85.623 42.7601C85.6239 42.9055 85.7271 43.1521 85.8302 43.1812C87.2752 43.5872 86.857 44.7668 86.8673 45.7223C86.8964 48.5663 86.8401 51.4122 86.8964 54.2552C86.9179 55.3476 86.6113 55.8174 85.4401 55.794C82.3908 55.7349 79.3396 55.749 76.2893 55.7893C75.2794 55.8024 74.8968 55.4405 74.9099 54.4203C74.9503 51.2049 74.9259 47.9887 74.924 44.7743C74.924 44.1789 74.9353 43.605 75.6507 43.3734C76.0173 43.2543 76.1139 42.9355 76.1242 42.5839C76.1289 42.4188 76.1552 42.251 76.1327 42.0897C75.5879 38.3652 76.9879 35.2174 78.8201 32.0818C86.2606 19.3518 96.4664 9.5783 109.631 2.9273C111.503 1.98118 113.498 1.28167 115.405 0.40118C116.702 -0.197998 117.891 -0.0732841 119.199 0.428379C126.631 3.27613 133.317 7.36537 139.379 12.4842C146.677 18.6495 152.456 26.0337 156.993 34.4391C158.124 36.5339 158.507 38.64 158.395 40.9485C158.347 41.9444 157.986 43.1174 159.317 43.7307C159.594 43.8582 159.53 44.3298 159.531 44.658C159.535 47.9146 159.515 51.1712 159.545 54.4268C159.555 55.4508 159.117 55.7987 158.128 55.7865C155.077 55.7518 152.027 55.7508 148.977 55.7874C147.983 55.7996 147.558 55.4705 147.597 54.4296C147.659 52.7831 147.613 51.1318 147.613 49.4833ZM40.5532 54.2627C40.5157 55.3645 40.9142 55.8127 42.0582 55.793C45.0653 55.7386 48.0753 55.7424 51.0824 55.7921C52.1589 55.809 52.5283 55.4264 52.5087 54.3509C52.4552 51.3428 52.4927 48.3337 52.489 45.3257C52.488 44.4883 52.7103 43.5591 51.5269 43.229C51.2287 43.1465 51.2859 42.7442 51.2568 42.4601C51.1715 41.6452 51.4256 40.9279 51.8185 40.2256C57.0499 30.8675 64.5101 23.8967 74.1842 19.2805C74.9606 18.9111 75.6507 18.8886 76.4168 19.2768C78.145 20.1516 79.9022 20.9777 81.5019 22.0767C82.2258 22.5746 82.6974 22.5446 83.2431 21.8151C84.6497 19.9332 86.1603 18.129 87.8537 16.4975C88.5983 15.7811 88.5167 15.3573 87.6718 14.8087C84.4115 12.6914 80.9758 10.9389 77.3845 9.44797C75.8429 8.80846 74.5133 8.91349 73.0149 9.5211C61.9193 14.0192 52.9813 21.1943 46.3668 31.1554C44.0789 34.5995 41.2733 37.9648 41.9578 42.6101C42.0085 42.958 41.8481 43.289 41.4599 43.3593C40.5626 43.5215 40.5644 44.1854 40.5654 44.8662C40.5682 46.4321 40.5663 47.999 40.5663 49.564C40.5663 51.1309 40.6066 52.6977 40.5532 54.2627ZM181.993 54.5769C181.976 55.4076 182.285 55.7827 183.138 55.7771C186.353 55.7583 189.566 55.7621 192.781 55.7733C193.556 55.7752 193.916 55.4255 193.915 54.6575C193.912 51.279 193.919 47.9005 193.911 44.5211C193.911 44.1095 193.901 43.6003 193.403 43.5056C192.405 43.3162 192.513 42.5951 192.512 41.8937C192.509 40.2556 192.548 38.6728 191.707 37.1068C188.062 30.3189 183.514 24.2671 177.615 19.2786C172.666 15.0947 167.208 11.7612 161.158 9.40014C159.861 8.89379 158.714 8.82722 157.372 9.35514C153.749 10.7795 150.32 12.5489 147.062 14.6624C145.812 15.4726 145.79 15.5682 146.85 16.6691C148.424 18.3025 149.924 20.0025 151.289 21.8095C151.848 22.5484 152.303 22.5615 153.025 22.088C154.611 21.0499 156.289 20.1676 157.991 19.3274C158.796 18.9289 159.512 18.8876 160.337 19.273C165.967 21.9032 170.899 25.4917 175.189 29.9758C178.082 32.9998 180.502 36.3717 182.546 40.0184C183.118 41.0386 183.52 42.3054 182.747 43.1362C182.073 43.8619 182.003 44.5024 182.001 45.306C181.996 46.7069 182 48.1087 182.001 49.5087C182.002 51.1984 182.025 52.8881 181.993 54.5769Z" fill="#002047"/>
<path d="M101.462 89.3262C101.668 89.5784 101.879 89.8288 102.081 90.0838C105.432 94.3175 108.804 98.5352 112.116 102.8C112.816 103.701 113.179 103.601 113.831 102.767C117.107 98.5783 120.432 94.429 123.751 90.2751C124.038 89.916 124.267 89.4677 124.856 89.2024C124.856 94.325 124.826 99.3087 124.866 104.291C124.894 107.895 124.201 107.457 128.21 107.483C128.292 107.483 128.375 107.475 128.457 107.476C129.192 107.489 129.458 107.119 129.457 106.4C129.444 99.0209 129.444 91.6422 129.457 84.2636C129.458 83.5331 129.163 83.1965 128.44 83.2003C127.575 83.2059 126.701 83.2715 125.846 83.1749C124.54 83.0287 123.727 83.5894 122.948 84.5974C119.971 88.4429 116.895 92.2114 113.901 96.0437C113.235 96.8951 112.863 97.0742 112.105 96.085C109.524 92.7159 106.674 89.539 104.266 86.0536C102.658 83.7263 100.816 82.8214 98.0856 83.1599C96.5084 83.3559 96.4418 83.2462 96.4409 84.8825C96.4371 91.3553 96.4212 97.8263 96.4465 104.298C96.4615 107.94 95.9289 107.407 99.6834 107.506C100.916 107.539 101.219 107.034 101.207 105.899C101.162 101.489 101.188 97.0771 101.188 92.6671V89.3655C101.28 89.3524 101.371 89.3393 101.462 89.3262ZM179.775 94.2687C176.781 94.3015 177.125 93.8261 177.033 96.9533C176.996 98.1835 177.373 98.6402 178.64 98.6036C181.317 98.5267 183.998 98.5905 186.678 98.5764C187.467 98.5717 187.659 98.8268 187.229 99.5197C186.725 100.334 186.131 101.061 185.381 101.661C181.497 104.765 173.816 104.488 170.16 101.108C166.605 97.8225 166.801 92.3005 170.582 89.2661C174.669 85.9852 181.599 85.8548 185.775 89.3074C187.318 90.5836 188.37 90.5761 189.939 89.6609C191.965 88.4804 191.982 88.5301 190.218 86.8722C184.657 81.6456 176.08 81.383 170.204 84.242C165.68 86.4418 162.863 89.9835 162.805 95.1942C162.748 100.389 165.408 104.017 169.914 106.323C173.356 108.085 177.064 108.389 180.874 108.017C188.252 107.296 193.221 102.384 193.588 95.4324C193.633 94.5612 193.388 94.2415 192.513 94.2537C190.122 94.2884 187.731 94.2659 185.34 94.2649C183.485 94.264 181.63 94.2471 179.775 94.2687ZM23.7834 106.002C26.2974 104.563 27.5548 102.356 27.4432 99.4653C27.3344 96.6073 25.6654 94.8716 23.1064 93.8796C22.4932 93.6423 21.8631 93.437 21.2264 93.2766C18.5333 92.6015 15.77 92.5105 13.0197 92.2986C11.0534 92.1476 9.05991 92.1392 7.17235 91.4519C6.35844 91.1556 5.72362 90.6736 5.68142 89.689C5.63923 88.7045 6.23279 88.17 7.01575 87.8034C7.53336 87.5624 8.08565 87.3467 8.64545 87.2482C12.8397 86.5084 16.9271 86.9041 20.8991 88.4691C23.5256 89.5043 23.5003 89.4659 25.4122 87.373C26.1417 86.575 25.9382 86.183 25.1121 85.6908C23.143 84.5168 21.0435 83.6869 18.8043 83.2481C14.2931 82.3638 9.80162 82.2316 5.41138 83.8904C4.123 84.3771 2.99121 85.1366 2.10416 86.2065C-0.6245 89.4987 0.66575 94.1487 4.70248 95.4989C7.94687 96.5838 11.3488 96.5951 14.7095 96.8792C16.5539 97.0358 18.418 97.0724 20.2127 97.5806C21.3389 97.8994 22.2616 98.5136 22.4069 99.8076C22.556 101.134 21.8255 101.991 20.7481 102.597C19.5038 103.298 18.1311 103.576 16.7255 103.695C11.9658 104.1 7.43959 103.339 3.27627 100.896C2.57207 100.483 2.09572 100.517 1.63719 101.223C1.21055 101.878 0.712637 102.487 0.230667 103.104C-0.121902 103.555 -0.0722083 103.942 0.392883 104.251C1.00894 104.662 1.62126 105.085 2.27201 105.436C6.00399 107.449 10.0585 107.992 14.1046 108.032C17.5488 108.003 20.8194 107.697 23.7834 106.002ZM29.9309 105.738C29.9346 107.406 30.0134 107.483 31.6731 107.484C38.0606 107.489 44.4481 107.486 50.8356 107.486C53.433 107.486 53.433 107.486 53.4058 104.835C53.388 103.24 53.3524 103.2 51.7096 103.199C46.4763 103.196 41.2422 103.179 36.009 103.214C35.0178 103.221 34.5649 102.946 34.6268 101.889C34.6943 100.74 34.6868 99.5807 34.6296 98.4292C34.579 97.424 34.9484 97.0255 35.9799 97.0442C38.5341 97.0921 41.0893 97.0714 43.6445 97.0555C46.7004 97.0367 46.4482 97.4259 46.4904 94.1777C46.5045 93.1228 46.1425 92.7365 45.052 92.759C42.0045 92.8209 38.9533 92.7478 35.9049 92.7975C34.9194 92.8134 34.5649 92.4543 34.6324 91.5025C34.684 90.7646 34.6399 90.0191 34.6418 89.2774C34.6456 87.4864 34.6456 87.4827 36.3859 87.4817C40.8362 87.4799 45.2864 87.4949 49.7376 87.4761C52.6566 87.4639 52.4081 87.8877 52.4719 84.7624C52.4963 83.6044 52.139 83.1637 50.9294 83.1721C44.4603 83.2171 37.9903 83.1899 31.5203 83.1965C30.0462 83.1974 29.9365 83.3118 29.9328 84.8459C29.9225 88.3078 29.929 91.7688 29.929 95.2308C29.929 98.733 29.9243 102.236 29.9309 105.738ZM215.481 102.111C210.96 99.41 210.235 93.3976 213.99 89.7359C217.717 86.1015 225.707 85.6401 230.173 89.1367C231.867 90.4617 233.206 90.5255 234.901 89.6712C235.01 89.6159 235.126 89.5662 235.245 89.5353C236.228 89.2802 236.154 88.8011 235.576 88.1503C234.308 86.7194 232.89 85.477 231.188 84.5862C227.158 82.4764 222.89 82.0253 218.461 82.8139C214.437 83.5303 211.024 85.3682 208.718 88.7889C204.454 95.1135 207.213 103.528 214.537 106.622C219.502 108.717 224.578 108.597 229.626 106.898C231.767 106.177 233.551 104.82 235.127 103.216C236.14 102.183 236.108 102.046 234.897 101.351C234.254 100.983 233.588 100.653 232.952 100.272C232.419 99.9529 231.983 99.9632 231.518 100.42C228.976 102.917 225.832 103.773 221.533 103.725C219.461 103.725 217.36 103.232 215.481 102.111ZM84.8736 107.696C86.6917 107.689 86.7377 107.625 85.9032 106.047C82.4544 99.5291 78.8311 93.0966 75.6318 86.4597C74.3359 83.7713 72.7428 82.8402 69.9428 83.1853C68.8504 83.3203 68.1734 83.5688 67.6361 84.6002C63.9857 91.6169 60.2697 98.5989 56.5677 105.588C55.4481 107.702 55.4528 107.524 57.8111 107.746C60.0896 107.961 61.2458 107.093 62.2369 105.077C64.854 99.757 67.7205 94.5584 70.4942 89.3149C70.6611 88.9998 70.7586 88.501 71.1553 88.5019C71.566 88.5029 71.625 89.0223 71.7919 89.3327C72.9603 91.511 74.1099 93.6995 75.2651 95.8843C76.366 97.9669 76.366 97.9669 74.0621 97.9754C71.8182 97.9829 70.6245 98.7883 69.8097 100.845C69.2902 102.152 69.4083 102.343 70.7924 102.35C73.0588 102.359 75.3261 102.376 77.5915 102.34C78.3426 102.329 78.8236 102.556 79.1537 103.256C79.6619 104.336 80.3202 105.348 80.7853 106.445C81.2063 107.438 81.8589 107.827 82.896 107.703C83.2205 107.664 83.5543 107.696 83.8843 107.696C84.2135 107.696 84.5435 107.697 84.8736 107.696ZM149.785 102.352C150.485 102.352 151.204 102.452 151.883 102.334C153.837 101.993 154.833 102.862 155.629 104.613C157.062 107.77 157.173 107.721 160.684 107.696C162.359 107.685 162.427 107.599 161.675 106.178C158.209 99.6182 154.558 93.1482 151.346 86.4662C150.048 83.7647 148.456 82.8449 145.658 83.1871C144.567 83.3193 143.885 83.5631 143.346 84.6002C139.774 91.4772 136.142 98.3232 132.507 105.166C130.995 108.014 131.062 107.56 134.038 107.74C135.932 107.855 136.88 107.162 137.719 105.491C140.453 100.039 143.374 94.6813 146.238 89.2952C146.399 88.9933 146.453 88.4813 146.9 88.5057C147.251 88.5263 147.312 88.9783 147.462 89.2596C148.645 91.4781 149.823 93.6995 150.993 95.9246C152.063 97.9613 152.058 97.9641 149.716 97.9754C147.382 97.9857 145.884 99.1672 145.331 101.361C145.15 102.078 145.341 102.362 146.074 102.352C147.311 102.335 148.548 102.347 149.785 102.347V102.352ZM202.426 86.0705C202.395 82.9068 202.959 83.2096 199.522 83.1965C197.86 83.1899 197.837 83.2237 197.837 84.9622C197.835 91.4284 197.814 97.8957 197.845 104.362C197.862 107.865 197.264 107.423 201.008 107.503C202.181 107.529 202.469 107.054 202.453 105.964C202.399 102.423 202.433 98.8802 202.433 95.3377C202.433 92.2489 202.456 89.1592 202.426 86.0705Z" fill="#002047"/>
<path d="M67.1315 116.018C68.5268 116.018 69.6314 116.405 70.4481 117.178C71.2648 117.951 71.6737 118.984 71.6737 120.278C71.6737 121.636 71.2498 122.672 70.4012 123.388C69.5535 124.105 68.3196 124.462 66.6983 124.462H58.5751V129.665H56.3125V116.018H67.1315ZM66.7367 122.428C68.4818 122.428 69.3566 121.724 69.3566 120.317C69.3566 118.809 68.4321 118.054 66.5848 118.054H58.5751V122.428H66.7367Z" fill="#2A8CD4"/>
<path d="M89.7471 129.665H87.1169L83.4234 124.463H76.5342V129.665H74.2734V116.018H85.0352C86.4671 116.018 87.5923 116.405 88.409 117.178C89.2258 117.951 89.6337 118.997 89.6337 120.316C89.6337 121.473 89.3017 122.402 88.635 123.106C88.019 123.76 87.1713 124.174 86.0911 124.35L89.7471 129.665ZM84.6958 122.428C86.4427 122.428 87.3166 121.724 87.3166 120.317C87.3166 118.809 86.3743 118.055 84.4886 118.055H76.5342V122.428H84.6958Z" fill="#2A8CD4"/>
<path d="M107.558 129.665H93.2715V116.018H107.031V118.055H95.5332V121.56H103.525V123.596H95.5332V127.63H107.558V129.665Z" fill="#2A8CD4"/>
<path d="M129.722 129.665H127.461V118.507H127.404L120.318 127.404L113.287 118.507H113.23V129.665H110.969V116.018H113.797L120.336 124.264L126.905 116.018H129.722V129.665Z" fill="#2A8CD4"/>
<path d="M136.547 129.664H134.285V116.018H136.547V129.664Z" fill="#2A8CD4"/>
<path d="M156.468 125.255C156.468 126.675 155.777 127.825 154.394 128.704C152.987 129.621 151.109 130.08 148.759 130.08C146.409 130.08 144.519 129.621 143.086 128.704C141.704 127.812 141.014 126.662 141.014 125.255V116.018H143.273V124.708C143.273 125.776 143.743 126.593 144.679 127.158C145.615 127.723 146.975 128.006 148.759 128.006C150.542 128.006 151.896 127.723 152.821 127.158C153.744 126.593 154.206 125.776 154.206 124.708V116.018H156.468V125.255Z" fill="#2A8CD4"/>
<path d="M179.687 129.665H177.426V118.507H177.37L170.283 127.404L163.252 118.507H163.195V129.665H160.934V116.018H163.762L170.302 124.264L176.87 116.018H179.687V129.665Z" fill="#2A8CD4"/>
</svg>
