<svg width="232" height="110" viewBox="0 0 232 110" fill="none" xmlns="http://www.w3.org/2000/svg">
<path d="M48.9355 92.4826H49.2687C49.2687 95.3929 51.2013 97.7351 53.4003 97.7351C55.1993 97.7351 56.465 95.8615 56.465 93.4861C56.465 87.2963 48.9355 86.7954 48.9355 79.7694C48.9355 76.6256 50.6019 74.0822 53.5668 74.0822C55.0996 74.0822 56.1987 74.6841 56.9646 75.6214C57.4643 75.6214 57.8642 75.2206 57.8642 74.4167H58.1973V79.4349H57.8642C57.8642 76.7258 56.0989 74.5177 54.0665 74.5177C52.2674 74.5177 51.3341 76.0568 51.3341 78.4314C51.3341 84.6874 58.8635 85.19 58.8635 92.1481C58.8635 95.4599 57.0314 98.1698 53.8991 98.1698C52.1 98.1698 50.8014 97.4006 49.9679 96.1628C49.6018 96.2962 49.2687 96.7648 49.2687 97.8353H48.9355V92.4826Z" fill="#002047"/>
<path d="M73.8231 92.8171C73.8231 95.7613 72.024 98.1698 69.8258 98.1698C66.7265 98.1698 64.4945 95.7613 64.4945 92.8171V74.752H63.1621V74.4167H68.4926V74.752H67.1602V92.8171C67.1602 95.5948 68.1595 97.8353 69.8258 97.8353C71.8582 97.8353 73.49 95.5948 73.49 92.8171V74.752H72.1567V74.4167H75.322V74.752C74.2559 74.752 73.8231 75.1867 73.8231 75.7555V92.8171Z" fill="#002047"/>
<path d="M82.9851 74.417L89.1821 91.0778V74.7515H87.8489V74.417H91.0142V74.7515C89.9481 74.7515 89.5152 75.1869 89.5152 75.7549V97.8356H88.9818L81.2528 76.9935V97.5011H82.5852V97.8356H79.4199V97.5011C80.486 97.5011 80.9205 97.0664 80.9205 96.4968V75.7549C80.9205 75.1869 80.486 74.7515 79.4199 74.7515V74.417H82.9851Z" fill="#002047"/>
<path d="M95.5762 92.4826H95.9093C95.9093 95.3929 97.8419 97.7351 100.041 97.7351C101.84 97.7351 103.106 95.8615 103.106 93.4861C103.106 87.2963 95.5762 86.7954 95.5762 79.7694C95.5762 76.6256 97.2425 74.0822 100.207 74.0822C101.74 74.0822 102.839 74.6841 103.606 75.6214C104.105 75.6214 104.505 75.2206 104.505 74.4167H104.838V79.4349H104.505C104.505 76.7258 102.74 74.5177 100.707 74.5177C98.9088 74.5177 97.9755 76.0568 97.9755 78.4314C97.9755 84.6874 105.504 85.19 105.504 92.1481C105.504 95.4599 103.672 98.1698 100.541 98.1698C98.7415 98.1698 97.4428 97.4006 96.6093 96.1628C96.2432 96.2962 95.9093 96.7648 95.9093 97.8353H95.5762V92.4826Z" fill="#002047"/>
<path d="M119.729 79.1016H119.396C119.396 76.6923 118.43 74.7516 117.23 74.7516H114.066V85.9595H116.065C116.798 85.9595 117.397 84.7549 117.397 83.2828H117.73V88.97H117.397C117.397 87.4979 116.798 86.294 116.065 86.294H114.066V97.5012H117.23C118.43 97.5012 119.396 95.5613 119.396 93.152H119.729V97.8357H110.068V97.5012H111.401V74.7516H110.068V74.4171H119.729V79.1016Z" fill="#002047"/>
<path d="M136.121 74.417V79.1015H135.787C135.787 76.6922 134.822 74.7515 133.621 74.7515H131.457V97.5011H132.789V97.8356H127.46V97.5011H128.793V74.7515H126.627C125.427 74.7515 124.459 76.6922 124.459 79.1015H124.127V74.417H136.121Z" fill="#002047"/>
<path d="M157.808 74.7519H156.476V74.4174H159.741V74.7519C158.675 74.7519 158.041 75.2544 157.875 76.0236L153.212 98.1705H152.678L147.547 74.7519H146.215V74.4174H151.644V74.7519H150.278L154.11 92.2482L157.808 74.7519Z" fill="#002047"/>
<path d="M160.307 97.501C161.373 97.501 162.007 96.9992 162.173 96.23L166.838 74.0823H167.369L172.501 97.501H173.834V97.8354H168.436V97.501H169.77L168.37 90.9775H163.605L162.239 97.501H163.506V97.8354H160.307V97.501ZM163.671 90.643H168.304L165.937 80.0046L163.671 90.643Z" fill="#002047"/>
<path d="M177.496 97.8357V97.5012H178.829V74.7516H177.496V74.4171H182.827V74.7516H181.495V97.5012H184.659C185.859 97.5012 186.824 95.5613 186.824 93.152H187.159V97.8357H177.496Z" fill="#002047"/>
<path d="M191.391 97.8356V97.5011H192.723V74.7515H191.391V74.417H196.72V74.7515H195.387V97.5011H198.553C199.752 97.5011 200.718 95.5612 200.718 93.1518H201.051V97.8356H191.391Z" fill="#002047"/>
<path d="M214.941 79.1015H214.609C214.609 76.6922 213.642 74.7515 212.443 74.7515H209.278V85.9594H211.277C212.01 85.9594 212.61 84.7548 212.61 83.2827H212.942V88.9699H212.61C212.61 87.4978 212.01 86.2939 211.277 86.2939H209.278V97.5011H212.443C213.642 97.5011 214.609 95.5612 214.609 93.1518H214.941V97.8356H205.281V97.5011H206.614V74.7515H205.281V74.417H214.941V79.1015Z" fill="#002047"/>
<path d="M223.936 97.501V87.3312L220.372 74.7521H219.041V74.4168H224.371V74.7521H223.037L226.436 86.7955L230.034 74.7521H228.734V74.4168H232V74.7521C230.833 74.7521 230.201 75.3209 230.001 75.9899L226.603 87.3643V97.501H227.935V97.8354H222.605V97.501H223.936Z" fill="#002047"/>
<path d="M50.214 109.833V104.149H49.8809V104.066H51.2125C52.112 104.066 52.7107 104.668 52.7107 105.404V105.57C52.7107 106.356 52.0366 106.716 51.4615 106.866C52.0366 107.016 52.794 107.375 52.794 108.161V108.58C52.794 109.314 52.1945 109.916 51.295 109.916H49.8809V109.833H50.214ZM52.0453 105.404C52.0453 104.71 51.6697 104.149 51.2125 104.149H50.8794V106.824H51.2125C51.6697 106.824 52.0453 106.314 52.0453 105.57V105.404ZM52.1285 108.161C52.1285 107.417 51.6697 106.907 51.2125 106.907H50.8794V109.833H51.295C51.753 109.833 52.1285 109.273 52.1285 108.58V108.161Z" fill="#7D6240"/>
<path d="M60.99 109.833V107.292L60.0999 104.149H59.7676V104.066H61.0984V104.149H60.7653L61.6146 107.158L62.5133 104.149H62.1889V104.066H63.0044V104.149C62.7129 104.149 62.555 104.292 62.5047 104.459L61.6562 107.301V109.833H61.9885V109.916H60.6577V109.833H60.99Z" fill="#7D6240"/>
<path d="M80.5294 108.663V109.916H80.4453C80.4453 109.715 80.3463 109.615 80.2293 109.615C80.047 109.849 79.7964 109.999 79.4476 109.999C78.757 109.999 78.1992 109.398 78.1992 108.663V105.32C78.1992 104.584 78.757 103.983 79.4476 103.983C79.7964 103.983 80.047 104.125 80.2293 104.367C80.3463 104.367 80.4453 104.266 80.4453 104.066H80.5294V105.32H80.4453C80.4453 104.602 80.0219 104.066 79.5309 104.066C79.1145 104.066 78.8646 104.626 78.8646 105.32V108.663C78.8646 109.356 79.1145 109.916 79.5309 109.916C80.0219 109.916 80.4453 109.382 80.4453 108.663H80.5294Z" fill="#7D6240"/>
<path d="M87.5762 109.833C87.8425 109.833 88.0004 109.707 88.0428 109.515L89.2079 103.983H89.3407L90.622 109.833H90.9551V109.916H89.607V109.833H89.9393L89.5905 108.203H88.4003L88.0593 109.833H88.3752V109.916H87.5762V109.833ZM88.4168 108.119H89.574L88.9824 105.461L88.4168 108.119Z" fill="#7D6240"/>
<path d="M99.0356 107.075V109.833H99.3688V109.916H98.0371V109.833H98.3702V104.15H98.0371V104.066H99.3688C100.268 104.066 100.867 104.668 100.867 105.403V105.738C100.867 106.356 100.434 106.883 99.7686 107.033C100.434 107.183 100.867 107.71 100.867 108.328V109.457C100.867 109.615 100.942 109.74 101.033 109.74C101.125 109.74 101.199 109.615 101.199 109.457H101.283C101.283 109.757 101.042 110 100.742 110C100.442 110 100.202 109.757 100.202 109.457V108.328C100.202 107.635 99.826 107.075 99.3688 107.075H99.0356ZM99.0356 104.15V106.992H99.3688C99.826 106.992 100.202 106.431 100.202 105.738V105.403C100.202 104.71 99.826 104.15 99.3688 104.15H99.0356Z" fill="#7D6240"/>
<path d="M109.422 107.075V109.833H109.756V109.916H108.424V109.833H108.757V104.15H108.424V104.066H109.756C110.654 104.066 111.254 104.668 111.254 105.404V105.738C111.254 106.356 110.821 106.883 110.156 107.033C110.821 107.183 111.254 107.71 111.254 108.328V109.457C111.254 109.616 111.328 109.74 111.42 109.74C111.512 109.74 111.587 109.616 111.587 109.457H111.67C111.67 109.758 111.429 110 111.129 110C110.829 110 110.588 109.758 110.588 109.457V108.328C110.588 107.635 110.213 107.075 109.756 107.075H109.422ZM109.422 104.15V106.992H109.756C110.213 106.992 110.588 106.432 110.588 105.738V105.404C110.588 104.71 110.213 104.15 109.756 104.15H109.422Z" fill="#7D6240"/>
<path d="M120.14 104.066V104.15H119.807V109.833H120.14V109.916H118.809V109.833H119.142V104.15H118.809V104.066H120.14Z" fill="#7D6240"/>
<path d="M128.32 104.066L129.868 108.229V104.15H129.534V104.066H130.325V104.15C130.058 104.15 129.95 104.259 129.95 104.401V109.916H129.817L127.886 104.71V109.833H128.22V109.916H127.43V109.833C127.695 109.833 127.804 109.724 127.804 109.582V104.401C127.804 104.259 127.695 104.15 127.43 104.15V104.066H128.32Z" fill="#7D6240"/>
<path d="M140.237 109.482C139.645 109.482 139.47 110 138.987 110C138.296 110 137.738 109.398 137.738 108.663V105.319C137.738 104.584 138.296 103.983 138.987 103.983C139.337 103.983 139.588 104.125 139.769 104.368C139.887 104.368 139.987 104.267 139.987 104.067H140.07V105.319H139.987C139.987 104.602 139.562 104.067 139.071 104.067C138.655 104.067 138.405 104.627 138.405 105.319V108.663C138.405 109.355 138.664 109.916 138.987 109.916C139.313 109.916 139.57 109.355 139.57 108.663V107.083H139.238V107H140.569V107.083H140.237V109.482Z" fill="#7D6240"/>
<path d="M150.572 104.066V105.236H150.488C150.488 104.634 150.246 104.15 149.947 104.15H149.407V109.833H149.739V109.916H148.408V109.833H148.74V104.15H148.2C147.9 104.15 147.658 104.634 147.658 105.236H147.576V104.066H150.572Z" fill="#7D6240"/>
<path d="M157.945 105.319C157.945 104.584 158.503 103.983 159.278 103.983C160.052 103.983 160.609 104.584 160.609 105.319V108.663C160.609 109.398 160.052 110 159.278 110C158.503 110 157.945 109.398 157.945 108.663V105.319ZM159.943 105.319C159.943 104.627 159.695 104.067 159.278 104.067C158.862 104.067 158.612 104.627 158.612 105.319V108.663C158.612 109.355 158.862 109.916 159.278 109.916C159.695 109.916 159.943 109.355 159.943 108.663V105.319Z" fill="#7D6240"/>
<path d="M168.947 104.066L170.495 108.229V104.15H170.161V104.066H170.952V104.15C170.685 104.15 170.577 104.259 170.577 104.401V109.916H170.444L168.513 104.71V109.833H168.847V109.916H168.057V109.833C168.322 109.833 168.431 109.724 168.431 109.582V104.401C168.431 104.259 168.322 104.15 168.057 104.15V104.066H168.947Z" fill="#7D6240"/>
<path d="M189.1 109.482C188.509 109.482 188.336 110 187.853 110C187.161 110 186.604 109.398 186.604 108.663V105.319C186.604 104.584 187.161 103.983 187.853 103.983C188.201 103.983 188.451 104.125 188.634 104.368C188.751 104.368 188.85 104.267 188.85 104.067H188.934V105.319H188.85C188.85 104.602 188.427 104.067 187.935 104.067C187.519 104.067 187.271 104.627 187.271 105.319V108.663C187.271 109.355 187.527 109.916 187.853 109.916C188.176 109.916 188.435 109.355 188.435 108.663V107.083H188.102V107H189.434V107.083H189.1V109.482Z" fill="#7D6240"/>
<path d="M197.622 107.075V109.833H197.954V109.916H196.623V109.833H196.955V104.15H196.623V104.066H197.954C198.853 104.066 199.453 104.668 199.453 105.404V105.738C199.453 106.356 199.019 106.883 198.355 107.033C199.019 107.183 199.453 107.71 199.453 108.328V109.457C199.453 109.616 199.527 109.74 199.619 109.74C199.71 109.74 199.785 109.616 199.785 109.457H199.869C199.869 109.758 199.628 110 199.327 110C199.028 110 198.786 109.758 198.786 109.457V108.328C198.786 107.635 198.413 107.075 197.954 107.075H197.622ZM197.622 104.15V106.992H197.954C198.413 106.992 198.786 106.432 198.786 105.738V105.404C198.786 104.71 198.413 104.15 197.954 104.15H197.622Z" fill="#7D6240"/>
<path d="M207.168 105.319C207.168 104.584 207.727 103.983 208.5 103.983C209.274 103.983 209.832 104.584 209.832 105.319V108.663C209.832 109.398 209.274 110 208.5 110C207.727 110 207.168 109.398 207.168 108.663V105.319ZM209.166 105.319C209.166 104.627 208.918 104.067 208.5 104.067C208.085 104.067 207.835 104.627 207.835 105.319V108.663C207.835 109.355 208.085 109.916 208.5 109.916C208.918 109.916 209.166 109.355 209.166 108.663V105.319Z" fill="#7D6240"/>
<path d="M219.916 108.663C219.916 109.398 219.467 109.999 218.917 109.999C218.144 109.999 217.586 109.398 217.586 108.663V104.15H217.252V104.066H218.585V104.15H218.251V108.663C218.251 109.356 218.501 109.916 218.917 109.916C219.424 109.916 219.833 109.356 219.833 108.663V104.15H219.5V104.066H220.291V104.15C220.024 104.15 219.916 104.258 219.916 104.401V108.663Z" fill="#7D6240"/>
<path d="M228.522 107.409V109.833H228.856V109.916H227.523V109.833H227.857V104.15H227.523V104.066H228.856C229.755 104.066 230.353 104.668 230.353 105.403V106.072C230.353 106.808 229.755 107.409 228.856 107.409H228.522ZM228.522 104.15V107.326H228.856C229.312 107.326 229.688 106.766 229.688 106.072V105.403C229.688 104.71 229.312 104.15 228.856 104.15H228.522Z" fill="#7D6240"/>
<path d="M177.635 51.5851C143.362 43.4728 108.841 40.8757 73.8819 45.2399C78.4448 45.4608 82.9905 45.8671 87.5353 46.3271C102.938 47.8859 118.011 51.0376 132.82 55.532C138.994 57.4056 145.031 59.6398 151.027 62.0136C152.773 62.7047 153.041 63.5141 152.369 65.2253C150.447 70.1165 150.517 70.137 145.46 68.8589C133.359 65.8004 121.118 63.75 108.625 63.0463C78.906 61.3722 50.6187 67.0737 23.5279 79.207C15.8288 82.6553 8.35986 86.5478 1.38035 91.334C1.10617 91.5226 0.84612 91.8247 0 91.2906C29.4846 68.8361 62.5673 57.4735 99.2812 55.9832C93.99 54.8938 88.6682 54.3715 83.3597 53.8358C74.9755 52.9894 66.5567 52.6904 58.1317 52.9365C45.0093 53.3207 32.0426 54.9056 19.3052 58.2001C18.2682 58.4691 16.9271 59.4071 16.1336 58.3697C15.0298 56.9284 14.3675 55.102 14.3141 53.2363C14.2882 52.303 15.4179 52.2636 16.1101 52.0095C25.8385 48.4374 35.8324 45.8308 45.9906 43.8499C57.4615 41.6134 69.022 40.1547 80.7027 39.4849C113.044 37.631 144.694 41.3862 175.674 50.8719C176.339 51.0755 176.982 51.3461 177.635 51.5851Z" fill="#002047"/>
<path d="M82.4903 31.8152C82.4762 26.3608 84.0529 21.3315 86.8136 16.6967C94.501 3.78864 108.8 -2.34035 123.643 0.818417C137.525 3.77444 148.68 16.165 150.451 30.4978C150.829 33.5548 150.918 36.5692 150.481 39.6246C150.288 40.9768 149.699 41.32 148.492 41.0154C148.013 40.8939 147.525 40.7819 147.033 40.7401C145.373 40.5989 144.795 39.937 145.083 38.1044C146.266 30.5703 144.64 23.6075 140.623 17.1282C131.173 1.89054 109.089 -1.81337 95.1719 9.42299C87.9504 15.253 83.8675 22.7066 82.4903 31.8152Z" fill="#F2521B"/>
</svg>
