<svg width="247" height="99" viewBox="0 0 247 99" fill="none" xmlns="http://www.w3.org/2000/svg">
<path d="M115.5 49.3645V19.1656H116.444V49.4235C116.444 56.6027 123.638 60.1624 129.95 60.1624C136.259 60.1624 143.455 56.6027 143.455 49.3645V19.1656H144.398V49.4235C144.398 57.078 136.732 61.1129 129.95 61.1129C123.108 61.1129 115.5 57.078 115.5 49.3645Z" fill="#2A8CD4"/>
<path d="M177.78 46.6949H156.902L151.299 60.6371H150.297L166.87 18.5121H167.872L184.445 60.6371H183.442L177.78 46.6949ZM157.314 45.8052H177.427L167.341 19.7582L157.314 45.8052Z" fill="#2A8CD4"/>
<path d="M184.093 19.1653L198.602 42.5414L213.11 19.1653H214.229L199.073 43.4909V60.6373H198.129V43.4909L182.973 19.1653H184.093Z" fill="#2A8CD4"/>
<path d="M244.898 27.828C244.545 26.1066 243.836 24.6238 242.658 23.3188C240.121 20.5889 236.053 19.4616 232.337 19.5205C228.445 19.5804 224.021 21.0043 221.544 24.2674C220.071 26.1066 219.539 28.3023 219.716 30.6159C220.778 45.1522 243.896 33.7602 246.728 47.0503C248.615 55.8322 240.358 61.0533 232.514 61.0533C226.498 61.0533 219.186 57.6115 218.477 50.9066L218.418 50.4922L219.362 50.3733L219.421 50.7878C220.071 57.0175 226.97 60.1627 232.573 60.1627C239.768 60.1627 247.553 55.4748 245.842 47.2281C243.188 34.8875 219.893 46.1607 218.832 30.6758C218.596 28.1835 219.244 25.7511 220.778 23.7332C226.792 15.9019 243.778 16.9104 245.783 27.6503L245.842 28.1237L244.957 28.3023L244.898 27.828Z" fill="#2A8CD4"/>
<path d="M40.296 77.4385C49.3054 67.4714 57.1952 65.9932 68.9108 71.7449C72.8138 73.6618 76.649 75.7199 80.5501 77.6424C87.1268 80.8822 93.6783 81.0927 100.217 77.4282C106.077 74.1445 111.776 70.4492 117.917 67.8072C135.775 60.1219 156.723 66.4825 163.136 87.4964C163.32 88.1017 163.396 88.7406 163.746 90.4573C160.82 87.401 159.202 84.5513 156.742 82.4716C144.646 72.2463 129.098 71.2387 114.018 79.8007C108.977 82.6634 103.987 85.6206 98.9159 88.4291C93.7872 91.2703 88.3264 91.6576 82.876 89.6977C80.3381 88.7865 78.5219 89.1775 76.3309 90.622C46.112 110.546 6.33304 93.1554 0.661232 57.2414C-3.81558 28.8892 14.8524 3.38761 44.1591 0.281654C71.1641 -2.57825 95.1226 16.6534 97.8529 44.2029C98.1803 47.5062 98.6452 50.7675 97.9162 54.0718C97.2196 57.2292 98.9382 58.3518 101.748 58.6793C105.729 59.1442 109.15 57.5463 112.93 55.4021C108.72 62.021 102.137 64.6246 95.4611 62.5496C93.3361 61.8891 91.2874 60.9283 89.2843 59.9376C81.0951 55.8895 72.8073 53.5507 63.9327 58.2527C70.0137 52.4814 76.649 48.6719 85.186 51.369C88.2176 52.3251 88.9569 51.3943 88.7077 48.5073C87.2533 31.6556 79.7392 18.8164 63.6658 12.6129C48.17 6.63203 33.5873 9.31325 21.6029 20.9784C10.9642 31.3347 7.63963 44.5387 11.074 58.9786C14.4488 73.1725 23.2917 82.8271 37.2374 87.2653C47.0168 90.3778 56.7284 89.7108 66.1497 85.5542C67.4424 84.9826 69.3553 84.6505 69.5143 83.1471C69.6566 81.8084 67.8069 81.3406 66.7393 80.652C58.4925 75.3298 49.949 72.2304 40.296 77.4385Z" fill="#2A8CD4"/>
<path d="M171.14 77.7949C172.262 77.7949 173.326 77.3356 173.92 76.5965C174.372 76.0333 174.527 75.342 174.368 74.5973C174.046 73.0976 172.637 72.9573 171.276 72.8226C169.903 72.6841 168.607 72.555 168.497 71.0498C168.458 70.5511 168.582 70.1198 168.867 69.7643C169.319 69.1656 170.155 68.8007 171.106 68.7876C171.967 68.7774 172.777 69.0655 173.245 69.5669C173.475 69.8242 173.622 70.1226 173.696 70.4772L173.722 70.7139L174.178 70.6288L174.149 70.3902C173.967 69.4144 173.221 68.6988 172.104 68.4284C170.731 68.0963 169.214 68.5416 168.491 69.4855C168.142 69.9421 167.986 70.495 168.04 71.0816C168.17 72.9751 169.783 73.1369 171.206 73.281C172.463 73.4082 173.652 73.527 173.903 74.6908C174.029 75.3064 173.903 75.8724 173.534 76.3299C173.032 76.9501 172.12 77.3365 171.153 77.3365C169.93 77.3365 168.562 76.6648 168.432 75.4149L168.401 75.1942L167.934 75.2587L167.964 75.4757C168.122 76.9829 169.719 77.7949 171.14 77.7949Z" fill="#A8A6A7"/>
<path d="M181.375 77.2439H176.616V73.3025H181.245V72.83H176.616V68.9017H181.347V68.4433H176.145V77.5722L176.17 77.7051H181.375V77.2439Z" fill="#A8A6A7"/>
<path d="M189.747 77.7053H190.248L186.55 68.3014H186.152L182.453 77.7053H182.954L184.169 74.6826H188.52L189.747 77.7053ZM184.363 74.2214L186.343 69.0732L188.339 74.2214H184.363Z" fill="#A8A6A7"/>
<path d="M196.155 72.8304H192.061V68.9021H196.69V68.4437H191.602V77.7054H192.061V73.3028H196.155V72.8304Z" fill="#A8A6A7"/>
<path d="M198.718 68.9018H201.49C203.112 68.9018 203.851 70.0927 203.851 71.2003C203.851 71.8047 203.642 72.367 203.263 72.7823C202.835 73.251 202.222 73.4999 201.49 73.4999H199.617V73.8863L203.781 77.6705L203.819 77.7051H204.509L200.388 73.9602H201.49C202.358 73.9602 203.088 73.6608 203.603 73.0939C204.058 72.5924 204.309 71.9179 204.309 71.1957C204.309 69.8635 203.427 68.4312 201.49 68.4312H198.262V77.7051H198.718V68.9018Z" fill="#A8A6A7"/>
<path d="M215.104 73.0686C215.104 71.8113 214.612 70.6166 213.719 69.7045C212.833 68.7998 211.651 68.3012 210.39 68.3012C209.142 68.3012 207.933 68.8129 207.072 69.7045C206.181 70.6148 205.691 71.8094 205.691 73.0686C205.691 74.3251 206.181 75.5188 207.071 76.43C207.932 77.3225 209.142 77.8342 210.39 77.8342C211.651 77.8342 212.833 77.3365 213.719 76.4319C214.612 75.5169 215.104 74.3223 215.104 73.0686ZM210.39 77.3618C209.265 77.3618 208.203 76.9081 207.403 76.0867C206.601 75.2699 206.159 74.1978 206.159 73.0686C206.159 71.9385 206.601 70.8664 207.403 70.0469C208.201 69.2255 209.262 68.7746 210.39 68.7746C211.523 68.7746 212.59 69.2274 213.392 70.0469C214.185 70.858 214.619 71.931 214.619 73.0686C214.619 74.2072 214.185 75.2784 213.392 76.0867C212.588 76.9081 211.521 77.3618 210.39 77.3618Z" fill="#A8A6A7"/>
<path d="M223.323 77.7053V68.4314H222.865V76.7838L217.158 68.4876L217.121 68.4361L216.738 68.409V77.7053H217.21V69.4016L222.916 77.7053H223.323Z" fill="#A8A6A7"/>
<path d="M227.891 77.7446H228.348V68.902H231.442V68.4314H224.797V68.902H227.891V77.7446Z" fill="#A8A6A7"/>
<path d="M173.051 85.524C173.409 85.2892 173.685 84.9402 173.859 84.4968C174.075 83.9186 174.075 83.2329 173.859 82.665L173.858 82.6641C173.52 81.8015 172.79 81.3066 171.856 81.3066H168.102V90.5684H172.215C173.768 90.5684 174.563 89.4008 174.663 88.2417C174.759 87.1406 174.233 85.916 173.051 85.524ZM172.215 90.1071H168.572V85.857H172.215C173.592 85.857 174.221 86.9591 174.221 87.9816C174.221 88.5429 174.041 89.0631 173.717 89.4495C173.354 89.8798 172.835 90.1071 172.215 90.1071ZM168.572 85.3855V81.78H171.856C172.86 81.78 173.276 82.4452 173.433 82.84C173.612 83.3115 173.612 83.8531 173.434 84.3237C173.276 84.7204 172.86 85.3855 171.856 85.3855H168.572Z" fill="#A8A6A7"/>
<path d="M182.359 87.988C182.359 89.424 180.918 90.1987 179.563 90.1987C178.208 90.1987 176.768 89.4297 176.768 88.0039V81.3064H176.297V87.988C176.297 89.73 177.98 90.6702 179.563 90.6702C181.146 90.6702 182.83 89.7356 182.83 88.0039V81.3064H182.359V87.988Z" fill="#A8A6A7"/>
<path d="M190.9 89.6471L185.192 81.3517L185.156 81.2993L184.773 81.2722V90.5676H185.243V82.2639L190.95 90.5676H191.358V81.2937H190.9V89.6471Z" fill="#A8A6A7"/>
<path d="M197.259 87.1317H201.181C200.799 88.8101 199.066 90.1984 197.314 90.1984C196.231 90.1984 195.21 89.7521 194.443 88.9401C193.68 88.1346 193.262 87.0718 193.262 85.9436C193.262 84.8284 193.68 83.7638 194.442 82.948C195.221 82.1351 196.241 81.6879 197.314 81.6879C198.968 81.6879 200.411 82.6655 200.991 84.1773L201.022 84.2634H201.517L201.456 84.0856C200.866 82.3689 199.201 81.2164 197.314 81.2164C196.097 81.2164 194.959 81.7113 194.109 82.6103C193.26 83.5168 192.793 84.6993 192.793 85.9436C192.793 87.2009 193.262 88.3853 194.109 89.2778C194.969 90.1862 196.107 90.6858 197.314 90.6858C199.044 90.6858 200.924 89.363 201.503 87.7407C201.631 87.4171 201.706 87.1093 201.731 86.8015L201.742 86.6583H197.259V87.1317Z" fill="#A8A6A7"/>
<path d="M206.234 81.165L202.535 90.568H203.036L204.251 87.5444H208.602L209.829 90.568H210.33L206.632 81.165H206.234ZM204.444 87.0841L206.425 81.9368L208.422 87.0841H204.444Z" fill="#A8A6A7"/>
<path d="M212.161 81.3065H211.691V90.5673H216.97V90.0948H212.161V81.3065Z" fill="#A8A6A7"/>
<path d="M221.933 81.1652C220.686 81.1652 219.477 81.676 218.615 82.5685C217.724 83.4787 217.234 84.6734 217.234 85.9317C217.234 87.1872 217.726 88.3809 218.615 89.293C219.476 90.1865 220.685 90.6973 221.933 90.6973C223.194 90.6973 224.379 90.1986 225.265 89.294C226.155 88.3818 226.646 87.1881 226.646 85.9317C226.646 84.6715 226.155 83.4769 225.265 82.5675C224.378 81.6619 223.194 81.1652 221.933 81.1652ZM221.933 81.6376C223.066 81.6376 224.132 82.0885 224.935 82.909C225.728 83.721 226.164 84.795 226.164 85.9317C226.164 87.0693 225.728 88.1405 224.935 88.9497C224.131 89.7711 223.065 90.2248 221.933 90.2248C220.812 90.2248 219.75 89.7711 218.946 88.9497C218.146 88.1358 217.705 87.0637 217.705 85.9317C217.705 84.7997 218.146 83.7257 218.946 82.909C219.748 82.0895 220.809 81.6376 221.933 81.6376Z" fill="#A8A6A7"/>
<path d="M235.311 89.7795L233.261 83.9315H233.061L233.025 83.8314L232.99 83.9315H232.789L230.738 89.7785L227.981 81.398L227.95 81.3064H227.469L230.519 90.5662L230.55 90.657H230.917L233.025 84.6331L235.113 90.569L235.145 90.657H235.512L238.536 81.4813L238.592 81.3064H238.108L235.311 89.7795Z" fill="#A8A6A7"/>
<path d="M245.976 87.4616C245.656 85.961 244.251 85.8207 242.892 85.685C241.524 85.5484 240.23 85.4184 240.119 83.9141C240.083 83.4107 240.208 82.9785 240.491 82.6286C240.943 82.0299 241.779 81.6641 242.728 81.6501H242.785C243.636 81.6501 244.411 81.9401 244.865 82.4303C245.097 82.6866 245.246 82.9841 245.321 83.3406L245.349 83.5791L245.807 83.4893L245.772 83.2536C245.59 82.2778 244.845 81.5621 243.729 81.2918C242.354 80.9625 240.839 81.404 240.114 82.3489C239.763 82.8083 239.608 83.3621 239.665 83.944C239.795 85.8375 241.408 86.0003 242.831 86.1444C244.089 86.2716 245.277 86.3904 245.528 87.5533C245.654 88.1698 245.528 88.7358 245.159 89.1923C244.657 89.8126 243.745 90.1989 242.778 90.1989C241.553 90.1989 240.184 89.5272 240.057 88.2746L240.019 88.0594L239.559 88.1202L239.589 88.3382C239.748 89.8453 241.345 90.6573 242.766 90.6573C243.882 90.6573 244.943 90.2008 245.533 89.4645C245.984 88.9004 246.137 88.2081 245.976 87.4616Z" fill="#A8A6A7"/>
</svg>
