<svg width="191" height="96" viewBox="0 0 191 96" fill="none" xmlns="http://www.w3.org/2000/svg">
<path d="M158.509 62.5557C154.216 62.6869 149.974 62.2379 145.819 61.0719C141.552 59.8749 137.735 57.8843 134.762 54.5011C133.752 53.3513 132.875 52.0834 131.921 50.8832C126.256 43.7476 119.531 37.8164 111.818 33.0072C104.4 28.383 96.436 25.0723 87.9505 23.0287C84.2295 22.1324 80.4606 21.5424 76.648 21.1896C73.4149 20.8898 70.1771 20.7578 66.9384 20.8881C60.4075 21.1521 53.9869 22.143 47.7073 24.009C36.8149 27.2455 27.0737 32.6169 18.3629 39.9195C15.7289 42.1277 13.245 44.4932 10.8454 46.9524C9.45018 48.3808 7.95689 49.6984 6.35416 50.8872C5.58806 51.4552 4.77495 51.9465 3.86292 52.2415C2.46773 52.6929 1.62381 52.0378 1.73811 50.5646C1.82243 49.4841 2.14752 48.4549 2.55124 47.4535C3.68458 44.6448 5.25569 42.0821 6.95975 39.5977C10.5892 34.3061 14.8923 29.6028 19.5797 25.2589C25.6339 19.6479 32.3018 14.8901 39.5558 10.9593C48.2983 6.22184 57.5522 2.97716 67.3372 1.27903C70.1065 0.798279 72.8969 0.472336 75.7051 0.268623C78.0553 0.0991364 80.4087 -0.0304184 82.7573 0.00624847C86.0843 0.0575867 89.409 0.241737 92.7247 0.613304C100.325 1.46481 107.718 3.20776 114.95 5.66368C122.123 8.10004 128.996 11.2323 135.655 14.8494C143.259 18.9798 150.468 23.7262 157.383 28.9265C161.889 32.3171 166.241 35.8999 170.492 39.6099C176.525 44.8737 182.258 50.4513 187.842 56.1878C188.896 57.2707 188.883 57.2935 187.455 57.7343C182.069 59.3966 176.596 60.6889 171.027 61.5527C166.887 62.1948 162.727 62.6796 158.509 62.5557ZM42.591 90.8543C43.032 93.6207 45.2931 95.5575 48.0915 95.5706C50.9306 95.5836 53.4121 94.5968 55.6358 92.8726C57.5522 91.3872 59.0277 89.5171 60.3053 87.4735C60.5923 87.0156 60.8655 86.5479 61.1817 86.0239C61.3471 86.4028 61.2895 86.7084 61.2911 87.0025C61.3009 88.3552 61.3009 89.7078 61.3009 91.0604C61.3017 91.8044 61.4127 92.5328 61.6211 93.2426C62.0726 94.7802 62.9863 95.4003 64.559 95.2764C65.6461 95.19 66.6481 94.8551 67.5934 94.3125C69.6833 93.113 71.505 91.5795 73.188 89.8634C73.8503 89.1871 73.9151 89.2026 74.3399 90.0231C74.952 91.2071 75.7408 92.246 76.6763 93.1961C79.0719 95.6301 82.8748 95.5478 85.2469 93.7298C86.1516 93.0364 86.1751 93.0462 86.8391 93.9539C87.619 95.0206 88.6064 95.5046 89.9416 95.2251C90.6972 95.0678 91.4187 94.8486 92.1053 94.495C94.1426 93.4455 95.8628 91.9714 97.5231 90.42C98.3735 89.6247 98.3792 89.6059 98.7878 90.6726C99.6609 92.9566 101.212 94.5561 103.496 95.41C104.776 95.8875 106.112 95.978 107.469 95.9674C110.696 95.9438 113.49 94.7753 115.979 92.7814C117.391 91.6504 118.715 90.4183 119.995 89.1366C120.289 88.8424 120.574 88.5181 120.998 88.3715C121.239 88.6721 121.153 88.9899 121.155 89.2833C121.164 90.7581 121.151 92.2346 121.164 93.7095C121.171 94.7337 121.374 95.0409 122.381 95.2316C123.864 95.5111 125.362 95.5021 126.844 95.1949C127.442 95.0703 127.553 94.8959 127.606 94.2212C127.729 92.629 127.883 91.0384 127.952 89.443C128.063 86.8942 128.259 84.3527 128.557 81.821C128.772 79.9884 129.064 78.1664 129.805 76.4536C130.013 75.9704 130.252 75.5035 130.624 75.1311C131 74.7547 131.435 74.4173 132.006 74.5958C132.513 74.7555 132.613 75.2469 132.704 75.7032C132.771 76.034 132.854 76.3697 132.855 76.7038C132.863 77.9334 132.89 79.1654 132.819 80.3917C132.604 84.0439 132.781 87.7049 132.539 91.3579C132.483 92.1939 132.756 92.9998 133.186 93.7298C133.715 94.6294 134.453 95.2063 135.535 95.2764C136.901 95.3644 138.125 94.9285 139.29 94.2742C140.82 93.4145 142.194 92.3405 143.482 91.1509C143.99 90.6815 144.476 90.1796 145.069 89.8178C145.149 89.9017 145.208 89.9384 145.23 89.9906C145.337 90.2448 145.43 90.5047 145.535 90.7598C146.66 93.4935 148.638 95.2251 151.543 95.7637C155.644 96.5247 159.302 95.4141 162.565 92.9069C163.631 92.0871 164.594 91.1313 165.609 90.244C165.785 90.0908 165.905 89.8357 166.202 89.8724C166.434 90.1038 166.468 90.424 166.584 90.7035C167.754 93.5367 169.798 95.3 172.833 95.8004C175.394 96.2224 177.879 95.9381 180.286 94.9089C182.264 94.0631 183.928 92.7854 185.48 91.3318C187.001 89.9074 188.479 88.4342 190.021 87.0327C191.311 85.8609 191.247 86.1502 190.293 84.7063C189.872 84.0691 189.815 84.0683 189.234 84.5319C188.227 85.3346 187.287 86.2146 186.335 87.0808C184.657 88.6086 182.945 90.0924 181.029 91.3244C179.261 92.4611 177.5 92.3202 175.733 91.3676C175.075 91.0132 174.578 90.4762 174.204 89.8154C173.497 88.5638 173.15 87.2087 172.947 85.7966C172.682 83.9542 172.772 82.1159 172.977 80.2817C173.201 78.2585 173.591 76.2703 174.421 74.3962C174.821 73.4917 175.304 72.6361 176.08 71.994C176.922 71.2981 177.693 71.2509 178.613 71.8213C179.064 72.1008 179.41 72.4772 179.673 72.9449C180.365 74.168 180.402 75.4766 180.106 76.7926C179.808 78.1183 179 78.4785 177.769 77.935C177.288 77.7223 176.869 77.4127 176.451 77.1031C176.128 76.8651 175.796 76.7877 175.435 77.0346C174.615 77.5944 174.568 78.881 175.364 79.4693C176.005 79.942 176.652 80.4105 177.321 80.8399C178.456 81.5684 179.614 82.2406 180.956 82.5519C181.906 82.7727 182.636 82.5177 183.243 81.7876C184.04 80.8261 184.624 79.7391 184.868 78.5184C185.462 75.5394 184.566 72.918 182.745 70.5998C181.497 69.0101 179.841 68.2009 177.77 68.359C177.101 68.4104 176.43 68.425 175.762 68.531C172.254 69.085 169.568 70.9046 167.707 73.9121C165.776 77.0305 165.3 80.5034 165.455 84.1009C165.488 84.8685 165.544 85.6352 165.6 86.4012C165.619 86.666 165.556 86.8738 165.353 87.0563C163.785 88.4733 162.274 89.9571 160.49 91.1158C159.235 91.9307 157.92 92.3194 156.4 92.0122C154.929 91.7148 153.789 91.0254 153.054 89.694C152.559 88.7984 152.217 87.85 152.036 86.8428C151.316 82.8346 151.839 78.9527 153.22 75.1597C153.494 74.4051 153.887 73.7133 154.336 73.0476C155.153 71.8351 156.303 71.5662 157.639 71.8498C158.774 72.0918 159.414 72.8887 159.483 74.0653C159.505 74.4336 159.487 74.8093 159.556 75.1678C159.71 75.9704 160.293 76.2222 160.985 75.7985C161.624 75.4066 161.975 74.7987 162.114 74.0784C162.581 71.6526 161.528 68.7876 158.065 68.4185C154.518 68.0412 151.345 69.0541 148.724 71.5776C145.998 74.2022 144.737 77.5015 144.455 81.2033C144.339 82.7303 144.436 84.2761 144.468 85.8129C144.479 86.3458 144.359 86.7646 143.91 87.0889C142.767 87.9135 141.638 88.7585 140.502 89.5921C140.38 89.6825 140.245 89.7591 140.107 89.8227C139.814 89.9588 139.616 89.8634 139.597 89.5375C139.574 89.17 139.581 88.8001 139.598 88.4318C139.767 84.7185 139.944 81.0061 140.111 77.2929C140.138 76.6793 140.149 76.0666 140.212 75.453C140.335 74.2495 140.258 73.0517 139.893 71.8938C139.407 70.3529 138.489 69.1706 136.946 68.5758C136.1 68.2498 135.222 68.2841 134.325 68.3354C132.031 68.4674 130.314 69.4974 129.146 71.4774C128.936 71.8351 128.709 72.1831 128.49 72.5359C128.342 71.8645 128.347 71.2313 128.341 70.5982C128.33 69.4729 127.988 68.9579 126.956 68.5782C125.493 68.0396 124.02 68.0355 122.555 68.5652C121.516 68.9408 121.155 69.4533 121.146 70.568C121.134 71.8588 121.145 73.1503 121.147 74.4418C121.151 77.5781 121.151 80.7144 121.162 83.8499C121.164 84.3576 121.104 84.8025 120.678 85.1716C119.173 86.4762 117.703 87.8198 116.198 89.1244C115.224 89.9686 114.18 90.7215 113.096 91.4182C110.755 92.9256 107.227 91.8541 106.141 89.3436C105.495 87.8508 105.139 86.3124 105.053 84.708C104.939 82.6146 105.056 80.5295 105.434 78.4638C105.801 76.4544 106.338 74.498 107.522 72.8015C109.178 70.4312 111.064 71.545 111.97 73.1022C112.107 73.3377 112.19 73.609 112.274 73.8722C112.612 74.9331 112.543 75.9998 112.244 77.0525C111.974 78.0043 111.387 78.3335 110.424 78.098C109.975 77.988 109.567 77.7769 109.195 77.4958C108.974 77.3304 108.75 77.1707 108.519 77.0191C108.239 76.8358 107.947 76.8211 107.657 77.0045C106.855 77.5105 106.774 78.9022 107.549 79.4555C108.496 80.131 109.422 80.8399 110.443 81.4062C111.356 81.9122 112.283 82.3775 113.318 82.5894C114.106 82.7515 114.773 82.5617 115.31 81.9538C116.577 80.5148 117.286 78.8101 117.268 76.9108C117.247 74.7441 116.548 72.7339 115.27 70.9714C114.281 69.609 112.995 68.5676 111.286 68.4144C108.205 68.1382 105.331 68.8023 102.8 70.6984C100.352 72.5326 98.984 75.0521 98.2203 77.9497C97.5604 80.4472 97.4988 82.9935 97.7663 85.5456C97.8393 86.2464 97.6828 86.7068 97.0959 87.0995C96.2066 87.696 95.3643 88.3633 94.4936 88.9899C94.1718 89.2222 93.8361 89.4413 93.4892 89.6328C93.0603 89.87 92.9411 89.8031 92.9087 89.3395C92.8933 89.1252 92.9128 88.9093 92.9095 88.6941C92.8844 87.0946 93.0392 85.5016 93.096 83.9053C93.1762 81.5708 93.1949 79.2339 93.344 76.9042C93.4429 75.3691 93.447 73.8331 93.5191 72.2988C93.687 68.7086 93.8613 65.1192 94.0283 61.529C94.1653 58.5834 94.2723 55.6353 94.4409 52.6913C94.4936 51.7648 94.1272 51.1765 93.3676 50.7316C92.5504 50.2533 91.6546 50.052 90.7377 50.0088C89.5444 49.9518 88.351 50.008 87.2469 50.5719C86.4986 50.9541 86.0665 51.5359 86.0884 52.402C86.1557 55.1089 85.8533 57.806 85.9036 60.5129C85.94 62.449 85.9263 64.3867 85.9319 66.3236C85.9336 66.7538 85.9279 67.184 85.919 67.6143C85.91 68.0535 85.6814 68.2955 85.2477 68.337C85.0645 68.3541 84.8813 68.3541 84.6981 68.3712C80.583 68.755 77.3954 70.6446 75.2803 74.2568C73.9338 76.5555 73.3339 79.0864 73.0534 81.7053C72.9026 83.1101 72.7356 84.5189 72.9983 85.9302C73.0858 86.4012 72.8183 86.679 72.481 86.9243C71.3663 87.7343 70.2565 88.5524 69.1321 89.3501C68.8402 89.5579 68.5143 89.9531 68.1787 89.7974C67.7555 89.6002 67.9647 89.0804 67.976 88.7064C68.0822 85.39 68.233 82.0752 68.3222 78.7588C68.3846 76.4243 68.576 74.0939 68.5484 71.7561C68.5452 71.5116 68.5914 71.2664 68.6149 71.0227C68.7276 69.8803 68.3482 69.2757 67.2513 68.9644C65.6923 68.5228 64.1229 68.4429 62.5461 68.905C61.3989 69.2407 61.1152 69.5886 61.1136 70.806C61.1112 73.2961 61.0414 75.7895 61.1484 78.2756C61.219 79.9069 60.8736 81.3443 60.0751 82.7507C59.2725 84.1636 58.6086 85.6572 57.7152 87.0196C57.5441 87.2812 57.4274 87.63 57.0561 87.7245C56.8242 87.3806 56.924 87.0343 56.9167 86.7084C56.8648 84.7691 56.5056 82.9275 55.3691 81.297C54.6857 80.3152 54.0785 79.2795 53.3837 78.3058C52.5454 77.1283 51.7915 75.9004 51.0651 74.6537C50.128 73.0468 49.4762 71.3332 49.2265 69.477C49.2062 69.3254 49.1641 69.1763 49.1381 69.0247C49.0717 68.6361 48.8471 68.4389 48.4515 68.4209C47.6392 68.3827 47.4122 68.5138 47.2865 69.3156C46.8844 71.8645 46.4053 74.4019 45.4674 76.8244C45.049 77.9057 45.1106 78.9919 45.4998 80.0707C45.7714 80.8261 46.1281 81.5358 46.5788 82.2015C47.7656 83.955 48.9347 85.7216 50.1393 87.4629C50.7092 88.2875 50.9314 89.1741 50.8608 90.1617C50.7806 91.2747 50.239 92.1393 49.263 92.5695C48.2699 93.0071 47.2817 92.7341 46.4467 92.0203C46.2837 91.8818 46.1337 91.7237 46.0024 91.5567C45.5622 90.9985 45.2436 90.3792 44.9858 89.7102C44.5513 88.5858 44.6323 87.731 45.6984 86.9153C46.8528 86.0304 46.8844 86.1836 45.9578 84.7976C45.4446 84.03 45.396 84.017 44.7102 84.6167C43.2331 85.9066 41.7739 87.2177 40.3 88.5108C39.1237 89.5432 37.9053 90.5235 36.5709 91.3432C35.8356 91.7946 35.0476 92.1922 34.1631 92.1319C31.7643 91.969 30.2175 91.269 29.2204 88.6094C28.5289 86.767 28.3181 84.8391 28.37 82.8998C28.4219 80.9662 28.6156 79.035 29.0874 77.1479C29.5082 75.4685 30.0473 73.8307 31.1693 72.4731C32.5555 70.7962 34.0391 71.3666 35.0371 72.5864C35.3524 72.9718 35.5632 73.4232 35.671 73.9064C35.9004 74.9405 35.915 75.9835 35.6264 77.0077C35.3338 78.045 34.6763 78.3848 33.6613 78.0646C33.2179 77.9252 32.8352 77.6686 32.4575 77.4037C32.2572 77.2636 32.0651 77.1063 31.8551 76.9841C31.5227 76.791 31.2098 76.857 30.9261 77.1031C30.1737 77.7557 30.1973 78.89 30.9901 79.4816C31.6281 79.9574 32.2686 80.4357 32.9366 80.8676C34.0707 81.6002 35.2332 82.2667 36.579 82.5617C37.4505 82.7532 38.1371 82.538 38.7257 81.8853C39.9271 80.5531 40.5449 78.9731 40.6186 77.1992C40.7094 75.004 40.0341 73.006 38.8189 71.2093C37.8826 69.8249 36.6536 68.7884 34.9584 68.447C34.2312 68.3012 33.4927 68.3468 32.7623 68.3827C29.8787 68.5244 27.3428 69.5177 25.2221 71.5263C23.2108 73.4298 22.0726 75.8026 21.4808 78.472C21.3867 78.8949 21.2911 79.3121 21.0681 79.6861C20.4342 80.7503 19.6648 81.6987 18.7074 82.4867C17.7094 83.3072 16.5737 83.6373 15.2887 83.5256C14.6588 83.471 14.1886 83.1769 13.8109 82.7059C13.4112 82.208 13.4939 81.9986 14.153 81.9236C15.6633 81.7517 16.8428 80.976 17.5919 79.7179C19.0511 77.2717 19.5051 74.608 18.7252 71.8294C18.1253 69.6921 16.491 68.4291 14.3029 68.2865C13.8506 68.2572 13.3893 68.3313 12.9329 68.3647C10.9808 68.5073 9.42666 69.358 8.32332 70.9983C7.98607 71.4986 7.6764 72.0176 7.35456 72.5286C7.19971 71.8449 7.18835 71.1865 7.20295 70.5273C7.22321 69.6929 6.85355 69.1127 6.10447 68.7787C4.65659 68.1325 3.16249 67.9663 1.63192 68.4332C0.417508 68.8047 -0.00161669 69.3898 4.68337e-06 70.6618C0.00730086 78.3775 0.017028 86.0924 0.148359 93.8073C0.165384 94.8063 0.325897 95.0711 1.31169 95.2479C2.76525 95.507 4.23422 95.4972 5.68535 95.199C6.3193 95.0678 6.4255 94.8975 6.46928 94.1479C6.65411 90.9904 6.83896 87.832 7.00839 84.6729C7.11945 82.6138 7.32779 80.5678 7.7761 78.5543C8.01769 77.4697 8.3825 76.4259 8.92971 75.4555C9.3229 74.7588 9.88876 74.2642 10.6613 74.0352C10.8324 73.9839 11.0448 73.9293 11.1802 74.0882C11.3318 74.265 11.1761 74.4345 11.0829 74.5819C10.526 75.4652 10.333 76.4398 10.2633 77.4722C10.1141 79.6877 10.8275 81.6515 11.939 83.4987C12.2365 83.9933 12.6167 84.4537 13.0237 84.8652C14.4124 86.2716 16.0775 86.248 17.7954 85.6703C18.8274 85.3232 19.66 84.6305 20.4544 83.8996C20.5979 83.7676 20.6774 83.5069 21.0057 83.6136C21.1484 84.0382 21.0673 84.501 21.0932 84.9516C21.2173 87.0791 21.4872 89.1757 22.3733 91.1427C23.4078 93.4373 25.1094 94.9733 27.5479 95.5991C30.3351 96.3145 33.0557 96.053 35.7229 94.97C37.748 94.1479 39.4212 92.8303 41.0118 91.3766C41.4561 90.9708 41.919 90.5846 42.36 90.2008C42.638 90.4175 42.5586 90.6538 42.591 90.8543ZM85.9327 88.7993C85.9327 89.0755 85.9319 89.3525 85.9279 89.6288C85.9068 91.1346 85.0702 91.388 83.7398 90.8575C83.0702 90.5903 82.6584 89.9775 82.309 89.3501C81.6102 88.0969 81.2227 86.7353 81.037 85.3297C80.6811 82.6464 80.5312 79.9517 80.7452 77.2416C80.8352 76.1073 80.8603 74.9714 81.1829 73.869C81.3216 73.3947 81.491 72.9368 81.7561 72.518C82.4971 71.3503 83.6215 70.8573 84.981 71.1067C85.7674 71.2509 85.8971 71.3813 85.9044 72.1985C85.9238 74.2886 85.9255 76.3795 85.9327 78.4695C85.9352 79.2999 85.9336 80.1294 85.9336 80.9597C85.9336 83.5729 85.9336 86.1861 85.9327 88.7993ZM50.5236 55.531C52.1134 55.531 53.7031 55.5416 55.2929 55.5278C56.1279 55.5204 56.286 55.3574 56.1911 54.5491C55.8709 51.8227 54.5689 49.7587 51.9293 48.8444C49.3335 47.9457 46.9266 48.3596 44.9282 50.4114C42.6251 52.7769 42.2911 56.4884 44.1419 59.2247C45.9975 61.9666 49.3967 62.8059 52.4474 61.5356C53.8012 60.9717 54.7619 59.9564 55.5061 58.7203C55.7955 58.2412 55.7533 58.1532 55.2669 57.8452C55.1129 57.7466 54.9483 57.6634 54.7894 57.573C54.4676 57.3888 54.2211 57.4434 54.016 57.7702C53.8207 58.0815 53.6172 58.3952 53.3715 58.6649C51.9618 60.2098 50.2139 60.7663 48.2196 60.1894C46.3769 59.6565 45.3401 58.3096 44.9923 56.4273C44.8374 55.597 44.8796 55.5424 45.7543 55.5367C47.3441 55.5261 48.9338 55.5335 50.5236 55.5335V55.531ZM46.0681 53.8296C45.2087 53.8182 45.1042 53.6332 45.4584 52.829C46.8893 49.5762 50.8146 49.678 52.6395 51.2938C53.2199 51.8072 53.7112 52.3833 53.9487 53.1395C54.1157 53.6707 54.0387 53.8117 53.4704 53.8215C52.1904 53.8443 50.9111 53.8288 49.6318 53.8288V53.8337C48.4434 53.8337 47.2557 53.8459 46.0681 53.8296ZM30.9082 49.5419C30.8969 47.9432 30.9123 46.3445 30.8969 44.7458C30.8896 43.9505 30.7672 43.8495 29.9824 43.843C29.1644 43.8356 29.0437 43.9538 29.0129 44.798C29.008 44.9202 29.0104 45.0432 29.0104 45.1663C29.0104 50.2093 29.0104 55.2515 29.012 60.2937C29.012 60.57 29.0209 60.847 29.0461 61.1224C29.0663 61.3506 29.1782 61.5152 29.4133 61.5967C30.3383 61.9177 30.8944 61.5453 30.9001 60.5732C30.9098 59.1595 30.9099 57.7449 30.9009 56.3304C30.8961 55.5294 30.9439 54.7357 31.0517 53.9413C31.2763 52.3018 32.168 51.1317 33.6305 50.492C35.504 49.6723 38.1849 50.1066 38.3609 53.388C38.3746 53.6341 38.3771 53.8801 38.3779 54.1262C38.3844 56.1861 38.3876 58.2461 38.3957 60.306C38.3974 60.5822 38.4087 60.8584 38.4354 61.1338C38.4541 61.3204 38.5368 61.4818 38.7224 61.573C39.521 61.9658 40.2644 61.5266 40.2668 60.6343C40.2733 58.3593 40.2619 56.0843 40.2644 53.8084C40.2652 53.1883 40.1711 52.5813 40.0325 51.9824C39.551 49.8858 37.8007 48.4941 35.6718 48.4419C34.1518 48.4044 32.8652 48.939 31.7278 49.9151C31.5081 50.1042 31.363 50.4097 31.0169 50.4464C30.819 50.1514 30.9099 49.8369 30.9082 49.5419ZM64.6068 57.1476C63.2116 57.318 62.2161 58 61.7824 59.3974C61.39 60.6572 61.3122 61.9299 61.6957 63.1978C61.9729 64.1121 62.5015 64.8552 63.4516 65.1795C64.2704 65.4582 65.0989 65.5511 65.972 65.3906C67.5083 65.1086 68.3846 64.1846 68.7535 62.7073C69.0072 61.6936 68.8581 60.6914 68.6238 59.7046C68.212 57.9706 67.111 57.1208 65.3373 57.1428C65.0941 57.1428 64.8468 57.1183 64.6068 57.1476ZM21.2943 60.2872C21.2943 60.5635 21.3024 60.8397 21.3243 61.1143C21.3397 61.3025 21.4037 61.4956 21.6024 61.5535C22.0507 61.6839 22.5257 61.7287 22.9449 61.525C23.3064 61.3498 23.2035 60.9342 23.2043 60.6091C23.2124 58.3675 23.2083 56.125 23.2091 53.8834C23.2091 51.6116 23.2035 49.339 23.2148 47.0673C23.2189 46.2516 23.3137 46.1644 24.1058 46.1473C24.8078 46.1318 25.5107 46.1449 26.2136 46.1375C26.4535 46.1343 26.7454 46.1767 26.8905 45.9469C27.1539 45.5313 27.0883 45.0506 26.9829 44.6097C26.8937 44.2398 26.5216 44.2504 26.2192 44.2496C23.5918 44.2439 20.9643 44.2357 18.3377 44.2528C17.5984 44.2569 17.4525 44.4541 17.4525 45.216C17.4516 45.977 17.5822 46.1204 18.3515 46.1392C18.962 46.153 19.574 46.14 20.1845 46.1432C21.2781 46.1506 21.2838 46.1595 21.2919 47.2979C21.2935 47.482 21.2927 47.667 21.2927 47.8512V53.8386C21.2927 55.9881 21.2919 58.1377 21.2943 60.2872Z" fill="#1D6534"/>
</svg>
