<svg width="228" height="116" viewBox="0 0 228 116" fill="none" xmlns="http://www.w3.org/2000/svg">
<path d="M194.016 74.2004C193.493 73.6221 192.903 73.1179 192.261 72.6809C187.806 69.6497 181.63 70.5521 177.991 74.1757C175.231 76.9234 173.804 80.3439 173.833 84.2889C173.853 86.8486 174.369 89.3208 175.379 91.6659C176.767 94.8931 179.123 96.9671 182.699 97.4977C184.287 97.7335 185.865 97.6584 187.438 97.413C190.348 96.96 192.818 95.6965 194.747 93.4371C195.015 93.1228 195.177 92.4826 195.649 92.6274C196.099 92.7661 196.115 93.4 196.218 93.8521C196.502 95.0988 196.336 96.3305 196.057 97.5569C195.832 98.5449 195.66 99.5409 195.732 100.562C195.755 100.87 195.79 101.196 196.125 101.322C196.511 101.468 196.773 101.209 196.981 100.939C197.417 100.368 197.68 99.7104 197.847 99.0164C198.338 96.9848 198.85 94.9584 199.304 92.9197C200.281 88.5341 200.854 84.0894 201.003 79.604C201.147 75.26 201.015 70.9115 201.198 66.5656C201.314 63.8055 201.22 61.0375 201.281 58.2739C201.304 57.217 201.083 56.2741 200.496 55.4079C200.193 54.9611 199.905 54.5037 199.576 54.0773C198.248 52.36 196.434 51.5847 194.314 51.455C193.599 51.4108 192.899 51.5865 192.234 51.8373C191.32 52.1834 191.181 52.6575 191.72 53.4592C191.871 53.6826 192.042 53.8928 192.204 54.1082C192.937 55.0812 193.572 56.1116 194.079 57.2214C194.392 57.9048 194.662 58.6297 194.615 59.3617C194.553 60.3117 194.683 61.2441 194.687 62.1845C194.706 65.959 194.73 69.7345 194.745 73.5091C194.746 73.8729 194.82 74.2499 194.614 74.6799C194.305 74.5721 194.172 74.3726 194.016 74.2004ZM179.907 87.7086C178.648 84.9423 178.739 82.1416 180.622 79.5714C181.328 78.6072 182.283 77.9918 183.399 77.6386C184.774 77.2033 186.185 77.1406 187.594 77.47C189.422 77.8973 190.72 79.046 191.588 80.6468C192.727 82.7464 192.994 84.997 192.382 87.3068C191.717 89.8232 189.437 91.5944 186.818 91.7127C186.549 91.7251 186.279 91.7136 186.009 91.7136C183.024 91.8284 181.054 90.2267 179.907 87.7086ZM25.8033 74.5863C25.7343 73.947 25.429 73.4181 24.8185 73.1515C23.532 72.5899 22.2127 72.4928 20.8669 72.9493C20.4555 73.0879 20.1555 73.3334 20.0379 73.7607C19.753 74.7991 19.2867 75.7906 19.2203 76.8837C19.115 78.6169 18.4319 80.1488 17.548 81.6039C16.8109 82.8153 15.9704 83.9578 15.0546 85.0421C14.521 85.6743 14.4662 85.6751 13.9194 85.0465C12.1816 83.0466 10.8986 80.7457 9.55192 78.4862C8.82461 77.2651 8.2132 75.9884 7.78849 74.6313C7.48588 73.6618 7.26556 72.6756 7.48234 71.647C7.62479 70.9636 7.30449 70.4691 6.78511 70.0806C6.01797 69.5085 5.16058 69.12 4.23064 68.8895C1.98498 68.3342 -0.624332 70.3014 0.133954 72.9599C0.618833 74.6578 1.20899 76.2886 2.04691 77.8399C3.75726 81.0097 6.12946 83.7071 8.34857 86.5033C9.39266 87.8189 9.95805 89.1592 9.98813 90.8271C10.0182 92.5118 10.2739 94.1867 10.8756 95.7822C11.4693 97.36 11.7516 97.5348 13.4212 97.4262C14.368 97.3644 15.1705 97.0677 15.7819 96.2599C16.211 95.6912 16.6163 95.1244 16.9313 94.4851C18.247 91.816 19.8565 89.3226 21.5536 86.8848C21.9491 86.3162 22.1048 86.3197 22.5525 86.8292C23.2312 87.6 23.7408 88.4599 23.9178 89.4956C24.0478 90.2594 24.1912 91.0231 24.3726 91.7763C24.769 93.415 25.1698 95.0599 26.0413 96.5292C26.612 97.4907 27.2535 97.7026 28.3569 97.4713C29.8018 97.1675 30.5955 96.1327 31.1972 94.9381C32.5014 92.3458 33.8737 89.7923 35.262 87.245C36.6706 84.6598 38.2332 82.1778 40.1754 79.9599C41.553 78.3873 42.9475 76.8325 44.1774 75.1381C44.8445 74.219 45.3135 73.2239 45.4206 72.0849C45.5329 70.8965 45.2277 69.8978 44.1314 69.2277C42.713 68.3598 41.2212 68.2291 39.6516 68.6803C39.011 68.8639 38.5332 69.21 38.173 69.8096C36.4494 72.6782 34.9036 75.6228 33.7826 78.7908C32.9526 81.1359 31.3662 82.9804 29.4726 84.5582C28.8391 85.0871 28.74 85.0421 28.4392 84.2368C27.6942 82.2476 26.981 80.2459 26.2165 78.2646C25.9184 77.492 25.7193 76.7265 25.8122 75.8992C25.8122 75.4613 25.8502 75.0189 25.8033 74.5863ZM114.861 80.064C114.861 79.6932 114.847 79.3215 114.864 78.9515C114.951 76.9764 114.362 75.2123 113.102 73.7069C110.263 70.3172 106.625 68.9116 102.221 69.3813C100.783 69.535 99.4624 69.9888 98.1564 70.5539C95.4657 71.7167 93.5058 73.6071 92.3166 76.2912C91.8919 77.2492 91.5513 78.2355 91.2575 79.2385C91.131 79.6667 90.9071 79.9378 90.4515 80.0349C90.0214 80.1259 89.6091 80.2874 89.2322 80.5196C88.5004 80.9691 88.273 81.6233 88.5712 82.4259C88.7128 82.8082 88.9278 83.1517 89.1809 83.4704C89.7047 84.13 90.2302 84.7896 90.762 85.4438C90.9992 85.7352 91.1982 86.0371 91.2743 86.415C91.7981 89.0021 92.8891 91.3101 94.4951 93.423C95.8594 95.2171 97.5326 96.4532 99.7102 97.0307C103.351 97.9975 106.949 97.6805 110.485 96.5654C112.033 96.0753 113.484 95.308 114.595 94.0657C115.729 92.7952 115.719 91.477 114.679 90.1322C113.885 89.1063 111.843 88.5006 110.743 89.176C109.733 89.7958 108.701 90.3671 107.889 91.2474C107.536 91.6297 107.138 91.937 106.625 92.0465C104.678 92.4614 102.743 92.4844 100.836 91.8266C100.291 91.6385 99.7862 91.3666 99.3226 91.0214C98.4068 90.3406 97.9078 89.4065 97.6954 88.3116C97.5893 87.766 97.7069 87.6591 98.2812 87.7094C98.5157 87.7298 98.7457 87.7951 98.9802 87.8242C100.253 87.9814 101.526 88.1986 102.812 88.0732C104.423 87.9161 106.041 87.7995 107.634 87.4896C109.332 87.1603 110.998 86.7188 112.458 85.744C114.047 84.6845 115.075 83.323 114.778 81.271C114.72 80.8764 114.77 80.4667 114.77 80.0632C114.8 80.064 114.831 80.064 114.861 80.064ZM99.7057 82.403C99.3093 82.3014 98.9271 82.1822 98.5785 81.9703C97.8751 81.5447 97.5397 80.9258 97.66 80.1011C98.0414 77.4761 100.645 74.7125 103.422 74.7408C104.13 74.7487 104.839 74.7399 105.547 74.7479C107.049 74.7637 108.286 75.3942 109.328 76.429C111.135 78.2231 110.565 80.9938 108.206 81.9376C106.572 82.5928 104.862 82.6855 103.505 82.6193C101.988 82.5707 100.837 82.6899 99.7057 82.403ZM215.668 92.2848C214.328 92.2063 213.07 91.8716 211.959 91.0858C211.027 90.4271 210.493 89.5151 210.27 88.4167C210.163 87.8913 210.317 87.7218 210.841 87.7306C211.075 87.7342 211.307 87.8004 211.542 87.8295C212.815 87.9832 214.09 88.2004 215.377 88.0723C216.988 87.9116 218.609 87.8074 220.2 87.4843C221.86 87.147 223.506 86.7409 224.938 85.7829C226.547 84.7074 227.662 83.361 227.293 81.2419C227.238 80.9205 227.324 80.5717 227.358 80.238C227.557 78.3167 227.407 76.4307 226.369 74.762C223.9 70.7914 219.652 68.9875 215.326 69.3045C213.757 69.4193 212.275 69.8493 210.84 70.4753C208.024 71.7017 205.945 73.6627 204.757 76.519C204.407 77.3614 204.065 78.2072 203.85 79.0937C203.716 79.6455 203.436 79.9943 202.854 80.0799C202.689 80.1038 202.529 80.1726 202.373 80.2345C200.931 80.804 200.622 81.6851 201.415 83.014C201.92 83.858 202.586 84.5803 203.211 85.3326C203.495 85.6734 203.743 86.0151 203.835 86.468C204.36 89.0568 205.465 91.3622 207.078 93.4706C208.427 95.233 210.083 96.4373 212.219 97.0236C214.709 97.7088 217.219 97.7043 219.753 97.3432C221.68 97.0695 223.515 96.5336 225.211 95.5685C225.978 95.1323 226.698 94.6264 227.256 93.9342C228.258 92.6954 228.245 91.4302 227.236 90.1517C226.354 89.0347 224.598 88.5518 223.408 89.1398C222.346 89.6652 221.328 90.2806 220.522 91.1662C220.019 91.718 219.417 92.0173 218.699 92.1727C218.061 92.3105 217.422 92.2928 216.782 92.2884C216.411 92.2884 216.039 92.3069 215.668 92.2848ZM213.403 82.5804C212.652 82.5628 211.928 82.4012 211.261 82.0471C210.392 81.5836 210.059 80.9126 210.228 79.9546C210.737 77.0921 213.616 74.5298 216.214 74.7275C216.818 74.7735 217.429 74.7364 218.036 74.7452C219.611 74.769 220.911 75.433 221.98 76.5358C223.636 78.2443 223.076 80.9479 220.895 81.8758C219.927 82.2882 218.909 82.5345 217.855 82.5822C217.115 82.6157 216.372 82.5884 215.63 82.5884V82.5848C214.887 82.5848 214.145 82.5981 213.403 82.5804ZM68.5771 79.5784C68.5629 79.1431 68.4735 78.7087 68.4027 78.277C67.7666 74.4141 65.151 71.8288 61.2994 71.3008C60.4306 71.1816 59.559 71.0889 58.6972 70.9203C55.3199 70.2581 51.9416 69.5932 48.5608 68.9478C47.3167 68.7112 46.7646 69.2215 46.8938 70.4806C46.9947 71.4615 47.3574 72.3648 47.7644 73.2627C48.9041 75.7694 52.3221 76.8334 54.3731 76.0793C55.7003 75.5919 57.0939 75.2882 58.4574 74.8997C59.3387 74.6481 60.2483 74.5607 61.1508 74.4538C61.879 74.3673 62.2117 74.6754 62.2869 75.4056C62.3214 75.7403 62.3267 76.0784 62.3214 76.4157C62.3028 77.6951 62.3055 78.978 62.2373 80.2548C62.1984 80.9982 62.0268 81.0936 61.357 80.8428C60.2421 80.4243 59.0856 80.1762 57.9106 80.0552C55.0933 79.7665 52.3186 79.8274 49.6783 81.0741C48.4272 81.6648 47.3105 82.4136 46.5531 83.564C44.0075 87.4295 44.9162 92.1807 48.0609 95.0696C50.5702 97.375 53.7546 97.7105 56.9842 97.5339C58.8388 97.4324 60.6633 97.021 62.3612 96.2042C62.7461 96.0188 63.062 96.0532 63.3743 96.3481C63.6433 96.6024 63.9433 96.8241 64.2273 97.0616C65.2997 97.9569 66.5031 97.9851 67.763 97.5781C68.5948 97.3088 68.9655 96.7702 68.9186 95.9031C68.9044 95.6356 68.869 95.3628 68.7983 95.105C68.4541 93.8556 68.4098 92.5806 68.3983 91.2968C68.37 88.1968 68.4532 85.0995 68.5859 82.0039C68.5859 81.1951 68.6063 80.3854 68.5771 79.5784ZM53.4343 92.3475C52.0753 92.103 51.0232 91.5405 50.6029 90.119C50.1198 88.4847 50.4118 87.0481 51.6789 85.8765C52.5769 85.0465 53.7139 84.6871 54.8925 84.5203C56.3905 84.3075 57.8478 84.4991 59.2246 85.178C61.149 86.1263 62.0551 88.5853 61.0384 90.2982C60.2474 91.6324 58.9786 92.2999 57.4629 92.4862C56.9656 92.548 56.4542 92.4968 55.9481 92.4968C55.1057 92.5444 54.2714 92.4985 53.4343 92.3475ZM153.638 97.4253C156.956 97.1163 159.576 95.6453 161.143 92.6407C162.249 90.519 162.456 88.1871 162.261 85.8447C162.184 84.9149 161.93 83.9949 161.833 83.0528C161.694 81.7054 161.286 81.3258 159.906 81.1589C157.528 80.8719 155.145 80.6106 152.763 80.351C150.779 80.1347 148.81 79.8407 146.882 79.3144C145.68 78.9851 145.289 78.4748 145.248 77.2192C145.223 76.4687 145.337 75.7429 145.6 75.0375C145.917 74.1907 146.066 74.1033 146.944 74.2004C150.139 74.5518 153.283 75.1734 156.398 75.9513C159.065 76.6179 158.411 76.5614 160.236 74.9862C161.125 74.219 161.912 73.3122 162.411 72.2191C162.736 71.5075 163.055 70.7728 162.474 70.0285C161.894 69.2869 161.137 69.406 160.346 69.5659C156.658 70.3102 152.954 70.1256 149.252 69.6974C147.778 69.527 146.326 69.1694 144.827 69.225C142.391 69.3142 140.665 70.7693 140.276 73.1621C139.802 76.0749 139.808 78.9418 141.377 81.5977C141.444 81.7125 141.505 81.8423 141.526 81.9721C141.756 83.4457 142.777 84.0594 144.106 84.2872C146.901 84.7657 149.673 85.3767 152.489 85.7361C153.665 85.887 154.805 86.2305 155.881 86.7338C156.951 87.2335 157.318 87.9222 157.215 89.0912C157.149 89.8559 156.795 90.5004 156.405 91.1397C156.172 91.5246 155.863 91.7162 155.413 91.7127C154.163 91.7056 152.914 91.7401 151.667 91.597C149.684 91.3692 147.741 90.926 145.786 90.5463C144.696 90.3353 143.623 90.0148 142.487 90.0554C141.355 90.0952 140.406 90.4474 139.933 91.5396C139.428 92.7069 139.513 93.8485 140.356 94.8595C140.947 95.5676 141.658 96.1415 142.502 96.5221C144.338 97.3503 146.26 97.8271 148.251 97.8518C150.071 97.7088 151.858 97.5913 153.638 97.4253ZM75.2123 89.6537C75.2574 92.8711 77.4924 96.3711 81.0344 97.3079C83.3367 97.9171 85.6434 97.9189 87.9704 97.7511C88.7756 97.6929 89.5746 97.4651 90.2825 97.0474C91.899 96.0939 91.9963 94.2582 90.5107 93.1307C89.9905 92.736 89.4206 92.4544 88.7783 92.3316C87.221 92.0314 85.6531 91.8187 84.0719 91.6588C81.8112 91.4319 81.0131 90.6964 80.5601 88.6798C80.3885 87.9143 80.3805 87.1426 80.3805 86.3674C80.3823 84.2439 80.6707 82.131 80.6123 80.004C80.5663 78.3194 80.5831 76.632 80.5866 74.9465C80.5884 74.098 80.6291 74.053 81.4617 73.8729C82.8049 73.5824 84.1294 73.5188 85.423 74.1298C85.9699 74.3885 86.5583 74.5616 87.1254 74.7796C87.4449 74.9032 87.7696 75.0189 88.1111 74.9253C89.3605 74.581 90.3302 73.9046 90.6514 72.5793C90.9611 71.2982 90.7116 70.1265 89.618 69.3107C88.4633 68.4507 86.3804 67.6313 84.6347 68.9549C83.7242 69.6444 82.62 69.8873 81.5254 70.1124C80.9264 70.236 80.8043 70.1071 80.8477 69.4917C80.8574 69.3575 80.8954 69.2259 80.9114 69.0917C81.1742 66.9515 81.4166 64.8086 81.4228 62.6471C81.4237 62.0918 81.3547 61.5894 80.9202 61.1708C78.7675 59.0986 76.328 57.5252 73.3913 56.7985C72.7162 56.6325 72.0517 56.6255 71.4014 56.8859C70.6767 57.1747 70.4564 57.6841 70.7015 58.4275C70.8325 58.8258 71.1094 59.1242 71.374 59.4288C73.1834 61.5099 74.5053 63.8197 74.7655 66.6248C74.8681 67.732 74.9796 68.8392 75.0282 69.9491C75.0592 70.6378 74.8929 70.7675 74.2142 70.8285C74.0806 70.8408 73.9443 70.8373 73.8099 70.8391C71.7474 70.877 69.6928 70.787 67.6489 70.4965C66.5473 70.3393 65.9819 70.9706 66.2252 72.0611C66.3447 72.5997 66.6367 73.0517 66.995 73.4658C68.0311 74.6631 69.3291 75.4904 70.7395 76.1791C71.6571 76.6276 72.5375 76.6797 73.4444 76.1729C73.7674 75.9928 74.1195 75.8604 74.4664 75.7288C75.1804 75.4577 75.3043 75.5284 75.2211 76.316C74.9999 78.4015 75.1309 80.4923 75.0743 82.2802C75.0858 84.9397 75.1795 87.298 75.2123 89.6537ZM116.042 83.2338C116.042 85.6955 116.045 88.1562 116.04 90.6179C116.038 91.9052 116.212 93.1731 116.485 94.4269C116.696 95.4008 117.131 96.2528 117.875 96.9565C119.025 98.0434 121.725 97.8006 122.379 95.9102C122.623 95.203 122.763 94.4834 122.785 93.7346C122.872 90.8315 122.645 87.9372 122.475 85.0474C122.34 82.7597 122.384 80.4702 122.223 78.1816C122.084 76.1994 122.85 75.6131 124.85 75.8118C126.126 75.9381 127.392 76.1244 128.639 76.4502C129.881 76.7742 131.134 77.0559 132.394 77.2907C133.87 77.5662 135.304 77.4585 136.528 76.4634C137.263 75.8665 137.948 75.2043 138.455 74.3982C139.227 73.1727 139.611 71.8147 139.61 70.372C139.61 69.3804 139.079 68.9637 138.103 69.1129C137.402 69.2206 136.71 69.3919 136.046 69.6462C132.091 71.1666 127.914 71.5542 123.759 72.0611C123.165 72.1335 122.631 72.0204 122.123 71.6858C121.644 71.3706 121.12 71.1225 120.569 70.9512C118.896 70.432 117.547 70.9786 116.751 72.5361C116.27 73.4755 115.993 74.468 116.005 75.5469C116.031 78.1092 116.014 80.6715 116.014 83.2338H116.042ZM172.549 73.8799C171.587 72.4098 170.524 71.0157 169.316 69.7407C168.668 69.0546 167.931 68.4445 167.004 68.1496C165.715 67.7408 164.785 68.3933 164.702 69.7433C164.678 70.1513 164.749 70.5468 164.838 70.9433C165.308 73.0138 165.689 75.101 166.052 77.1927C166.654 80.6795 166.79 84.1459 165.821 87.6061C165.403 89.0965 165.163 90.6346 164.809 92.1427C164.629 92.9073 164.71 93.6128 165.092 94.2891C165.372 94.788 165.642 95.2957 165.957 95.7734C166.391 96.4311 166.962 96.9459 167.687 97.285C169.334 98.0522 171.078 97.4192 171.855 95.7787C172.277 94.8904 172.299 93.9739 172.197 93.015C171.941 90.6081 171.693 88.2127 171.771 85.7714C171.847 83.398 172.11 81.0785 172.623 78.7705C172.843 77.7852 172.991 76.7839 173.151 75.9063C173.11 75.0984 172.931 74.4618 172.549 73.8799ZM172.353 61.4287C172.376 59.0995 170.795 56.8956 168.184 56.8762C165.642 56.8577 163.685 58.6651 163.682 61.0684C163.679 63.5371 165.5 65.454 167.867 65.4734C169.648 65.665 172.327 63.9963 172.353 61.4287Z" fill="#2A8CD4"/>
<path d="M51.4219 50.1448C54.0613 49.7077 56.6971 49.328 59.3171 48.8459C63.0413 48.1599 66.7186 47.2831 70.3454 46.1945C75.8277 44.5478 81.1428 42.487 86.211 39.8258C91.0696 37.275 95.6494 34.3039 99.8283 30.7368C101.293 29.4874 102.694 28.1745 104.097 26.8589C108.287 22.9263 113.23 20.5777 118.951 19.8536C120.225 19.6921 121.513 19.527 122.78 19.542C124.629 19.564 126.485 19.685 128.327 19.9596C132.403 20.5662 136.286 21.7988 140.025 23.4887C141.13 23.9867 142.167 24.6348 143.224 25.2317C143.411 25.3367 143.705 25.4471 143.593 25.7482C143.511 25.9733 143.253 25.9345 143.059 25.9354C140.529 25.9557 138.318 26.8933 136.275 28.2946C135.039 29.1413 133.98 30.162 133.147 31.4228C131.68 33.6426 131.642 35.9135 132.867 38.2171C133.754 39.8832 135.054 41.2173 136.582 42.3025C139.482 44.3641 142.816 45.3292 146.264 45.9614C148.559 46.3817 150.868 46.6456 153.211 46.6333C154.252 46.628 155.291 46.8443 156.342 46.7887C161.409 46.522 166.431 46.0735 171.292 44.4162C175.351 43.0327 179.487 41.8884 183.704 41.0487C188.634 40.066 193.608 39.7199 198.619 39.9582C200.293 40.0377 201.976 40.209 203.645 40.5922C203.468 40.8015 203.258 40.7291 203.085 40.7096C197.875 40.1287 192.774 40.835 187.721 42.0305C182.981 43.1518 178.376 44.7261 173.759 46.258C170.102 47.4721 166.421 48.6005 162.624 49.3007C159.18 49.9346 155.717 49.9523 152.231 49.7024C149.465 49.5029 146.716 49.2088 144.005 48.6287C138.355 47.4173 133.094 45.3089 128.473 41.7683C125.99 39.8655 123.802 37.6449 122.021 35.1003C120.708 33.2258 118.942 32.7093 116.882 32.6696C116.113 32.6554 115.33 32.7782 114.571 32.9256C112.474 33.3326 110.465 34.0205 108.507 34.8769C104.511 36.6251 100.751 38.844 96.8164 40.7132C92.5755 42.728 88.3054 44.6776 83.8574 46.2015C78.8901 47.9038 73.813 49.1612 68.5961 49.788C66.5876 50.0291 64.5649 50.1527 62.5449 50.2922C60.2806 50.4494 58.0208 50.3761 55.761 50.4423C54.3055 50.4847 52.8756 50.1862 51.4219 50.1448Z" fill="#2A8CD4"/>
<path d="M61.5066 24.6449C59.368 25.0881 57.3709 25.896 55.4889 26.9873C51.164 29.494 47.6415 32.9118 44.4482 36.7032C42.5972 38.9008 40.9727 41.2654 39.3543 43.6317C37.728 46.0121 35.8841 48.2053 33.726 50.1125C31.4467 52.1273 28.8197 53.5595 25.9211 54.4998C25.5848 54.6093 25.1513 54.6075 24.8867 55.0596C25.1203 55.0878 25.2513 55.1117 25.3831 55.1187C28.6958 55.2909 31.9148 54.7709 35.0763 53.8173C40.0348 52.3216 44.5818 49.9623 48.936 47.2093C56.0765 42.6949 62.4515 37.2294 68.5037 31.3799C72.0474 27.955 75.4955 24.4312 78.9746 20.9409C80.4301 19.4805 81.9308 18.0758 83.5606 16.8105C85.7107 15.1409 88.036 13.7926 90.6329 12.9397C90.8656 12.8638 91.1196 12.6766 91.4036 12.9565C90.9939 14.1582 90.5896 15.3704 90.3108 16.6189C89.3402 20.9621 89.1217 25.3627 89.3048 29.7898C89.3526 30.9314 89.5234 32.0739 89.8437 33.1794C89.9994 33.7153 90.1587 33.7701 90.6568 33.5573C90.8417 33.4778 91.0125 33.3639 91.1895 33.2659C93.2405 32.1172 94.9181 30.4873 96.716 29.011C97.1744 28.6349 97.231 28.1616 97.1567 27.6433C97.0611 26.9741 96.993 26.303 97.0222 25.6276C97.116 23.407 97.2177 21.1864 97.5929 18.9879C98.8953 11.3681 102.498 5.28105 109.366 1.36432C109.539 1.26543 109.736 1.18332 109.757 0.941391C109.668 0.719772 109.459 0.686222 109.264 0.639427C107.981 0.329514 106.683 0.113194 105.363 0.0460892C101.242 -0.164936 97.208 0.355118 93.2422 1.47999C90.2746 2.32143 87.3874 3.36419 84.7144 4.91993C81.7759 6.62931 79.1967 8.77751 76.8758 11.2621C74.9115 13.3644 73.1171 15.5929 71.497 17.9636C70.145 19.9405 68.8567 21.9616 67.4782 23.92C64.8928 27.5912 62.0844 31.0903 59.0512 34.4049C55.3332 38.4664 51.4754 42.3788 47.0469 45.6916C43.8952 48.049 40.5869 50.123 36.868 51.4784C35.8814 51.8377 34.886 52.1882 33.5915 52.3375C33.9207 52.0938 34.0481 51.9905 34.1844 51.9004C36.4088 50.4277 38.5784 48.8772 40.7594 47.3409C45.1685 44.2338 49.1616 40.6747 52.7204 36.6255C55.2359 33.763 57.7788 30.9235 60.3006 28.0654C61.2774 26.9582 62.2268 25.8262 63.3567 24.5115C62.5666 24.5071 62.0375 24.5345 61.5066 24.6449Z" fill="#2A8CD4"/>
<path d="M172.409 38.1173C168.054 39.7313 163.526 40.3856 158.909 40.5154C157.391 40.5586 155.875 40.4536 154.357 40.3732C152.227 40.2602 150.116 40.0404 148.022 39.6722C145.783 39.2784 143.62 38.6435 141.716 37.3112C140.88 36.7267 140.299 35.9762 139.898 35.0641C139.707 34.6288 139.594 34.1714 139.568 33.6947C139.558 33.5295 139.558 33.3371 139.377 33.2594C139.142 33.1578 138.989 33.3379 138.863 33.4819C138.573 33.8103 138.291 34.1476 138.034 34.5017C136.648 36.4115 136.917 38.3672 138.747 39.8514C139.944 40.8209 141.309 41.4857 142.739 42.0102C146.927 43.5474 151.234 44.0401 155.689 43.6189C159.243 43.2834 162.703 42.608 166.075 41.461C168.447 40.6549 170.682 39.5689 172.693 38.0458C172.598 38.0696 172.5 38.0829 172.409 38.1173Z" fill="#002047"/>
<path d="M46.5994 115.743H44.6121L43.3486 113.297H35.9639L34.7013 115.743H32.7148L38.513 104.804H40.7994L46.5994 115.743ZM42.4664 111.664L39.6739 106.364L36.8469 111.664H42.4664Z" fill="#918F90"/>
<path d="M59.1633 104.804C60.2844 104.804 61.1727 105.115 61.8293 105.734C62.4849 106.353 62.8132 107.182 62.8132 108.218C62.8132 109.307 62.4716 110.138 61.7912 110.713C61.1099 111.287 60.118 111.574 58.8156 111.574H52.2901V115.744H50.4727V104.804H59.1633ZM58.8457 109.941C60.249 109.941 60.9506 109.378 60.9506 108.249C60.9506 107.041 60.2092 106.437 58.7244 106.437H52.2901V109.941H58.8457Z" fill="#918F90"/>
<path d="M79.0017 115.743H77.0144L75.7509 113.297H68.3662L67.1036 115.743H65.1172L70.9163 104.804H73.2017L79.0017 115.743ZM74.8687 111.664L72.0763 106.364L69.2502 111.664H74.8687Z" fill="#918F90"/>
<path d="M95.3066 115.743H93.1919L90.226 111.573H84.6924V115.743H82.875V104.804H91.5214C92.6717 104.804 93.5751 105.114 94.2316 105.733C94.8872 106.353 95.2146 107.191 95.2146 108.249C95.2146 109.176 94.9474 109.921 94.4121 110.485C93.9184 111.01 93.2371 111.342 92.3691 111.482L95.3066 115.743ZM91.2489 109.941C92.6522 109.941 93.353 109.377 93.353 108.25C93.353 107.041 92.5965 106.436 91.0817 106.436H84.6924V109.941H91.2489Z" fill="#918F90"/>
<path d="M110.721 106.436H105.481V115.743H103.666V106.436H98.4258V104.804H110.721V106.436Z" fill="#918F90"/>
<path d="M129.741 115.743H127.925V106.798H127.879L122.186 113.931L116.538 106.798H116.492V115.743H114.676V104.804H116.947L122.201 111.415L127.477 104.804H129.741V115.743Z" fill="#918F90"/>
<path d="M146.697 115.743H135.219V104.804H146.273V106.436H137.036V109.247H143.456V110.878H137.036V114.112H146.697V115.743Z" fill="#918F90"/>
<path d="M163.704 115.743H161.443L153.074 106.773V115.743H151.258V104.804H153.512L161.886 113.779V104.804H163.704V115.743Z" fill="#918F90"/>
<path d="M179.948 106.436H174.709V115.743H172.892V106.436H167.652V104.804H179.948V106.436Z" fill="#918F90"/>
<path d="M193.516 107.372C191.89 106.546 190.235 106.133 188.55 106.133C187.429 106.133 186.571 106.265 185.976 106.527C185.38 106.788 185.083 107.151 185.083 107.615C185.083 108.098 185.4 108.45 186.036 108.672C186.49 108.833 187.233 108.944 188.263 109.004C189.776 109.104 190.776 109.185 191.26 109.247C192.633 109.427 193.647 109.765 194.304 110.258C194.961 110.753 195.288 111.453 195.288 112.359C195.288 113.517 194.773 114.413 193.743 115.048C192.714 115.682 191.236 116 189.307 116C186.511 116 184.335 115.385 182.781 114.156L183.78 112.842C185.497 113.89 187.343 114.413 189.323 114.413C190.604 114.413 191.598 114.238 192.305 113.885C192.981 113.543 193.319 113.074 193.319 112.48C193.319 111.785 192.875 111.321 191.987 111.088C191.523 110.968 190.27 110.843 188.232 110.712C186.425 110.59 185.158 110.349 184.431 109.986C183.583 109.563 183.16 108.853 183.16 107.856C183.16 106.829 183.641 106.018 184.606 105.423C185.57 104.83 186.93 104.532 188.687 104.532C191.048 104.532 193.026 105.071 194.622 106.149L193.516 107.372Z" fill="#918F90"/>
</svg>
